<svg width="240" height="240" viewBox="0 0 240 240" fill="none" xmlns="http://www.w3.org/2000/svg">
<path d="M166.979 231.227L148.689 120.302L212.371 94.3139L142.099 80.336L132.683 23.2275L104.245 72.8063L21.5394 56.3551L76.0716 121.923L55.0921 158.499L93.4665 142.838L166.979 231.227Z" fill="#F8F4EB"/>
<path d="M128.137 20.7246C127.706 21.4745 127.27 22.2265 126.828 22.9814C126.545 23.4649 127.127 23.1329 126.585 23.957C126.303 24.3816 125.058 25.5091 124.481 26.499C122.467 29.9571 120.94 32.9535 118.834 36.6103C117.681 38.6101 115.997 41.6344 114.706 43.8691C114.136 44.8562 113.337 45.772 112.769 46.745C111.965 48.1252 112.549 48.0753 112.453 48.3027C112.031 49.3015 111.493 49.1761 110.994 50.0702C110.069 51.735 110.327 51.9948 109.098 54.0771C108.219 55.5651 106.007 58.8608 104.852 60.7108C103.952 62.6194 102.851 64.6755 101.698 66.7196C100.82 66.5969 99.9725 66.5202 99.1612 66.5116C97.2766 66.0589 99.2653 65.942 96.4266 65.4423C96.0557 65.6282 95.7056 65.8071 95.3195 65.9979C93.2409 64.4243 92.6179 65.0059 89.4048 64.6093C87.2317 64.3417 85.8863 63.7907 83.837 63.4384C83.3177 63.3493 83.3229 63.691 82.972 63.6103C81.7957 63.3412 78.513 62.2196 77.6792 62.0409C70.134 60.4166 63.62 59.1732 56.3855 57.8593C55.6082 57.7174 56.679 57.594 55.8742 57.4482C54.5803 57.2133 55.2363 57.8605 54.484 57.7362C52.3858 57.3867 52.4781 56.8606 49.5759 56.2548C41.1786 54.5024 31.5971 52.9024 22.6047 51.2138L8 48.1816L17.3897 59.6698C18.1984 60.6208 18.9972 61.5666 19.7824 62.5038C19.9837 62.746 19.7246 62.929 19.9409 63.1942C21.3566 64.9206 23.1368 66.3914 24.4295 67.953C26.5754 70.5431 27.8445 72.7646 29.9704 75.3182C34.1244 80.3105 38.013 84.6301 42.294 89.7577C45.7982 93.9538 48.8012 97.6305 52.6354 102.238C58.2533 108.99 63.82 115.859 69.3907 122.76C69.3811 122.778 69.3724 122.797 69.3628 122.815C68.3861 124.67 68.778 122.805 67.4404 125.296C67.386 125.399 67.5432 125.968 67.2242 126.484C66.2945 127.991 66.0914 127.679 64.8314 129.939C64.7116 130.157 63.3554 133.327 63.187 133.624C62.1938 135.368 60.3052 138.941 59.6393 139.931C57.2608 143.47 58.3705 140.265 57.7747 144.059C56.6892 145.277 55.6067 146.482 54.482 147.787C55.308 146.958 53.4208 151.132 53.2363 151.396C51.7152 153.589 52.0343 151.959 50.4369 154.922C52.1222 153.252 51.5516 154.3 50.4589 155.946L42.8182 169.017L57.1359 163.307C58.9427 162.701 61.4643 161.952 62.3669 161.6C71.2722 158.129 79.1952 154.568 88.0893 150.947C89.0677 150.549 90.1667 150.133 91.3122 149.706C95.1561 154.34 99.0312 158.939 102.959 163.471C103.399 163.978 103.443 163.594 103.564 163.759C104.714 165.33 104.53 165.699 105.59 165.738C107.053 167.741 107.089 168.712 109.036 170.987C110.074 172.2 110.031 170.71 111.386 173.081C112.609 175.222 110.496 173.47 115.533 178.72C115.668 178.859 116.709 179.236 117.558 180.484C118.413 181.738 116.978 180.642 119.214 183.52C124.465 190.275 131.77 198.3 138.014 206.041C138.407 206.528 142.01 211.33 142.66 212.327C143.916 214.257 143.284 214.15 145.109 216.504C146.52 218.322 148.102 219.488 149.759 221.628C149.952 221.877 149.91 222.586 151.261 224.109C152.608 225.628 155.309 229.416 157.333 231.078C157.831 231.486 160.401 232.117 160.56 231.981C161.067 231.497 159.502 229.466 161.614 231.294C161.027 230.58 160.474 229.874 159.897 229.161C160.369 228.994 160.841 228.827 161.307 228.656C161.966 229.559 162.625 230.463 163.283 231.367C163.439 231.312 163.596 231.257 163.753 231.202C161.188 228.113 163.172 229.56 162.278 227.61C163.725 228.908 165.181 230.218 166.624 231.51C165.892 230.684 165.04 229.7 164.386 228.977C164.925 228.38 166.26 230.283 166.63 230.497C168.714 231.698 161.093 223.192 161.402 221.751C162.668 223.071 163.989 224.463 165.28 225.816C165.05 225.316 164.815 224.81 164.585 224.31C161.258 221.56 158.005 218.093 154.467 214.617C154.208 214.254 153.95 213.89 153.695 213.534C154.059 213.409 154.418 213.28 154.782 213.156C154.386 212.613 153.983 212.064 153.587 211.521C153.927 213.782 152.187 211.665 149.506 209.572C150.306 211.185 151.892 212.697 151.19 213.066C147.793 208.048 142.609 203.135 139.378 198.196C138.575 196.97 139.36 196.349 137.095 193.769C137.083 193.927 136.941 194.067 136.876 194.215C133.457 189.354 131.379 186.408 127.054 181.972C127.563 182.022 128.069 182.065 128.578 182.114C129.275 183.232 129.97 184.354 130.663 185.466C131.696 185.78 131.06 184.605 133.552 187.611C135.594 190.073 134.172 188.773 134.59 189.551C135.156 190.607 136.186 191.108 136.787 192.25C137.252 193.131 136.192 192.622 137.923 194.509C137.762 193.323 137.604 192.108 137.444 190.912C136.934 190.522 136.424 190.136 135.913 189.747C136.183 190.337 136.449 190.919 136.719 191.509C135.538 189.613 134.422 187.821 133.201 185.859C132.961 187.006 131.714 184.967 130.975 183.909C129.825 182.261 130.43 183.976 129.671 182.9C128.914 181.822 128.558 180.291 126.92 178.557C127.415 179.792 126.021 178.688 125.94 179.18C125.86 179.674 127.403 181.66 125.536 180.059C122.811 176.293 127.156 179.271 125.332 176.715C123.141 173.643 120.739 174.415 121.064 175.592C121.32 176.519 123.326 178.807 123.587 179.738C119.548 175.995 120.617 175.081 120.236 174.193C118.854 170.967 118.219 174.382 116.412 170.698C116.07 171.068 115.757 171.395 115.431 171.752C115.06 171.163 114.861 170.735 114.384 170.048C116.72 171.334 115.398 169.809 114.738 169.012C113.698 167.757 115.678 169.397 115.498 168.989C115.01 167.889 113.716 166.566 114.773 167.167C114.293 166.901 113.785 166.604 113.298 166.327C112.274 164.707 111.041 159.965 113.436 163.503C113.787 162.714 112.615 161.886 111.836 161.133C111.056 160.379 111.454 160.088 110.778 159.418C108.089 156.754 109.003 159.172 108.867 160.043C106.047 155.94 109.391 159.49 105.053 153.797C105.032 152.929 107.596 155.112 106.078 152.801C105.022 152.995 103.2 151.856 100.43 149.011C100.353 148.582 100.278 148.152 100.201 147.722C99.2711 147.216 98.7631 147.225 98.3261 147.043C99.0218 146.752 98.3765 146.711 99.0127 146.445C99.6554 146.178 99.0676 146.768 99.796 146.452C104.329 144.481 107.676 142.456 112.167 141.447C112.328 141.262 112.288 141.185 112.579 140.935C116.277 140.164 122.525 136.622 124.959 135.492C128.767 133.726 129.941 133.746 132.727 132.509C136.41 130.871 141.659 127.754 139.74 130.146C142.318 129.144 144.788 128.15 147.319 126.968C147.601 126.836 147.255 126.568 147.367 126.513C148.075 126.166 148.445 126.381 148.944 126.194C149.113 126.131 149.224 126.083 149.294 126.048C149.637 127.824 150.091 129.241 149.332 129.16C149.63 129.725 149.93 130.291 150.229 130.855C149.648 131.216 150.027 132.401 150.479 134.524C150.09 134.083 149.697 133.59 149.312 133.19C150.089 135.201 150.655 138.896 151.177 141.023C151.407 141.957 151.704 140.941 151.804 141.214C152.32 142.612 151.984 145.493 152.142 146.06C153.083 149.449 154.951 151.452 154.583 155.372C153.699 151.527 154.15 153.623 153.374 152.328C153.13 151.92 151.944 146.965 153.139 153.22C153.282 153.957 156.197 165.189 156.373 161.317C156.424 163.202 156.369 164.693 156.378 166.425C159.152 170.226 156.951 169.107 155.671 168.078C155.778 168.756 155.873 169.403 155.988 170.1C156.88 168.438 158.197 175.979 158.046 178.633C157.996 179.521 157.236 177.178 157.392 179.191C157.627 180.124 157.907 181.18 158.161 182.165C157.203 180.83 157.394 183.717 156.656 183.794C157.608 185.508 159.219 186.679 159.803 185.562C159.748 187.112 159.694 188.671 159.637 190.221C159.348 189.551 159.06 188.871 158.771 188.201C160.04 193.038 160.035 199.518 161.742 200.301C161.838 200.954 161.938 201.613 162.034 202.265C161.807 202.508 161.579 202.743 161.352 202.985C162.063 205.893 162.774 208.795 163.485 211.704C163.214 209.057 163.48 208.374 162.726 205.673C163.2 206.685 163.679 207.717 164.149 208.709C164.027 212.975 163.592 213.623 164.858 219.816C164.915 220.096 166.365 224.694 166.459 224.848C166.88 225.538 167.132 224.351 167.338 224.654C167.595 225.031 168.131 226.311 168.66 227.6C167.217 225.982 165.771 224.36 164.329 222.744C165.285 224.225 166.242 225.708 167.192 227.184C167.757 227.506 168.32 227.824 168.884 228.145C169.456 229.546 169.969 230.806 170.039 230.741C171.792 229.072 168.743 210.418 168.013 205.357C164.054 177.915 159.473 150.895 154.812 123.921C171.537 117.128 189.609 109.641 206.699 102.613C207.882 102.127 207.245 102.782 208.721 102.154C210.371 101.453 212.42 100.529 214.591 99.5399L232 92.5711L213.52 88.7665C208.536 87.9804 202.94 87.1371 199.748 86.4442C195.043 85.4227 196.216 85.1115 193.306 84.3046C192.745 84.1487 193.151 84.5394 192.633 84.4413C189.155 83.7779 184.919 83.4202 182.091 82.9305C180.221 82.6074 180.467 82.167 179.184 81.8768C177.271 81.4456 175.192 81.5267 174.163 81.3378C169.325 80.445 166.088 79.4034 161.543 78.702C161.74 78.6338 161.877 78.5612 162.047 78.4891C156.854 77.4731 151.667 76.4572 146.474 75.4413C146.466 75.3902 146.457 75.3391 146.448 75.288C146.58 75.2653 146.712 75.2432 146.846 75.2206C146.702 75.1932 146.561 75.1694 146.424 75.1444C145.008 66.7465 143.613 58.3314 142.261 49.8876C142.177 49.3531 142.506 49.5398 142.481 49.3105C142.321 47.884 141.638 46.5662 141.532 46.0458C141.309 44.9341 141.831 45.4827 141.697 44.666C140.443 37.0863 139.056 29.9209 137.83 22.4121L135.578 8L128.137 20.7246ZM164.377 215.384C164.443 215.072 165.02 215.077 165.226 215.855C165.713 217.698 166.04 220.414 166.416 222.461C165.75 222.4 165.066 217.155 164.377 215.384ZM163.11 211.73C163.034 211.388 161.96 208.646 161.808 209.024C162.55 212.41 162.849 211.738 162.718 215.02C162.958 215.161 163.187 215.278 163.43 215.432C163.358 214.312 163.454 213.605 163.228 212.315L163.11 211.73ZM140.457 197.426C143.333 200.836 146.212 204.245 149.089 207.653C149.091 207.655 149.093 207.657 149.094 207.659C149.488 207.474 148.557 206.178 150.019 207.312C149.142 206.26 148.264 205.21 147.383 204.153C147.611 204.488 147.845 204.828 148.073 205.163C147.732 204.979 147.389 204.796 147.048 204.612C147.115 203.936 146.607 203.764 145.561 202.759C146.219 202.742 146.876 202.724 147.534 202.707C146.345 201.518 145.151 200.324 143.962 199.135C143.847 199.201 143.732 199.266 143.617 199.332C143.345 198.743 143.077 198.159 142.804 197.571C142.573 197.536 142.347 197.505 142.116 197.47C141.722 196.812 141.327 196.154 140.934 195.495C140.492 195.552 141.436 196.941 139.612 194.598C139.892 195.54 140.172 196.48 140.457 197.426ZM134.517 195.791C135.554 197.505 138.303 200.454 137.01 200.189C137.012 200.191 137.013 200.193 137.015 200.195C136.933 200.173 134.395 197.587 134.312 197.056C134.31 196.567 134.449 196.213 134.517 195.791ZM134.259 194.445C132.028 191.485 131.447 190.266 133.398 191.382C134.094 192.5 134.793 193.625 135.488 194.743C135.077 194.642 134.666 194.541 134.259 194.445ZM133.213 182.832C131.277 180.872 130.078 180.141 129.446 180.418C129.885 180.715 130.326 181.011 130.769 181.313C130.771 181.315 130.772 181.317 130.773 181.319C131.022 181.795 131.272 182.272 131.518 182.742C131.92 182.824 132.318 182.906 132.72 182.988C133.723 184.571 134.734 186.161 135.736 187.745C136.203 187.082 133.964 184.59 133.213 182.832ZM117.277 175.286C117.968 174.612 118.859 176.556 121.064 178.792C121.407 179.137 124.318 180.769 124.297 182.152C124.287 182.43 122.088 179.983 123.129 182.076C122.456 181.334 121.912 180.665 121.289 179.953C121.066 180.043 120.843 180.134 120.615 180.219C121.428 181.066 122.235 181.906 123.047 182.753C121.589 182.081 119.038 179.405 118.475 177.551C119.148 178.223 119.822 178.896 120.496 179.568C119.42 178.14 118.365 176.721 117.277 175.286ZM126.692 177.987C127.427 178.863 128.169 179.744 128.904 180.621C129.173 180.748 129.435 180.869 129.704 180.996C129.132 179.945 128.555 178.889 127.983 177.839C127.555 177.891 127.124 177.941 126.692 177.987ZM112.171 158.174C110.228 155.79 106.252 151.322 107.799 154.556C111.125 158.378 113.335 162.138 116.713 165.796C115.079 165.419 116.482 167.647 118.413 170.674C118.47 169.054 116.197 165.869 119.676 168.493C119.601 168.982 119.53 169.478 119.455 169.967C120.617 170.915 121.785 171.87 122.945 172.818C123.172 173.312 123.398 173.805 123.626 174.298C124.559 174.412 125.489 174.519 126.423 174.633C125.969 174.233 125.507 173.829 125.052 173.429C123.954 171.291 122.725 169.59 120.756 167.07C121.055 167.191 121.353 167.312 121.652 167.433C120.411 166.347 119.17 165.262 117.934 164.18C118.633 165.419 119.416 166.802 120.062 167.951C117.941 166.98 116.032 163.806 114.974 162.205C113.534 160.024 113.535 160.775 112.457 159.165C112.285 158.908 112.556 158.646 112.171 158.174ZM118.413 170.678C118.415 170.68 118.417 170.682 118.419 170.683C118.417 170.68 118.415 170.677 118.413 170.674V170.678ZM118.628 162.995C119.399 164.096 120.171 165.199 120.946 166.305L120.948 166.304C122.865 167.539 117.9 162.27 121.763 165.317C121.178 164.506 120.591 163.688 120.005 162.877C119.548 162.918 119.086 162.953 118.628 162.995ZM98.2504 152.522C89.4444 142.664 94.8589 147.211 99.7502 153.412C100.029 153.426 100.304 153.433 100.582 153.448C102.561 156.39 104.375 159.113 103.508 159.604C102.235 158.247 103.176 158.512 102.781 157.873C101.286 155.456 99.7454 154.223 98.1567 151.925C98.1914 152.133 98.2215 152.326 98.2543 152.528C98.2528 152.526 98.2519 152.524 98.2504 152.522ZM56.1572 155.879C56.2493 155.787 55.982 157.028 56.7452 156.031C57.6383 156.231 58.9535 156.404 55.0062 158.012C54.9731 158.044 54.9455 158.073 54.9225 158.099L55.0819 158.274C55.5905 158.163 56.7101 157.658 56.7602 157.675C57.1273 157.83 56.3434 158.414 55.2843 158.951L53.9389 159.487L54.6564 158.259C55.0632 157.387 55.6361 156.427 56.1572 155.879ZM55.4766 158.711C55.487 158.516 55.4354 158.491 55.345 158.564L55.4766 158.711ZM55.0042 158.292L55.2922 158.609C55.3102 158.59 55.3292 158.577 55.345 158.564L55.0819 158.274C55.0539 158.28 55.0283 158.288 55.0042 158.292ZM73.3281 127.635C72.9701 128.34 71.56 130.995 73.4358 127.768C78.5957 134.164 83.7709 140.567 89.0012 146.912C88.6864 147.434 87.9251 148.074 86.154 148.768C86.168 148.519 86.0727 148.147 86.0444 147.851C85.2093 148.342 84.3814 148.836 83.5539 149.327C83.3124 149.2 83.0626 149.077 82.8205 148.949C84.3059 148.255 85.7867 147.562 87.2721 146.868C85.9837 147.316 84.687 147.768 83.3985 148.217C84.9097 147.232 85.6498 146.926 84.4449 146.828C83.0047 147.38 81.5619 147.932 80.1218 148.484C79.9201 148.415 79.7185 148.345 79.5168 148.276C80.0449 147.61 80.5837 146.949 81.1094 146.277C77.5237 148.109 74.2975 149.446 71.7635 151.366C71.3315 151.692 73.2639 151.49 69.7574 152.391C69.8188 152.677 69.8216 152.929 69.8681 153.197C65.4941 154.111 64.2547 154.877 60.2512 157.139C62.7784 155.521 60.4718 156.844 59.6602 156.861C59.105 156.871 60.9805 156.138 60.6886 156.03C60.3958 155.924 57.6417 156.138 59.6751 155.199C65.4328 154.714 66.0102 152.249 72.8637 150.348C71.7717 150.554 70.6721 150.761 69.58 150.967C69.9943 150.635 70.3648 150.336 70.8138 149.979C67.3044 151.776 68.989 150.851 67.3886 151.217C65.7865 151.583 62.976 152.486 61.1232 153.163C60.5395 153.376 61.2969 153.485 60.014 154.048C59.5194 154.265 58.4594 154.506 57.5793 154.828C58.9395 152.711 59.4028 151.068 59.8436 149.219C60.6054 149.374 62.7643 147.382 64.2514 144.241C64.5244 144.189 64.7951 144.146 65.0696 144.094C64.7038 144.508 64.3391 144.922 63.9733 145.335C63.7972 145.908 63.5719 146.494 63.4232 147.067C65.3179 144.129 66.4546 144.191 67.6128 142.92C71.5743 138.567 67.4933 140.279 66.5734 140.951C66.3674 141.687 66.1927 142.413 65.9984 143.147C65.8141 142.952 65.6284 142.755 65.4393 142.565C69.7099 135.136 64.6272 140.628 66.3731 136.625C68.0377 136.263 69.7349 133.551 71.057 129.634C71.2866 129.246 71.5126 128.854 71.7436 128.468C71.9424 128.491 72.1891 128.629 72.3565 128.581C72.6396 128.134 72.8759 127.714 73.075 127.322C73.1592 127.426 73.244 127.53 73.3281 127.635ZM104.606 155.994C104.446 156.201 104.282 156.408 104.121 156.615C103.173 155.138 102.22 153.656 101.271 152.178C102.381 153.449 103.497 154.724 104.606 155.994ZM80.4118 148.723C84.0465 148.069 81.1042 149.608 77.6722 150.97C80.0577 150.824 76.8249 151.697 76.568 152.489C78.8703 151.965 86.1286 148.656 83.0935 151.003C82.0134 151.837 79.0508 151.177 76.1136 153.756C75.1453 153.739 74.4892 153.613 73.6391 153.556C73.3883 154.098 73.0835 154.666 72.8508 155.197C72.8487 155.198 72.8469 155.199 72.8448 155.2C69.6737 156.346 71.4954 155.052 71.2563 154.683C71.153 154.532 68.9565 155.752 69.5272 155.098C70.5146 153.974 75.328 152.424 75.0223 151.67C73.4876 152.583 70.2016 153.685 70.9354 152.799C71.739 151.827 75.145 151.515 76.8719 150.276C74.6294 152.597 80.1563 149.907 80.4118 148.723ZM106.499 152.305C106.907 151.674 107.545 152.447 109.024 153.447C107.977 152.224 106.927 151.002 105.884 149.785C106.091 150.627 106.292 151.463 106.499 152.305ZM80.4028 145.323C76.0737 146.165 74.7221 146.521 70.1062 149.039C70.8855 148.983 71.6649 148.927 72.4442 148.871C73.1475 148.316 73.8456 147.766 74.5489 147.212C74.5512 147.211 74.5537 147.21 74.5559 147.209C74.8176 147.383 75.08 147.558 75.3352 147.734C77.0219 146.931 78.7161 146.126 80.4028 145.323ZM149.771 141.279C150.071 143.641 150.371 146.011 150.671 148.373C151.244 147.607 150.534 142.746 149.935 140.369C149.882 140.672 149.826 140.976 149.771 141.279ZM107.622 75.5399C108.361 75.391 110.996 76.1702 111.57 76.2352C113.995 76.5134 115.659 76.8808 117.845 77.1571C118.271 77.21 119.533 77.0074 119.636 77.0135C120.426 77.0931 122.382 77.2615 122.601 77.2987C133.885 79.2045 121.508 78.7113 131.979 80.5868C131.615 80.774 131.276 80.9646 130.919 81.1532C131.704 81.3251 132.497 81.4979 133.282 81.6698C134.324 81.6601 133.194 81.0408 135.114 81.7411C135.049 81.4081 134.983 81.0748 134.91 80.7421C135.739 81.0796 136.538 81.4093 137.387 81.7508C138.327 81.2888 140.463 81.3565 142.057 81.2294C142.649 81.3477 143.227 81.4477 143.844 81.6112C143.825 81.8094 143.818 82.0032 143.817 82.1932C143.613 82.1493 143.411 82.1054 143.215 82.0643C143.212 82.0633 143.21 82.0625 143.208 82.0614C142.658 82.1231 143.556 82.5882 142.725 82.5702C141.894 82.5503 140.48 81.9498 140.73 82.4823C141.761 82.7501 142.841 83.0359 143.893 83.3114C143.895 83.3218 143.896 83.3323 143.897 83.3426C140.225 83.4443 136.911 82.0235 136.645 83.036C139.38 83.3592 141.685 83.8541 144.129 84.5126C144.313 85.2885 144.52 86.0292 144.588 86.786C144.732 88.4081 144.078 87.8857 144.176 89.8036C144.195 90.1585 144.66 90.8305 144.547 91.7293C144.434 92.6369 143.056 96.1369 144.783 96.2557C145.058 97.8708 145.371 99.3912 145.66 100.97C145.5 99.4121 145.335 97.8543 145.176 96.3036C145.796 97.5542 146.414 98.7971 147.034 100.048C146.702 100.272 146.363 100.498 146.035 100.716C146.181 104.327 147.193 106.804 147.643 110.401C147.718 111.001 146.775 109.706 147.393 112.326C147.801 114.056 148.657 115.41 149.26 117.451C148.899 117.611 148.507 117.783 148.084 117.972C148.47 117.824 148.882 117.693 149.298 117.576C149.528 118.381 149.719 119.294 149.826 120.377C149.746 120.402 149.663 120.429 149.577 120.459C148.328 120.895 147.189 122.454 145.569 122.37C145.28 122.35 147.065 120.286 142.315 122.283C138.627 123.834 140.511 124.01 138.629 125.112C136.747 126.215 131.689 126.969 130.876 128.786C131.854 128.19 133.153 127.554 134.259 126.941C134.838 126.994 135.402 127.05 135.974 127.104C133.175 127.873 130.582 129.371 128.54 129.515C125.369 131.864 121.042 132.651 121.686 131.198C122.917 130.867 121.834 131.828 123.338 130.884C123.404 130.579 123.479 130.272 123.545 129.968C120.792 131.125 118.869 131.902 120.436 132.108C120.015 132.3 119.597 132.491 119.175 132.683C118.877 132.193 118.586 131.697 118.287 131.207C117.75 131.357 117.211 131.509 116.674 131.659C116.153 132.006 115.632 132.355 115.105 132.706C116.231 133.215 117.562 132.704 113.392 134.947C113.258 134.667 113.119 134.391 112.985 134.111C109.484 135.965 109.681 136.695 105.081 138.542C109.022 138.095 110.203 135.554 111.034 137.546C111.862 137.055 112.697 136.559 113.525 136.068C113.782 136.301 114.037 136.536 114.287 136.771C109.48 138.555 100.796 139.876 98.1547 142.428C97.7056 142.432 97.2627 142.455 96.8023 142.45C95.8702 143.128 95.0182 143.447 94.1953 143.661C93.9553 143.442 93.6889 143.213 93.3901 142.982C92.8001 142.526 93.5526 144.071 92.7423 143.421C92.6095 143.314 92.4638 143.107 92.2879 142.854C94.1709 142.438 96.9185 141.566 98.0969 140.954C97.8411 140.776 97.7241 140.568 97.2488 140.437C96.3088 141.277 94.0944 141.831 92.4862 142.185C92.5273 142.031 92.5693 141.878 92.6088 141.724C92.0172 140.733 91.4225 139.74 90.8309 138.749C90.7111 139.081 90.5919 139.414 90.4721 139.746C91.1136 140.567 91.7522 141.385 92.3935 142.206C92.2203 142.244 92.0547 142.279 91.8992 142.312C91.6545 141.988 91.3618 141.647 90.9993 141.361C90.5568 141.013 88.3238 139.517 87.4715 137.928C89.0504 138.332 87.5304 135.233 89.9968 136.963C86.4275 132.976 84.3947 129.814 87.2054 135.23C86.112 134.368 85.0188 133.504 83.9267 132.64C83.5002 131.771 83.0671 130.897 82.6351 130.024C81.9296 130.404 81.8493 130.652 79.5756 127.702C80.4642 129.06 81.3458 130.416 82.2375 131.78C82.1488 131.921 82.1641 132.197 82.0093 132.252C80.9741 130.536 77.4979 126.152 76.7932 124.978C76.0892 123.805 77.8079 125.782 77.717 125.356C77.5199 124.454 77.3208 123.844 77.1131 123.403C77.3073 122.79 77.5473 122.172 77.9114 121.554C79.6997 118.525 81.5965 117.527 80.6131 116.214C79.2114 118.077 77.3593 121.166 76.8351 122.914C76.7141 122.738 76.5901 122.597 76.4604 122.471C77.701 120.371 77.8475 119.748 77.8835 119.304C78.0067 119.258 78.1297 119.212 78.2532 119.168C78.146 119.049 78.0395 118.929 77.9323 118.81C78.0291 118.282 78.418 117.4 80.3081 114.571C80.5427 114.583 80.918 114.384 81.0635 114.526C81.7313 111.88 79.4394 115.285 79.0285 115.536C77.8802 116.236 79.4155 113.121 77.5416 116.898L77.5406 116.897C77.3653 117.25 77.2092 117.565 77.0673 117.85C76.9808 117.754 76.8936 117.659 76.8072 117.563C77.5277 116.111 77.6967 115.218 78.8332 113.589C80.3418 111.427 79.7886 113.168 80.4875 112.643C81.0459 112.221 82.1175 110.45 82.7916 109.846C82.4192 110.028 82.0321 110.246 81.6595 110.427C82.7339 107.917 83.568 105.841 85.0359 103.127C88.2579 100.927 87.2193 96.9729 88.6594 99.1375C87.3447 101.749 86.7636 103.295 86.5048 104.937C87.5255 103.31 88.5455 101.68 89.5663 100.053C89.6211 99.4439 89.6012 98.9788 89.7028 98.2791C90.8911 97.2971 92.3414 94.3011 93.13 93.2459C96.8239 88.3045 96.6937 90.3906 98.1079 84.8016C95.9746 88.2164 95.3158 87.8464 93.423 91.3553C93.3791 90.3488 94.4847 88.6454 93.2665 89.4706C95.325 86.2017 95.2104 87.5611 96.4057 86.5067C97.437 85.5964 98.7567 83.3462 99.1861 83.7508C99.0424 83.3673 98.8775 83.0408 98.7337 82.6581C99.9797 80.4922 101.223 78.3249 102.469 76.1591C101.65 76.924 100.831 77.6883 100.014 78.454C100.306 77.6956 100.599 76.936 100.89 76.1776C101.035 76.0002 101.18 75.8155 101.324 75.6249C103.306 76.1057 105.989 76.4207 107.394 76.5165C109.066 76.6302 107.401 75.5832 107.622 75.5399ZM150.985 125.229C151.379 126.635 151.916 128.714 152.32 128.874C152.137 128.862 151.915 128.655 151.716 128.569C151.738 129.226 151.761 129.89 151.785 130.553C152.106 130.565 152.428 130.58 152.748 130.592C152.634 134.409 151.769 136.51 153.065 141.934C152.358 140.463 151.65 138.992 150.945 137.527C151.193 137.054 151.443 136.58 151.691 136.114C151.148 133.606 150.604 131.09 150.06 128.582C150.353 128.109 150.646 127.643 150.939 127.17C150.795 126.562 150.652 125.959 150.508 125.352C150.661 125.312 150.816 125.271 150.985 125.229ZM104.948 136.43C100.278 139.138 98.0911 138.092 99.3625 140.129C102.325 139.032 100.752 139.147 100.873 138.588C100.993 138.982 106.238 137.816 106.78 137.351L106.781 137.352C108.236 136.094 103.038 138.121 104.948 136.43ZM88.7879 132.126C89.0995 132.754 89.39 133.466 89.6938 134.126C92.0026 136.226 92.2156 137.118 93.4638 139.285C93.7941 138.96 94.1232 138.637 94.4534 138.312C94.4554 138.314 94.4574 138.316 94.4594 138.317C94.904 138.785 95.3619 139.199 95.7988 139.7C94.614 137.588 93.7552 137.79 92.541 135.981C91.3282 134.172 90.8106 132.868 88.7879 132.126ZM73.8623 130.444C73.2298 130.096 72.1956 130.597 70.5009 132.734C70.3862 133.232 70.2682 133.735 70.1521 134.232C71.3895 132.965 72.6269 131.704 73.8623 130.444ZM118.323 130.661C117.614 130.44 115.986 129.228 113.02 131.01C112.739 131.178 114.829 131.615 113.151 132.506C114.916 131.922 116.603 131.278 118.324 130.663L118.323 130.661ZM69.024 128.124C71.0187 127.056 68.9488 129.469 68.9652 130.368C69.3888 129.861 69.8166 129.339 70.2368 128.838C68.6038 132.366 68.072 132.719 68.0075 131.07C68.0064 130.954 68.9252 129.692 68.8874 129.499C68.8489 129.306 67.4946 130.017 69.024 128.124ZM132.333 129.954C133.472 128.021 137.179 127.452 136.777 128.128C135.654 128.56 134.832 128.676 133.62 129.25L133.619 129.249C133.487 129.311 132.424 130.536 132.333 129.954ZM146.399 118.847C140.492 121.367 142.386 119.515 138.501 120.27C137.987 121.112 142.055 120.878 139.757 122.112C135.367 123.234 131.153 124.331 126.394 125.841C126.489 125.693 126.583 125.545 126.678 125.397C127.432 125.158 128.181 124.921 128.936 124.682C128.043 124.754 127.168 124.822 126.261 124.896C127.512 125.05 124.802 125.784 125.422 126.294C125.698 126.52 127.008 126.457 127.798 126.46C126.127 127.318 124.407 128.182 122.716 129.044C123.723 128.904 124.729 128.764 125.729 128.627C126.474 128.331 127.213 128.036 127.958 127.74C127.962 127.737 127.966 127.734 127.97 127.731C127.304 127.771 126.644 127.808 125.978 127.848C126.714 127.442 127.453 127.06 128.189 126.637C130.597 126.663 130.466 125.824 133.163 124.785C141.432 121.602 139.824 123.825 146.399 118.847ZM82.8225 124.914C80.5059 121.699 79.3992 122.177 79.4939 123.232C80.8944 124.98 82.3128 126.744 83.6895 128.458C83.691 128.46 83.693 128.462 83.6945 128.464C85.8048 128.303 84.801 128.664 82.9291 125.804C82.2814 124.814 83.251 125.508 82.8225 124.914ZM81.5399 122.178C81.3614 122.25 81.211 122.355 81.0227 122.418C81.5564 123.094 81.6144 123.145 82.3411 123.938L82.3381 123.936C82.6264 124.253 85.0663 126.855 85.0319 126.377C83.9054 125.015 82.6963 123.568 81.5399 122.178ZM133.095 125.559C134.732 125.631 132.053 126.921 136.404 125.017C136.59 124.75 136.777 124.482 136.963 124.215C135.674 124.663 134.384 125.111 133.095 125.559ZM149.273 125.932C149.134 125.918 148.959 125.914 149.246 125.782C149.255 125.832 149.263 125.883 149.273 125.932ZM149.771 125.822C149.762 125.744 149.754 125.666 149.745 125.589C149.796 125.571 149.85 125.551 149.908 125.531C150.003 125.498 150.096 125.47 150.188 125.442C150.049 125.568 149.91 125.693 149.771 125.822ZM75.9043 121.363C76.8969 120.398 77.7316 119.339 76.2122 122.248C76.0114 122.078 75.7986 121.91 75.5684 121.679C75.6604 121.596 75.7527 121.509 75.8445 121.421C75.9933 121.551 76.0622 121.594 75.9561 121.437C75.9391 121.412 75.9213 121.388 75.9043 121.363ZM74.8758 120.805C74.4631 120.162 74.9691 120.614 75.4299 121.041C75.3778 121.138 75.3226 121.237 75.2665 121.341C75.1421 121.189 75.0102 121.015 74.8758 120.805ZM76.7773 118.432C76.318 119.354 75.9941 119.989 75.5296 120.856C75.2889 120.55 75.0508 120.281 74.811 120.038C75.3901 119.372 76.0202 118.98 76.1933 118.689C76.2409 118.609 76.2847 118.53 76.3288 118.453C76.3346 118.452 76.3368 118.448 76.3388 118.437C76.4087 118.315 76.4741 118.197 76.5361 118.083C76.6167 118.198 76.6971 118.315 76.7773 118.432ZM147.247 80.0184C148.251 80.067 148.657 79.954 149.697 80.2743C149.926 80.6379 150.169 81.0108 150.404 81.3788C151.122 81.4282 151.842 81.4784 152.567 81.5292C152.688 81.7669 152.816 82.0062 152.936 82.244C152.274 82.1266 151.529 81.9932 150.921 81.8866C151.6 82.8499 159.27 84.7479 156.457 83.4823C155.311 82.9678 153.085 82.6461 154.671 81.9833C156.716 82.5309 159.039 83.1367 161.192 83.7059C161.302 83.5172 161.407 83.3272 161.517 83.1385C164.429 83.8543 161.588 84.1316 161.504 84.5663C162.174 84.7122 162.852 84.8578 163.522 85.0038C163.847 84.8645 164.161 84.7134 164.498 84.5829C164.461 84.9005 164.688 85.7005 166.748 85.8299C168.072 85.9109 166.207 84.7203 168.641 85.3182C168.357 85.7684 167.346 86.1845 170.05 86.8856C170.427 86.4317 170.9 86.0407 171.221 85.5487C174.524 86.7137 176.236 86.2373 180.114 87.5995C182.574 88.4628 185.782 90.4278 187.826 88.7899C189.691 89.107 189.002 89.479 189.527 89.6981C192.008 90.7331 194.126 90.1865 194.621 90.2274C197.771 90.4884 199.084 91.0843 201.682 91.1434C201.471 91.4799 201.325 91.8096 201.143 92.1424C198.959 91.1409 197.79 90.9355 194.545 90.412C195.61 90.6998 196.676 90.9893 197.741 91.2772C197.503 91.5371 197.267 91.7977 197.036 92.0575C187.315 88.9135 189.258 91.2113 197.527 93.2743C198.36 92.8715 199.219 92.4758 200.046 92.0702C202.667 93.0767 204.579 93.4305 206.73 93.7118C206.395 94.1131 206.542 94.3504 207.444 94.1649C207.769 94.0976 208.09 94.0136 208.408 93.9198C209.349 94.033 210.367 94.1586 211.524 94.3329L211.374 92.8143C211.476 92.7728 211.579 92.7313 211.681 92.6903L211.848 94.37C211.84 94.3728 211.833 94.3759 211.824 94.3788C211.833 94.38 211.841 94.3814 211.849 94.3827L212.014 96.0379C211.905 96.0156 211.796 95.9897 211.688 95.9666L211.539 94.4764C210.893 94.6875 209.892 94.9717 209.079 95.2264C208.919 95.163 208.76 95.0974 208.604 95.0252C208.725 95.1045 208.848 95.1824 208.969 95.2616C208.648 95.3633 208.361 95.4594 208.145 95.5438C208.16 95.5353 208.176 95.5269 208.191 95.5184C207.389 95.2755 208.1 94.7232 208.012 94.2498C207.47 94.4069 206.929 94.5644 206.387 94.7215C205.37 95.5249 205.892 95.6304 203.581 96.4813C203.748 96.0265 203.911 95.5728 204.078 95.118C201.577 96.1254 200.095 97.1507 197.705 97.9442C198.149 97.9095 198.588 97.8773 199.031 97.8426C194.11 100.225 198.957 100.52 194.725 101.115C194.554 101.383 194.39 101.651 194.219 101.919C195.811 101.318 197.403 100.715 198.989 100.117C199.122 100.343 199.258 100.567 199.385 100.796C197.671 101.411 195.949 102.028 194.235 102.643C195.532 102.302 196.836 101.958 198.134 101.617C196.23 102.528 194.327 103.44 192.423 104.351C194.122 102.626 191.388 103.614 191.523 102.537C188.375 104.673 186.066 106.737 180.448 108.311C179.334 108.623 179.652 107.779 176.952 109.75C177.27 108.484 173.301 109.57 173.395 108.451C174.463 108.067 175.563 107.652 176.604 107.291C175.581 108.083 175.763 109.04 177.633 108.583C180.021 107.998 183.04 106.052 183.321 107.082C184.197 106.671 185.018 106.304 185.872 105.91C185.411 105.814 184.956 105.714 184.501 105.615C187.139 104.984 188.643 104.226 189.574 103.13C186.564 104.193 183.561 105.256 180.551 106.321C180.968 106.102 181.391 105.88 181.809 105.663C179.31 105.951 181.363 104.421 177.139 105.988C177.286 106.263 177.427 106.539 177.574 106.815C175.733 106.672 171.582 108.371 172.534 106.954C171.394 107.735 171.211 108.01 170.299 107.827C167.273 109.844 165.506 111.555 167.111 112.08C165.814 112.419 164.515 112.759 163.224 113.096C163.817 112.531 164.412 111.967 165.006 111.402C162.875 112.292 160.728 113.187 158.604 114.073C158.745 114.97 162.824 112.641 161.886 113.877C161.699 114.125 160.416 114.282 160.148 114.487C157.339 116.677 162.069 113.993 161.42 115.057C156.76 117.206 161.045 116.798 154.095 118.508C154.053 118.684 154.009 118.863 153.967 119.041C153.867 118.467 153.768 117.892 153.669 117.318C154.131 117.534 154.593 117.751 155.055 117.967C159.672 116.02 158.249 115.094 156.069 115.23C155.874 115.584 155.679 115.938 155.489 116.288C154.852 116.456 154.215 116.624 153.578 116.792C153.559 116.682 153.54 116.572 153.521 116.462C155.276 115.535 154.391 115.511 153.367 115.571C151.533 104.989 149.699 94.4072 147.891 83.8046C148.575 84.2049 150.275 84.2688 148.58 84.6473C149.481 84.8407 150.383 85.0338 151.277 85.2274C150.776 84.7829 151.594 84.6877 151.736 84.3758L151.74 84.3749C150.403 84.0922 149.099 83.6846 147.856 83.5926C147.823 83.4038 147.791 83.215 147.759 83.0262C148.022 83.0914 148.303 83.1574 148.601 83.2225C149.035 83.1048 149.468 82.9877 149.903 82.87C149.848 83.4054 150.439 83.7266 151.74 84.3749L151.744 84.3739C155.466 85.1537 155.28 84.934 156.355 84.2499C152.306 83.9513 152.351 83.1404 149.757 82.1366C149.05 81.863 148.241 81.6406 147.486 81.4217C147.406 80.954 147.326 80.4863 147.247 80.0184ZM157.825 118.721C156.719 118.822 155.608 118.921 154.502 119.021C155.783 118.52 157.067 118.016 158.355 117.512C158.181 117.915 158 118.319 157.825 118.721ZM166.777 114.882C161.851 116.527 163.249 116.766 161.166 118.415C161.264 117.375 161.355 116.337 161.453 115.296C162.025 115.405 162.596 115.513 163.162 115.625C164.23 115.152 165.3 114.677 166.375 114.201C166.509 114.427 166.643 114.655 166.777 114.882ZM148.084 117.972C147.738 118.105 147.412 118.251 147.123 118.414C147.46 118.255 147.78 118.108 148.084 117.972ZM72.0904 117.179C72.0665 117.213 72.0409 117.249 72.0167 117.286C71.9739 117.352 71.9337 117.42 71.8921 117.487C71.7208 117.313 71.5472 117.127 71.3749 116.922C71.6131 117.009 71.8522 117.093 72.0904 117.179ZM38.8299 57.5468C40.8947 58.0652 42.2236 58.175 42.297 58.7773C42.7824 58.6189 43.2703 58.4604 43.749 58.3007C44.4266 58.4418 45.0335 58.5859 45.7541 58.7245C44.5866 59.3787 46.6159 59.2371 47.9017 59.8944C49.1875 60.5525 47.2165 60.8599 50.9651 61.6151C49.6738 61.5657 48.4954 61.5099 47.2469 61.4579C49.6203 62.1581 52.001 62.8613 54.3744 63.5614C52.5678 63.7437 48.727 63.784 48.685 64.4882C49.8526 64.4514 53.5758 65.6647 53.9897 65.7665C55.5913 66.1578 54.8011 65.5524 54.9245 65.5653C57.5088 65.861 59.5714 66.4239 60.6717 65.9618C62.5199 66.6367 63.995 66.7553 66.0163 67.1747C67.1284 67.4055 66.8127 67.8421 67.4833 67.8808C71.9447 68.1346 67.9434 66.6927 76.0617 69.538C74.9801 69.6712 73.9102 69.8148 72.8279 69.9511C73.7463 70.2652 74.659 70.5793 75.5774 70.8934C76.2219 70.9583 76.8613 71.021 77.5058 71.0858C77.6424 70.3577 77.7767 69.6275 77.9134 68.8993C78.6147 68.9976 79.3188 69.0979 80.0201 69.1962C78.8456 68.8881 77.6677 68.5794 76.4932 68.2714C76.4111 68.1222 76.3362 67.9743 76.2541 67.8251C78.0619 67.9788 79.8643 68.129 81.6724 68.2811C81.6541 68.5403 81.635 68.8013 81.6166 69.0604C85.6715 69.5011 85.8108 69.3067 89.4516 70.7548C92.3682 71.327 94.5234 72.8541 96.1167 73.6337C96.6233 73.6167 97.1311 73.5995 97.6415 73.5829C97.3861 74.0018 97.1394 74.4111 96.898 74.8055C95.9298 74.532 94.9614 74.2585 93.993 73.9852V73.9872C93.9143 74.1283 93.8256 74.268 93.7469 74.4091C95.06 74.654 95.9124 74.936 96.6798 75.1698C95.4113 77.3167 95.6651 77.783 95.1171 78.7352C93.0977 82.2366 91.0176 84.5927 89.1108 87.8758C86.5807 92.2332 84.7255 96.3079 82.3232 100.556C81.9335 101.245 81.6266 100.87 81.2299 101.538C79.7624 104.011 77.8612 107.16 76.6437 109.412C75.5505 111.433 75.3708 112.625 74.5559 114.243C73.8973 113.366 73.2383 112.49 72.5787 111.611C72.5952 112.299 72.6107 112.985 72.6216 113.669C71.9475 112.998 71.2748 112.325 70.5995 111.655C71.6696 113.208 72.6042 114.51 73.655 115.74C73.4282 115.987 73.1644 116.124 72.8677 116.35C71.6294 114.867 70.3844 113.327 69.3728 111.925C68.8326 111.176 69.5699 111.477 69.4943 111.346C69.1171 110.691 67.3321 108.225 67.1275 107.976C65.58 106.111 65.1289 106.383 63.6006 104.59C64.1574 105.328 64.6832 106.021 65.228 106.742C64.8327 107.584 64.4426 108.432 64.0461 109.274C62.5222 107.538 60.9981 105.8 59.4698 104.058C60.7713 105.184 62.0759 106.314 63.3774 107.439C62.2182 104.982 61.0603 102.523 59.9024 100.064C58.6953 99.2665 57.4919 98.4724 56.2848 97.6746C53.9801 94.731 55.7873 94.2507 53.4914 93.8143C52.8847 92.8883 52.2776 91.962 51.6697 91.037C51.6047 91.2903 51.5384 91.5433 51.4734 91.7967C50.7254 90.6935 49.9768 89.5914 49.2301 88.4872C50.7106 89.0928 52.2043 89.6527 53.6588 90.2616C52.1142 88.1491 51.5839 88.508 51.2103 88.3075C50.2198 87.775 49.3507 85.8422 48.5205 85.453C48.2383 85.3228 49.5491 87.5548 48.6062 87.1776C48.4213 87.1029 44.8389 85.5739 43.7599 83.6346C44.038 83.4654 44.4548 83.3492 44.7854 83.1991C43.0557 80.8135 40.7824 80.7078 40.6626 81.3016C39.9173 79.8897 38.473 78.1104 38.6694 77.5409C38.1668 76.9169 37.6672 76.2977 37.1646 75.6737C36.7175 77.0985 34.7591 74.385 35.4625 73.5429C36.3639 74.5849 37.2678 75.6277 38.1692 76.6698C38.5373 75.0434 41.8364 77.7623 35.311 71.8329C33.7088 70.9826 37.2767 74.0492 36.0066 73.328C34.2653 71.7035 33.0469 69.8459 31.24 68.4227C28.9898 66.6533 30.733 69.6491 27.176 64.1806C36.4106 72.6958 29.4479 64.7045 24.9297 58.8163C27.0928 59.4689 29.066 59.9667 25.9981 58.8056C29.7638 59.0304 31.5907 58.8547 36.1481 59.663C37.343 60.7259 37.1403 61.1998 41.5585 62.1024C39.1712 60.4809 44.3552 60.715 43.4849 59.3573C40.2935 58.9985 41.8172 60.4523 39.8942 60.621C39.6972 60.6369 36.8314 59.7783 36.1481 59.663C39.3032 59.2562 40.3994 59.0897 38.8299 57.5468ZM81.0526 107.101C82.8654 107.492 79.7353 111.354 79.3424 110.936C79.6595 110.34 80.183 110.028 80.4237 109.343C80.6677 108.651 80.3976 108.291 81.0526 107.101ZM166.481 108.835C165.531 109.498 164.561 110.206 163.629 110.84C164.387 111.102 164.798 110.374 164.859 110.342H164.855C169.923 108.803 164.106 110.331 168.676 108.377C167.94 108.534 167.211 108.681 166.481 108.835ZM83.2221 109.65C83.1169 109.605 82.9664 109.689 82.7916 109.846C82.9377 109.774 83.083 109.705 83.2221 109.65ZM194.005 100.492C192.188 100.865 190.499 101.244 188.728 101.62C188.334 102.053 187.934 102.488 187.54 102.921C187.093 102.928 186.638 102.94 186.191 102.948C186.565 103.192 186.911 103.439 187.3 103.683C189.763 101.827 190.748 102.389 193.258 101.298C193.826 101.05 191.714 101.336 194.005 100.492ZM61.468 97.1463C62.0635 98.6337 64.2167 100.912 65.8379 102.326C65.8395 102.328 65.8414 102.33 65.8429 102.332C66.1998 102.643 67.3864 103.045 66.393 101.892C64.7718 100.015 63.1987 99.7365 62.914 98.2987C62.4398 97.9324 61.9584 97.5346 61.468 97.1463ZM209.299 95.4754C209.777 95.7855 210.256 96.0947 210.738 96.4032C210.758 96.5453 210.868 96.6516 211.184 96.6864C211.237 96.7202 211.29 96.7541 211.343 96.7879C204.531 99.1532 198.024 101.076 201.641 97.5868C202.176 97.4338 202.718 97.2758 203.253 97.1229C203.69 97.9395 205.381 96.7059 208.132 95.5506C208.377 95.6307 208.834 95.5594 209.299 95.4754ZM58.0697 92.9657C56.8995 91.9544 56.7334 92.9698 58.1155 94.3026L58.1135 94.3036C58.6905 94.8597 58.1738 93.2767 59.5087 95.8573C60.26 96.0019 60.9715 96.1671 61.7061 96.3162C61.2661 95.7748 60.8688 95.2775 60.4056 94.7108C60.0972 95.5872 59.238 93.978 58.0697 92.9657ZM209.611 95.4207C210.056 95.3396 210.463 95.2738 210.645 95.3485C210.874 95.4433 210.901 95.6038 210.869 95.7821C210.443 95.6778 210.023 95.56 209.611 95.4207ZM90.8478 91.3866C95.5243 88.3118 88.6213 97.2343 88.9225 94.9793C88.9355 94.8774 90.8612 91.924 90.8478 91.3866ZM211.539 94.4764C211.645 94.442 211.74 94.4089 211.824 94.3788C211.723 94.3631 211.623 94.3477 211.524 94.3329L211.539 94.4764ZM198.767 89.4159C202.139 90.0329 202.476 90.4884 203.04 91.286C201.492 90.9006 199.944 90.5161 198.397 90.1307C198.523 89.8937 198.64 89.6544 198.767 89.4159ZM184.535 86.5096C186.972 87.0446 190.885 87.3767 192.429 88.3417C193.328 88.9035 189.438 88.4268 191.96 89.5301C189.588 88.9996 189.09 88.6655 189.603 88.2401C189.072 88.0712 188.534 87.9026 188.003 87.7352C187.732 87.784 187.453 87.8309 187.181 87.8797C186.939 87.6146 186.695 87.3505 186.46 87.0868C185.874 87.013 185.282 86.9373 184.696 86.8651C184.65 86.7469 184.552 86.633 184.535 86.5096ZM176.408 88.2293C182.113 89.3482 175.151 85.6627 174.48 87.3651C174.495 87.4059 176.262 88.1971 176.408 88.2293ZM46.8214 85.2167C46.66 84.3479 46.5025 83.4838 46.341 82.6151C45.2073 81.6623 44.0771 80.7141 42.9477 79.7665C44.2405 81.5811 45.5311 83.4 46.8214 85.2167ZM99.1881 83.7518C99.2359 83.8795 99.2814 84.013 99.3227 84.1581C99.3062 83.9615 99.2673 83.8338 99.2091 83.7635C99.2022 83.7597 99.195 83.7556 99.1881 83.7518ZM130.656 80.1503C131.226 79.0063 134.048 78.5894 134.09 80.6434C131.446 80.5339 132.927 79.6694 130.656 80.1503ZM109.853 76.7626L117.663 78.9999C117.418 78.7834 117.172 78.566 116.927 78.3495C114.887 77.6792 112.845 77.0086 110.812 76.3397C110.493 76.4805 110.173 76.6218 109.853 76.7626ZM142.252 69.5165C142.512 71.2812 142.714 72.9427 142.935 74.6415C142.56 74.6031 142.27 74.5754 142.052 74.5497C141.959 74.2624 141.873 73.9627 141.798 73.6649C141.882 73.519 141.977 73.3468 142.077 73.1425C141.935 73.089 141.792 73.033 141.648 72.9774C141.56 72.4874 141.521 72.0333 141.563 71.6835C141.649 70.9756 142.603 72.4043 142.252 69.5165ZM135.4 30.58C135.468 30.1428 135.534 29.7058 135.602 29.2685C135.38 28.3679 135.159 27.4722 134.938 26.5713C135.364 27.6047 135.788 28.6403 136.214 29.6738C136.324 32.2581 136.013 33.327 135.62 34.58C134.706 31.697 135.448 32.5685 135.185 30.2509C134.828 30.3899 134.47 30.3379 134.114 30.6005C135.077 31.6673 135.158 35.6315 135.269 36.5361C135.606 39.2889 136.006 37.0254 136.323 38.8525C136.641 40.6811 136.548 42.9115 137.542 44.289C137.119 44.3284 136.666 44.2783 136.267 44.2314C136.599 47.103 137.001 46.4566 137.114 46.7411C138.944 51.2833 138.475 53.9801 139.255 59.3837C139.013 58.7202 138.782 58.0473 138.546 57.3759C138.326 61.5799 138.147 58.7997 137.271 55.3183C137.905 58.611 137.46 60.625 137.62 62.995C137.78 65.3647 138.829 69.3057 139.374 70.7206C139.31 67.296 138.393 63.7365 137.915 59.9989C138.411 60.3538 138.84 60.7076 139.381 61.0692C138.858 63.4713 139.672 64.6863 139.914 65.412C140.623 67.5429 139.843 67.5961 140.888 68.786C140.594 68.7774 140.349 68.7761 140.074 68.7645C140.323 70.0614 140.609 71.3832 140.876 72.6815C140.834 72.666 140.794 72.6507 140.753 72.6356C140.699 73.7827 136.744 73.8431 131.868 73.1679C131.508 73.1174 129.365 71.5641 129.357 72.8954C128.804 72.4591 128.48 72.1701 128.014 71.7909C126.914 71.976 125.801 72.1532 124.702 72.3368C124.164 72.1696 123.618 72.003 123.08 71.8358C123.05 71.5686 123.167 71.3205 123.041 71.0389C120.494 70.4928 115.191 69.7605 113.178 69.327C110.791 68.8121 108.41 68.1582 106.134 67.6093C107.81 64.6143 109.149 62.5382 109.886 63.953C111.433 61.422 111.334 60.9441 111.709 59.3114C111.968 59.2518 112.197 59.1808 112.475 59.1317C113.247 57.3749 114.621 56.4561 115.293 54.9013C115.966 53.3472 115.567 52.6491 116.71 52.998C116.961 51.8893 117.258 50.813 117.526 49.7216C118.084 49.2811 118.638 48.8395 119.191 48.4042C119.579 47.449 119.969 46.4922 120.357 45.537C121.117 45.3305 122.911 41.7211 124.121 40.3613C124.435 38.6103 122.758 37.7398 125.027 34.4638C125.386 34.7785 125.745 35.0915 126.104 35.4062C126.471 34.5714 126.838 33.7342 127.208 32.8935C127.101 32.7725 126.99 32.6581 126.884 32.5371C126.694 32.9626 126.507 33.3823 126.319 33.8085C126.293 33.3344 126.264 32.8676 126.235 32.3994C127.26 31.382 128.286 30.3631 129.314 29.3398C128.634 31.1083 127.954 32.878 127.273 34.6464C128.747 32.7686 129.263 31.1801 130.618 29.5879C130.938 27.731 130.285 28.1217 129.31 28.4111C129.692 27.8659 130.076 27.3128 130.458 26.7675C129.626 26.8075 129.817 25.6351 127.941 29.0195C127.898 28.6921 127.866 28.3643 127.813 28.039C128.156 27.5035 128.214 27.0648 128.628 26.498C129.348 25.5126 130.343 24.8843 131.05 24.6416C131.141 24.9587 131.231 25.2758 131.322 25.5927C131.089 25.9341 130.902 26.2399 131.044 26.2802C131.317 26.3559 131.718 25.925 132.021 25.583C132.104 25.6471 132.187 25.7321 132.27 25.83C132.208 26.0005 132.128 26.2108 132.026 26.4668C132.025 26.4609 132.024 26.4551 132.023 26.4492C132.022 26.4603 132.021 26.4714 132.02 26.4824C131.836 26.9452 131.586 27.5566 131.255 28.3525C131.454 28.1418 131.623 27.9485 131.771 27.7675C131.451 28.5884 131.123 28.0719 132.286 31.7148C132.406 31.3724 132.525 31.0289 132.645 30.6865C132.479 29.5471 132.312 28.4076 132.144 27.2685C132.355 26.9561 132.51 26.6652 132.654 26.3525C133.462 27.5593 134.195 29.07 134.22 24.6015C134.222 24.5954 134.225 24.5892 134.228 24.583C134.618 26.5866 135.008 28.5835 135.4 30.58ZM85.6966 70.5868C81.8497 69.3116 73.7686 69.5162 83.6197 72.2059C83.5232 71.9208 83.4322 71.6385 83.3357 71.3534C88.2885 72.413 93.9417 72.9594 89.2693 70.8895C87.5374 70.7446 87.8838 71.1504 86.8875 71.2802L86.8885 71.2782C86.6258 71.3113 85.467 71.1557 85.0219 71.08C85.2268 70.9102 85.4784 70.7523 85.6966 70.5868ZM98.9071 70.5057C98.6581 70.9565 98.4115 71.4069 98.1557 71.8563C95.8061 70.8678 96.3759 70.4078 97.6833 70.0057C98.094 70.1729 98.4964 70.3386 98.9071 70.5057ZM30.5275 62.5546C29.8539 62.5849 31.2968 65.7279 32.4867 67.4686C33.1197 67.4189 33.7548 67.3705 34.3922 67.3261C32.089 65.5889 31.9706 65.0048 30.5275 62.5546ZM65.814 66.1278C65.0049 66.9265 65.9517 66.8355 63.0117 66.078C62.1707 65.8617 55.351 64.865 58.3427 64.6649C60.7545 65.1447 63.3052 65.6383 65.814 66.1278ZM63.6116 63.2724C64.65 63.3745 64.0507 63.6593 64.1587 63.6728C66.7765 63.9812 67.1763 63.8752 70.2757 64.7958C70.6418 64.9747 71.0004 65.1578 71.3659 65.3397C69.6965 66.056 68.749 65.2966 65.535 65.2733C66.1636 65.0389 66.7905 64.8033 67.4195 64.5673C65.6856 64.2984 63.9592 64.0295 62.2254 63.7606C62.0436 63.6136 61.861 63.4673 61.6792 63.3202C62.3188 63.305 62.9814 63.2768 63.6116 63.2724ZM44.0798 61.5478C47.6654 63.1591 39.9161 61.2195 42.4345 62.2812C44.4451 63.1293 47.3923 62.8103 46.4586 62.0575C45.7347 61.8977 44.9275 61.7264 44.0868 61.5497C44.0845 61.5493 44.0821 61.5482 44.0798 61.5478ZM23.2545 56.5575C26.1875 56.3448 30.6187 57.0489 35.9797 58.5116C35.0659 58.8589 32.6785 58.1115 31.237 57.9989C29.7959 57.8865 31.2548 58.4899 29.4542 58.3788C28.2345 58.3034 26.1037 58.0887 24.281 57.9589C23.9092 57.4637 23.5616 56.9934 23.2545 56.5575ZM135.987 47.3163C135.02 52.136 137.517 57.3168 137.12 52.2392C137.021 50.9678 136.197 48.7494 135.987 47.3163ZM116.766 50.2548C116.428 50.5657 116.084 50.8863 115.746 51.1972C117.543 48.6581 116.64 48.1018 118.662 45.7665C118.028 47.2643 117.396 48.763 116.766 50.2548ZM134.135 39.3154C133.785 39.6185 133.535 40.3194 133.242 40.8476C133.655 41.3082 135.96 53.3289 135.269 47.1357C135.168 46.2346 133.583 40.903 134.135 39.3154Z" fill="#0B1956"/>
</svg>
