<svg width="614" height="350" viewBox="0 0 614 350" fill="none" xmlns="http://www.w3.org/2000/svg">
<path d="M541.512 87.4816C539.933 90.4481 546.67 81.7079 542.734 87.9432C543.733 86.8104 544.792 85.7175 545.901 84.6599C545.899 84.1223 545.913 83.5748 545.928 83.0302C544.37 84.433 542.889 85.915 541.511 87.4805C541.511 87.4809 541.512 87.4812 541.512 87.4816ZM535.992 87.0551C538.029 85.9106 542.275 81.2273 538.769 87.1973C538.153 87.4117 537.53 87.6513 536.914 87.897C535.773 90.04 534.805 92.2523 534.049 94.4881C533.56 95.1861 533.091 95.902 532.643 96.6394C532.826 97.886 533.08 99.0731 533.381 100.248C533.565 99.3468 533.783 98.4468 534.034 97.5556C535.881 94.3789 537.479 91.6042 540.56 87.6805C540.413 88.1195 540.273 88.558 540.142 88.9956C541.397 86.8245 542.858 84.7134 544.474 82.687C542.727 84.1129 540.885 85.8263 539.454 87.345C540.605 84.0304 545.253 80.0287 547.78 78.2038C551.225 75.6773 550.2 75.9325 552.869 74.1772C553.3 73.9034 553.562 74.1689 554.386 73.5959C558.469 70.619 567.203 65.7026 561.651 67.7838C554.377 72.1067 548.013 75.8235 542.509 81.9204C543.342 79.6947 539.833 82.3756 535.992 87.0551ZM534.968 20.5365C537.644 21.2831 543.128 21.8107 546.916 22.1447C546.92 22.1454 546.925 22.1461 546.929 22.1469C547.747 22.2132 549.703 21.9057 547.048 21.4614C542.648 20.7547 540.423 21.5045 538.2 20.5272C537.155 20.5293 536.079 20.5227 534.968 20.5365ZM525.39 19.7811C522.651 19.9373 523.881 20.7191 527.26 20.6816C527.26 20.6823 527.26 20.6829 527.26 20.6835C528.672 20.6855 525.929 19.8783 530.967 20.8508C532.03 20.4529 533.074 20.1068 534.147 19.7449C532.896 19.616 531.797 19.508 530.47 19.4027C531.291 20.2559 528.114 19.6379 525.39 19.7811ZM565.648 66.0954C566.334 66.5432 564.827 67.2916 562.607 69.1159C564.914 67.7769 567.279 66.5147 569.674 65.3291C568.32 65.5678 567 65.8121 565.648 66.0954ZM536.695 105.103C536.699 105.106 536.702 105.108 536.706 105.11C537.404 105.701 538.143 106.323 538.837 106.918C539.437 107.015 540.029 107.109 540.625 107.206C543.224 109.249 545.781 111.332 548.282 113.472C548.407 112.586 543.582 109.263 541.159 106.996C537.037 104.495 534.836 103.646 534.218 104.021C535.048 104.381 535.87 104.738 536.695 105.103ZM9.50311 143.339C9.08084 144.367 8.67077 145.382 8.26791 146.408C8.42634 144.98 8.62665 143.54 8.80874 142.086C10.508 138.559 9.75796 138.01 11.0559 133.172C15.5856 118.441 15.5462 122.897 19.2047 109.297C14.6735 119.557 15.5509 115.249 12.4168 121.366C12.4878 122.868 16.016 117.029 14.7199 121.376C11.521 128.499 9.00572 135.653 6.97009 144.108C6.91896 143.839 6.86778 143.57 6.81775 143.301C7.1462 141.954 7.48636 140.629 7.84275 139.304C7.26156 140.691 6.70465 142.062 6.14616 143.507C7.10972 141.74 5.8583 146.471 6.67947 145.952C7.03695 145.726 7.85651 143.699 8.40392 142.519C7.91663 145.755 7.49495 149.059 7.16754 152.31C7.66452 150.681 8.18485 149.035 8.72126 147.424C8.96778 146.065 9.22228 144.73 9.50085 143.364C9.5016 143.356 9.50236 143.347 9.50311 143.339ZM565.029 272.285C561.655 274.914 556.098 280.043 553.568 283.24C557.564 279.809 561.408 276.161 565.029 272.285ZM533.661 104.305C534.124 104.455 534.571 104.597 535.031 104.747C533.407 103.422 531.81 102.139 530.163 100.841C529.854 100.896 529.543 100.948 529.229 101L530.819 104.565C530.7 104.387 530.582 104.206 530.465 104.024C530.436 104.178 530.408 104.332 530.381 104.487L528.995 101.378C530.581 102.358 532.103 103.311 533.661 104.305ZM589.218 35.5027C590.624 36.0842 590.764 36.1262 592.509 36.7851C592.507 36.7846 592.505 36.784 592.503 36.7835C593.192 37.0245 599.048 39.311 598.502 38.7844C595.665 37.5341 592.611 36.2604 589.641 35.084C589.484 35.2171 589.398 35.3768 589.218 35.5027ZM594.52 54.369C594.516 54.3708 594.512 54.3726 594.508 54.3744C593.508 54.7104 592.521 55.0967 591.439 55.4496C595.472 54.6697 595.831 53.7636 599.463 53.0204C603.077 52.3136 605.463 52.1975 608.184 50.5792C607.048 50.6302 605.801 50.6644 604.583 50.7485C599.524 52.3654 598.103 52.3589 593.908 53.1251C594.114 53.5402 594.31 53.9551 594.52 54.369ZM36.978 81.2061C38.0611 80.7896 38.4714 79.5899 38.5514 79.4958C38.5495 79.497 38.5476 79.4981 38.5456 79.4993C45.3528 73.1865 37.4172 80.0845 43.5929 73.8751C42.5516 74.6847 41.5383 75.4836 40.5397 76.3026C39.3166 77.8987 38.0895 79.6195 36.978 81.2061ZM315.762 6.82831C315.851 6.67801 315.957 6.52802 316.047 6.37775C310.901 6.21786 309.589 5.5784 305.298 6.02478C308.783 6.26572 312.283 6.53406 315.762 6.83014C315.762 6.82953 315.762 6.82892 315.762 6.82831ZM564.066 28.2907C569.57 30.0955 573.503 31.4597 578.909 32.8253C578.914 32.8262 578.918 32.827 578.922 32.8279C579.235 32.9052 577.87 32.0952 578.293 32.1551C579.378 32.5776 580.427 33.024 581.495 33.468C581.728 33.2782 581.955 33.0863 582.189 32.8987C579.139 31.8749 575.992 30.8867 572.886 29.9862C573.398 29.9896 573.908 29.9951 574.409 29.998C571.782 29.0718 569.185 28.2072 566.51 27.3753C567.334 28.0449 568.146 28.7184 568.924 29.3897C567.343 29.0151 565.673 28.6313 564.066 28.2907ZM230.257 10.7008C231.147 10.4525 229.446 10.3228 230.838 10.053C232.238 9.78357 234.822 9.88043 234.183 9.45935C232.304 9.55313 230.308 9.65622 228.376 9.76895C234.504 8.3364 240.715 8.65833 240.743 7.5997C234.808 8.31433 229.925 8.61087 224.139 8.88995C224.459 9.69351 230.273 9.86862 226.73 10.9937C227.892 10.8933 229.115 10.7957 230.244 10.7001C230.249 10.7003 230.253 10.7005 230.257 10.7008ZM578.241 169.967C579.281 173.029 580.518 180.405 581.509 184.5C581.781 185.481 583.721 188.762 583.915 188.731C584.597 188.556 584.215 184.298 585.164 188.805C585.011 187.267 584.858 185.755 584.662 184.235C585.159 184.443 585.654 184.655 586.148 184.86C586.327 186.772 586.458 188.626 586.559 190.549C586.72 190.627 586.881 190.705 587.042 190.784C586.368 183.967 587.37 187.942 587.487 184.319C588.203 187.568 588.791 190.806 589.289 194.117C589.129 192.184 588.917 189.991 588.7 188.303C589.471 187.998 589.655 192.018 589.837 192.698C591.135 196.494 588.607 176.853 588.984 175.051C589.766 178.136 590.445 181.485 590.977 184.689C590.998 183.732 591.011 182.789 591.01 181.827C589.132 174.561 586.961 166.45 583.187 158.65C582.918 157.915 582.639 157.184 582.354 156.472C582.772 156.534 583.183 156.589 583.601 156.658C583.163 155.554 582.689 154.432 582.201 153.343C582.628 157.038 580.729 152.515 577.129 147.952C578.38 150.77 580.277 154.02 579.471 154.131C575.423 144.427 566.971 135.336 559.954 128.021C558.211 126.213 558.919 125.412 554.271 121.643C554.358 121.855 554.259 122.028 554.268 122.221C546.566 115.335 541.539 111.528 532.296 106.113C533.013 106.15 533.72 106.182 534.432 106.22C536.219 107.589 538.059 109.025 539.816 110.438C541.43 110.847 539.704 109.276 545.275 113.231C549.791 116.526 546.949 114.78 548.069 115.82C549.552 117.224 551.301 117.979 552.854 119.558C554.065 120.803 552.342 119.986 555.84 122.742C554.869 121.1 553.858 119.441 552.819 117.813C551.877 117.25 550.924 116.693 549.958 116.139C550.745 116.948 551.509 117.748 552.265 118.558C549.382 115.904 546.621 113.512 543.485 110.931C544.031 112.42 540.84 109.765 539.028 108.43C536.208 106.346 538.366 108.532 536.497 107.17C534.654 105.832 532.949 103.891 529.342 101.817C531.029 103.345 528.253 102.039 528.555 102.667C528.871 103.298 532.519 105.692 528.746 103.802C528.421 103.58 528.129 103.378 527.868 103.192L528.278 104.113C529.915 98.3109 529.564 105.759 530.907 101.078C532.862 95.3956 531.792 93.1392 530.471 94.6684C529.422 95.8915 527.88 100.934 527.26 102.394C528.983 92.9177 531.102 93.614 531.875 92.2777C535.552 87.7383 531.186 89.6269 535.992 84.45C535.519 84.2556 535.1 84.0739 534.641 83.8972C535.454 82.9692 536.056 82.3978 537.064 81.3166C535.055 85.2942 537.246 82.4729 538.436 81.1406C540.329 79.0269 537.767 82.6071 538.365 82.1263C539.902 80.8013 542.017 78.4596 540.975 80.1396C541.428 79.3785 541.954 78.5703 542.467 77.8051C545.005 75.6082 552.212 72.5121 546.408 76.7613C547.412 76.8953 548.927 75.1401 550.307 73.9494C551.683 72.7621 551.945 73.18 553.186 72.1853C558.224 68.328 554.347 69.9404 553.117 69.9845C560.526 65.7673 553.523 70.2214 564.303 64.4965C565.577 64.4165 560.928 67.5529 565.168 65.6324C565.504 64.4309 568.226 62.1569 574.337 59.1957C575.027 59.1328 575.725 59.0728 576.411 59.02C579.485 56.874 577.442 56.6447 584.251 55.2984C580.148 54.7231 582.877 54.9588 588.537 52.275C589.698 51.7331 586.772 52.2525 588.405 51.5097C589.133 51.1776 591.1 50.8761 592.875 50.11C593.79 49.7105 597.834 47.7832 600.976 47.3959C598.941 48.8681 604.902 48.2299 600.213 50.1906C603.202 49.3657 605.986 48.7598 607.793 48.4105L610.819 47.8479L608.057 46.5097C605.078 45.08 604.283 44.7729 607.777 47.0807L608.8 47.5764L607.679 47.7849C607.125 47.7914 606.06 47.8988 605.186 47.963C605.882 47.7067 606.869 47.3964 607.566 47.1634L607.499 47.6479C606.051 47.1419 604.611 46.6528 603.181 46.1811C601.815 45.2897 600.399 44.3924 598.982 43.5108C598.424 44.1255 598.617 44.3828 592.739 41.7309C595.273 42.9954 597.681 44.2569 600.177 45.6017C600.198 45.7836 600.487 46.0953 600.338 46.1942C597.335 44.4338 588.585 40.6099 586.416 39.5914C584.313 38.5504 588.542 40.1409 587.99 39.7132C583.356 36.1275 583.311 37.4353 579.621 35.8032C577.451 34.8543 582.831 36.5798 581.664 36.0892C577.343 34.2536 574.957 34.3847 570.99 33.1517C572.575 33.1222 574.099 33.081 575.642 33.063C571.492 31.7078 566.754 30.301 562.85 29.1063C561.326 28.6406 562.584 28.5883 562.339 28.4981C561.092 28.0199 556.015 26.5943 555.429 26.479C551.279 25.5705 551.057 26.0504 547.016 25.3391C548.582 25.6608 550.089 25.9881 551.623 26.343C552.152 27.2998 552.689 28.2622 553.205 29.226C549.337 28.4546 545.385 27.7917 541.449 27.2751C544.36 27.4219 547.281 27.6463 550.221 27.9442C545.855 26.3964 541.452 25.01 536.924 23.8017C534.489 23.9328 532.076 24.1185 529.654 24.3596C523.231 23.8527 524.499 22.2988 521.418 23.6843C519.469 23.5315 517.599 23.4178 515.644 23.3481C515.926 23.55 516.205 23.7532 516.485 23.9568C514.155 23.8774 511.861 23.8576 509.536 23.9019C511.916 22.9789 514.26 22.0889 516.724 21.3214C512.056 21.2773 512.037 21.9741 511.344 22.1582C509.548 22.6685 505.887 22.4376 504.498 23.0006C504.024 23.1727 508.554 23.1287 507.051 23.7597C506.721 23.8637 501.058 26.2459 497.287 26.5865C497.298 26.2606 497.514 25.8236 497.604 25.4553C492.494 26.2076 490.406 28.5732 491.175 28.8351C488.503 29.156 484.746 30.3401 484.049 30.0568C482.732 30.4944 481.455 30.9536 480.156 31.4578C481.924 32.0605 476.602 34.0323 475.825 33.2787C477.957 32.2462 480.15 31.3079 482.379 30.4666C480.304 30.0167 486.557 26.0894 473.165 33.5095C470.882 35.4087 477.76 31.1592 475.859 32.6561C472.283 34.6514 468.806 36.3509 465.892 38.951C464.997 39.7554 464.669 40.1885 464.507 40.4622L464.177 40.7033L463.821 40.532C462.822 40.5121 464.017 41.126 456.466 37.2506C460.251 38.5247 462.677 39.3948 464.133 39.8665L464.067 39.8732C465.991 38.0757 465.522 38.1878 463.699 39.3797L464.394 39.309C460.492 37.1234 449.26 32.5414 443.077 30.1135C439.435 30.8167 429.961 28.1507 417.034 24.3022C418.543 24.1447 422.595 25.4881 424.967 25.9832C427.386 26.4895 424.9 25.4604 427.934 26.0796C430.985 26.6943 437.229 28.2982 440.341 28.9815C437.898 27.7749 425.715 23.3689 433.674 26.662C427.388 25.2791 424.366 24.9504 416.636 23.0712C414.484 21.7118 414.853 21.2234 407.273 19.4742C411.512 21.5764 402.723 20.4147 404.374 21.9746C409.797 22.8965 407.047 21.13 410.261 21.3116C410.605 21.3279 415.442 22.7804 416.636 23.0712C411.367 22.8 409.614 22.8042 412.37 24.6946C408.9 23.7513 406.648 23.413 406.451 22.7771C405.655 22.8554 404.855 22.9352 404.069 23.0204C402.896 22.7595 401.896 22.5232 400.674 22.2736C402.525 21.7734 399.176 21.6138 396.917 20.7693C394.654 19.93 397.934 19.8427 391.482 18.6241C393.657 18.817 395.68 19.0267 397.785 19.2494C393.664 18.201 389.557 17.2199 385.421 16.2947C388.447 16.2527 394.895 16.6489 394.876 15.9425C392.862 15.8122 386.42 14.2027 385.674 14.0692C382.874 13.529 384.334 14.2202 384.12 14.195C379.635 13.671 376.095 13.0025 374.308 13.4189C371.032 12.6448 368.489 12.4749 364.991 12.0179C363.057 11.7683 363.492 11.3293 362.345 11.2844C354.697 11.0465 361.861 12.3895 347.393 9.75211C349.197 9.57526 350.977 9.39655 352.778 9.23318C351.143 8.93753 349.513 8.64902 347.867 8.36713C346.753 8.32632 345.642 8.28946 344.532 8.25549C344.492 8.99518 344.456 9.73682 344.415 10.4765C343.209 10.4121 341.995 10.3499 340.785 10.2929C342.851 10.5326 344.908 10.7825 346.987 11.046C347.165 11.1931 347.33 11.3392 347.508 11.4865C344.391 11.4009 341.34 11.3483 338.244 11.3157C338.204 11.0544 338.166 10.7914 338.126 10.53C331.14 10.3787 330.986 10.5913 324.416 9.51279C319.313 9.24969 315.226 8.01605 312.283 7.46295C311.218 7.57153 310.153 7.68451 309.077 7.798C308.404 7.56436 307.722 7.33252 307.049 7.10101C305.698 7.36459 304.329 7.63208 302.98 7.90259C302.244 7.21555 301.859 6.98126 307.112 6.87003C305.34 5.96729 296.067 6.18036 292.301 6.47034C289.444 6.67853 292.612 7.38675 292.254 7.47174C291.062 7.75351 286.361 7.51459 285.374 7.57425C281.202 7.80704 278.27 7.82028 274.506 8.06174C273.773 8.10907 271.735 8.6077 271.562 8.62714C270.214 8.73828 266.874 9.06442 266.494 9.08591C246.918 10.262 267.786 7.33142 249.536 8.50314C250.067 8.21606 250.555 7.93393 251.075 7.64874C249.694 7.71353 248.301 7.78421 246.923 7.85742C245.193 8.18423 247.329 8.42746 243.845 8.35107C244.094 8.64819 244.341 8.94565 244.599 9.24084C243.08 9.17471 241.605 9.11172 240.048 9.05869C237.695 10.3083 228.928 11.3169 229.659 12.5439C229.923 12.9496 236.178 12.858 232.935 13.6028C230.274 13.9273 232.035 13.2519 230.939 13.3217C223.017 13.8601 223.569 14.5683 220.347 14.7048C219.815 14.4478 219.238 14.1901 218.685 13.9336C217.475 14.1576 216.265 14.3852 215.05 14.6171C214.743 14.4415 214.424 14.2672 214.117 14.0919C215.259 13.9448 216.548 13.7844 217.6 13.654C216.023 12.9733 202.576 14.2893 207.786 14.3323C209.888 14.3454 213.684 13.7729 211.393 15.0139C207.827 15.3056 203.682 15.7034 199.913 16.096C199.825 16.317 199.745 16.5371 199.657 16.7581C194.592 17.3506 199.061 15.8727 198.993 15.4368C197.83 15.5897 196.672 15.7472 195.504 15.9083C195.036 16.18 194.596 16.4578 194.106 16.7279C194.014 16.4219 193.237 15.7816 189.817 16.6006C187.627 17.1337 191.24 17.3614 187.006 17.9378C187.24 17.3987 188.664 16.5397 183.944 17.1715C183.557 17.7631 182.985 18.3433 182.714 18.9433C176.73 19.4891 174.305 20.7444 167.308 21.5745C162.958 22.0848 156.653 22.1685 154.369 24.7777C151.261 25.5736 152.153 24.851 151.184 24.9703C146.6 25.5462 143.631 27.3323 142.844 27.6003C137.757 29.3493 135.325 29.7193 131.329 31.4018C131.449 30.977 131.478 30.601 131.549 30.2011C135.48 29.5966 137.46 28.9797 142.854 27.395C141.068 27.797 139.15 28.2482 137.323 28.6921C137.538 28.3177 137.751 27.9441 137.958 27.5745C155.072 24.2191 150.704 23.3665 136.45 26.8623C135.385 27.7467 134.291 28.6454 133.27 29.5334C124.938 31.1849 121.321 33.115 112.541 36.614C111.457 37.0418 107.48 38.2796 105.875 38.9478C105.901 38.9346 105.927 38.9214 105.953 38.9081C104.746 38.8449 106.011 38.0501 105.996 37.5478C105.333 37.777 104.674 38.0084 104.019 38.2414C103.771 38.3307 103.522 38.4201 103.275 38.5095C101.417 39.7082 102.208 39.6659 98.3309 41.3122C98.6987 40.7539 99.0643 40.1982 99.4413 39.6393C95.2649 41.4946 92.5531 43.2019 88.6415 44.9554C89.3714 44.7428 90.0665 44.5513 90.7708 44.358C82.4652 48.8947 90.1015 47.3729 83.3704 49.7014C83.0516 50.079 82.747 50.4525 82.4341 50.8299C85.0671 49.4578 87.584 48.2069 90.2683 46.9267C90.4373 47.1322 90.61 47.3347 90.768 47.5457C87.8744 48.891 85.183 50.1928 82.3474 51.6443C84.4752 50.6863 86.5 49.822 88.6199 48.9417C85.4843 50.6702 82.3327 52.4961 79.3081 54.3543C82.1367 51.6697 77.8029 53.9733 78.1415 52.7016C72.9247 56.625 69.2426 59.9578 60.8398 65.202C59.1846 66.2763 59.5821 65.0743 55.7203 69.127C56.1077 67.4407 50.3759 71.5152 50.4371 70.1937C51.9438 68.9708 53.5515 67.6953 55.0992 66.5545C53.5955 68.1914 53.9385 69.1222 56.6659 67.3363C60.135 65.0527 64.7472 61.071 65.1536 62.0859C66.52 61.0921 67.746 60.2446 69.0757 59.3364C68.3784 59.4742 67.6941 59.6058 67.0114 59.7424C71.054 57.5736 73.4571 55.9889 75.0189 54.2933C70.2827 56.9115 65.5222 59.8017 60.9944 62.8683C61.6182 62.3651 62.2587 61.8568 62.8994 61.3579C59.1174 63.228 62.2389 60.0995 55.8466 64.7065C56.0728 64.9222 56.2912 65.1441 56.5179 65.3614C53.7433 66.3699 47.7666 71.4713 49.0579 69.1279C47.425 70.9213 47.204 71.3812 45.8623 71.9041C41.6955 76.6901 39.7116 80.2745 42.0084 79.4229C40.2649 80.9667 38.6207 82.4953 36.9668 84.1329C37.6219 82.9233 38.2845 81.7409 38.974 80.5588C36.261 83.5112 33.6488 86.6498 31.2446 89.8683C31.6655 90.6724 36.2724 83.9798 35.4127 86.3002C35.2397 86.7485 33.6193 88.2151 33.3431 88.7208C30.4734 94.0139 35.638 86.2124 35.1514 88.0639C29.9895 95.2137 34.9915 90.1287 27.4674 99.6035C27.5152 100.008 27.5576 100.435 27.6211 100.817C25.4972 104.401 25.1791 103.826 23.3823 106.954C22.2683 108.932 21.9534 111.896 20.3258 113.884C20.0581 114.262 20.5073 109.829 17.1629 118.066C14.7616 124.525 16.6047 122.149 15.7031 125.739C14.7862 129.312 11.4765 137.203 12.3224 139.974C12.5653 138.031 13.0405 135.635 13.4524 133.51C13.9352 132.731 14.4146 131.983 14.9035 131.233C13.223 135.858 12.5271 140.874 11.2712 143.992C10.9419 150.576 9.14988 157.705 8.3145 155.597C8.77154 153.462 8.91159 155.867 9.04146 152.846C8.83339 152.504 8.62982 152.145 8.42333 151.802C7.67872 156.897 7.30229 160.422 8.3488 158.201C8.26944 158.989 8.19449 159.773 8.12216 160.568C7.5445 160.645 6.96659 160.708 6.38893 160.787C6.21701 161.743 6.05417 162.669 5.89401 163.613C5.91016 164.678 5.9333 165.75 5.96132 166.836C6.99876 165.463 7.19429 163.07 7.03063 171.149C6.72079 171.15 6.41133 171.161 6.10149 171.161C6.01586 177.677 6.68723 178.133 6.40886 185.627L6.40756 185.576C6.43891 185.913 6.471 186.263 6.50408 186.628C6.52908 186.264 6.54695 185.909 6.5587 185.563L6.56048 185.633C7.50896 179.795 6.14362 176.555 8.16727 176.691C8.12428 175.054 8.08959 173.428 8.07143 171.773C8.40114 171.548 8.73135 171.327 9.06057 171.115C8.66464 175.205 7.86661 180.484 7.31391 185.662L7.30974 185.496C7.40817 191.38 7.98118 196.933 9.21941 199.863C9.17452 200.592 9.15578 201.319 9.10959 202.059C10.9708 207.488 9.71639 210.336 12.2613 215.716C12.5599 216.26 13.7542 214.618 15.9455 221.777C15.6738 221.67 15.2836 221.695 14.9665 221.638C15.5979 223.14 16.2572 224.618 16.9408 226.091C16.8448 226.436 16.755 226.796 16.6601 227.144C15.6171 224.553 14.6632 221.97 13.7713 219.316C14.3817 221.567 15.0328 223.766 15.7543 225.993C14.4158 223.24 14.0149 221.951 14.0693 223.852C14.884 226.366 15.7678 228.861 16.7222 231.321C16.6947 231.627 16.6659 231.931 16.6403 232.237C15.7668 231.201 14.9143 230.143 14.0635 229.083C16.8378 235.475 19.4605 240.942 22.7065 245.231C23.2724 245.952 22.1655 242.92 24.7591 248.506C25.0551 248.445 25.3395 248.47 25.6222 248.428C28.7757 255.259 30.3954 257.249 35.5903 263.085C32.0819 259.406 35.0941 262.783 35.6729 263.965C36.0605 264.786 33.9581 262.05 34.0346 262.48C34.0928 262.92 36.2423 266.99 33.7658 264.012C29.4771 255.41 26.191 254.492 21.1056 243.325C21.7707 245.095 22.4781 246.861 23.2212 248.606C22.6492 247.909 22.1431 247.285 21.5413 246.517C25.1886 252.316 23.3753 249.515 24.582 252.076C25.8043 254.629 28.4635 259.049 30.4639 261.858C31.0929 262.744 30.7122 261.602 32.2161 263.532C33.2229 264.848 35.6594 268.752 36.8717 269.106C37.6481 269.32 33.8671 263.085 40.3839 270.626C41.9519 271.737 38.6801 268.261 38.6695 268.139C38.4838 267.161 42.7737 271.504 44.4618 273.758C44.5964 273.948 42.764 272.616 44.332 274.472C48.0988 278.865 50.9244 280.775 54.1127 282.734C53.9381 283.538 57.0443 287.416 62.078 290.834C62.2006 291.186 62.3122 291.53 62.4373 291.883C61.7438 291.233 61.0655 290.587 60.3825 289.926C59.4814 289.401 58.5615 288.802 57.6794 288.296C62.4006 292.233 62.5154 293.466 64.7343 295.508C72.3806 302.248 68.7686 296.584 67.5479 295.207C66.3769 294.628 65.2267 294.073 64.0551 293.47C64.32 293.348 64.5874 293.226 64.8428 293.096C77.1865 301.552 67.6194 293.093 74.1677 296.832C75.1177 298.91 79.8052 302.001 86.4001 304.639C87.0828 305.013 87.7747 305.381 88.4656 305.751C88.497 305.973 88.3668 306.218 88.5013 306.423C95.9834 310.504 98.2645 309.309 99.0314 309.494C102.563 310.242 104.708 312.375 105.644 312.787C109.677 314.541 111.104 314.581 114.914 316.294C119.075 318.129 116.039 317.377 117.216 318.186C118.193 318.847 121.484 320.099 122.809 320.857C122.328 320.445 121.787 320.014 121.314 319.6C125.877 320.9 129.567 321.826 134.715 323.363C139.953 326.759 145.728 325.423 143.086 327.059C138.166 325.808 135.381 325.209 132.622 324.95C135.761 326.025 138.952 327.064 142.146 328.062C143.144 328.087 143.871 328.04 145.046 328.103C146.069 328.642 147.798 329.209 149.6 329.727C151.684 330.33 153.907 330.849 155.103 331.222C165.303 334.295 162.042 334.515 171.793 334.771C165.052 333.396 164.993 332.634 158.348 331.284C159.886 331.093 163.273 331.921 161.202 330.829C167.682 332.344 165.521 332.454 167.98 333.448C170.058 334.293 174.548 335.087 174.206 335.598C174.72 335.37 175.127 335.132 175.64 334.902C179.92 335.609 184.218 336.236 188.531 336.804C186.786 336.248 184.925 335.665 183.149 335.082C184.551 335.161 185.973 335.235 187.383 335.301C197.796 337.804 216.301 337.498 213.157 339.763C218.294 340.264 218.983 339.984 221.789 339.705C222.082 339.918 222.369 340.099 222.662 340.333C225.977 340.359 228.519 341.239 231.441 341.217C234.37 341.195 235.134 340.547 235.502 341.715C237.416 341.484 239.323 341.302 241.225 341.081C242.347 341.392 243.471 341.697 244.586 342.002C246.37 341.938 248.159 341.869 249.946 341.794C250.884 342.38 257.885 342.359 260.965 342.791C263.909 342.264 263.87 340.419 270.744 340.856C270.56 341.314 270.378 341.771 270.194 342.23C271.773 342.156 273.353 342.08 274.941 341.999C275.038 341.85 275.122 341.7 275.219 341.551C274.409 341.589 273.618 341.627 272.811 341.666C273.513 341.419 274.199 341.174 274.889 340.926C277.299 341.328 279.71 341.722 282.126 342.108C278.871 342.381 275.576 342.64 272.322 342.885C276.404 343.274 279.284 342.956 282.836 343.346C285.93 342.718 284.787 342.348 283.535 341.654C284.685 341.716 285.834 341.775 286.996 341.834C286.238 341.14 288.172 340.741 281.469 340.775C281.931 340.58 282.403 340.394 282.852 340.191C283.952 340.226 284.665 340.061 285.868 340.138C289.176 340.349 291.707 341.55 291.484 341.976C291.364 342.2 288.104 341.782 288.234 342.096C288.558 342.862 296.043 342.51 285.247 343.29C288.826 343.781 289.641 343.412 293.575 343.252C293.268 343.51 292.97 343.765 292.675 344.023C294.507 343.896 296.308 343.767 298.152 343.632C295.597 342.344 309.102 341.713 296.926 340.684C300.528 340.596 304.101 340.493 307.636 340.375C306.906 340.252 306.174 340.129 305.441 340.004C303.838 340.099 302.238 340.189 300.623 340.276C302.521 340.009 304.414 339.74 306.293 339.465C310.76 339.702 312.566 340.133 314.616 340.673C309.414 341.2 311.08 340.589 307.018 340.54C307.165 340.906 306.984 341.247 307.343 341.628C309.439 340.838 316.326 341.256 317.884 341.253C322.734 341.25 318.916 340.594 322.166 340.497C325.434 340.397 329.162 340.732 331.85 339.902C331.816 340.319 331.616 340.756 331.437 341.141C336.512 341.111 335.464 340.65 335.988 340.57C344.24 339.227 348.87 339.924 358.299 339.581C357.125 339.767 355.925 339.941 354.715 340.118C361.823 340.662 357.144 340.626 350.842 341.198C356.736 340.848 360.065 341.434 364.232 341.443C368.259 341.462 375.377 340.67 377.986 340.208C372.034 340.08 365.743 340.747 359.067 340.941C359.811 340.48 360.532 340.085 361.287 339.581C365.379 340.265 367.497 339.552 368.9 339.358C372.799 338.796 372.695 339.564 374.938 338.612C374.863 338.899 374.809 339.14 374.731 339.409C382.789 338.825 391.23 337.76 396.524 338.426C396.943 337.716 397.193 337.043 397.721 336.31C401.297 336.564 403.992 335.835 406.885 335.728C409.484 335.642 408.823 336.246 412.003 336.198C412.468 336.198 414.018 335.725 415.422 335.859C416.184 335.951 419.135 336.468 420.791 336.504L420.827 336.5C421.379 336.472 421.838 336.395 422.327 336.215C422.888 336.022 423.04 335.803 423.115 335.465C426.058 334.915 428.507 334.353 431.298 333.722C428.551 334.22 426.04 334.64 423.216 335.067C423.722 334.872 424.303 334.662 424.955 334.434C425.432 334.24 425.946 334.038 426.497 333.826C427.034 333.617 427.685 333.383 428.217 333.171C428.714 332.966 429.234 332.756 429.776 332.538C430.138 332.826 430.509 333.119 430.871 333.401C437.073 332.499 441.388 330.852 447.552 329.362C448.589 329.105 446.406 330.435 450.788 329.052C455.33 327.596 458.315 325.394 465.967 323.473C466.357 323.374 468.969 323.59 471.402 322.021C471.96 321.664 469.319 322.313 470.651 321.642C471.982 320.99 478.23 318.584 478.511 317.937C478.506 318.125 478.182 318.438 478.055 318.674C479.142 318.366 480.246 318.046 481.356 317.715C481.347 317.388 481.346 317.058 481.337 316.733C487.659 315.071 491.264 314.957 499.98 310.631C497.674 312.17 495.336 313.681 493.025 315.139C492.223 315.134 491.403 315.132 490.596 315.123C486.485 316.952 482.361 318.68 478.205 320.327C477.397 320.239 476.607 320.144 475.808 320.048C474.686 320.498 473.582 320.933 472.476 321.364C472.841 321.513 473.209 321.658 473.588 321.801C471.306 322.527 469.2 323.168 466.866 323.863C471.873 323.874 479.393 319.393 479.223 320.804C480.143 320.255 481.067 319.698 481.993 319.134C482.654 319.546 484.617 318.626 488.079 317.137C487.387 317.744 486.61 318.375 485.986 318.951C489.253 317.227 495.325 314.749 498.755 313.023C500.268 312.268 498.543 312.546 498.981 312.292C501.212 311.006 505.933 309.649 506.843 309.129C512.186 306.112 515.003 302.982 521.255 300.571C515.383 304.142 518.592 302.22 516.71 303.874C516.118 304.395 508.396 308.888 518.181 303.495C519.451 303.04 536.094 291.526 530.025 294.368C532.9 292.827 535.175 291.648 537.775 290.148C542.476 284.212 541.573 287.233 540.491 289.371C541.469 288.666 542.397 287.992 543.386 287.243C540.658 287.968 551.135 279.733 554.742 276.946C555.993 276.048 553.095 279.214 555.811 276.938C556.99 275.73 558.292 274.329 559.478 273.007C558.164 275.342 561.928 271.939 562.397 272.471C564.205 269.645 564.781 266.877 563.056 267.702C565.053 265.934 567.006 264.09 568.898 262.176C568.266 263.257 567.602 264.344 566.934 265.407C572.328 258.529 579.028 249.323 578.475 246.952C579.035 245.947 579.584 244.919 580.11 243.891C580.5 243.687 580.885 243.491 581.275 243.28C583.37 238.473 585.082 233.463 586.338 228.429C584.818 232.811 584.111 233.727 582.538 238.334C582.996 236.496 583.409 234.612 583.743 232.784C586.726 226.19 587.814 225.343 589.319 214.331C589.46 213.872 589.507 205.532 589.369 205.214C589.122 203.884 588.611 205.866 588.484 205.273C588.255 203.665 586.949 194.128 586.705 194.29C586.09 197.005 582.994 228.105 578.111 235.535C550.504 293.824 481.024 317.975 419.935 330.889L420.251 330.849C394.756 333.236 368.644 334.875 342.639 335.843C341.69 335.876 342.093 335.57 341.687 335.574C339.131 335.6 336.768 336.135 335.841 336.186C333.879 336.292 334.947 335.838 333.507 335.887C318.63 336.386 304.596 336.908 289.712 336.875C288.741 336.872 289.734 337.205 288.026 337.148C287.139 337.117 284.395 336.604 282.418 336.588C275.494 336.533 269.684 336.631 262.383 336.466C258.392 336.377 252.417 336.251 247.953 336.074C245.984 335.998 243.946 335.681 242.009 335.588C239.254 335.454 239.79 335.951 239.365 335.962C237.493 336.001 237.26 335.468 235.494 335.39C232.204 335.24 232.042 335.583 227.853 335.299C224.855 335.099 218.115 334.351 214.352 333.952C205.621 333.657 194.541 332.317 186.544 331.064C181.731 330.313 181.249 330.713 179.318 330.416C172.433 329.321 167.392 327.761 161.114 326.378C157.67 325.614 154.244 324.851 151.107 324.095C146.451 322.966 141.995 321.846 137.313 320.425C136.024 320.031 136.451 319.697 135.201 319.292C130.481 317.771 124.577 315.662 120.491 314.212C115.863 312.563 114.034 312.543 109.626 310.587C108.353 310.012 108.192 309.334 106.103 308.351C102.688 306.748 98.8428 305.507 96.4506 304.4C93.2262 302.892 96.2545 303.771 91.9502 301.668C91.7731 301.58 90.9407 301.617 90.0383 301.118C87.4193 299.655 87.8511 299.544 84.0092 297.404C83.6348 297.22 78.4577 294.597 77.9727 294.27C75.0865 292.529 69.3742 288.812 67.8015 287.531C62.243 283.039 67.1251 285.953 61.4839 283.274C59.6097 281.355 57.7761 279.377 55.8998 277.274C57.0951 278.776 51.1402 273.925 50.8168 273.496C47.8251 270.194 50.0243 271.734 46.1277 267.714C50.2878 273.981 41.0494 262.505 39.2556 259.793C29.7728 247.302 22.8834 234.587 18.0814 219.466C16.4636 214.404 14.9879 207.412 13.9724 201.88C13.7333 200.587 13.6294 201.617 13.4176 200.475C13.2127 199.332 13.751 200.546 13.509 199.242C12.5722 194.132 11.764 189.697 11.3635 185.138L11.3805 185.815C11.4859 183.134 11.7004 180.553 12.14 177.748C12.052 177.369 11.9643 177.376 11.8808 176.752C12.8739 170.538 13.1758 158.542 13.7777 154.075C14.6426 147.102 15.471 145.422 16.4476 140.466C17.6935 133.88 19.9968 124.09 20.0431 128.794C21.4501 124.475 22.979 120.383 24.6854 116.15C24.8762 115.678 24.3895 115.846 24.4648 115.657C24.9417 114.453 25.4276 114.213 25.8104 113.432C26.8645 111.319 24.831 114.62 26.3978 111.634C27.2541 110.077 27.908 109.271 30.3545 105.017C45.0462 79.0325 73.3817 59.8699 101.866 47.2159C103.824 46.3385 102.671 47.2458 105.149 46.1339C105.744 45.8688 106.374 45.5878 107.036 45.2935C115.661 41.3426 129.83 36.048 137.131 34.0833C145.021 31.9255 143.353 32.9732 148.319 31.8981C149.283 31.6964 148.425 31.6013 149.288 31.3767C155.107 29.8612 161.972 27.8234 166.671 26.7742C169.798 26.076 169.646 26.5997 171.847 26.1951C175.172 25.5865 178.353 24.5082 180.118 24.1755C188.36 22.6348 194.082 22.1376 201.734 20.8626C201.447 21.0089 201.261 21.1333 201.021 21.2718C210.187 19.9697 219.323 18.8944 228.499 18.0143C228.074 18.1509 227.664 18.2874 227.24 18.4264C238.047 17.3728 236.699 16.5042 235.94 18.7614C236.729 18.7743 237.565 18.7971 238.319 18.8094C237.918 17.7068 244.402 16.3343 252.713 15.5785C253.324 15.5187 257.491 16.4097 256.978 15.1289C258.062 15.3951 258.709 15.585 259.625 15.8239C261.367 15.3476 263.138 14.8817 264.89 14.4206C265.847 14.4432 266.817 14.4653 267.774 14.492C267.924 14.7433 267.825 15.0127 268.139 15.2538C272.559 15.1292 281.633 14.6395 285.131 14.6603C293.824 14.6704 302.647 15.4927 309.418 14.949C312.707 15.1289 309.426 15.5194 314.315 15.6285C314.876 15.3948 315.405 15.1711 315.991 14.932C319.93 16.2353 320.802 15.5739 326.288 15.6376C329.996 15.6888 332.39 16.1236 335.924 16.3248C336.818 16.3763 336.716 16.0343 337.326 16.0909C339.375 16.2717 345.129 17.2188 346.585 17.3727C359.573 18.7004 370.789 20.0679 383.065 21.9636C384.39 22.1716 382.622 22.2105 383.992 22.4255C386.192 22.7757 384.985 22.0575 386.261 22.2514C389.82 22.8104 389.702 23.3187 394.664 24.2956C410.857 27.5034 429.296 31.8001 445.365 37.7569C445.871 37.945 445.732 38.2267 446.278 38.4349C449.841 39.7908 453.462 40.8017 456.659 42.1948C458.578 43.0301 460.265 43.8611 461.868 44.6962L464.671 46.0423L467.258 44.1484C469.715 42.4856 472.195 41.1107 475.161 39.5277C484.334 34.7277 493.586 31.9279 504.511 30.5024C513.453 29.4213 521.413 29.3524 531.4 30.1692C556.764 32.3812 581.734 41.0955 605.029 52.6896L606.564 41.6394C586.772 45.6816 567.916 52.2178 550.892 63.4633C549.874 64.155 550.446 64.1087 550.128 64.3072C547.117 66.2191 546.65 66.157 546.096 67.5363C542.402 70.211 540.862 70.6534 536.86 74.6565C534.798 76.8624 536.937 75.7671 533.261 79.3257C530.248 82.854 532.073 77.817 525.618 90.4218C525.475 90.7718 525.144 92.6493 524.02 95.3561C523.003 98.1334 523.4 94.657 521.584 101.637C521.493 102.045 521.407 102.459 521.327 102.877L520.569 106.926L524.142 109.19C536.256 117.006 551.397 126.689 561.954 138.543C562.748 139.234 568.581 146.964 569.376 148.693C571.133 151.909 570.428 151.449 572.595 155.606C574.199 158.842 575.867 161.389 577.239 165.48C577.385 165.956 577.258 166.898 578.241 169.967ZM5.94985 160.306C5.3787 161.239 3.41389 162.796 3.43104 168.793C3.43416 169.353 4.87217 166.445 4.79189 169.708C5.17148 166.558 5.51278 163.425 5.95167 160.306C5.95106 160.306 5.95045 160.306 5.94985 160.306ZM593.255 192.692C592.843 188.224 592.25 183.726 591.409 179.275C591.723 182.39 591.918 185.516 592.01 188.584C592.445 189.975 592.856 191.297 593.255 192.692ZM288.072 6.70956C288.076 6.70956 288.081 6.70956 288.085 6.70953C283.439 6.50095 278.78 6.34042 274.126 6.22827C274.619 6.38107 275.112 6.5351 275.604 6.68896C279.279 6.86819 282.955 7.07709 286.609 7.31647C287.096 7.11362 287.584 6.91138 288.072 6.70956ZM324.684 9.35843C327.651 9.32474 326.946 8.95731 328.591 8.73181C328.591 8.73242 328.591 8.73303 328.591 8.73364C329.025 8.67502 331.026 8.72577 331.798 8.76447C331.5 8.95197 331.12 9.13171 330.799 9.31665C337.66 10.2444 351.306 9.57147 333.857 7.52216C334.102 7.80029 334.335 8.07642 334.579 8.35483C325.896 7.66711 316.162 7.82428 324.684 9.35843ZM13.1609 229.938C15.1403 237.26 15.934 239.668 20.7852 247.497C20.3713 246.244 19.9763 244.987 19.6004 243.726C18.6894 242.493 17.8096 241.262 16.9374 239.993C16.9356 239.989 16.9338 239.985 16.9319 239.981C17.0367 239.596 17.1432 239.211 17.2562 238.839C15.7882 235.926 14.4177 232.943 13.1609 229.938ZM598.827 41.4802C601.414 40.7819 600.492 41.3981 595.178 38.6949C593.323 37.7651 595.297 38.275 594.13 37.7296C587.847 34.8344 586.846 35.7523 588.085 36.8569C591.723 38.3282 595.365 39.899 598.815 41.475C598.819 41.4767 598.823 41.4785 598.827 41.4802ZM576.244 144.87C576.246 144.874 576.248 144.877 576.251 144.881C576.701 144.806 575.231 142.383 577.32 144.832C575.995 142.789 574.585 140.811 573.084 138.874C573.494 139.467 573.906 140.074 574.298 140.672C573.809 140.249 573.313 139.83 572.815 139.417C572.665 138.447 571.971 137.973 570.217 136.129C571.054 136.329 571.904 136.556 572.747 136.789C570.744 134.545 568.649 132.418 566.473 130.378C566.355 130.441 566.237 130.504 566.119 130.567C565.47 129.658 564.797 128.746 564.115 127.849C563.792 127.749 563.478 127.656 563.154 127.557C562.268 126.543 561.355 125.534 560.443 124.551C559.885 124.56 561.995 126.632 558.134 123.092C559.087 124.425 560.033 125.787 560.938 127.154C566.661 132.451 571.912 138.327 576.244 144.87ZM547.546 24.7175C556.002 26.401 553.639 25.7327 551.878 24.4843C550.437 24.5466 548.967 24.6194 547.546 24.7175ZM118.212 33.1435C115.648 33.4435 113.221 33.7331 110.568 34.1667C107.084 35.2718 104.021 37.0683 103.766 37.6482C103.725 37.7347 103.746 37.7939 103.839 37.8199C104.007 37.8708 104.412 37.8095 105.112 37.601C109.472 36.2991 113.823 34.0407 118.212 33.1435ZM25.5931 98.7017C28.7322 93.285 24.9625 97.8577 23.8968 98.8851C23.5427 100.715 22.2507 102.758 20.5254 106.254C22.223 103.007 25.0859 99.5845 25.5947 98.7026C25.5942 98.7023 25.5936 98.702 25.5931 98.7017ZM215.111 11.6411C217.576 11.3763 220.06 11.2701 222.223 10.8514C221.507 10.3681 217.164 11.3373 220.222 10.1895C218.653 10.3415 217.052 10.5036 215.486 10.6659C216.52 10.8892 215.209 11.292 215.117 11.6386C215.115 11.6395 215.113 11.6403 215.111 11.6411ZM465.795 35.2949C464.459 36.4377 463.491 37.2762 462.635 37.9548L465.149 37.6993C463.313 36.9129 462.052 36.0847 459.192 34.5283C458.492 34.7032 461.823 36.863 464.725 38.6046L463.233 38.7561C463.871 38.3703 464.493 37.9935 465.055 37.6456C465.282 36.864 465.531 36.0783 465.795 35.2949ZM510.872 309.143C509.54 309.086 501.736 312.744 497.843 314.626C498.352 314.512 498.865 314.397 499.377 314.281C503.242 312.656 507.085 310.942 510.872 309.143ZM19.7314 107.927C20.0026 107.335 20.2683 106.778 20.5254 106.254C20.2219 106.827 19.9505 107.391 19.7314 107.927ZM111.92 316.325C110.287 314.981 115.935 317.027 109.071 314.523C109.071 314.522 109.071 314.522 109.071 314.521C104.56 312.824 103.564 312.435 99.4763 310.634C100.583 312.045 108.795 316.058 97.2933 311.035C97.1413 310.964 97.6586 310.674 95.8024 309.866C95.2337 309.616 93.2554 309.122 90.537 307.875C89.6423 307.464 83.0594 304.218 91.9565 308.777C91.4363 309.156 91.6578 309.912 91.3905 310.398C94.8493 312.289 98.0401 312.551 101.82 314.256C107.395 316.753 109.967 318.951 111.573 318C106.88 315.795 98.817 312.192 97.4133 312.491C92.8726 310.375 91.912 309.057 95.7023 310.491C111.211 318.016 100.34 311.614 114.045 317.825C114.136 318.082 114.634 318.512 114.476 318.659C119.039 319.622 112.475 316.811 111.92 316.325ZM78.907 302.131C81.2418 304.006 83.6618 305.857 86.0738 307.632C86.3981 306.989 85.2754 305.721 81.3571 303.044C80.5399 302.746 79.7157 302.438 78.907 302.131ZM322.426 342.681C322.866 343.057 324.017 343.38 324.857 343.725C325.715 343.408 347.047 342.346 336.228 342.409C334.663 342.425 325.033 343.409 322.426 342.681ZM498.223 23.77C495.746 24.4633 493.295 25.2442 490.893 26.115C494.714 25.3241 498.62 24.7609 502.469 24.4074C501.055 24.1699 499.674 23.9509 498.223 23.77ZM81.0132 50.5388C81.9498 50.0123 78.5566 51.2521 82.324 49.3021C79.3544 50.5137 76.7303 51.6616 73.8668 52.9846C73.1989 53.6726 72.5341 54.365 71.8897 55.0536C71.2039 55.2834 70.5003 55.5298 69.7934 55.7821C70.3555 55.8624 70.885 55.9544 71.4578 56.0386C75.4003 52.7127 76.959 52.8536 81.0132 50.5388ZM228.11 13.0616C228.958 12.1794 221.492 12.4178 228.782 11.5959C227.347 11.205 225.084 11.1354 220.827 11.5341C220.166 11.8047 219.509 12.0747 218.839 12.3486C218.686 11.8273 217.558 11.7461 215.111 11.6411C215.109 11.642 215.107 11.6429 215.105 11.6437C208.608 12.3614 209.036 12.5141 207.595 13.5778C214.35 12.2344 214.669 13.0242 219.413 12.9818C222.643 12.9612 226.817 12.406 228.11 13.0616ZM299.643 343.087C304.539 343.702 300.177 344.394 308.798 343.55C308.229 343.388 307.67 343.228 307.114 343.066C304.639 343.078 302.148 343.085 299.643 343.087ZM251.921 8.53259C251.427 9.79123 246.913 11.0287 246.001 9.08359C250.444 8.38971 248.328 9.65997 251.921 8.53259ZM28.3529 97.9479C33.0713 90.8089 31.168 91.3419 28.492 93.8776C28.3858 94.4772 28.2864 95.075 28.1973 95.6607C27.2533 96.8656 26.3329 98.0907 25.442 99.3297C26.4087 98.8531 27.3803 98.3927 28.3529 97.9479ZM403.082 19.6189C396.84 17.3932 410.156 20.6445 405.765 19.1353C402.235 17.9042 397.346 17.8385 399.023 18.7412C400.264 19.0077 401.642 19.3033 403.069 19.6162C403.073 19.6171 403.077 19.618 403.082 19.6189ZM365.564 13.0838C366.755 12.2911 365.167 12.3472 370.308 13.2047C371.811 13.4206 383.504 14.8433 378.501 14.868C374.364 14.2328 369.869 13.618 365.564 13.0838ZM5.71194 193.444C6.00099 193.432 5.97143 188.737 5.91241 185.62L5.91213 185.609C6.0332 184.423 6.09764 183.49 6.04926 183.164C6.04987 183.164 6.05048 183.164 6.05109 183.164C5.76307 181.232 5.45736 184.024 5.12818 185.579L5.13095 185.689C5.04949 186.671 4.88961 187.172 4.44951 185.749L4.44457 185.553C4.43559 185.502 4.42659 185.448 4.41755 185.392C4.41977 185.446 4.42192 185.499 4.42401 185.553L4.42901 185.751C5.9875 194.784 4.84594 197.711 7.03254 196.737C6.37123 191.345 6.2612 193.947 5.71194 193.444ZM586.669 228.601C586.67 228.597 586.671 228.592 586.673 228.588C586.551 229.194 585.518 234.15 585.892 233.65C587.67 227.813 586.966 228.751 588.99 223.364C588.856 223.015 588.717 222.712 588.583 222.342C587.971 224.467 587.427 225.67 586.669 228.601ZM345.498 341.081C343.307 341.064 339.165 341.667 336.707 341.726C344.868 343.146 354.265 341.133 345.498 341.081ZM535.98 87.0692C535.984 87.0645 535.988 87.0598 535.992 87.0551C535.99 87.056 535.988 87.0576 535.986 87.0585C535.984 87.0621 535.982 87.0656 535.98 87.0692ZM173.649 335.826C173.953 335.765 174.13 335.697 174.202 335.624C174.203 335.616 174.205 335.608 174.206 335.6C174.035 335.676 173.853 335.752 173.649 335.826ZM9.05738 212.129C10.4787 215.662 8.44117 203.23 7.70792 199.203C7.49663 199.524 7.27052 199.61 7.08725 200.322C8.24773 203.473 8.77049 211.543 9.05738 212.129ZM172.963 19.0832C163.11 21.0388 176.355 20.7201 176.502 18.8941C176.474 18.8615 173.211 19.0357 172.963 19.0832ZM11.5627 133.96C12.8942 131.672 11.6669 136.628 13.7894 128.753C13.7569 128.246 13.7265 127.738 13.6992 127.23C12.93 129.466 12.2254 131.687 11.5627 133.96ZM111.095 39.3798C109.12 40.0919 107.198 40.806 105.405 41.4813C96.2391 44.9521 89.5077 47.5503 94.9763 43.1754C95.8627 42.8267 96.8111 42.4528 97.6703 42.1273C98.1368 42.8306 100.538 41.3519 104.568 39.5251C104.979 39.3389 105.407 39.1495 105.853 38.9592C106.651 39.014 109.301 38.0237 109.919 38.116C111.097 38.2912 108.227 39.8892 111.095 39.3798ZM590.299 51.4352C590.527 51.5287 590.781 51.6151 591.021 51.7038C592.986 51.2852 594.934 50.9041 596.88 50.5564C596.484 50.3525 596.079 50.1522 595.707 49.9433C593.921 50.407 592.141 50.8963 590.311 51.4307C590.307 51.4322 590.303 51.4337 590.299 51.4352ZM69.6115 293.984C69.617 296.031 66.3532 293.646 60.5096 288.049C63.4717 290.121 66.5482 292.125 69.6115 293.984ZM308.575 10.959C308.849 10.4763 309.12 9.99503 309.408 9.51294C313.679 10.1559 312.858 10.6961 310.79 11.2769C310.047 11.1697 309.319 11.0637 308.575 10.959ZM369.89 16.0407C368.11 15.9035 369.064 15.6332 368.878 15.616C364.422 15.2412 363.786 15.3372 358.333 14.4092C357.672 14.23 357.015 14.0471 356.36 13.868C359.01 13.1286 360.81 13.8808 366.223 13.9576C365.216 14.184 364.213 14.4142 363.207 14.6477C366.19 14.9375 369.13 15.2484 372.134 15.5945C372.472 15.7516 372.811 15.9082 373.148 16.066C372.071 16.0536 370.957 16.0571 369.89 16.0407ZM569.066 60.063C566.432 61.342 563.836 62.7058 561.311 64.1502C561.095 63.9806 560.881 63.8078 560.664 63.6391C563.421 62.3465 566.227 61.1591 569.066 60.063ZM122.809 320.857C122.998 321.019 123.182 321.179 123.342 321.333C123.36 321.22 123.149 321.054 122.809 320.857ZM587.207 220.805C587.722 217.577 588.536 212.882 588.774 209.323C589.474 209.652 588.171 218.774 587.72 221.97C587.495 222.448 586.995 222.168 587.207 220.805ZM35.2638 88.2935C36.035 87.841 36.7924 87.4174 37.5569 87.0005C38.807 85.4613 40.1098 83.9369 41.439 82.4599C41.6688 82.5935 41.8993 82.7298 42.1287 82.864C36.0087 89.1356 37.9941 88.1809 35.8823 91.9882C35.6575 90.7662 35.4456 89.5423 35.2638 88.2935ZM550.977 122.291C546.1 118.202 544.423 116.668 547.779 118.181C549.484 119.693 551.147 121.224 552.785 122.797C552.182 122.624 551.576 122.453 550.977 122.291ZM237.522 340.109C242.893 340.655 242.999 339.613 248.223 340.396C245.404 340.485 242.605 340.565 239.793 340.627C239.041 340.456 238.271 340.282 237.522 340.109ZM18.8584 227.315C19.9705 229.209 19.8593 233.791 23.7432 238.847C24.0517 240.337 24.1526 241.333 24.4181 242.641C25.1237 243.113 25.8842 243.66 26.5751 244.083C26.577 244.086 26.579 244.09 26.581 244.093C29.2157 249.052 26.993 246.138 26.6734 246.458C26.5353 246.609 28.9409 250.072 27.9362 249.142C26.1181 247.575 22.4685 239.844 21.7859 240.162C23.3167 242.757 26.0043 247.972 24.685 246.725C23.2029 245.355 21.4987 239.974 19.6094 236.954C22.8956 240.999 18.2033 231.721 16.9183 230.922C15.4458 224.91 17.6133 230.134 20.1397 235.843C19.2923 232.052 21.185 237.353 22.1791 237.902C20.6726 234.276 15.7215 221.841 18.8584 227.315ZM160.863 24.9248C156.648 25.7957 150.379 27.7616 147.36 27.8828C145.612 27.9388 152.036 26.0089 147.409 26.5735C151.474 25.6005 152.469 25.6154 151.9 26.2816C152.82 26.1211 153.755 25.9587 154.682 25.8015C155.081 25.6034 155.493 25.4044 155.894 25.2071C156.425 25.3016 156.958 25.3947 157.478 25.4935C158.446 25.2279 159.431 24.9621 160.41 24.7C160.549 24.7786 160.767 24.8254 160.863 24.9248ZM391.58 337.498C390.333 337.577 389.282 337.641 388.089 337.713C388.21 337.578 388.355 337.437 388.493 337.299C388.592 337.19 388.691 337.081 388.79 336.972C388.187 337.38 382.449 338.361 380.139 338.109C378.919 337.987 381.655 337.127 376.49 337.316C380.3 337.125 383.477 337.021 387.179 336.838C386.846 336.653 386.523 336.465 386.186 336.28C386.188 336.279 386.19 336.279 386.192 336.278C387.387 336.154 388.57 336.027 389.713 335.903C390.328 336.436 390.901 336.97 391.58 337.498ZM305.083 11.8402C301.064 11.3472 299.711 11.1261 301.629 10.5002C301.633 10.5 301.637 10.4998 301.642 10.4995C303.141 10.8158 304.638 11.1371 306.131 11.4637C305.785 11.5889 305.44 11.7148 305.083 11.8402ZM156.661 328.653C162.819 332.046 152.822 329.287 150.124 327.77C149.283 327.332 149.02 327.028 149.872 327.06C149.897 327.061 150.046 327.101 150.285 327.167C151.589 327.544 155.92 328.73 156.661 328.653ZM28.1556 99.6852C29.4155 97.7097 30.7322 95.7786 32.121 93.8771C32.0534 94.4959 31.9842 95.1222 31.9296 95.7365C30.6496 97.0086 29.3837 98.3338 28.1556 99.6852ZM527.65 107.354C527.135 107.2 526.485 106.939 525.751 106.6L523.946 105.456L524.329 103.411C524.47 100.126 525.95 95.4194 527.591 93.256C526.971 94.8984 526.45 96.5546 526.022 98.2518C527.066 95.1286 528.44 92.1792 530.105 89.349C531.062 89.6701 528.525 92.6058 527.039 98.086C526.87 98.6807 526.635 101.474 526.318 103.765L526.183 104.483L526.817 104.884C527.718 105.408 528.469 105.967 528.81 106.514C528.945 106.731 527.144 105.707 526.445 105.483L525.402 104.823L525.623 103.641C525.606 103.353 525.54 103.267 525.381 103.598L525.129 104.941L526.315 105.693C526.464 105.859 526.749 106.119 527.209 106.501C526.86 106.294 526.523 106.092 526.191 105.892L524.869 105.054L525.149 103.557C525.368 102.233 525.64 101.028 525.964 99.7563C525.777 99.5773 525.591 99.3979 525.41 99.2036C525.077 100.6 524.81 102.017 524.609 103.461L524.262 105.319L525.901 106.358C526.488 106.69 527.071 107.022 527.65 107.354ZM136.85 30.9337C131.312 32.6031 130.497 32.4997 129.123 32.2177C131.803 31.4553 134.348 30.7702 136.993 30.0884C136.939 30.3713 136.902 30.6494 136.85 30.9337ZM556.511 63.3171C559.297 61.553 558.357 62.7458 559.557 62.1817C564.098 60.11 566.973 58.2738 571.562 56.5102C571.222 56.5438 570.909 56.5745 570.58 56.609C570.584 56.6072 570.588 56.6055 570.591 56.6037C592.016 47.5875 580.903 52.8582 568.221 58.3223C568.014 58.6441 567.82 58.9612 567.615 59.2829C561.87 61.5992 556.773 64.2889 556.511 63.3171ZM85.9152 302.194C86.2037 302.202 84.6726 300.461 88.087 302.733C90.408 305.3 85.9698 302.291 84.5891 302.025C85.519 302.67 86.4495 303.302 87.3738 303.924C81.3462 301.044 80.6575 300.224 83.1957 300.701C83.3686 300.737 85.6401 302.193 85.9152 302.194ZM126.312 319.079C126.601 321.042 118.872 317.472 119.382 317.056C120.47 317.434 121.216 318.019 122.422 318.312C123.643 318.607 124.073 318.333 126.312 319.079ZM14.6527 136.432C14.5963 136.671 14.7409 139.231 14.2416 138.865C13.5715 135.574 16.0964 129.843 16.2604 131.027C15.6837 132.956 15.1285 134.231 14.6544 136.433C14.6539 136.433 14.6533 136.432 14.6527 136.432ZM557.977 130.361C557.882 130.291 553.153 126.475 552.689 125.776C552.379 125.115 552.352 124.666 552.176 124.108C554.649 126.456 559.786 130.917 557.968 130.352C557.971 130.355 557.974 130.358 557.977 130.361Z" fill="#0B1956"/>
</svg>
