<svg width="40" height="40" viewBox="0 0 40 40" fill="none" xmlns="http://www.w3.org/2000/svg">
<path d="M32.8 11.5C33.4627 11.5 34 12.1716 34 13C34 13.8284 33.4627 14.5 32.8 14.5H7.2C6.53726 14.5 6 13.8284 6 13C6 12.1716 6.53726 11.5 7.2 11.5H32.8Z" fill="#5884E7"/>
<path d="M32.8 18.5C33.4627 18.5 34 19.1716 34 20C34 20.8284 33.4627 21.5 32.8 21.5H7.2C6.53726 21.5 6 20.8284 6 20C6 19.1716 6.53726 18.5 7.2 18.5H32.8Z" fill="#5884E7"/>
<path d="M32.8 25.5C33.4627 25.5 34 26.1716 34 27C34 27.8284 33.4627 28.5 32.8 28.5H7.2C6.53726 28.5 6 27.8284 6 27C6 26.1716 6.53726 25.5 7.2 25.5H32.8Z" fill="#5884E7"/>
</svg>
