<svg width="326" height="48" viewBox="0 0 326 48" fill="none" xmlns="http://www.w3.org/2000/svg">
<g clip-path="url(#clip0_2030_4264)">
<path d="M6.08746 0.205078V9.63218H3.62746V0.205078H0V23.7111H3.62746V13.3783H6.08746V23.7111H9.67322V0.205078H6.08746Z" fill="#0B1956"/>
<path d="M15.8433 23.9588H15.1345C12.2576 23.9588 10.7148 22.3945 10.7148 19.5129V14.8199H14.3006V18.9365C14.3006 20.0069 14.6342 20.5832 15.4681 20.5832C16.3437 20.5832 16.6355 20.0069 16.6355 18.566V18.0309C16.6355 16.3431 16.4687 15.7667 15.1762 14.0789L12.9247 11.1561C11.382 9.1801 10.9233 7.69811 10.9233 5.35163V4.61063C10.9233 1.44082 12.5494 0 15.3847 0H16.0518C19.0121 0 20.1796 1.27616 20.1796 4.07547V7.94511H16.6772V4.5283C16.6772 3.74614 16.5104 3.12864 15.6348 3.12864C14.7593 3.12864 14.5925 3.66381 14.5925 4.7753V5.22813C14.5925 6.54545 14.8426 7.28645 16.0518 8.80961L18.345 11.7324C19.9711 13.8319 20.4715 15.0257 20.4715 17.6604V18.4014C20.5132 21.9005 19.0121 23.9588 15.8433 23.9588Z" fill="#0B1956"/>
<path d="M29.7686 0.205078V3.62189H25.1821V9.79685H28.7679V13.3372H25.1821V20.1296H29.9771V23.7111H21.5547V0.205078H29.7686Z" fill="#0B1956"/>
<path d="M39.7361 19.3063H37.1093L36.6089 23.7111H33.3984L36.3171 0.205078H40.6117L43.6971 23.7111H40.1947L39.7361 19.3063ZM39.3191 15.8071L38.3601 7.12103L37.4428 15.8071H39.3191Z" fill="#0B1956"/>
<path d="M47.8657 23.7111H44.2383V0.205078H50.0756C52.4939 0.205078 53.703 1.23424 53.703 3.82772V7.98552C53.703 9.96151 52.7857 10.7025 52.1186 10.9907C52.9108 11.32 53.703 11.9787 53.703 13.543V21.7763C53.703 22.7231 53.9115 23.1759 54.0366 23.5053V23.6699H50.4508C50.284 23.4229 50.1173 23.0113 50.1173 21.7351V14.6956C50.1173 13.6665 49.9088 13.2137 48.783 13.2137H47.8657V23.7111ZM47.8657 9.87918H48.8247C49.8254 9.87918 50.1173 9.26168 50.1173 8.19136V4.89805C50.1173 3.86889 49.9088 3.37489 48.8247 3.37489H47.8657V9.87918Z" fill="#0B1956"/>
<path d="M61.0396 3.62189V23.7111H57.4539V3.62189H54.4102V0.205078H64.0417V3.62189H61.0396Z" fill="#0B1956"/>
<path d="M73.7986 19.3063H71.1718L70.6714 23.7111H67.4609L70.3796 0.205078H74.6325L77.7179 23.7111H74.2155L73.7986 19.3063ZM73.3816 15.8071L72.4226 7.12103L71.5053 15.8071H73.3816Z" fill="#0B1956"/>
<path d="M81.5986 0.205078L84.684 12.802V0.205078H87.9779V23.7111H85.0593L81.5986 10.2085V23.7111H78.3047V0.205078H81.5986Z" fill="#0B1956"/>
<path d="M89.3125 0.205078H94.8579C97.9433 0.205078 98.9023 1.93407 98.9023 4.73338V19.0181C98.9023 21.8998 97.8183 23.7111 94.8579 23.7111H89.3125V0.205078ZM92.94 20.2943H93.8156C94.8996 20.2943 95.2332 19.7179 95.2332 18.483V5.22738C95.2332 3.86889 94.8996 3.41606 93.9823 3.41606H92.94V20.2943Z" fill="#0B1956"/>
<path d="M0 24.2051H5.54542C8.63085 24.2051 9.58983 25.9341 9.58983 28.7334V43.0181C9.58983 45.8998 8.50576 47.7111 5.54542 47.7111H0V24.2051ZM3.62746 44.2531H4.50305C5.58712 44.2531 5.92068 43.6768 5.92068 42.4418V29.2274C5.92068 27.8689 5.58712 27.4161 4.66983 27.4161H3.62746V44.2531Z" fill="#0B1956"/>
<path d="M19.0967 24.2051V27.5807H14.4686V33.7557H18.096V37.3372H14.4686V44.1296H19.3052V47.6699H10.8828V24.2051H19.0967Z" fill="#0B1956"/>
<path d="M25.0582 47.9177H24.3493C21.4724 47.9177 19.9297 46.3533 19.9297 43.4717V38.7787H23.5155V42.8954C23.5155 43.9657 23.849 44.542 24.6829 44.542C25.5585 44.542 25.8504 43.9657 25.8504 42.5249V41.9897C25.8504 40.3019 25.6836 39.7256 24.391 38.0377L22.0978 35.1149C20.5551 33.1389 20.0965 31.6569 20.0965 29.3105V28.5695C20.0965 25.4408 21.6809 24 24.5578 24H25.2249C28.1853 24 29.3527 25.2762 29.3527 28.0755V31.9451H25.8504V28.5695C25.8504 27.7873 25.6836 27.1698 24.808 27.1698C23.9324 27.1698 23.7656 27.705 23.7656 28.8165V29.2281C23.7656 30.5455 24.0158 31.2864 25.2249 32.8096L27.5182 35.7324C29.1443 37.8319 29.6446 39.0257 29.6446 41.6604V42.4014C29.728 45.9005 28.227 47.9177 25.0582 47.9177Z" fill="#0B1956"/>
<path d="M34.354 24.2051H30.7266V47.7111H34.354V24.2051Z" fill="#0B1956"/>
<path d="M39.0661 48.0002C36.9397 48.0002 35.6055 46.1477 35.6055 43.7188V29.0224C35.6055 26.3878 36.6478 23.959 40.0668 23.959H40.7756C44.6533 23.959 45.1119 26.4701 45.1119 29.2283V31.6159H41.6095V28.9813C41.6095 27.9521 41.3594 27.3758 40.4421 27.3758C39.6916 27.3758 39.3163 27.9521 39.3163 28.9813V42.7309C39.3163 43.8424 39.775 44.4187 40.4838 44.4187C41.4011 44.4187 41.818 43.8012 41.818 42.8955V37.0087H40.1919V33.4273H45.237V47.712H43.1939C43.1522 47.5885 42.8604 46.4358 42.5685 45.4067C42.3183 46.1888 41.1092 48.0413 39.2746 48.0413H39.0661V48.0002Z" fill="#0B1956"/>
<path d="M49.7405 24.2051L52.8259 36.802V24.2051H56.1198V47.6699H53.2012L49.7405 34.1673V47.6699H46.4883V24.2051H49.7405Z" fill="#0B1956"/>
<path d="M65.5465 47.9177H64.8376C61.9607 47.9177 60.418 46.3533 60.418 43.4717V38.7787H64.0037V42.8954C64.0037 43.9657 64.3373 44.542 65.1712 44.542C66.0468 44.542 66.3387 43.9657 66.3387 42.5249V41.9897C66.3387 40.3019 66.1719 39.7256 64.8793 38.0377L62.5861 35.1149C61.0434 33.1389 60.5848 31.6569 60.5848 29.3105V28.5695C60.5848 25.4408 62.1692 24 65.0461 24H65.7132C68.6736 24 69.841 25.2762 69.841 28.0755V31.9451H66.3387V28.5695C66.3387 27.7873 66.1719 27.1698 65.2963 27.1698C64.4207 27.1698 64.2539 27.705 64.2539 28.8165V29.2281C64.2539 30.5455 64.5041 31.2864 65.7132 32.8096L68.0065 35.7324C69.6326 37.8319 70.1329 39.0257 70.1329 41.6604V42.4014C70.2163 45.9005 68.7153 47.9177 65.5465 47.9177Z" fill="#0B1956"/>
<path d="M77.1786 42.8954V37.4614H80.7227V42.8954C80.7227 45.4065 79.8887 47.9588 76.3864 47.9588H75.5942C71.9667 47.9588 71.1328 45.3653 71.1328 43.0189V28.693C71.1328 26.3053 72.1752 24 75.4691 24H76.303C80.264 24 80.7227 26.5935 80.7227 28.8988V33.0978H77.1786V28.9811C77.1786 27.952 76.845 27.4168 75.9694 27.4168C75.0938 27.4168 74.8437 27.9108 74.8437 28.9811V42.9365C74.8437 43.9657 75.1772 44.542 76.0111 44.542C76.845 44.5009 77.1786 43.8422 77.1786 42.8954Z" fill="#0B1956"/>
<path d="M87.9364 37.3372H85.4764V47.6699H81.8906V24.2051H85.4764V33.591H87.9364V24.2051H91.5639V47.6699H87.9364V37.3372Z" fill="#0B1956"/>
<path d="M102.694 42.4427C102.694 45.736 101.568 47.959 98.1078 47.959H97.4823C94.0217 47.959 92.8125 45.736 92.8125 42.4427V29.3518C92.8125 26.0996 94.0633 23.959 97.4406 23.959H98.0661C101.568 23.959 102.694 26.0996 102.694 29.3106V42.4427ZM99.025 29.1871C99.025 27.9521 98.6081 27.3758 97.7742 27.3758C96.8569 27.3758 96.4817 27.9933 96.4817 29.1871V42.6897C96.4817 43.7188 96.7735 44.501 97.7742 44.501C98.7332 44.501 98.9833 43.7188 98.9833 42.6897V29.1871H99.025Z" fill="#0B1956"/>
<path d="M113.745 42.4427C113.745 45.736 112.619 47.959 109.159 47.959H108.533C105.072 47.959 103.863 45.736 103.863 42.4427V29.3518C103.863 26.0996 105.114 23.959 108.491 23.959H109.117C112.619 23.959 113.745 26.0996 113.745 29.3106V42.4427ZM110.034 29.1871C110.034 27.9521 109.617 27.3758 108.783 27.3758C107.866 27.3758 107.491 27.9933 107.491 29.1871V42.6897C107.491 43.7188 107.783 44.501 108.783 44.501C109.742 44.501 109.992 43.7188 109.992 42.6897V29.1871H110.034Z" fill="#0B1956"/>
<path d="M118.581 24.2051V44.0473H123V47.6699H114.953V24.2051H118.581Z" fill="#0B1956"/>
</g>
<path d="M174.683 5.65817C175.409 6.38467 175.409 7.56258 174.683 8.28906L160.044 22.9266C159.263 23.7076 159.263 24.974 160.044 25.7551L174.684 40.395C175.411 41.1217 175.411 42.3 174.684 43.0266C173.957 43.753 172.779 43.7529 172.053 43.0264L157.413 28.3869C156.632 27.6058 155.366 27.6059 154.585 28.3869L139.946 43.0268C139.219 43.7535 138.041 43.7535 137.314 43.0266C136.588 42.2999 136.588 41.122 137.314 40.3955L151.954 25.756C152.735 24.975 152.735 23.7086 151.954 22.9276L137.315 8.28908C136.589 7.56258 136.589 6.38469 137.315 5.65818C138.042 4.9317 139.22 4.93168 139.946 5.65815L154.585 20.2959C155.366 21.0769 156.632 21.0769 157.413 20.2959L172.052 5.65813C172.778 4.93167 173.956 4.93169 174.683 5.65817Z" fill="#5884E7"/>
<rect x="189" width="136" height="48" rx="4" fill="#F8F4EB"/>
<rect x="190.5" y="1.5" width="133.43" height="45" rx="2.5" stroke="#5884E7" stroke-width="3"/>
<path d="M276.607 30.4252V18.5753H279.96L282.419 26.971L284.877 18.5753H288.181V30.4252H285.747V22.7972L283.437 30.4252H281.351L279.041 22.7972V30.4252H276.607Z" fill="#5884E7"/>
<path d="M269.257 30.2337C264.935 30.2337 263.172 27.4751 263.172 24.1168C263.172 20.4947 265.258 18 268.586 18C271.864 18 273.628 20.3268 273.628 23.781C273.628 24.2368 273.603 24.6206 273.578 25.0044H265.879C266.028 26.7555 267.22 27.8589 269.257 27.8589C270.647 27.8589 271.715 27.5711 272.759 27.0194V29.586C272.163 29.8259 270.896 30.2337 269.257 30.2337ZM265.904 22.8935H271.02C270.921 21.1424 270.027 20.2069 268.586 20.2069C267.046 20.2069 266.127 21.1664 265.904 22.8935Z" fill="#5884E7"/>
<path d="M253.566 36L249.566 18.6318H252.254L252.468 19.3558C253.263 18.7801 253.645 18.4779 255.048 18.4779C257.251 18.4779 260.328 19.6549 260.531 24.2126C260.531 28.0506 258.06 30.5776 254.955 30.5776L256.298 36H253.566ZM254.564 28.1309C256.749 28.511 258.247 26.4772 257.949 23.8707C257.452 19.5289 253.839 20.6411 253.074 21.4144L254.564 28.1309Z" fill="#5884E7"/>
<path d="M237.419 30.2341V18.3842H242.411C245.565 18.3842 247.13 19.5596 247.13 21.7904C247.13 22.7259 246.658 23.6615 245.665 24.1892C246.907 24.7169 247.428 25.6764 247.428 26.7319C247.428 29.1306 245.69 30.2341 242.411 30.2341H237.419ZM242.386 28.0992C243.926 28.0992 244.696 27.7394 244.696 26.6839C244.696 25.6524 243.926 25.2926 242.386 25.2926H240.076V28.0992H242.386ZM242.386 23.2057C243.752 23.2057 244.398 22.8699 244.398 21.8624C244.398 20.8549 243.752 20.5431 242.386 20.5431H240.076V23.2057H242.386Z" fill="#5884E7"/>
<path d="M229.147 30.4248C225.868 30.4248 223.658 27.9541 223.658 24.308C223.658 20.6619 225.868 18.1912 229.147 18.1912C232.425 18.1912 234.636 20.6619 234.636 24.308C234.636 27.9541 232.425 30.4248 229.147 30.4248ZM229.147 28.0261C230.96 28.0261 231.904 26.4189 231.904 24.308C231.904 22.1971 230.96 20.6139 229.147 20.6139C227.334 20.6139 226.39 22.1971 226.39 24.308C226.39 26.4189 227.334 28.0261 229.147 28.0261Z" fill="#5884E7"/>
<path d="M214.174 30.3836V25.3978H218.573L219.875 22.6952V18.5547L211.574 18.5751V30.3836H214.174ZM214.174 20.6744H217.283V23.2985H214.174V20.6744Z" fill="#5884E7"/>
<path d="M213.032 30.3576C214.039 30.3895 215.428 30.4683 216.729 30.3937C217.989 30.3215 219.442 30.0982 220.462 29.3397C221.56 28.5221 221.994 27.1504 221.73 25.9309C221.451 24.642 220.407 23.5427 218.694 23.2809L218.355 25.3543C219.177 25.48 219.43 25.9496 219.524 26.384C219.633 26.8878 219.461 27.3982 219.081 27.6808C218.622 28.0226 217.812 28.2286 216.6 28.298C215.43 28.3651 214.193 28.2939 213.103 28.2593L213.032 30.3576Z" fill="#5884E7"/>
<path d="M299.813 30.3938V25.408L293.93 25.409L292.728 23.5788V18.6366L302.398 18.5853V30.3938H299.813ZM299.813 20.6846L295.293 20.7115V23.3356L299.813 23.3087V20.6846Z" fill="#5884E7"/>
<path d="M291.822 30.4252C291.822 30.4252 291.82 27.205 292.083 25.9855C292.362 24.6965 293.602 23.5973 295.314 23.3355L295.706 25.4087C295.074 25.4347 294.639 26.0702 294.545 26.5045C294.436 27.0084 294.412 30.4252 294.412 30.4252H291.822Z" fill="#5884E7"/>
<defs>
<clipPath id="clip0_2030_4264">
<rect width="123" height="48" fill="white"/>
</clipPath>
</defs>
</svg>
