<svg width="64" height="32" viewBox="0 0 64 32" fill="none" xmlns="http://www.w3.org/2000/svg">
<g clip-path="url(#clip0_1779_2952)">
<path d="M54.969 3.52778C55.1435 3.50912 55.1874 3.06962 55.7064 3.38032C55.8352 3.45782 57.1079 4.66015 57.2575 4.82856C57.7601 5.39675 57.6674 5.56234 58.1712 5.83638C58.1163 5.87212 58.0788 5.92443 58.03 5.96626C58.3806 6.3409 58.7308 6.71472 59.0799 7.08833C59.0993 6.99255 59.1179 6.89631 59.1361 6.79927C59.2522 6.92324 59.3688 7.04736 59.4848 7.17134C59.2332 7.31255 59.8187 7.71684 60.0923 8.24165C60.4184 8.40434 60.744 8.56603 61.0697 8.72895C60.9751 8.73905 60.8744 8.76349 60.7835 8.76411C61.3518 9.41281 61.3615 9.1791 61.4934 9.28462C62.2394 9.88269 61.2132 9.93619 61.9934 10.9067C62.2019 10.9481 62.4146 10.9842 62.6246 11.0229C62.6944 11.1571 62.7635 11.292 62.8333 11.4262C61.9867 10.9248 61.482 10.8585 60.8097 10.6254C60.8055 10.6675 60.8009 10.7109 60.796 10.7514C61.0648 11.0382 61.3333 11.324 61.6022 11.6108C61.5905 11.6683 61.5776 11.7261 61.5659 11.7836C60.8329 10.7561 60.6714 10.8629 59.9386 10.392C59.7485 9.99444 60.0673 10.1241 59.4961 9.50141C59.5459 10.1928 58.4885 9.75489 58.6049 10.5034C58.6341 10.6891 59.3575 11.498 59.0749 11.5424C59.0027 11.4495 58.8599 11.288 58.7599 11.1684C58.7319 11.7611 58.7111 12.1175 57.9675 11.935C58.2505 12.2138 58.5344 12.4941 58.8174 12.7729C58.7704 12.5827 58.7211 12.3897 58.6737 12.1997C59.1602 12.6498 59.2674 12.908 59.5098 12.768C59.7087 12.6537 59.3988 12.5069 59.3261 12.3344C59.2266 12.0993 59.6339 12.4458 59.5198 12.185C59.4327 11.9845 59.0108 11.6239 59.2624 11.6362C59.6573 12.1857 60.0658 12.7529 60.466 13.309C60.323 13.2148 60.1777 13.1184 60.0336 13.0229C59.9505 12.8638 59.8691 12.7064 59.7861 12.5473C59.8665 12.8708 59.9424 13.1762 60.0261 13.5112C59.4085 12.7423 59.5065 13.1035 59.5036 13.2358C59.4991 13.4409 59.1526 12.8727 59.1449 13.0014C59.1391 13.1334 59.5595 13.7543 59.2999 13.7143C59.0845 13.3396 58.7107 13.1024 58.4587 12.7856C58.2068 12.4687 58.3046 12.3146 57.8537 12.0649C57.7869 12.4786 59.146 13.4674 59.1161 13.7641C59.079 14.1187 57.3272 12.256 57.0338 11.81C56.8028 11.4589 57.0532 11.4179 56.8238 11.0678C55.9643 10.68 56.9777 11.8181 57.1188 12.0737C57.6299 13.001 55.8386 10.7603 56.2851 11.6811C55.928 11.274 55.6063 10.9076 55.264 10.517C55.2862 10.6147 55.3444 10.7285 55.344 10.8159C56.2042 11.5183 56.0484 11.5553 55.9839 11.5922C55.8831 11.6511 56.3856 11.9477 56.4476 12.062C56.6116 12.3678 56.3867 12.3114 56.7688 12.6196C56.5922 12.4755 56.4127 12.3322 56.2364 12.1899C56.2961 12.4571 57.5229 14.2996 57.4875 13.812C58.023 14.4522 57.6674 14.1997 57.5138 14.1411C57.3605 14.0829 57.7183 14.481 57.5925 14.4399C57.0908 14.2743 56.6352 13.5066 56.1939 12.9506C56.2101 13.4908 56.7356 13.5671 56.5039 14.061C56.8506 14.5213 57.4763 14.8731 57.5275 15.2202C56.8172 14.4796 56.2017 14.0045 55.7264 13.8891C55.8581 14.0767 55.9909 14.266 56.1226 14.4536C55.3601 13.8284 54.7792 13.0625 55.3027 14.0678C54.0099 12.3973 54.8306 13.4693 54.0228 12.9428C53.8597 12.8368 53.6685 12.4478 53.4541 12.3149C53.3582 12.2563 53.51 12.5432 53.2666 12.3891C53.1447 12.3112 52.4351 11.787 52.5842 12.1401C53.3583 12.8686 53.7337 13.6431 54.489 14.1831C54.0101 14.21 54.1053 14.7101 53.5404 13.4487C53.2452 13.2615 52.9507 13.075 52.6567 12.8891C52.7619 13.1062 52.8655 13.3224 52.9692 13.5385C52.3913 12.9078 52.241 12.7248 52.1055 12.9653C52.0734 12.7594 52.0383 12.5506 52.0055 12.3432C51.8943 12.2131 51.789 12.0722 51.6743 11.9497C51.7667 12.2624 51.5075 12.5608 51.573 12.7768C51.6387 12.9926 51.8459 12.9489 51.968 13.1264C52.9729 14.5918 52.0966 13.585 52.1567 13.8979C52.1933 14.0824 52.5332 14.1188 52.5392 14.2026C52.5591 14.5107 51.8361 13.8355 51.6755 13.9096C52.0947 14.2881 52.5191 14.6731 52.9404 15.0561C52.7613 15.1218 52.5805 15.2161 52.5492 15.4282C52.5368 15.5108 52.8485 15.7877 52.8604 15.8159C52.9065 15.946 52.8621 16.2166 52.8429 16.229C52.6918 16.3151 52.3113 15.8972 52.1417 15.9555C52.1683 15.888 52.1941 15.8257 52.2205 15.7602C51.6364 15.0642 51.0533 14.3676 50.4681 13.6704C50.2778 13.7005 50.0877 13.7318 49.8969 13.7622C50.2077 13.9314 50.5186 14.0997 50.8293 14.269C51.1549 14.911 51.4813 15.5544 51.808 16.1977C51.4184 15.907 51.029 15.6163 50.6394 15.3256C50.4839 15.5449 51.7587 16.8907 50.5706 15.7495C50.5919 15.8892 50.613 16.029 50.6331 16.1674C50.4894 15.9903 50.3456 15.8124 50.2019 15.6352C50.2123 15.7866 50.2216 15.9377 50.2331 16.0903C50.8656 16.6501 51.5249 17.2431 52.1405 17.7856C52.0933 18.0081 51.6291 17.4936 51.4893 17.3784C51.1189 17.0732 51.3999 17.604 51.0656 17.3168C50.9511 17.2176 50.8091 16.79 50.4031 16.4291C50.3238 16.3587 48.8201 15.0386 48.9783 15.4458C49.2142 15.7052 49.5112 16.0196 49.7707 16.3002C49.7259 16.5599 48.4128 15.2512 48.0958 14.8559C48.2354 15.1769 48.1108 15.2786 48.4633 15.7065C48.4217 15.7444 48.3799 15.7819 48.3383 15.8198C47.4819 14.7748 47.4377 15.0759 48.2058 15.9575C48.3121 15.9316 48.4195 15.9062 48.5258 15.8803C49.4184 16.9876 50.2618 17.4898 48.8233 16.7983C48.2196 16.2987 49.0781 16.7718 48.6195 16.4018C48.2532 16.2403 48.2945 16.5199 47.8059 16.2094C47.1959 15.821 46.9958 15.2362 47.1372 16.0776C49.4259 17.1285 47.9472 17.1898 47.9508 17.9018C46.4678 16.4389 45.6757 16.1519 45.5873 16.8764C46.0187 17.2727 45.9787 16.9691 46.1935 17.06C46.4082 17.151 46.5369 17.4558 46.8259 17.5932C47.1152 17.7306 47.5942 17.8705 47.9758 18.1088C48.0952 18.4016 48.1304 19.2287 47.8321 18.3754C47.2221 18.082 46.7259 17.7087 46.366 17.7875C46.8723 18.4976 47.248 18.9073 46.9834 19.0805C46.3261 18.0683 45.432 17.6029 44.6511 16.6127C45.0494 16.7251 45.7655 17.7106 46.2772 18.0903C46.3287 18.128 46.3079 17.7947 46.366 17.7875C45.4346 17.0594 45.0925 16.7856 44.3237 15.7338C44.268 15.893 44.0747 15.8148 44.4849 16.2934C44.2741 16.1039 44.0628 15.9138 43.8525 15.7241C43.8139 15.7527 43.7914 15.7926 43.7425 15.8139C44.4425 16.4912 43.927 16.1204 44.1287 16.4907C44.3307 16.8613 44.9505 17.3591 44.7186 17.4975C44.9473 17.6205 45.148 17.7238 45.3661 17.8393C45.3757 18.1066 45.3864 18.3757 45.3961 18.643C45.8937 19.0189 46.7064 19.5378 47.2122 20.1137C46.9478 19.9364 47.0448 20.4486 47.0322 20.479C46.9815 20.5937 46.7147 20.2031 46.6985 20.1977C46.3795 20.1108 46.3557 20.3058 45.8048 19.7924C45.9039 20.1057 45.6864 20.0156 45.5698 20.1C45.5059 20.1467 45.879 20.5398 45.7698 20.4868C45.0381 20.1289 44.8364 19.4663 45.1873 20.7456C45.5023 20.9901 45.8225 21.2416 46.1398 21.4887C46.174 21.6272 46.2093 21.7663 46.2435 21.9047C46.1578 21.8759 46.0717 21.8467 45.986 21.8178C45.444 21.2106 44.9007 20.6018 44.3587 19.9946C44.2849 19.9856 44.2112 19.9781 44.1374 19.9692C44.1597 19.8681 44.1826 19.7666 44.2049 19.6655C44.1163 19.5549 44.0273 19.444 43.9387 19.3334C43.6782 19.2296 43.4167 19.1241 43.155 19.019C43.3417 19.2312 43.5296 19.4455 43.7162 19.6577C43.1994 19.5025 43.0338 19.3266 43.3125 20.0395C43.1209 20.1347 43.7587 21.1005 43.9837 21.5307C43.8393 21.4335 43.6935 21.3347 43.5487 21.2377C43.6811 21.4268 43.8126 21.6151 43.9449 21.8041C43.6774 21.5866 43.4089 21.369 43.1425 21.1528C43.6112 21.722 43.7524 21.9033 44.1174 21.9936C44.669 22.7189 44.0603 22.5986 43.7162 22.4418C43.4551 22.3227 43.0556 21.6844 42.98 21.6215C42.7243 21.408 42.7363 21.7068 42.6651 21.687C42.3665 21.6061 42.2858 21.6921 42.0351 21.6401C41.9856 21.6292 41.5842 21.3053 41.5676 21.2973C41.4632 21.2622 41.186 21.1529 41.1639 21.1538C40.2054 21.2723 42.3836 22.4365 41.5701 22.6333C41.7767 22.8309 41.9803 23.0281 42.1863 23.226C42.1475 23.2661 42.1077 23.3061 42.0689 23.3461C41.8492 23.2066 41.6429 22.8476 41.7451 23.1723C41.5235 22.9109 41.3015 22.6495 41.0814 22.3891C41.1505 22.5577 41.22 22.7246 41.2877 22.894C40.4014 22.0505 39.8979 22.0236 38.9841 20.9643C38.6732 20.6038 38.5741 20.1137 38.1129 19.7993C37.9481 19.7782 38.3955 20.1672 38.3754 20.2114C38.2247 20.5239 37.7082 19.9192 37.7317 20.142C37.9417 20.4077 38.1549 20.6793 38.3667 20.9477C38.2552 20.8972 38.1436 20.8466 38.0317 20.7963C38.1748 20.9736 38.3173 21.1513 38.4604 21.3286C38.5127 21.3171 38.5716 21.303 38.6204 21.2934C39.1618 21.9879 38.9345 22.5568 38.6154 21.8872C38.4861 21.615 38.7149 21.6354 37.923 20.8979C37.8921 21.0832 37.8445 21.281 37.8067 21.4702C37.6511 21.3034 37.4961 21.1359 37.3405 20.9692C37.2511 21.1811 38.0262 21.7646 38.3504 22.1274C38.3168 22.1609 38.2816 22.1935 38.2479 22.227C38.0832 22.0731 37.9116 21.9115 37.7505 21.7631C37.9823 22.0251 38.5009 22.644 38.1717 22.4887C37.9583 22.3866 37.4992 21.6586 37.4243 21.8354C37.8001 22.236 38.3001 22.7008 38.2429 22.9272C37.8456 22.5119 37.4733 22.1357 37.0605 21.6967C37.2082 22.2227 36.5233 21.6213 36.6931 22.2348C36.8004 22.6237 37.5313 23.8095 35.9581 22.225C35.8014 22.2465 36.2045 22.6345 36.2519 22.7456C36.4761 23.2709 35.6562 22.5587 35.5844 22.5297C35.1264 22.3439 35.2789 22.6611 34.7907 22.3813C35.0714 22.6805 35.3336 22.9657 35.6057 23.2583C35.3447 22.723 35.4378 22.7041 35.7307 22.6899C35.7164 22.7884 35.7036 22.8883 35.6894 22.9868C35.9214 23.2274 36.1539 23.4679 36.3843 23.7075C36.1501 22.3891 37.375 24.0056 37.143 24.6323C36.6886 24.2007 36.2333 23.7714 35.7781 23.3383C36.0897 24.1983 35.4073 23.6769 34.9307 23.7231C34.8758 23.7313 34.9596 24.0737 34.907 24.1225C34.9096 24.1236 34.9119 24.1253 34.9145 24.1264C35.26 24.5795 35.4918 24.7485 35.8431 25.1303C35.8513 25.1977 35.86 25.2651 35.8681 25.3325C35.527 25.0815 35.3386 24.825 35.2469 24.979C35.5295 25.2601 35.8118 25.5415 36.0944 25.8227C35.9346 25.9251 35.5403 25.6682 35.5057 25.8911C35.4331 25.7661 35.3595 25.6411 35.2869 25.5161C34.692 25.4206 33.4252 23.5517 33.9321 24.5483C33.7814 24.4073 33.6302 24.2645 33.4796 24.1235C33.553 24.0286 33.6278 23.9349 33.7008 23.8403C33.513 23.6267 33.3254 23.413 33.1371 23.1997C33.0801 23.3254 33.0241 23.4538 32.9671 23.5795C32.9526 23.5177 32.9379 23.4559 32.9234 23.394C32.9307 23.3852 32.9386 23.3764 32.9459 23.3676C32.9363 23.3696 32.9261 23.3699 32.9171 23.3715C32.8893 23.2531 32.8626 23.1344 32.8347 23.0161C32.8334 23.0159 32.8322 23.0153 32.8309 23.0151C32.9576 22.7984 33.1603 22.5053 33.3134 22.1899C33.1089 22.4593 32.903 22.7281 32.6984 22.9975C32.5993 22.9844 32.5001 22.9716 32.4009 22.9584C32.4124 22.9422 32.4245 22.9258 32.4359 22.9096C32.4174 22.9249 32.3983 22.9402 32.3797 22.9555C32.3082 22.946 32.2362 22.9367 32.1647 22.9272C32.2076 22.9632 32.2464 22.9992 32.2847 23.0327C32.043 23.2315 31.8011 23.4318 31.5598 23.6303C31.6623 23.6574 31.7643 23.686 31.8672 23.7133C32.0199 23.4977 32.1711 23.2823 32.3234 23.0668C32.3938 23.1295 32.457 23.1874 32.5134 23.2426C32.3849 23.4119 32.2558 23.5811 32.1272 23.7504C32.0462 23.7589 31.9986 23.8098 31.9947 23.9252C31.926 24.0157 31.8572 24.1062 31.7885 24.1967C31.7794 24.1905 31.7693 24.1847 31.7597 24.1782C31.7679 24.1865 31.7754 24.1953 31.7835 24.2036C31.6897 24.3272 31.5961 24.451 31.5023 24.5747C31.61 24.4658 31.7173 24.3571 31.8247 24.2485C32.583 25.0429 32.7051 25.5773 33.4484 26.3549C33.4841 26.2768 33.5352 26.2113 33.5608 26.1254C33.2285 25.8845 32.5178 25.1106 32.4297 24.8139C32.3183 24.4364 33.0233 24.8553 32.2397 23.9946C32.291 23.9986 32.337 23.9961 32.3822 23.9956C32.389 24.0043 32.3954 24.0132 32.4022 24.0219C32.4091 24.0136 32.4153 24.0049 32.4222 23.9965C32.4488 23.9962 32.4755 23.9968 32.5034 23.9975C32.6715 24.2256 32.8412 24.4552 33.0096 24.6831C32.8758 24.2546 33.0793 24.3065 33.6446 24.8041C33.5564 25.0378 33.4676 25.27 33.3784 25.5024C33.4407 25.5231 33.5034 25.5444 33.5646 25.5639C33.9084 26.1995 34.5333 26.6382 34.3583 26.9106C34.1336 26.6567 33.9078 26.4031 33.6821 26.1479C34.1848 26.8806 33.9007 27.0306 34.687 27.7602C34.4264 27.5921 34.2766 27.4629 34.4595 27.728L31.0011 28.7319L29.8974 27.8041C29.8616 27.8385 29.8177 27.8818 29.7662 27.934C30.0321 27.2105 30.512 26.366 31.3435 25.4877C31.1373 25.5931 30.9306 25.6986 30.7248 25.8041C30.5694 26.0801 30.4153 26.3553 30.2599 26.6313C30.1238 26.5415 29.9866 26.451 29.8499 26.3627C30.4416 25.6128 30.3201 26.2796 30.7748 25.5727C30.8663 25.4306 30.5534 25.6759 30.5936 25.5903C31.0345 24.6669 30.9048 25.4274 31.3473 24.7719C31.174 24.4146 32.2881 23.5035 31.1173 24.1538C31.2803 23.9331 31.4469 23.7076 31.6098 23.4887C31.4621 23.3971 31.0793 23.8884 30.8686 23.9125C30.7369 23.9272 31.3242 23.0221 30.7573 23.5551C30.6533 23.6538 29.9625 24.7733 29.6674 24.562C29.4388 24.3979 30.1452 23.7163 30.2186 23.3862C30.2915 23.0562 29.1413 23.9162 29.9899 22.7133C29.9381 22.9028 29.9637 23.0327 29.9424 23.1987C30.159 22.99 30.3723 22.7823 30.5873 22.5747C30.1649 22.7729 30.2525 22.3354 29.6899 22.81C30.1119 21.8659 29.2147 22.4903 28.5338 23.4545C28.7242 23.3613 28.9644 22.9132 28.8675 23.227C28.703 23.4487 28.5395 23.6694 28.375 23.8911C28.2041 23.7693 28.0662 23.7081 28.69 23.0942C28.673 23.0637 28.657 23.0329 28.64 23.0024C28.2461 23.4763 27.8503 23.9523 27.4564 24.4262C27.3771 24.4621 27.2982 24.4978 27.2189 24.5336C27.2646 24.4093 27.3113 24.2835 27.3576 24.1577C28.0264 23.4306 28.1378 23.4509 28.1776 22.8784C27.9644 23.1382 27.752 23.3969 27.5389 23.6567C27.5546 23.199 28.0614 22.5652 27.7238 22.4291C28.7063 21.647 27.5325 23.3163 29.0112 21.5014C28.9756 21.6511 28.9393 21.8029 28.9037 21.9526C29.1275 21.6943 29.3516 21.4357 29.5749 21.1772C29.1305 21.1526 27.1722 22.608 27.8863 21.351C27.7454 21.4777 27.6188 21.5862 27.4689 21.7231C27.8169 20.9227 26.4563 22.4306 26.9664 21.4262C27.0204 21.3209 28.2589 19.8835 27.9301 19.7934C27.7824 19.9868 27.5258 20.3079 27.3364 20.5502C27.3694 20.403 27.407 20.2506 27.4426 20.101C27.2885 20.2708 27.1341 20.4407 26.9789 20.6118C27.029 20.7322 27.0776 20.8536 27.1276 20.9741C26.9908 20.9906 26.8533 21.0074 26.7164 21.0239C26.5974 21.3673 26.6462 21.396 26.2027 21.8208C26.0811 21.7988 25.9581 21.7782 25.8365 21.7563C25.7303 21.8689 25.6227 21.9836 25.5165 22.0961C25.2787 22.4708 25.0475 22.8383 24.8054 23.2182C24.7801 22.8026 24.5681 22.6748 24.9316 21.8862C24.9927 21.7528 25.4843 21.3549 24.9178 21.6518C25.1116 21.4081 25.2656 21.2085 25.444 20.9829C24.6083 21.5203 24.6808 21.2716 24.7854 20.6352C24.6036 21.1871 24.6749 20.8052 24.4266 21.0258C24.2561 21.1778 24.4066 21.2179 24.2479 21.3872C24.0903 21.5551 23.3444 22.1787 23.418 22.3364C24.956 21.0607 23.6378 22.8449 24.6616 22.3735C24.4391 22.5258 24.2155 22.6782 23.9929 22.8305C23.9224 22.9738 23.8572 23.1038 23.7829 23.2563C23.7609 22.8462 23.7345 23.0922 23.448 23.2641C23.1611 23.4361 22.8153 23.5315 22.638 23.5297C22.5847 23.5273 22.8894 23.225 22.8243 23.1499C22.7798 23.0983 22.219 23.4971 22.6443 22.9086C22.921 22.5255 24.0222 21.64 23.6467 21.4565C23.872 21.0593 23.9595 21.2587 23.9992 21.2182C24.384 20.8024 24.4193 20.363 24.0442 20.6401C24.0117 20.6659 23.8213 21.0428 23.623 21.1293C23.1498 21.337 23.3396 20.8891 23.6255 20.2973C23.1109 20.9021 22.333 21.5426 22.2906 21.2045C22.1361 21.374 21.9799 21.5455 21.8244 21.7163C21.9352 21.641 22.046 21.5669 22.1568 21.4916C22.1056 21.6205 22.08 21.7205 22.0118 21.8686C21.6611 21.9063 20.9406 22.7341 20.5795 22.9887C19.345 23.8581 21.3919 21.7384 21.7731 21.3872C21.6947 21.5671 21.5997 21.765 21.5144 21.9526C21.683 21.7365 21.8529 21.5184 22.0231 21.3012C21.4596 21.0288 23.0685 19.8733 23.108 19.3354C22.1788 20.3488 21.887 20.3465 22.1643 19.5483C22.1307 19.5389 22.1003 19.5251 22.0656 19.517C21.9359 19.6677 21.7446 19.9016 21.6544 19.9985C21.1904 20.016 22.451 18.3718 22.5455 18.2036C22.9647 17.4574 22.0931 18.3451 22.0468 18.3334C21.854 18.2823 22.1444 17.8419 21.8394 17.9418C21.5107 18.0506 21.3662 18.4283 21.0807 18.6889C20.8533 18.8958 20.6852 18.8694 20.437 19.0776C20.6165 18.8956 20.7956 18.7183 20.9757 18.5356C21.0128 18.1846 21.0768 17.8564 20.9282 17.6918C19.5494 18.9907 21.2976 16.5121 19.8008 18.4829C19.8838 18.7101 19.8114 18.9837 19.5121 19.5268C19.3356 19.5273 19.1598 19.5263 18.9834 19.5268C19.1197 19.2966 19.2629 19.0768 19.3958 18.8393C18.9352 19.2428 18.8748 18.9414 18.6821 19.0307C17.7781 19.4513 17.2751 20.2812 17.9634 18.809C18.3285 18.8139 18.8397 18.1869 19.0296 18.4028C19.3383 17.9274 19.1306 17.9541 19.6533 17.4604C19.2938 17.4676 18.9844 17.9872 18.5396 18.3637C18.1562 18.6881 17.9687 18.6237 17.5897 19.1049C17.786 18.8342 17.9799 18.5735 18.1759 18.3032C18.0109 18.2247 17.8473 18.1444 17.6822 18.0659C17.9749 17.8269 18.2681 17.5867 18.5596 17.3491C18.5913 17.2198 18.6217 17.0907 18.6534 16.9614C17.5588 17.6118 18.1383 15.7088 16.5061 17.9008C16.2571 17.8726 16.4515 17.5929 16.6761 17.1362C16.5322 17.2926 16.4099 17.4214 16.2511 17.5961C16.2641 17.3654 15.6728 17.9254 15.6911 17.7133C15.7092 17.5014 16.1523 16.9121 15.3474 17.8715C15.5024 17.5585 15.6192 17.2926 15.7586 16.9995C15.5367 17.1979 15.3167 17.3939 15.0962 17.5913C15.1233 17.4428 15.1491 17.2944 15.1762 17.1459C14.764 17.5897 14.6635 17.2602 14.295 17.5122C14.5913 16.9592 15.8715 15.3944 15.3837 15.5463C15.0734 15.9383 14.764 16.3292 14.4537 16.7211C14.4606 16.6105 14.4673 16.5 14.4737 16.3891C14.5736 16.2605 14.6738 16.132 14.7737 16.0034C14.772 16.0577 14.7702 16.1118 14.7675 16.1674C14.9162 15.9397 15.0645 15.7133 15.2137 15.4858C14.864 15.7587 14.5139 16.0315 14.1638 16.3041C14.09 16.606 14.0164 16.9085 13.9425 17.2104C13.556 17.4192 13.6808 17.081 13.2876 17.3325C13.6089 16.7379 13.9041 16.45 14.4263 15.8911C14.3426 15.9192 14.2599 15.9459 14.1763 15.9741C14.6798 15.4058 14.8893 15.0219 15.1037 15.1948C15.2218 15.02 15.3336 14.8524 15.4574 14.6713C15.3946 14.6769 15.4814 14.5235 15.3837 14.5649C15.1164 14.6792 14.1881 15.654 13.9038 16.017C13.7551 16.2072 14.1703 15.9091 13.9488 16.1723C13.4084 16.8141 13.365 16.3839 13.2389 17.2358C12.7686 17.5811 12.9922 17.2548 12.9414 17.062C12.7769 17.2836 12.6126 17.5046 12.4477 17.726C12.4601 17.5924 12.4727 17.4583 12.4852 17.3247C13.4846 16.2634 13.3186 15.5952 14.565 14.852C14.471 14.7353 14.3777 14.6185 14.2863 14.4995C14.4068 14.3993 14.5257 14.2998 14.6462 14.1997C14.6578 14.2901 14.6699 14.3801 14.6825 14.4692C14.7809 14.2256 14.8791 13.9823 14.9775 13.7387C14.5987 13.9127 14.2088 14.2769 13.7326 14.728C13.6373 15.1829 13.9706 14.6631 14.2025 14.642C13.9444 14.9493 13.719 15.2381 13.4401 15.5571C13.8844 14.876 13.2454 15.2146 13.1601 15.2163C12.902 15.2204 13.5583 14.6611 13.4476 14.5874C13.3364 14.5139 12.887 14.8179 13.2976 14.143C13.0134 14.4946 12.7247 14.8611 12.4714 15.184C12.1893 15.2044 12.5638 14.8108 12.5889 14.7465C12.9953 13.7088 12.2183 14.3678 11.7865 14.2807C11.7434 14.4119 11.7088 14.5328 11.6715 14.6577C10.7941 15.268 11.1615 15.1307 11.1953 15.4936C11.0363 15.3096 10.393 15.8804 10.0841 15.9916C9.77579 16.1023 9.77561 15.6445 9.88539 15.3422C10.4408 15.0446 10.4615 15.4334 10.8003 15.4438C11.0635 15.0727 11.283 14.7569 11.574 14.35C10.8125 15.0249 11.1336 14.48 11.1653 14.3559C11.2579 13.9918 10.7385 14.6379 11.2153 13.9018C11.0246 14.1418 10.8632 14.3436 10.6853 14.5678C10.4664 14.319 10.4867 13.7366 9.57417 14.519C10.0228 13.938 10.4585 13.3797 10.9141 12.7856C10.436 13.1528 10.6865 12.6585 10.4978 12.7055C10.3091 12.7533 9.97214 13.2363 9.70166 13.352C9.65332 13.3712 9.83941 13.0603 9.60917 13.2446C9.3766 13.4304 7.8633 14.9193 8.97422 13.5131C8.87213 13.4531 8.81149 13.3518 8.72549 13.2758C8.89208 13.2483 9.05681 13.2235 9.22295 13.1958C9.41098 12.8145 9.59862 12.4344 9.78665 12.0532C9.52996 12.3487 9.26851 12.65 9.01547 12.9418C8.48156 13.1908 8.71184 12.6136 8.37927 12.6118C8.3231 12.6127 7.9316 13.2533 7.87932 13.0141C7.82748 12.7742 8.60241 11.5991 7.95306 11.8784C7.91975 11.8931 7.13637 12.6997 7.50935 12.0571C7.59378 11.9115 7.85732 11.7651 7.94431 11.562C8.03119 11.3586 7.89833 11.089 8.21929 10.6616C8.10136 10.8108 7.99198 10.9721 7.87682 11.1264C7.77648 11.1757 7.67531 11.2251 7.57559 11.2729C7.78401 11.0104 7.99319 10.747 8.20054 10.4858C7.46015 10.9694 6.52608 11.8949 6.42819 11.3862C6.22222 11.8155 6.01591 12.2471 5.8095 12.6762C6.05428 12.4245 6.3001 12.1704 6.54443 11.9184C6.62603 12.1081 6.70906 12.2981 6.79066 12.4877C7.06493 12.1991 7.33757 11.9102 7.61184 11.6215C7.62439 11.683 7.63803 11.7437 7.65059 11.8051C7.46118 12.0182 7.27174 12.23 7.08189 12.4428C7.21391 12.4331 7.34777 12.4225 7.47935 12.4125C6.24836 13.6139 7.06912 12.054 6.21196 13.145C6.30888 12.9577 6.40645 12.7691 6.50444 12.5805C6.06034 13.0951 6.10304 12.9046 6.02823 12.7514C5.85046 13.0255 5.67836 13.2983 5.49577 13.5737C5.65432 13.141 5.38093 13.0536 5.35204 12.8422C5.33987 12.7491 5.71058 12.401 5.72825 12.3471C5.82199 12.0669 5.1002 12.6373 5.10456 12.5659C5.13003 12.1397 6.00404 10.8115 5.07956 11.5141C5.17103 11.8464 5.10108 11.6908 4.81833 12.1958C4.72959 12.3541 4.81712 12.8203 4.50836 12.479C4.47304 12.4318 4.42547 11.1921 5.21455 10.6528C4.91898 10.8038 4.62187 11.0011 4.32588 11.1704C5.47964 9.28197 4.23367 10.9756 3.57469 11.9213C3.52661 11.9029 3.47595 11.8906 3.4297 11.8676C4.30437 10.9649 3.85057 10.6556 3.28847 11.0512C3.10115 11.1825 3.01167 11.5666 2.76226 11.645C2.75385 11.5469 2.75284 11.4245 2.74726 11.3168C2.35249 11.967 1.97429 12.1053 1.47737 12.7192C1.80171 12.1131 2.65315 10.91 3.23097 10.3159C2.92404 10.5201 2.61655 10.7236 2.30855 10.9291C2.23642 11.0976 2.16695 11.2656 2.09482 11.434C2.08233 10.8867 0.948071 11.553 1.92858 10.2329C1.87799 10.2205 1.82794 10.2061 1.77735 10.1938C1.58677 10.4044 1.39672 10.616 1.20615 10.8266C1.16418 10.5409 1.12312 10.254 1.08116 9.96821C1.36538 9.92008 1.65947 9.63094 1.63736 9.97309C1.77077 9.68809 1.90383 9.40099 2.03857 9.11665C1.21474 9.65264 0.817064 10.0758 0.566201 9.66938C0.556249 9.64541 0.702183 8.93063 0.736186 8.87056C0.892231 8.59491 1.26436 8.2672 1.34613 8.12934C1.57589 7.74305 1.93647 6.66494 2.05357 6.53364C3.49244 4.92463 4.74939 5.51886 5.15455 5.60102C9.35181 6.44986 11.7909 9.32351 15.4112 10.8422C15.4492 10.8562 15.6305 10.6083 15.6561 10.602C15.8002 10.5875 15.5829 11.0143 15.6049 11.0473C15.6534 11.1145 15.8973 10.7459 15.9524 10.7709C16.5101 11.0541 16.8718 11.5244 17.4822 11.7436C17.5193 11.7599 17.2554 12.0211 17.3597 12.0034C17.4162 11.9915 17.8709 11.6124 17.9509 11.643C18.2301 11.7509 18.3364 11.9988 18.6171 12.1293C18.7708 12.2004 18.9672 12.3488 19.1408 12.4262C19.2175 12.4605 19.4568 12.3016 19.5358 12.3315C19.6475 12.3742 19.3007 12.7638 19.2958 12.7973C19.2777 12.9409 19.6444 12.5075 19.7033 12.5502C19.8106 12.6331 19.5789 12.9301 19.757 12.9838C19.8856 13.0212 20.332 12.9186 20.5295 12.9213C20.5848 13.4269 21.1136 13.5006 21.5156 13.5424C21.7536 13.5671 21.4361 13.9858 21.5119 14.0219C21.7821 14.1453 22.4098 13.7209 22.6718 13.8266C23.0186 13.9681 23.0276 14.4601 23.3255 14.644C23.3739 14.6736 23.6686 14.2929 23.7279 14.3071C23.9445 14.3652 24.2407 14.4163 24.3641 14.5532C24.5023 14.705 24.1261 15.2856 24.3991 15.2651C24.4808 15.2566 24.8859 14.7869 25.0253 14.77C25.2466 14.745 25.0594 15.2448 25.1203 15.3422C25.206 15.4732 25.4853 14.9261 25.6165 15.0834C25.6204 15.0918 25.3669 15.4501 25.4178 15.4555C25.5717 15.4659 25.7851 15.186 25.9328 15.2963C25.9447 15.3161 25.8993 15.7518 25.9203 15.7641C26.047 15.8349 26.2164 16.0823 26.3515 16.0502C26.8334 15.9366 27.0429 15.304 26.3502 16.56C26.6813 16.333 27.0142 16.1013 27.3451 15.8852C27.0667 16.1006 27.0667 16.6105 27.1064 16.601C27.4346 16.4974 27.6938 16.0033 27.8538 16.186C26.7287 17.0653 28.0295 16.459 28.1788 16.4965C28.8983 16.6764 29.2504 17.2105 29.8749 17.5122C30.0845 17.6126 30.5385 17.5345 30.7536 17.6489C30.8043 17.6746 30.5697 17.8965 30.6086 17.9252C30.6506 17.9512 30.8228 17.6549 30.8623 17.6948C31.1009 17.9444 30.9387 18.5668 31.7173 18.1069C31.6869 18.0336 31.6667 17.9627 31.6723 17.8979C31.6776 17.8441 31.869 18.1069 31.906 18.0942C32.1479 17.9962 32.7604 18.2411 32.9921 18.2016C33.1454 18.1759 32.7863 17.7901 32.8422 17.7163C32.9282 17.6087 33.4079 17.9345 33.4858 17.9125C33.8433 17.8005 33.7698 17.366 34.202 17.3715C34.1138 17.2915 34.035 17.2159 33.9496 17.1362C34.3022 16.9644 34.6543 16.7923 35.007 16.6206C34.9204 16.5505 34.8334 16.479 34.7457 16.4077C35.1835 16.2331 35.9037 17.1128 34.2533 15.3266C34.2254 15.2472 34.1891 15.157 34.1645 15.0834C34.9854 16.0196 35.8366 16.5682 36.3556 16.6372C36.3883 16.6346 35.7374 15.658 36.6756 16.7338C36.4805 16.4502 36.342 16.2567 36.1694 16.0083C36.5245 16.2971 36.8778 16.5811 37.2318 16.8686C37.2237 16.8014 37.2174 16.7356 37.2093 16.6684C37.0266 16.4556 36.8275 16.2391 36.6543 16.0268C36.7892 15.9064 37.3543 15.983 37.4593 15.8862C37.7187 15.6441 37.5369 14.8992 38.3342 15.3764C38.3994 15.2477 37.9111 14.9012 38.1379 14.8549C38.3449 15.0524 38.5431 15.2424 38.7566 15.4458C38.0699 14.4333 38.6081 14.9833 38.9841 15.0678C39.2382 15.125 39.1245 14.8492 39.2941 14.8227C39.3381 14.8176 39.5766 15.0913 39.5916 15.0708C39.6417 15.0015 39.5209 14.5098 39.5641 14.4682C39.9579 14.1054 40.4106 13.9205 40.9602 13.77C41.0184 13.7531 40.7138 13.5185 40.774 13.5014C40.8723 13.4745 41.1954 13.9159 41.2614 13.9106C41.443 13.8924 41.0532 13.4549 41.2177 13.3305C41.761 12.9221 42.7573 12.8674 43.4212 12.5483C43.4412 12.5374 43.2106 12.2814 43.23 12.267C43.3602 12.1777 43.8127 12.4453 43.9374 12.3715C44.1453 12.2501 43.9837 11.8034 44.1949 11.6899C44.6068 11.4669 45.1383 11.4504 45.5698 11.2299C45.9235 11.05 46.1933 10.8517 46.5735 10.6459C48.2341 9.74651 49.1962 8.0098 51.2506 7.53169C51.3032 7.51995 51.4889 7.7556 51.493 7.73872C51.5279 7.57345 51.2661 7.26305 51.8818 7.87837C51.9257 7.66667 51.5457 7.15946 51.7655 7.09028C51.8825 7.05318 52.4733 7.83882 52.3005 7.36177C52.1438 6.93027 51.6088 6.61478 52.4405 6.78169C52.4654 6.78899 52.9284 7.20733 52.9179 7.03755C52.9089 6.86819 52.5076 6.6032 52.6504 6.37934C52.9869 5.85508 54.0231 5.873 54.544 5.40864C54.5774 5.37655 54.7391 4.92916 54.714 4.77681C54.6644 4.48002 54.3321 4.15872 54.4465 3.97309C54.5358 3.83089 54.9975 4.14667 55.1002 3.977C55.1094 3.95404 54.7944 3.54584 54.969 3.52778ZM29.4787 27.4721C29.8798 27.0463 29.5673 27.5047 29.5674 27.5122L29.5662 27.5131C30.2407 27.2705 29.3212 27.7374 29.5849 27.9663C29.4465 28.0538 29.3028 28.1487 29.1637 28.2377C29.2657 27.9867 29.3889 27.7052 29.4787 27.4721ZM28.4225 24.3823L28.4213 24.3852C28.2336 24.5455 28.0465 24.7064 27.8588 24.8666C27.8456 24.9758 27.8473 25.0656 27.8238 25.1879C28.6057 24.4741 28.0538 25.1743 28.2788 25.2192C28.9716 25.3542 29.815 24.0594 28.8737 26.103C28.5289 25.8118 28.0034 26.7309 27.2264 27.2534C27.5761 26.7354 28.7285 25.7479 28.7488 25.434C28.0351 25.8112 27.3613 26.1585 26.7664 26.3354C26.7065 26.425 26.6464 26.5153 26.5864 26.6049C26.681 26.5766 26.7756 26.5474 26.8702 26.519C26.6296 26.7195 26.3914 26.9189 26.1477 27.1215C26.6398 26.6395 26.2254 26.8384 26.7339 26.2563C26.9603 25.9972 27.3386 25.6701 27.5914 25.4409C27.5826 25.2434 27.5621 25.0559 27.5489 24.8618C27.784 24.6826 28.0192 24.5031 28.2538 24.3237C28.3106 24.3428 28.3657 24.3632 28.4225 24.3823ZM29.6887 25.892L29.6874 25.894C29.7344 26.2343 29.0464 26.7028 28.72 27.0131C29.0969 26.4407 28.9683 26.4442 28.8762 26.31C29.0394 26.3419 29.6804 25.8363 29.6887 25.892ZM28.8762 26.31C28.8476 26.3042 28.8327 26.2822 28.84 26.2368C28.8504 26.2654 28.8625 26.2899 28.8762 26.31ZM37.0918 26.1948C37.1437 26.5585 36.1904 25.7989 36.0269 25.3862C35.8313 24.8908 36.4102 25.2483 36.1169 24.6508C36.449 25.172 36.7766 25.689 37.0918 26.1948ZM27.1351 24.8481C26.7746 25.2272 25.5175 26.6547 25.659 26.1C25.6774 26.0428 26.6044 25.0984 26.6127 24.8784C26.8186 24.8318 26.9633 24.8556 27.1364 24.8461L27.1351 24.8481ZM34.1245 24.9116C34.1744 24.9034 34.4344 25.4081 34.5258 25.2563C34.6611 25.5972 34.7663 25.8914 34.8895 26.2143C34.6717 26.0264 34.4536 25.8397 34.2358 25.6518C34.3281 25.7982 34.4197 25.9439 34.512 26.0903C34.259 25.7816 34.01 25.4807 33.7533 25.1665C34.517 25.7078 33.9074 24.9544 34.1245 24.9116ZM31.0936 24.3051C31.3771 24.5146 30.3585 25.6578 29.7474 26.1782C29.9009 25.9546 30.0557 25.7303 30.2086 25.5083C30.073 25.5769 29.937 25.6459 29.8024 25.7133C30.2324 25.2445 30.6636 24.774 31.0936 24.3051ZM33.3409 22.0874C33.1624 22.6489 33.2174 23.4378 34.8957 24.8178C34.886 24.7494 34.8779 24.6822 34.8682 24.6137C34.2 23.8582 34.6955 24.1992 34.9045 24.1215C34.6637 23.8081 34.7061 23.6821 34.4983 23.4174C34.0967 22.906 33.6678 22.6263 33.3409 22.0874ZM23.6267 23.6625C23.5127 23.8985 23.4007 24.1337 23.2867 24.3696C23.4762 24.1565 23.6652 23.9423 23.8542 23.729C23.9019 23.8778 23.9502 24.0274 23.9979 24.1762C23.1326 24.7577 22.9205 24.8651 22.9855 24.2036C23.1994 24.0234 23.4128 23.8428 23.6267 23.6625ZM28.73 24.6264C29.2946 24.0982 29.2274 23.8501 29.4524 24.102C29.3487 24.26 29.245 24.4186 29.1412 24.5766C29.0045 24.5931 28.8667 24.6099 28.73 24.6264ZM32.7959 23.5473C33.0435 23.8486 33.1738 24.1016 33.6346 24.5805C33.252 24.3368 32.8378 24.0433 32.5222 23.8774C32.6134 23.7675 32.7047 23.6573 32.7959 23.5473ZM40.3178 22.4106C40.4733 22.5303 40.6198 22.793 40.7765 22.8833C40.9311 22.9709 40.7969 22.6644 41.1214 23.0639C41.0993 23.1536 41.0802 23.2532 41.0589 23.3461C41.9105 23.9223 41.57 23.1659 42.3463 24.0278C41.9295 23.9222 41.8446 24.1235 41.8489 24.477C41.2442 23.7867 40.9229 23.0797 40.2153 22.5083C40.2496 22.4763 40.2813 22.4381 40.3178 22.4106ZM32.0072 24.0639C32.0433 24.2134 32.5071 24.6804 31.841 24.2319C31.8964 24.1759 31.9518 24.1199 32.0072 24.0639ZM31.841 24.2319C31.8355 24.2374 31.8302 24.243 31.8247 24.2485C31.8108 24.2339 31.7979 24.2184 31.7835 24.2036C31.7852 24.2013 31.7868 24.199 31.7885 24.1967C31.8066 24.2091 31.8243 24.2207 31.841 24.2319ZM26.8689 22.8227C27.1437 22.8367 26.7123 23.1986 26.4102 23.6059C26.6888 23.2592 27.6476 22.6706 27.5376 22.8813L27.5389 22.8803C27.2353 23.456 26.8165 23.351 26.394 24.1381C26.5576 23.3418 25.2226 24.8002 26.8689 22.8227ZM32.1272 23.7504C32.2212 23.7407 32.3576 23.7909 32.5222 23.8774C32.4891 23.9173 32.4552 23.9567 32.4222 23.9965C32.4089 23.9967 32.3955 23.9954 32.3822 23.9956C32.3372 23.9376 32.2922 23.8792 32.2472 23.8217C32.1673 23.9027 32.0871 23.9832 32.0072 24.0639C32.0067 24.0618 32.0051 24.06 32.0047 24.0581C31.9962 24.0069 31.9935 23.9628 31.9947 23.9252C32.0389 23.867 32.083 23.8087 32.1272 23.7504ZM40.209 23.2055C40.2862 23.1421 40.2584 22.9621 40.4815 23.0776C40.861 23.5421 40.3333 23.2201 41.0464 23.8256C40.9991 23.8685 40.9522 23.9116 40.9065 23.9555C40.6948 23.6585 40.4597 23.4782 40.2103 23.2075L40.209 23.2055ZM32.8309 23.0151C32.6796 23.2738 32.6354 23.4218 32.9171 23.3715C32.9189 23.3791 32.9216 23.3865 32.9234 23.394C32.881 23.4451 32.8384 23.4961 32.7959 23.5473C32.7184 23.4529 32.6279 23.3548 32.5134 23.2426C32.5754 23.161 32.6365 23.0791 32.6984 22.9975C32.7426 23.0034 32.7867 23.0092 32.8309 23.0151ZM25.6165 23.3569C25.8675 22.8045 26.965 22.2747 26.9689 22.5336C26.779 22.7481 26.6147 22.9469 26.384 23.187C26.7247 22.5561 25.574 23.4498 25.6165 23.3569ZM38.6529 20.6909C39.2702 21.3248 39.346 21.8614 39.7066 21.8198C40.0391 22.2757 40.1583 22.5447 40.0365 22.6684C39.8649 22.5183 39.6945 22.3693 39.5228 22.2192C39.9118 22.6597 40.0172 22.8449 40.209 23.2055L40.2078 23.2045C39.9984 23.3662 39.8816 23.2119 39.1791 22.5219C39.7947 22.7913 39.2133 22.1285 39.0341 21.643C38.9109 21.3093 39.1734 21.3469 38.6529 20.6909ZM37.8942 23.2124C37.5193 23.3982 36.3378 21.2923 37.6767 22.7563C37.7022 22.787 37.8967 23.1957 37.8942 23.2124ZM43.3875 22.3295C43.3824 22.6051 43.3776 22.8812 43.3725 23.1567C43.2696 23.0121 43.1667 22.8667 43.0638 22.7221C43.0071 22.4368 42.9509 22.1517 42.8938 21.8666C43.0583 22.021 43.223 22.1752 43.3875 22.3295ZM32.4009 22.9584C32.3753 22.9947 32.3491 23.0306 32.3234 23.0668C32.3108 23.0556 32.2979 23.0442 32.2847 23.0327C32.3162 23.0068 32.3483 22.9814 32.3797 22.9555C32.3868 22.9565 32.3939 22.9575 32.4009 22.9584ZM44.6674 22.0854C44.7831 22.2097 44.8991 22.3342 45.0149 22.4584C44.8025 22.532 45.1972 23.0528 44.6386 22.687C44.6472 22.4855 44.6564 22.2846 44.6661 22.0844L44.6674 22.0854ZM41.5326 22.4477C40.6085 21.4487 39.7371 20.7535 41.1789 22.4125C41.6414 22.6577 40.7292 21.7711 41.5326 22.4477ZM34.1658 21.3491C33.913 21.4231 34.1651 21.7496 34.6133 22.3247C34.6571 22.2079 34.7019 22.0918 34.7457 21.975C34.5526 21.7671 34.3601 21.5583 34.1658 21.3491ZM35.0195 20.7924C34.8995 20.9179 34.3365 20.6935 34.702 21.2797C34.9152 21.6215 35.3729 21.7268 35.6369 22.3022C35.7467 22.1721 35.6118 21.9644 35.207 21.5551C35.1961 21.4855 35.1867 21.4165 35.177 21.3481C35.2669 21.422 35.357 21.494 35.4469 21.5678C35.3092 21.3837 35.1726 21.201 35.0345 21.017C35.1019 21.0312 35.1697 21.0455 35.2382 21.061C35.1641 20.971 35.1032 20.8903 35.0195 20.7924ZM31.1448 21.5571C31.1477 21.5351 31.5472 20.8872 31.166 21.3706C30.3506 22.5711 31.1837 21.9521 31.4673 21.5336C31.3735 21.5153 31.1824 21.6603 31.1461 21.5561L31.1448 21.5571ZM43.445 20.1723C43.6963 20.2737 43.9124 20.5586 44.2074 20.7895L44.2049 20.7885C44.2816 20.8483 44.4082 20.8686 44.4461 20.8637C44.2843 20.7002 44.1215 20.5402 43.9599 20.3784C43.8451 19.8312 45.6397 21.0179 45.5273 21.9526C45.3457 21.7338 45.1652 21.5161 44.9836 21.2973C44.7204 21.5301 43.9522 21.259 43.445 20.1723ZM21.4381 20.9418C21.0267 21.2542 20.6128 21.5694 20.2008 21.8833C20.6896 21.2838 21.1896 20.7762 21.6406 20.5258C21.5724 20.6647 21.5053 20.8042 21.4381 20.9418ZM21.1744 18.9389C21.6892 18.439 21.6101 18.1456 21.7131 18.4926L21.7144 18.4916C21.7831 18.7209 21.7938 18.778 21.9281 18.9038C21.3038 19.5647 20.7608 19.6417 21.1157 20.019C21.1285 20.0131 21.4439 19.6063 21.4731 19.6987C21.4821 19.7277 21.2813 20.1028 21.3144 20.2573C21.3263 20.3078 21.5141 20.5467 21.1357 20.3676C20.754 20.8549 20.336 21.3324 19.9558 21.8002C19.6988 21.8633 20.3555 20.8638 20.182 20.81C19.9223 20.7327 19.0282 21.6283 20.0045 20.3549C20.4483 20.1436 20.7862 20.3015 20.2157 21.0756C20.3957 21.176 20.9513 20.5871 21.0494 20.2075C20.0883 20.2738 21.6183 19.2035 20.652 19.4145C20.5033 19.5852 20.3281 19.7618 20.1982 19.9272C20.5253 19.2288 20.9903 19.1178 21.1744 18.9389ZM27.6126 18.5415C27.3017 18.5487 27.0931 19.0465 26.7927 19.4067C26.6678 19.5558 26.7114 19.225 26.4952 19.5766C26.1241 20.1815 26.7114 20.0204 26.154 20.7055C26.2221 20.4252 25.8468 20.5012 25.5403 20.9907C25.2037 21.5279 26.099 20.7928 25.894 21.2749C26.5946 20.0854 26.7143 20.621 26.074 21.4838C26.8326 20.954 26.8341 20.584 26.5714 20.4956C27.242 19.9238 26.7452 20.1655 27.1464 19.6127C27.5597 19.3643 27.8536 19.8889 28.3175 18.9077C28.4821 18.5591 27.137 19.9353 27.7738 18.7416C27.4553 19.0339 27.1691 19.3221 26.8639 19.6118C27.1139 19.256 27.3634 18.8939 27.6126 18.5415ZM41.2064 18.644C41.5754 19.0405 41.9432 19.4362 42.3126 19.8325C42.0944 19.3286 41.6533 18.8847 41.1027 18.394C41.1368 18.4773 41.1724 18.5607 41.2064 18.644ZM44.8724 19.2778C45.6014 20.027 45.3442 19.8335 45.4098 19.5913C45.4296 19.5225 46.1173 19.576 45.3661 19.0366C45.2123 19.1206 45.039 19.1981 44.8724 19.2778ZM53.1266 18.2622L53.1254 18.2612C53.2396 18.3055 53.5857 18.8556 53.3141 18.2524C53.7025 18.6252 54.0587 18.9633 54.4353 19.3237C54.3969 19.3541 54.3657 19.3861 54.324 19.4165C53.7776 18.7539 53.9308 19.114 53.6529 18.9633C53.3734 18.8109 52.8542 18.1579 53.1266 18.2622ZM17.391 19.3813C17.4562 19.2828 17.5165 19.1986 17.5722 19.1264C17.5776 19.1199 17.5831 19.1134 17.5885 19.1069C17.5232 19.197 17.4571 19.2881 17.391 19.3813ZM20.2257 19.2944C20.3034 19.2005 20.3727 19.1315 20.437 19.0776C20.3667 19.1489 20.2963 19.2208 20.2257 19.2944ZM46.076 18.3129C46.4814 19.1655 46.6956 18.5727 46.9309 19.1147C47.1188 19.5475 46.2918 18.9171 45.951 18.4252C45.986 18.3872 46.0292 18.3499 46.076 18.3129ZM53.9491 18.728C53.6888 18.2757 54.0309 18.3286 54.4128 18.5327L54.5453 18.6362C54.7274 18.7954 55.0094 19.0791 54.924 19.103C54.734 19.1516 53.9105 18.3575 54.3353 18.9692C54.2041 18.8838 54.0809 18.8112 53.9491 18.728ZM40.3678 17.9194C40.5171 18.3321 40.6226 18.5319 41.1727 19.0307C41.0149 18.7628 40.858 18.4949 40.7002 18.227C40.5898 18.1245 40.4786 18.0217 40.3678 17.9194ZM50.1394 18.7006C49.485 18.2632 49.6563 18.5106 49.8094 18.978C49.3951 18.5566 48.955 17.7111 48.9445 17.478C49.3426 17.8854 49.7409 18.2935 50.1394 18.7006ZM23.8454 17.4487C22.9096 18.3827 23.5156 17.9896 23.2542 18.3979C23.1339 18.4724 23.0141 18.5439 22.8943 18.6186C22.918 19.0262 23.1492 18.8075 23.6505 18.0336C23.6828 17.9821 23.4682 18.0711 23.5455 17.9594C23.6247 17.8458 24.2618 17.2075 23.8454 17.4487ZM43.3062 17.2426C43.1699 17.1955 43.4738 17.4855 43.4775 17.4975C43.1607 17.4167 43.0042 17.2809 43.0213 17.6352C43.0728 17.7339 43.1287 17.8367 43.1825 17.9379C44.029 18.7291 43.6863 18.2334 44.3262 18.6206C44.0322 18.3511 43.7376 18.0807 43.4425 17.81C43.6066 17.8112 43.7696 17.8127 43.9337 17.8139C43.867 17.7178 43.8016 17.622 43.735 17.5258C43.5936 17.4326 43.4381 17.3259 43.3062 17.2426ZM31.5698 18.3754C31.6575 18.3189 31.7318 18.285 31.7947 18.269C31.7701 18.2217 31.7451 18.1747 31.7248 18.1284C31.672 18.2093 31.6211 18.2775 31.5698 18.3754ZM60.8085 16.8002C61.441 17.2798 60.6601 17.1655 61.7034 17.8276C61.6903 17.918 61.6791 18.0106 61.6659 18.101C61.3755 17.8032 61.0851 17.5063 60.7947 17.2084C60.7988 17.0718 60.8027 16.9351 60.8072 16.7983L60.8085 16.8002ZM20.6145 16.602C18.5799 18.5397 20.3576 17.6153 20.8019 16.8315C20.8194 16.7965 20.4564 16.8479 20.6145 16.602ZM22.2806 16.6401C21.0491 18.0902 21.9068 17.5897 22.2668 17.1284C22.2372 17.0887 22.0016 17.3191 22.0443 17.186C22.0873 17.0521 22.3531 16.7039 22.2806 16.6401ZM50.9406 17.5532C50.6586 17.3909 50.3759 17.2284 50.0944 17.0659C50.1145 16.8542 50.1315 16.6385 50.1494 16.4243C50.4126 16.8005 50.6774 17.1769 50.9406 17.5532ZM12.7951 16.8491C12.1497 17.3247 11.8829 17.9353 12.049 17.1713C12.1872 17.0379 12.3244 16.9054 12.4627 16.7719C12.5744 16.7963 12.6855 16.8221 12.7951 16.8491ZM53.3929 16.312C53.3853 15.9584 53.4435 15.7688 53.9841 16.0415L53.9866 16.0424C54.0195 16.0606 54.1983 16.3526 54.2728 16.4116C54.2785 16.3498 54.2671 16.2663 54.2665 16.1967C54.461 16.4047 54.6557 16.6131 54.849 16.8198C54.6785 16.8239 54.5075 16.8272 54.3365 16.8315C54.4642 16.9454 54.5913 17.0585 54.719 17.1723C54.6763 17.2902 54.6342 17.4079 54.5915 17.5258C54.3167 17.161 54.0417 16.796 53.7653 16.4301C53.6408 16.3903 53.5185 16.353 53.3929 16.312ZM11.3115 16.3002C11.4028 16.2905 11.2942 17.0465 11.9327 16.4311C11.6508 16.7491 11.3645 17.027 11.0803 17.3217C11.2706 17.03 10.6837 16.3668 11.3115 16.3002ZM55.3127 16.6772C55.3536 16.6781 55.7316 16.7264 55.9089 16.9663C55.8007 17.031 55.6782 17.0923 55.5639 17.1547C55.4274 17.0079 55.2938 16.861 55.1552 16.7133C55.1938 16.6658 55.2075 16.6724 55.3127 16.6772ZM57.9837 15.7426C58.4884 16.3319 58.5487 16.2938 59.0174 16.6381C58.8985 16.6747 58.7784 16.7102 58.6599 16.7465C58.4344 16.4116 58.2093 16.0776 57.9837 15.7426ZM16.4473 16.3969C16.0456 16.5415 16.7592 15.6598 16.1611 16.0532C16.1344 16.2678 16.107 16.4843 16.0799 16.6987C16.2018 16.5982 16.3254 16.4975 16.4473 16.3969ZM57.4888 12.8959C58.1935 13.813 58.1545 14.182 59.1436 14.8432C58.8963 14.5315 58.6497 14.2194 58.4024 13.9077C58.7034 14.0898 59.005 14.2717 59.3049 14.4526C59.2358 14.3199 59.1665 14.1865 59.0986 14.0551C59.6077 14.5535 60.1183 15.0536 60.6285 15.5532C60.5225 15.4974 60.4145 15.4409 60.3085 15.3852C60.5385 15.8902 60.509 16.0786 60.3773 16.268C60.5054 16.3817 60.6329 16.4942 60.761 16.6079C60.4706 16.4541 60.1797 16.2999 59.8898 16.1459C59.7942 15.8914 59.6881 15.6076 59.5986 15.3706C58.7355 14.625 58.9107 15.2072 58.9424 15.4438C58.9857 15.7658 58.6753 15.3572 58.6987 15.5864C58.7019 15.6224 58.9714 15.9273 58.9386 15.9545C58.7657 16.085 58.2429 16.1302 57.8275 15.2983C58.2295 15.215 57.9923 14.4951 58.4924 14.5317C57.6737 13.7548 57.5892 13.3839 57.4888 12.8959ZM56.5888 16.1264L56.5913 16.1274C56.6628 16.1395 56.7642 16.1884 56.8176 16.1782C56.9849 16.6167 56.3896 15.9918 56.4139 16.2475C56.4395 16.5045 56.6691 16.9022 55.7702 16.0913C55.6962 15.9366 55.5746 15.7233 55.4827 15.5463C55.9906 15.7897 55.7485 15.4325 55.5964 15.0024C55.9279 15.3779 56.2573 15.7509 56.5888 16.1264ZM54.2466 15.0258C55.5724 16.3823 54.8248 15.5814 54.8915 16.0141C54.9149 16.1641 55.2059 16.3688 55.1965 16.435C55.1451 16.7941 54.2867 15.8688 53.9066 15.351C54.0186 15.2406 54.1348 15.1323 54.2466 15.0258ZM11.634 15.3032C11.7901 15.2554 11.6379 15.7031 11.7502 15.729C10.2757 17.016 11.0084 15.4962 11.634 15.3032ZM60.7572 14.0073C61.3097 14.6485 61.0065 14.6612 61.2859 15.1674C60.9419 15.0712 60.5288 14.7497 60.0373 14.2192L60.456 14.5258C60.4075 14.4161 60.3589 14.3059 60.311 14.1977C60.5165 14.3942 60.7205 14.5901 60.926 14.7866C60.8697 14.5275 60.8147 14.2676 60.7572 14.0073ZM59.9523 14.059C60.0462 14.2879 60.1384 14.5157 60.2323 14.7446C59.9551 14.4586 59.6776 14.1726 59.4011 13.8881C59.4767 13.8525 59.5542 13.8183 59.6298 13.7827C59.7376 13.875 59.8446 13.9667 59.9523 14.059ZM3.73718 14.0102C4.24604 13.4615 4.62932 13.5471 4.6521 13.7954C4.56401 13.8705 4.47501 13.9474 4.38587 14.0239C4.17003 14.0195 3.95302 14.0146 3.73718 14.0102ZM10.6291 13.5385C10.6779 13.5555 10.7267 13.5727 10.7766 13.5883C10.8581 13.4799 10.9421 13.3661 11.0253 13.2543C11.0914 13.1663 11.1579 13.0778 11.224 12.9897C10.9988 13.3107 10.794 13.9273 11.1515 13.643C11.331 13.5003 11.7063 12.8652 11.9802 12.8569C11.8176 12.8184 11.6248 12.8339 11.4503 12.8168C11.6041 12.6489 11.7589 12.4789 11.9127 12.311L11.914 12.31C11.9014 12.2486 11.889 12.1849 11.8765 12.1235C11.4603 12.5954 11.0452 13.0666 10.6291 13.5385ZM54.0766 13.1586C54.1339 13.3431 54.1904 13.5269 54.2478 13.7114C54.0389 13.4585 53.8305 13.2055 53.6216 12.9526C53.6656 12.8888 53.7088 12.8249 53.7528 12.7612C53.8605 12.8937 53.9701 13.0274 54.0766 13.1586ZM60.4835 11.187C60.795 11.5243 60.7769 11.6713 61.1797 11.9321C61.0921 11.9781 61.0028 12.0226 60.9147 12.0688C60.9118 12.0232 60.9101 11.9787 60.9072 11.9331C60.78 11.8283 60.652 11.7214 60.5248 11.6166C60.8446 12.0253 60.6117 11.8133 60.4035 11.7319C60.803 12.1366 61.2026 12.542 61.6022 12.9467C61.3851 12.8799 61.1668 12.8134 60.9497 12.7465C60.8542 12.6419 60.759 12.5367 60.6635 12.4321C60.7442 12.5885 60.8265 12.7464 60.9072 12.9028C60.7837 12.7828 60.6608 12.6634 60.5373 12.5434C60.5745 12.6651 60.6126 12.7867 60.651 12.9096C60.3634 12.6126 60.3508 12.4229 60.2323 12.603C60.0099 12.2586 59.788 11.9154 59.5661 11.5708L60.4835 11.187ZM54.9177 12.6694C55.0538 12.6443 55.1916 12.6203 55.3277 12.5952C55.1462 12.3858 54.9631 12.1747 54.7815 11.9653C54.8269 12.1997 54.8723 12.4349 54.9177 12.6694ZM64.002 12.0747C63.7775 12.0912 63.5527 12.1089 63.3283 12.1254C63.2855 11.8931 63.2439 11.6606 63.1995 11.4272C63.4671 11.6427 63.7344 11.8592 64.002 12.0747ZM53.1791 9.96919C52.9812 9.94319 53.4326 10.364 53.4616 10.475C53.5698 10.8928 53.1623 10.6394 53.1654 10.936C53.0997 10.8431 53.0367 10.7565 52.9729 10.6665C51.8007 10.7447 53.1485 11.5221 53.5004 11.0844C53.6611 11.2446 53.822 11.405 53.9816 11.5639C53.9445 11.1505 53.8993 10.7576 53.1791 9.96919ZM0.394966 10.394C0.564187 10.331 0.784283 10.1416 0.832428 10.2778C0.841844 10.306 0.616007 10.9067 0.449961 11.0708C0.345804 10.8072 0.65837 10.4929 0 10.936C0.13231 10.7538 0.262483 10.5779 0.394966 10.394ZM57.1038 9.47016C56.9981 9.74192 57.1552 10.0555 57.8575 10.6206C57.8094 10.4293 57.7618 10.2376 57.7137 10.0463C57.5105 9.85451 57.3066 9.66223 57.1038 9.47016ZM55.254 9.10102C54.6626 8.59113 54.2482 8.51612 54.679 9.18696C54.8026 9.22555 54.9267 9.2636 55.0502 9.3022C54.9998 9.43389 54.9562 9.57228 54.9015 9.70063C55.5933 10.4839 55.3202 9.95974 55.7102 10.0668C55.7731 10.086 56.8326 10.9452 56.2476 10.1791C56.1269 10.0222 55.828 10.0333 55.5827 9.51899C55.4888 9.51921 55.4408 9.55619 55.364 9.56977C55.1935 9.38643 55.0224 9.20307 54.8515 9.01997C54.9854 9.04683 55.1201 9.07416 55.254 9.10102ZM1.1249 8.66157C0.699226 9.20207 1.16608 9.227 1.02366 9.61177C1.12212 9.52461 1.49872 9.0522 1.49737 8.96333C1.49468 8.75224 1.23579 8.76078 1.1249 8.66157ZM56.3664 7.9936C56.3257 7.95606 55.8833 7.83997 56.0539 8.07954C56.255 8.34464 56.485 8.62136 56.7001 8.89204C56.6094 8.58167 57.0282 8.62654 56.3664 7.9936Z" fill="#000422"/>
</g>
<defs>
<clipPath id="clip0_1779_2952">
<rect width="64" height="32" fill="white"/>
</clipPath>
</defs>
</svg>
