<svg width="369" height="274" viewBox="0 0 369 274" fill="none" xmlns="http://www.w3.org/2000/svg">
<path d="M323.115 76.8139C323.099 78.8428 324.896 72.6737 324.367 76.9955C324.715 76.1996 325.107 75.4016 325.522 74.6376C325.27 74.2841 325.026 73.9209 324.785 73.5547C324.172 74.5953 323.608 75.6949 323.113 76.8133C323.114 76.8135 323.115 76.8137 323.115 76.8139ZM318.112 77.1382C319.467 76.1522 321.029 72.6729 320.613 76.9153C320.164 77.1264 319.72 77.341 319.276 77.5682C319.154 79.0693 319.131 80.5553 319.197 82.0411C319.153 82.1438 319.109 82.2471 319.066 82.3508L317.829 79.2555C318.124 79.6324 318.415 80.008 318.704 80.382C319.68 80.351 320.636 80.3066 321.627 80.2964C321.048 79.9407 320.482 79.601 319.91 79.259C319.553 78.8299 319.19 78.4206 318.813 78.02L320.631 82.5677C321.169 80.8843 321.595 79.2424 322.38 77.0342C322.443 77.3287 322.507 77.6257 322.579 77.9129C322.759 76.4069 323.043 74.915 323.438 73.4281C322.661 74.5194 321.871 75.8097 321.273 76.9352C320.883 74.701 322.898 71.5496 324.027 70.0908C325.565 68.0655 324.878 68.3035 326.118 66.8594C326.321 66.6325 326.637 66.8252 326.998 66.354C328.729 63.9362 332.905 59.6687 329.806 61.5126C326.366 65.2282 323.252 68.4329 321.463 73.0733C321.117 71.4729 319.558 73.6618 318.112 77.1382ZM326.485 20.0449C328.108 20.8684 331.563 21.521 333.977 21.9074C333.98 21.9082 333.983 21.909 333.985 21.9098C334.505 21.988 335.844 21.7213 334.185 21.2433C331.427 20.4726 329.869 21.1499 328.577 20.1298C327.9 20.1033 327.204 20.0657 326.485 20.0449ZM320.406 18.9443C318.632 18.9791 319.341 19.8163 321.512 19.9168C321.512 19.9174 321.512 19.918 321.512 19.9186C322.415 19.9742 320.752 19.0741 323.867 20.2234C324.603 19.8677 325.318 19.5597 326.063 19.2372C325.269 19.069 324.578 18.9254 323.727 18.7711C324.15 19.6459 322.182 18.9215 320.406 18.9443ZM331.964 60.0219C332.625 60.3824 331.857 61.0511 331.043 62.5802C332.121 61.4466 333.267 60.3565 334.468 59.3156C333.629 59.5312 332.8 59.762 331.964 60.0219ZM327.691 86.7624C327.693 86.7642 327.695 86.7661 327.697 86.7679C328.057 87.249 328.404 87.724 328.754 88.2039C329.186 88.2619 329.613 88.3195 330.043 88.3807C331.381 89.9864 332.712 91.6591 333.96 93.342C334.366 92.6263 331.651 89.9875 330.521 88.1832C328.127 86.2198 326.712 85.5908 326.138 85.9491C326.646 86.2081 327.171 86.4841 327.691 86.7624ZM15.8822 116.322C15.5868 116.963 15.295 117.6 15.0052 118.251C15.011 117.338 15.0419 116.459 15.0469 115.527C16.2846 113.269 15.4844 112.966 16.0297 109.863C17.8996 100.428 18.7611 103.307 18.897 94.3494C17.1888 101.146 16.9235 98.3107 15.2383 102.297C15.6236 103.266 17.798 99.4645 17.4631 102.283C15.8442 106.908 14.5155 111.465 13.4675 116.798C13.3862 116.629 13.3046 116.462 13.2236 116.293C13.3911 115.451 13.5659 114.6 13.7451 113.758C13.3523 114.638 12.968 115.524 12.5837 116.421C13.3346 115.316 12.6336 118.282 13.3835 117.961C13.7152 117.814 14.3016 116.548 14.699 115.803C14.608 117.822 14.525 119.937 14.4886 121.967C14.8387 120.94 15.1961 119.916 15.5611 118.894C15.6645 118.035 15.7697 117.187 15.883 116.338C15.8828 116.333 15.8825 116.327 15.8822 116.322ZM343.394 200.242C341.421 202.161 338.618 206.05 337.704 208.544C339.737 205.895 341.659 203.1 343.394 200.242ZM325.631 86.2209C325.933 86.3241 326.223 86.4191 326.527 86.5268C325.725 85.4931 324.866 84.4346 324.04 83.4226C323.617 83.5318 323.19 83.6383 322.762 83.7432C323.724 84.5553 324.687 85.3852 325.631 86.2209ZM359.23 34.3561C360.049 34.8588 360.136 34.8954 361.17 35.4541C361.168 35.4537 361.167 35.4532 361.166 35.4528C361.431 35.5955 362.979 36.4279 363.985 36.9004L371.581 41.5736L362.846 43.6935C362.478 43.8595 362.089 44.0577 362.266 44.1111C362.471 44.0572 362.78 43.979 362.905 43.9498L372.256 41.6804L364.125 36.6775C362.643 35.7442 361.152 34.8446 359.634 33.961C359.49 34.0871 359.388 34.2361 359.23 34.3561ZM347.45 49.3253C347.448 49.327 347.446 49.3286 347.444 49.3303C346.868 49.659 346.324 50.029 345.736 50.3527C348.128 49.6154 348.15 48.7483 350.29 48.0217C352.434 47.3182 353.895 47.1993 355.304 45.5332C354.563 45.6372 353.786 45.6907 353.01 45.8001C350.178 47.414 349.249 47.4083 346.715 48.1645C346.961 48.5517 347.204 48.9372 347.45 49.3253ZM25.6991 74.59C26.4711 74.2528 26.3644 73.3653 26.3966 73.2937C26.3954 73.2946 26.3942 73.2955 26.3931 73.2964C29.7045 68.452 25.7044 73.7886 28.4631 68.984C27.9172 69.6179 27.3806 70.2443 26.8543 70.8865C26.4374 72.113 26.0608 73.3952 25.6991 74.59ZM191.146 9.09328C191.204 8.94188 191.274 8.79058 191.333 8.63922C188.088 8.54641 187.279 7.9225 184.572 8.41688C186.768 8.6195 188.955 8.84501 191.146 9.0951C191.146 9.09449 191.146 9.09389 191.146 9.09328ZM343.991 27.9484C347.234 29.648 349.533 30.8874 352.859 32.0783C352.861 32.079 352.864 32.0797 352.866 32.0803C353.061 32.1482 352.339 31.4139 352.611 31.4628C353.237 31.8392 353.839 32.2386 354.454 32.6323C354.662 32.4515 354.866 32.269 355.074 32.0903C353.252 31.1934 351.356 30.3096 349.49 29.4968C349.837 29.496 350.171 29.4918 350.51 29.49C348.968 28.6514 347.415 27.8472 345.826 27.0692C346.228 27.705 346.605 28.3356 346.97 28.9666C346.001 28.6235 344.982 28.269 343.991 27.9484ZM137.625 13.362C138.167 13.1177 137.082 12.9841 137.94 12.7196C138.79 12.4572 140.437 12.5581 140 12.138C138.817 12.2277 137.576 12.3235 136.36 12.4303C140.109 11.0264 144.069 11.3505 144.012 10.2964C140.302 11.0033 137.25 11.285 133.6 11.5435C133.876 12.3429 137.566 12.5357 135.423 13.6421C136.148 13.5464 136.912 13.4532 137.617 13.3613C137.62 13.3616 137.623 13.3618 137.625 13.362ZM342.479 133.471C342.951 135.426 343.288 140.094 344.002 142.648C344.191 143.285 345.917 145.288 346.119 145.278C346.805 145.161 346.681 142.473 347.36 145.312C347.291 144.329 347.239 143.425 347.156 142.446C347.635 142.573 348.113 142.702 348.589 142.828C348.628 144.002 348.653 145.203 348.66 146.383C348.817 146.43 348.975 146.478 349.132 146.525C348.823 142.259 349.603 144.742 349.96 142.47C350.432 144.484 350.856 146.526 351.242 148.593C351.146 147.38 351.034 146.02 350.912 144.957C351.691 144.765 351.675 147.269 351.84 147.698C352.877 150.07 351.495 137.763 352.321 136.592C352.731 138.557 353.094 140.619 353.406 142.667C353.493 142.063 353.575 141.451 353.654 140.852C352.384 136.312 351.304 131.184 349.432 126.084C349.338 125.603 349.242 125.133 349.138 124.657C349.519 124.697 349.897 124.734 350.278 124.775C350.116 124.042 349.939 123.3 349.756 122.578C349.263 125.027 348.478 122.063 346.519 118.952C346.83 120.882 347.775 123.038 346.995 123.12C345.624 116.679 341.452 110.178 338.312 104.682C337.523 103.315 338.366 102.691 335.942 99.8111C335.938 99.9786 335.8 100.119 335.74 100.273C331.991 94.9946 329.348 91.971 324.048 87.8353C324.574 87.8278 325.087 87.8093 325.621 87.8135C326.573 88.9134 327.496 90.0205 328.396 91.1364C329.491 91.3978 328.68 90.1729 331.695 93.2458C334.121 95.8037 332.487 94.4645 333.016 95.2824C333.718 96.396 334.828 96.9414 335.529 98.1788C336.061 99.1369 334.971 98.544 336.817 100.643C336.615 99.3769 336.363 98.0554 336.095 96.7702C335.534 96.3345 334.963 95.9036 334.397 95.4894C334.737 96.117 335.075 96.7505 335.402 97.388C334.021 95.3239 332.642 93.4289 331.062 91.4022C331.005 92.6273 329.391 90.5262 328.43 89.4789C326.924 87.8323 327.885 89.5884 326.9 88.5295C325.909 87.4729 325.212 85.8971 323.133 84.3066C323.927 85.522 322.254 84.56 322.289 85.0822C322.329 85.602 324.33 87.4523 322.086 86.0435C318.426 82.5306 323.536 84.9925 321.064 82.6144C318.047 79.7602 315.818 80.9847 316.471 82.1336C316.979 83.0339 319.571 85.0617 320.044 85.9815C316.859 83.8955 316.046 82.7473 315.703 81.9236L315.683 81.907L315.687 81.8826C315.979 81.4894 316.251 81.292 316.404 80.9567C318.066 77.6511 314.901 79.3901 317.018 75.4427C316.523 75.3711 316.079 75.3022 315.601 75.2425C315.924 74.5212 316.202 74.0703 316.593 73.2259C316.585 76.1203 317.268 73.9903 317.687 72.9508C318.358 71.2951 317.765 74.0293 318.06 73.6283C318.801 72.5594 319.486 70.739 319.379 72.0005C319.415 71.4323 319.484 70.818 319.56 70.2264C320.68 68.4185 324.91 65.6341 322.274 69.1513C323.139 69.172 323.524 67.8048 324.053 66.8229C324.58 65.8475 324.966 66.151 325.463 65.3271C327.548 62.0913 325.363 63.5085 324.441 63.6224C328.179 59.8977 324.896 63.8061 330.379 58.7084C331.252 58.6116 329.189 61.3546 331.442 59.6425C331.198 58.6299 332.249 56.6417 335.453 53.9086C335.908 53.8402 336.362 53.7803 336.813 53.7242C338.2 51.7576 336.744 51.5784 340.929 50.2672C337.982 49.7894 339.898 49.9821 342.914 47.4309C343.541 46.9119 341.722 47.4333 342.609 46.7214C343.02 46.3952 344.216 46.1078 345.227 45.3479C345.686 44.9824 347.952 43.0749 349.879 42.6634C348.954 44.0797 352.613 43.4043 350.063 45.3334C355.257 42.922 359.251 42.1281 352.753 43.1181C353.984 42.3313 355.333 41.5394 356.61 40.8129C357.704 40.6846 358.704 40.6036 359.791 40.5189C359.733 39.8785 359.571 39.6134 361.767 39.059L361.453 40.9294C361.05 40.6747 360.565 40.3568 359.978 39.9693C360.444 40.3264 360.909 40.6878 361.375 41.0538L361.734 38.9159C360.569 39.0723 359.364 39.2936 358.206 39.5224C358.103 39.3902 357.809 39.3116 357.822 39.1482C358.662 39.0074 360.03 38.6776 361.607 38.3727L361.079 41.526C359.11 40.1354 356.937 38.7506 356.209 38.1893C355.049 37.2859 357.517 38.639 357.255 38.2596C355.038 35.0778 354.661 36.2789 352.582 34.8408C351.357 34.0011 354.558 35.4982 353.894 35.0652C351.434 33.4474 349.791 33.6047 347.455 32.5007C348.524 32.4556 349.542 32.3898 350.589 32.3515C348.138 31.1492 345.314 29.8598 343.005 28.7301C342.105 28.2901 342.945 28.2363 342.803 28.1509C342.095 27.7055 339.054 26.3211 338.703 26.2052C336.174 25.3002 335.944 25.7652 333.467 25.0221C334.416 25.3562 335.335 25.6933 336.252 26.0475C336.409 26.9785 336.564 27.9124 336.702 28.8449C334.377 28.0882 331.978 27.4015 329.583 26.8278C331.395 27.0221 333.208 27.2753 335.041 27.5887C332.532 26.0522 329.971 24.6267 327.267 23.3195C325.697 23.3858 324.151 23.4983 322.597 23.6536C318.633 22.9187 319.576 21.4081 317.508 22.6521C316.305 22.41 315.14 22.2018 313.917 22.0249C314.081 22.2418 314.242 22.4597 314.404 22.6779C312.963 22.474 311.513 22.3184 310.063 22.212C311.574 21.4451 313.117 20.6946 314.727 20.0613C311.769 19.7609 311.702 20.4421 311.263 20.5861C310.115 20.9874 307.779 20.5099 306.891 20.9674C306.598 21.107 309.457 21.38 308.497 21.9045C308.285 21.9894 304.705 23.9602 302.369 23.9537C302.363 23.6325 302.482 23.2191 302.527 22.8624C299.269 23.1714 298.09 25.256 298.611 25.5919C296.92 25.6447 294.588 26.3683 294.1 26.0102C293.294 26.2752 292.473 26.573 291.681 26.8862C292.951 27.6843 289.677 28.8557 288.991 28.0478C290.305 27.3664 291.656 26.7535 293.039 26.2101C291.573 25.4956 295.336 22.6656 287.167 27.9073C285.878 29.3577 290.005 26.3356 288.915 27.4727C286.758 28.8619 284.561 29.9185 282.901 31.7446C281.11 33.8507 283.509 32.4288 279.809 35.1244L279.33 35.5705L278.794 35.2376C278.41 34.95 277.96 34.614 277.429 34.2236C278.002 34.468 278.524 34.6933 278.998 34.8989L279.282 35.0754L279.536 34.8389C284.268 29.5345 282.33 30.7969 278.655 33.9188L279.654 33.8075C276.747 31.9301 272.566 29.6882 269.944 28.1954C267.305 29.009 261.61 26.9649 253.808 23.7375C254.811 23.5255 257.209 24.6525 258.717 25.0439C260.214 25.4297 258.771 24.5469 260.645 25.0106C262.499 25.4574 266.432 26.7581 268.335 27.2446C267.002 26.2473 259.633 22.4946 264.341 25.3273C260.428 24.2705 258.447 24.0646 253.754 22.5629C252.603 21.337 252.839 20.8323 248.209 19.4107C250.634 21.3039 245.139 20.4933 245.981 21.9545C249.322 22.6506 247.819 21.0324 249.867 21.0898C250.067 21.0878 253.051 22.338 253.754 22.5629C250.363 22.5016 249.207 22.5607 250.714 24.2979C248.603 23.5119 247.231 23.2721 247.194 22.6591C246.673 22.7654 246.149 22.8733 245.636 22.9859C244.934 22.7779 244.298 22.5752 243.549 22.3745C244.804 21.8198 242.682 21.7842 241.354 21.0352C240.018 20.289 242.132 20.0987 238.153 19.1117C239.532 19.2344 240.786 19.3694 242.108 19.5165C239.615 18.6324 237.075 17.792 234.548 17.0077C236.471 16.8741 240.594 17.0659 240.662 16.3703C239.392 16.3114 235.41 14.9164 234.954 14.807C233.218 14.3567 234.079 14.9953 233.945 14.9768C231.136 14.5922 228.926 14.0237 227.753 14.4848C225.739 13.8067 224.139 13.7043 221.952 13.337C220.744 13.1367 221.054 12.6901 220.329 12.673C215.491 12.6117 219.962 13.7992 210.964 11.4802C212.114 11.2674 213.252 11.0523 214.405 10.8513C213.386 10.5921 212.368 10.3388 211.341 10.0913C210.633 10.0727 209.944 10.0596 209.244 10.0473C209.18 10.7852 209.119 11.5248 209.055 12.2626C208.297 12.2223 207.535 12.1837 206.775 12.1498C208.066 12.3496 209.352 12.5585 210.636 12.7771C210.74 12.92 210.836 13.0621 210.94 13.2051C208.996 13.1859 207.072 13.1922 205.129 13.2172C205.116 12.9573 205.103 12.6957 205.09 12.4358C200.708 12.4111 200.617 12.6262 196.519 11.6518C193.34 11.4678 190.79 10.2882 188.946 9.77232C188.277 9.89419 187.608 10.0202 186.933 10.1465C186.514 9.92089 186.089 9.69705 185.668 9.47329C184.817 9.75221 183.956 10.0347 183.109 10.3194C182.649 9.63972 182.405 9.4116 185.709 9.24162C184.599 8.36135 178.762 8.66937 176.402 8.9883C174.61 9.22005 176.607 9.90215 176.383 9.99004C175.639 10.2824 172.688 10.0793 172.069 10.1453C169.454 10.4069 167.628 10.4365 165.268 10.6966C164.809 10.7476 163.547 11.2549 163.44 11.275C162.595 11.3922 160.521 11.7296 160.286 11.752C148.059 12.9715 161.013 10.01 149.61 11.2C149.928 10.9136 150.219 10.6319 150.531 10.3471C149.664 10.4128 148.788 10.4838 147.924 10.5568C146.852 10.8824 148.213 11.1258 146.014 11.048C146.189 11.3443 146.364 11.6409 146.545 11.9352C145.589 11.8679 144.662 11.8032 143.673 11.7488C142.27 12.9933 136.84 13.9715 137.399 15.1925C137.604 15.5967 141.509 15.5257 139.537 16.2566C137.9 16.5701 138.949 15.9042 138.268 15.9699C133.336 16.4775 133.748 17.1792 131.738 17.2992C131.376 17.0421 130.991 16.7832 130.617 16.5261C129.877 16.742 129.137 16.9611 128.396 17.1839C128.185 17.008 127.966 16.8335 127.755 16.6582C128.459 16.519 129.256 16.3671 129.907 16.2432C128.854 15.5625 120.465 16.785 123.774 16.859C125.128 16.8814 127.444 16.3409 126.134 17.5546C123.914 17.8216 121.333 18.1875 119.004 18.5441C118.975 18.7614 118.951 18.978 118.923 19.1952C115.773 19.7431 118.445 18.3156 118.341 17.8866C117.633 18.0264 116.886 18.1797 116.166 18.3289C115.904 18.5928 115.661 18.8626 115.386 19.1244C115.289 18.822 114.712 18.1862 112.652 18.9614C111.333 19.466 113.666 19.7207 111.046 20.2511C111.123 19.7228 111.923 18.8891 108.96 19.4783C108.8 20.0549 108.522 20.618 108.439 21.2031C104.757 21.6669 103.291 22.9031 99.0165 23.6186C96.2314 24.0973 92.2578 24.0889 91.2246 26.6052C89.3473 27.3503 89.778 26.6641 89.1793 26.7677C86.393 27.2505 84.7332 28.9751 84.2952 29.2183C81.4137 30.8211 79.824 31.1892 77.6188 32.746C77.5874 32.349 77.5062 31.9982 77.4548 31.6215C79.9146 31.0656 81.1271 30.4708 84.2559 29.0224C83.141 29.4074 82.066 29.7879 80.9325 30.2125C80.9873 29.8583 81.0421 29.5044 81.0938 29.1541C91.6086 26.0627 88.568 25.2122 79.9212 28.4747C79.4159 29.312 78.9007 30.1604 78.4372 30.9959C75.5874 31.8114 73.6313 32.8522 71.7066 34.0709C70.1518 35.0536 68.6101 36.1287 66.4047 37.5424C65.7897 37.9298 63.4749 38.9842 62.5033 39.5993C62.5178 39.5874 62.5323 39.5755 62.5468 39.5636C61.6754 39.4999 62.3377 38.7838 62.1818 38.326C61.6327 38.6076 61.0882 38.8914 60.5483 39.1767C59.6104 40.2335 60.203 40.171 57.9313 41.6388C58.023 41.1392 58.115 40.6411 58.2154 40.1392C55.7627 41.8163 54.452 43.261 52.1909 44.807C52.6341 44.6319 53.0749 44.4625 53.5218 44.2913C49.0771 48.2186 54.0614 46.9223 49.9798 48.9315C49.8838 49.2529 49.7997 49.5677 49.7053 49.8905C51.091 48.7567 52.5669 47.6087 54.0018 46.5515C54.1898 46.7336 54.3792 46.9132 54.5611 47.1001C53.0098 48.2043 51.4233 49.3975 49.9265 50.5908C51.1067 49.7995 52.2948 49.0391 53.517 48.2861C51.8315 49.7904 50.2297 51.315 48.6658 52.9045C49.7834 50.615 47.4255 52.5817 47.2182 51.4998C44.7911 54.8245 43.3225 57.6348 38.8844 61.9142C38.0206 62.7802 37.8743 61.837 36.418 65.0774C36.0723 63.7568 33.1033 67.0221 32.6183 66.0081C33.3609 65.0223 34.1396 64.0031 34.9159 63.079C34.3666 64.3874 35.0065 65.1096 36.4617 63.6598C38.3013 61.8172 40.3015 58.5396 40.9972 59.3603C41.6503 58.5503 42.2656 57.8377 42.9241 57.082C42.4506 57.2003 41.9822 57.3147 41.5146 57.4346C43.7635 55.6129 44.9466 54.2897 45.4953 52.8485C42.915 55.0956 40.4297 57.5049 38.1001 60.0437C38.3907 59.628 38.6904 59.2078 38.9918 58.7952C36.786 60.3569 38.0089 57.8168 34.7907 61.6006C35.053 61.7665 35.3116 61.9375 35.5748 62.1048C33.7928 62.9771 30.9609 67.064 31.0852 65.2246C30.4687 66.6387 30.4652 66.9917 29.5693 67.4282C28.0133 71.1781 27.6698 73.8279 29.2818 73.153C28.4203 74.3145 27.5871 75.498 26.7837 76.6998C26.8935 75.8212 27.0189 74.941 27.1574 74.0586C25.9683 76.2954 24.867 78.6007 23.8719 80.9167C24.5556 81.4779 26.1516 76.6243 26.2405 78.2907C26.2543 78.6203 25.3756 79.6949 25.3121 80.0559C24.6692 83.8446 26.4292 78.2377 26.6535 79.5519C24.6313 84.6789 27.4169 81.0593 23.7396 87.7119C23.9111 87.9858 24.0836 88.2742 24.2607 88.5315C23.4184 90.9982 22.9492 90.6079 22.1716 92.7293C21.6893 94.0705 22.1845 96.0198 21.1273 97.353C20.9453 97.6018 20.3662 94.7069 19.0976 100.118C18.1924 104.322 19.4413 102.766 19.2798 105.09C19.1168 107.382 17.0807 112.462 18.2485 114.179C18.2315 112.966 18.3617 111.419 18.4304 110.071C18.7813 109.575 19.1288 109.099 19.4811 108.619C18.6198 111.562 18.5897 114.755 17.7067 116.734C18.1643 120.895 16.8957 125.364 15.9047 124.038C16.1846 122.697 16.5261 124.21 16.3972 122.31C16.1605 122.094 15.9264 121.867 15.6904 121.651C15.4082 124.856 15.2468 127.064 16.1371 125.676C16.1156 126.17 16.0957 126.66 16.0769 127.157C15.5067 127.203 14.9352 127.24 14.365 127.287C14.2572 127.877 14.151 128.48 14.0473 129.068C14.1265 129.732 14.2093 130.4 14.2939 131.076C15.247 130.235 15.3505 128.707 15.5657 133.794C15.2564 133.792 14.948 133.798 14.6387 133.796C14.8071 137.703 15.4523 138.124 15.4018 142.312L15.401 142.272C15.4336 142.64 15.4648 143.036 15.495 143.466C15.5726 143.041 15.6222 142.638 15.651 142.255L15.6522 142.319C16.2358 138.996 14.9847 137.187 16.9134 137.268C16.8157 136.238 16.7207 135.205 16.6316 134.186C16.9512 134.048 17.2711 133.912 17.5904 133.783C17.3898 136.177 16.8167 139.274 16.3747 142.34L16.372 142.205C16.1887 146.087 16.2957 149.832 17.3031 151.742C17.1922 152.193 17.1065 152.657 16.9896 153.129C18.2905 156.556 16.7187 158.396 18.4357 161.762C18.6266 162.093 20.1291 161.053 21.0599 165.596C20.8149 165.533 20.432 165.558 20.1342 165.528C20.4873 166.472 20.8659 167.446 21.2445 168.383C21.0866 168.61 20.9316 168.846 20.7733 169.075C20.2692 167.413 19.7967 165.737 19.3589 164.06C19.5882 165.486 19.8405 166.913 20.1191 168.344C19.3393 166.584 19.1542 165.738 18.8794 166.981C19.2263 168.612 19.5929 170.202 19.9988 171.808C19.9094 172.01 19.8186 172.212 19.7301 172.414C19.1126 171.747 18.5094 171.067 17.8997 170.394C19.3165 174.524 20.4895 178.133 22.3845 180.977C22.7131 181.458 22.5153 179.411 23.4071 183.171C23.6962 183.123 23.9505 183.135 24.2218 183.1C25.2035 187.744 26.0629 189.109 28.7649 193.194C26.8575 190.614 28.4339 192.98 28.5518 193.826C28.6271 194.412 27.6663 192.475 27.5926 192.785C27.5086 193.095 28.071 196.002 26.8651 193.891C25.796 187.825 23.2007 187.2 21.3823 179.715C21.5545 180.892 21.754 182.094 21.9644 183.27C21.6268 182.806 21.3247 182.387 20.9676 181.874C22.7865 185.77 21.8499 183.879 22.2528 185.63C22.6618 187.374 23.7491 190.423 24.6345 192.399C24.9127 193.022 24.9372 192.204 25.6547 193.569C26.1357 194.499 26.9735 197.289 27.8978 197.541C28.489 197.685 27.3302 193.172 30.403 198.608C31.3637 199.401 29.7501 196.894 29.7719 196.805C29.952 196.096 32.1541 199.189 32.7789 200.874C32.8268 201.014 31.7469 200.044 32.4215 201.412C34.0438 204.653 35.6625 206.099 37.5432 207.578C37.1098 208.204 38.2501 211.195 40.9658 213.886C40.9372 214.169 40.9023 214.447 40.875 214.732C40.5641 214.215 40.2585 213.698 39.9575 213.176C39.4392 212.77 38.9272 212.306 38.4075 211.914C40.7271 214.984 40.3805 216.027 41.3771 217.66C44.9227 223.163 44.0991 218.49 43.6542 217.376C42.9575 216.914 42.2637 216.473 41.5713 216.001C41.8194 215.897 42.0694 215.793 42.3129 215.682C48.8022 222.466 44.4535 215.615 48.1073 218.605C48.0978 220.326 50.567 222.859 54.4881 225.016C54.8616 225.327 55.2422 225.634 55.6204 225.942C55.5717 226.135 55.399 226.352 55.4301 226.528C59.5254 229.965 61.4712 228.858 61.9601 229.003C64.2165 229.587 65.0516 231.444 65.5948 231.802C67.8987 233.304 68.8361 233.287 70.9891 234.775C73.3362 236.364 71.4707 235.748 72.0528 236.463C72.5173 237.034 74.4624 238.136 75.1666 238.81C74.9428 238.437 74.6835 238.048 74.4673 237.673C77.2109 238.765 79.4976 239.558 82.5245 240.861C85.2811 243.96 89.3389 242.538 87.2587 244.164C84.2799 243.093 82.5573 242.593 80.7686 242.411C82.6319 243.357 84.5237 244.267 86.4226 245.141C87.0842 245.144 87.5794 245.084 88.348 245.119C89.5637 246.199 93.0711 247.298 94.3265 247.911C95.8026 248.641 96.8003 249.189 97.5458 249.619C99.7566 250.877 99.7464 251.167 104.447 251.292C100.911 250.17 100.482 249.428 97.9381 248.476C97.4947 248.306 96.9877 248.128 96.3927 247.934C96.8837 247.846 97.5875 247.976 98.0899 248.034C98.6533 248.093 98.9488 248.059 98.3584 247.498C102.184 248.932 100.785 249.047 102.204 250.012C103.442 250.841 106.146 251.585 105.863 252.09C106.225 251.863 106.519 251.629 106.878 251.4C109.524 252.074 112.167 252.662 114.827 253.193C113.78 252.655 112.684 252.094 111.629 251.531C112.504 251.599 113.407 251.665 114.273 251.716C120.603 254.118 132.214 253.689 130.096 255.967C133.304 256.437 133.715 256.15 135.512 255.859C135.684 256.07 135.855 256.248 136.026 256.481C138.135 256.491 139.627 257.351 141.481 257.318C143.328 257.283 143.837 256.634 144.019 257.799C145.224 257.56 146.418 257.37 147.615 257.142C148.308 257.448 149.003 257.75 149.694 258.05C150.822 257.981 151.934 257.906 153.054 257.826C153.619 258.408 158.012 258.371 159.928 258.799C161.783 258.267 161.783 256.421 166.071 256.853C165.95 257.311 165.831 257.768 165.71 258.227C166.699 258.152 167.689 258.075 168.682 257.994C168.744 257.845 168.797 257.695 168.859 257.546C168.355 257.584 167.858 257.622 167.354 257.661C167.795 257.415 168.227 257.169 168.66 256.921C170.15 257.322 171.661 257.716 173.17 258.104C171.127 258.375 169.079 258.635 167.034 258.881C169.588 259.267 171.382 258.95 173.609 259.342C175.55 258.716 174.833 258.345 174.053 257.651C174.771 257.714 175.496 257.773 176.211 257.833C175.739 257.139 176.956 256.741 172.765 256.771C173.055 256.576 173.35 256.39 173.632 256.187C174.319 256.223 174.764 256.058 175.515 256.136C177.561 256.35 179.158 257.555 179.016 257.981C178.941 258.205 176.902 257.782 176.983 258.096C177.187 258.864 181.864 258.52 175.12 259.288C177.342 259.782 177.867 259.414 180.328 259.26C180.136 259.517 179.95 259.773 179.765 260.03C180.911 259.906 182.048 259.779 183.191 259.649C181.59 258.355 190.017 257.755 182.414 256.698C184.653 256.618 186.891 256.524 189.094 256.416C188.636 256.291 188.178 256.166 187.72 256.039C186.721 256.129 185.723 256.215 184.715 256.299C185.899 256.036 187.077 255.771 188.246 255.502C191.04 255.753 192.167 256.191 193.453 256.737C190.215 257.246 191.25 256.641 188.71 256.58C188.805 256.946 188.695 257.286 188.924 257.668C190.232 256.884 194.525 257.326 195.502 257.33C198.554 257.347 196.144 256.676 198.17 256.592C200.182 256.508 202.581 256.858 204.21 256.044C204.199 256.461 204.085 256.897 203.983 257.28C207.132 257.279 206.469 256.813 206.792 256.735C211.979 255.438 214.791 256.17 220.763 255.892C220.016 256.07 219.251 256.236 218.478 256.406C223.102 256.992 219.938 256.935 216.131 257.455C219.711 257.152 221.925 257.757 224.502 257.801C227.112 257.844 231.54 257.114 233.058 256.685C229.421 256.496 225.346 257.121 221.289 257.256C221.726 256.802 222.15 256.414 222.59 255.918C225.131 256.636 226.581 255.931 227.362 255.755C229.703 255.233 229.763 255.992 231.132 255.061C231.096 255.347 231.072 255.587 231.034 255.855C236.005 255.346 241.326 254.36 244.623 255.083C244.869 254.377 245.037 253.704 245.312 252.981C246.39 253.13 247.316 253.033 248.291 252.879C248.764 252.803 249.151 252.724 249.607 252.651C250.104 252.573 250.556 252.514 250.973 252.498C252.761 252.419 252.12 253.043 254.153 253.017L254.113 253.024C254.113 253.024 254.114 253.025 254.115 253.026C254.121 253.029 254.15 253.022 254.221 253.002C254.288 252.982 254.431 252.942 254.452 252.926C254.55 252.881 254.685 252.819 254.876 252.75C254.972 252.716 255.081 252.68 255.207 252.644C255.288 252.618 255.37 252.595 255.464 252.575C255.651 252.535 255.872 252.509 256.134 252.511C257.106 252.552 261.028 253.458 261.038 251.727C261.841 251.496 262.68 251.234 263.56 250.949C264.332 250.696 265.138 250.424 265.998 250.137C265.142 250.36 264.322 250.565 263.543 250.752C262.668 250.967 261.821 251.166 261.044 251.338C262.252 250.58 263.607 249.759 264.818 248.96C265.101 249.246 265.39 249.536 265.67 249.817C269.489 249.058 272.074 247.534 275.739 246.284C276.369 246.064 275.148 247.303 277.855 246.048C280.461 244.806 281.975 242.784 286.693 241.169C286.926 241.09 288.681 241.389 290.004 239.961C290.302 239.64 288.649 240.185 289.403 239.586C290.173 238.996 293.73 236.981 293.798 236.37C293.841 236.545 293.696 236.828 293.667 237.044C294.342 236.784 295.002 236.525 295.661 236.26C295.571 235.958 295.485 235.652 295.396 235.351C299.261 234.027 301.735 234.004 306.577 230.389C305.411 231.697 304.222 232.984 302.988 234.262C302.422 234.237 301.858 234.207 301.304 234.17C298.999 235.692 296.593 237.18 294.175 238.59C293.597 238.488 293.031 238.378 292.461 238.268C291.827 238.646 291.201 239.013 290.572 239.377C290.85 239.529 291.129 239.677 291.416 239.824C290.107 240.409 288.699 241.018 287.374 241.568C290.753 241.704 294.734 237.762 294.992 239.06C295.5 238.567 295.974 238.086 296.455 237.596C297.004 238.001 298.094 237.216 300.126 235.929C299.803 236.47 299.425 237.033 299.138 237.549C300.973 236.032 304.499 233.955 306.406 232.508C307.246 231.876 306.123 232.069 306.355 231.855C307.539 230.768 310.518 229.672 310.994 229.249C313.918 226.708 314.939 224.065 318.753 222.155C315.596 225.084 317.33 223.51 316.479 224.9C316.214 225.335 312.032 229.045 317.434 224.609C318.211 224.179 326.795 214.877 323.204 217.121C324.835 215.914 326.176 214.977 327.647 213.814C329.198 209.081 329.572 211.523 329.474 213.243C329.987 212.689 330.475 212.16 330.989 211.572C329.101 212.08 334.429 205.7 336.438 203.655C337.144 202.986 335.893 205.375 337.311 203.668C337.852 202.758 338.44 201.702 338.971 200.717C338.69 202.466 340.644 199.945 341.231 200.353C341.772 198.255 341.331 196.224 340.137 196.813C341.236 195.524 342.293 194.212 343.316 192.859C343.12 193.629 342.907 194.404 342.69 195.167C344.953 190.199 348.428 183.896 347.31 182.326C347.553 181.654 347.789 180.968 348.017 180.284C348.33 180.149 348.641 180.018 348.953 179.878C349.722 176.605 350.251 173.466 350.631 170.165C349.926 173.003 349.417 173.612 348.957 176.593C348.968 175.399 348.958 174.181 348.915 173.002C350.604 168.679 351.34 168.165 351.757 161.268C351.807 160.983 351.391 155.657 351.292 155.535C351.008 154.736 350.554 155.931 350.409 155.575C350.058 154.606 348.849 148.612 348.655 148.728C347.249 150.467 346.163 169.793 344.098 174.763C333.096 214.677 292.257 238.615 253.199 248.539L253.596 248.474C239.599 250.167 225.173 251.344 210.831 252.051C210.248 252.078 210.487 251.775 210.238 251.776C208.695 251.784 207.14 252.31 206.591 252.354C205.381 252.449 206.03 252.001 205.141 252.041C195.897 252.457 187.161 252.93 177.907 252.877C177.302 252.874 177.92 253.207 176.857 253.148C176.306 253.116 174.609 252.601 173.377 252.584C169.066 252.526 165.464 252.626 160.935 252.473C158.462 252.391 154.743 252.278 151.988 252.117C150.775 252.048 149.51 251.738 148.31 251.653C146.605 251.53 146.922 252.025 146.657 252.037C145.497 252.085 145.379 251.554 144.288 251.484C142.248 251.35 142.106 251.691 139.543 251.432C137.716 251.251 133.534 250.543 131.253 250.176C125.833 249.939 119.078 248.704 114.257 247.542C111.353 246.844 111.005 247.243 109.842 246.97C105.89 246.004 103.056 244.603 99.6867 243.381C99.5107 243.317 99.3331 243.254 99.1539 243.191C94.1512 241.424 89.6033 240.08 84.9131 238.015C84.1501 237.677 84.5085 237.349 83.7746 237.001C81.0656 235.718 77.6639 233.918 75.2968 232.692C72.6692 231.328 71.3897 231.335 68.9683 229.699C68.2625 229.215 68.349 228.603 67.2019 227.777C65.3531 226.448 63.0492 225.449 61.727 224.548C59.9399 223.315 61.7892 223.991 59.4299 222.282C59.3335 222.211 58.7328 222.269 58.2537 221.862C56.8678 220.673 57.2082 220.551 55.1661 218.841C54.9635 218.692 52.0797 216.618 51.8321 216.364C50.3119 214.973 47.3225 212.069 46.5791 211.091C43.9134 207.619 46.6466 209.83 43.2181 207.847C42.4344 206.367 41.7063 204.883 40.948 203.304C41.3768 204.423 38.2999 200.862 38.16 200.547C36.8523 198.138 38.1588 199.237 36.2813 196.345C37.6144 200.887 33.8172 192.601 33.043 190.765C28.8004 182.074 25.6553 173.72 23.526 164.064C22.8087 160.816 22.2916 156.405 21.8202 152.925C21.7095 152.107 21.5074 152.764 21.406 152.042C21.3088 151.323 21.7302 152.075 21.6105 151.268C21.1103 147.87 20.5422 144.962 20.376 141.93L20.3864 142.458C20.452 140.967 20.6057 139.484 20.9165 137.952C20.8163 137.713 20.7291 137.716 20.6249 137.323C21.4469 133.451 21.0419 125.914 21.2092 123.096C21.4423 118.706 22.0467 117.652 22.3784 114.489C22.7965 110.312 23.1383 104.001 24.0657 107.021C24.6416 104.237 25.2438 101.566 25.8235 98.7767C25.8878 98.4669 25.4676 98.5824 25.4921 98.4578C25.6456 97.6598 26.0424 97.4929 26.2016 96.973C26.6396 95.5654 25.597 97.7708 26.2791 95.7797C26.6502 94.7426 27.087 94.1964 28.0592 91.3089C33.7146 73.7125 46.3671 57.6893 62.246 46.9633C63.3359 46.2103 62.8272 46.9962 64.1644 46.0678C66.8529 44.2054 70.7284 41.5628 74.565 39.2806C77.3338 37.6157 80.1526 36.1577 82.0934 35.3144C86.6922 33.3577 85.828 34.3444 88.811 33.3688C89.3904 33.1861 88.8157 33.0859 89.3261 32.88C92.6693 31.5288 96.667 29.6405 99.5052 28.6679C101.4 28.0183 101.359 28.5365 102.678 28.1717C104.628 27.6352 106.569 26.5898 107.593 26.2956C112.53 24.8899 116.067 24.4558 120.726 23.2627C120.564 23.4044 120.463 23.5253 120.33 23.6597C125.886 22.463 131.504 21.456 137.132 20.6248C136.879 20.7586 136.636 20.8923 136.384 21.0283C143.007 20.0307 142.112 19.1523 141.811 21.398C142.3 21.4135 142.821 21.439 143.289 21.4535C142.962 20.3539 146.873 19.0116 152.004 18.2556C152.387 18.1958 155.001 19.0838 154.62 17.8056C155.306 18.0703 155.717 18.2591 156.297 18.4963C157.354 18.0183 158.433 17.5497 159.503 17.0846C160.101 17.1046 160.698 17.1244 161.292 17.1481C161.394 17.3987 161.343 17.6681 161.546 17.908C164.276 17.7723 169.881 17.2366 172.047 17.2317C177.434 17.1841 182.887 17.9183 187.079 17.2912C189.111 17.4298 187.074 17.8625 190.1 17.9076C190.452 17.6665 190.783 17.4358 191.151 17.1888C193.576 18.4363 194.105 17.7627 197.514 17.7391C199.817 17.7299 201.284 18.1217 203.463 18.2561C204.017 18.2908 203.968 17.9516 204.345 17.9966C205.613 18.1393 209.149 18.9669 210.032 19.0862C218.049 20.1295 224.915 21.1858 232.435 22.6679C233.244 22.8303 232.13 22.9256 232.966 23.0931C234.308 23.3664 233.631 22.6985 234.411 22.8476C236.579 23.2772 236.479 23.7916 239.469 24.5704C249.269 27.1354 260.436 30.5392 269.769 35.2547C270.059 35.4017 269.9 35.6715 270.211 35.8344C272.225 36.8838 274.511 37.6699 276.274 38.7295C276.378 38.7916 276.48 38.8537 276.581 38.916L279.85 40.9477L282.778 38.2254C284.971 36.2048 287.075 35.1667 289.657 33.6831C294.948 30.7341 300.361 28.9953 306.885 28.4371C312.229 28.0393 316.987 28.3708 322.932 29.4578C335.538 31.8419 347.697 37.6871 358.928 44.9487L360.691 34.4357C345.209 38.5025 330.544 45.5736 319.954 58.5771C319.45 59.2207 319.876 59.1355 319.712 59.322C318.161 61.1147 317.758 61.1078 317.914 62.2404C316.124 64.6631 315.082 65.1881 313.492 68.5848C312.714 70.4125 314.08 69.3851 312.455 72.3269C311.211 75.0768 311.19 71.6455 309.941 80.6538C309.935 80.722 309.96 80.8718 309.992 81.0934L309.505 84.273L312.121 86.4201C312.58 86.584 313.402 86.9124 314.211 87.7055C315.346 88.8256 313.703 87.9616 316.54 90.4972C323.177 96.4462 331.474 103.938 336.233 112.505C336.604 113.01 339.015 118.372 339.264 119.519C339.866 121.691 339.331 121.392 340.187 124.149C340.817 126.288 341.784 127.95 342.304 130.586C342.361 130.9 342.025 131.496 342.479 133.471ZM13.8957 126.984C13.3837 127.56 11.5556 128.543 11.8662 132.297C11.8958 132.652 13.1934 130.817 13.2667 132.882C13.5034 130.871 13.6671 128.964 13.8975 126.984C13.8969 126.984 13.8963 126.984 13.8957 126.984ZM355.252 147.659C355.01 144.873 354.69 142.027 354.275 139.243C354.294 141.2 354.266 143.153 354.196 145.099C354.556 145.958 354.907 146.787 355.252 147.659ZM173.749 9.26114C173.752 9.2611 173.754 9.26105 173.757 9.26101C170.831 9.08755 167.911 8.95538 164.974 8.86611C165.289 9.01641 165.604 9.16785 165.918 9.31912C168.234 9.47945 170.541 9.6659 172.84 9.87877C173.142 9.67242 173.445 9.46658 173.749 9.26114ZM196.692 11.4935C198.557 11.4141 198.125 11.0578 199.168 10.8065C199.168 10.8071 199.168 10.8078 199.168 10.8084C199.443 10.743 200.703 10.7609 201.187 10.7865C200.993 10.9786 200.747 11.1644 200.539 11.3543C204.788 12.1646 213.462 11.238 202.527 9.5114C202.67 9.78466 202.806 10.0561 202.948 10.3296C197.501 9.79577 191.389 10.0862 196.692 11.4935ZM16.8644 170.972C17.2711 175.753 17.5191 177.327 20.0095 182.556C19.9562 181.71 19.9069 180.849 19.8764 180.016C19.3372 179.207 18.809 178.391 18.2846 177.556C18.2837 177.554 18.2829 177.551 18.2821 177.549C18.4713 177.288 18.6616 177.028 18.8545 176.776C18.1473 174.869 17.4789 172.914 16.8644 170.972ZM360.855 42.0767C360.187 43.8572 360.278 43.1437 362.606 42.6645L368.868 41.1449L363.423 37.795C363.145 37.6032 362.84 37.3825 362.509 37.1283C361.468 36.3308 362.707 36.7421 362.042 36.2756C358.454 33.7902 357.527 34.6354 358.086 35.6296C359.736 36.6191 361.294 37.5936 362.896 38.6336L366.325 40.743L362.382 41.6998C361.935 41.7978 361.367 41.9417 360.863 42.0745C360.86 42.0753 360.858 42.076 360.855 42.0767ZM346.633 116.829C346.635 116.831 346.636 116.834 346.637 116.836C347.067 116.784 346.48 115.1 347.619 116.798C347.037 115.387 346.404 113.988 345.721 112.607C345.886 113.028 346.053 113.462 346.209 113.886C345.911 113.587 345.608 113.289 345.306 112.996C345.495 112.302 345.03 111.964 344.135 110.632C344.794 110.778 345.454 110.933 346.114 111.101C345.11 109.481 344.037 107.905 342.912 106.389C342.79 106.437 342.669 106.485 342.547 106.534C342.312 105.848 342.07 105.168 341.814 104.487C341.579 104.412 341.349 104.344 341.114 104.271C340.73 103.499 340.336 102.739 339.926 101.978C339.468 101.994 340.462 103.579 338.551 100.874C338.863 101.909 339.158 102.953 339.425 103.995C342.278 107.988 344.715 112.299 346.633 116.829ZM333.922 24.4241C339.081 26.1568 337.689 25.4699 336.779 24.2494C335.834 24.2974 334.857 24.3476 333.922 24.4241ZM69.2951 34.3589C67.6581 34.6246 66.0301 34.9164 64.3476 35.2879C61.4536 36.6636 59.3195 39.3556 61.572 38.3709C64.257 37.2224 66.572 35.1866 69.2951 34.3589ZM21.7472 87.1403C22.8557 83.3843 20.924 86.5808 20.2554 87.3032C20.4961 88.5535 19.9472 89.9552 19.3103 92.3153C20.0056 90.1248 21.5668 87.7593 21.7489 87.1409C21.7483 87.1407 21.7478 87.1405 21.7472 87.1403ZM128.135 14.2352C129.669 13.9853 131.234 13.8905 132.562 13.4839C132.067 13.0013 129.401 13.9453 131.235 12.8188C130.251 12.9638 129.253 13.1171 128.275 13.2705C128.953 13.4967 128.162 13.8897 128.138 14.2327C128.137 14.2335 128.136 14.2344 128.135 14.2352ZM282.102 28.5148C280.073 30.6977 279.41 31.053 277.303 32.5057L280.663 32.1313C280.461 31.9631 280.243 31.7834 280.004 31.5907C279.775 31.6738 279.971 32.0576 280.393 32.5802L277.665 32.8842C278.825 32.3431 280.706 31.2737 282.004 30.4803C282.017 29.8319 282.048 29.1772 282.102 28.5148ZM313.882 229.377C312.894 229.292 308.398 232.345 306.225 233.929C306.548 233.842 306.873 233.754 307.198 233.665C309.457 232.307 311.697 230.872 313.882 229.377ZM19.0259 93.437C19.1201 93.0419 19.2149 92.6703 19.3103 92.3153C19.1852 92.7043 19.0864 93.0794 19.0259 93.437ZM68.9268 234.874C68.174 233.683 71.4802 235.411 67.4734 233.299C67.4737 233.299 67.474 233.298 67.4743 233.298C64.8317 231.857 64.2622 231.536 61.9296 230.014C62.2809 231.25 66.8719 234.687 60.2667 230.42C60.1808 230.359 60.6335 230.087 59.57 229.412C59.2442 229.203 57.9958 228.807 56.4303 227.759C55.9203 227.417 52.211 224.701 57.1675 228.528C56.6757 228.873 56.5989 229.538 56.2559 229.973C58.159 231.59 60.349 231.762 62.5047 233.222C65.6897 235.362 66.8526 237.323 68.232 236.421C65.6089 234.499 61.0089 231.425 59.9144 231.722C57.3292 229.919 57.0541 228.779 59.3076 229.97C67.9854 236.397 62.2527 230.851 69.9842 236.206C69.9779 236.441 70.2058 236.826 70.0585 236.965C72.9314 237.752 69.1776 235.306 68.9268 234.874ZM49.8288 223.002C50.9314 224.566 52.0922 226.12 53.2836 227.634C53.7289 227.071 53.3083 225.96 51.3326 223.739C50.8313 223.5 50.3257 223.251 49.8288 223.002ZM198.372 258.777C198.653 259.154 199.377 259.483 199.908 259.832C200.439 259.514 213.838 258.569 206.988 258.575C206.04 258.579 199.995 259.516 198.372 258.777ZM302.868 21.2459C301.289 21.7283 299.739 22.2797 298.223 22.9026C300.681 22.4934 303.142 22.276 305.597 22.2168C304.711 21.8708 303.796 21.5466 302.868 21.2459ZM48.5673 49.6397C49.0673 49.1869 47.0243 50.2527 49.0895 48.5783C47.3531 49.6158 45.8115 50.6198 44.1644 51.751C43.9149 52.3376 43.6692 52.9264 43.4371 53.5106C43.0035 53.7131 42.5727 53.9184 42.1338 54.1353C42.5881 54.1954 43.0118 54.2758 43.474 54.3399C45.2203 51.5077 46.396 51.6419 48.5673 49.6397ZM136.468 15.7017C136.929 14.828 132.243 15.0382 136.768 14.2473C135.832 13.854 134.395 13.7784 131.743 14.1555C131.352 14.4211 130.958 14.6865 130.562 14.9549C130.416 14.437 129.695 14.3515 128.135 14.2352C128.133 14.236 128.132 14.2369 128.131 14.2377C124.087 14.9148 124.381 15.0648 123.569 16.1116C127.723 14.8194 127.993 15.6042 130.985 15.5856C133.022 15.5808 135.599 15.0459 136.468 15.7017ZM184.121 259.107C187.19 259.734 184.464 260.414 189.857 259.594C189.501 259.431 189.144 259.269 188.796 259.105C187.248 259.11 185.689 259.111 184.121 259.107ZM151.115 11.228C150.871 12.4846 148.115 13.7185 147.418 11.779C150.175 11.0874 148.916 12.3543 151.115 11.228ZM24.0133 86.5692C25.9027 81.5619 24.3117 81.9487 22.7989 83.7713C22.9045 84.1881 23.0133 84.6031 23.1253 85.0092C22.672 85.859 22.2335 86.7081 21.8061 87.5703C22.5404 87.2251 23.2774 86.8913 24.0133 86.5692ZM245.477 19.6992C241.714 17.7295 249.92 20.4576 247.283 19.1345C245.159 18.0543 242.004 18.1475 242.968 18.9766C243.732 19.1957 244.571 19.4352 245.469 19.6971C245.472 19.6978 245.474 19.6985 245.477 19.6992ZM222.231 14.3803C223.05 13.5635 222.042 13.6621 225.23 14.379C226.162 14.5584 233.475 15.6371 230.284 15.8017C227.711 15.2909 224.921 14.8035 222.231 14.3803ZM14.3198 147.756C14.6405 147.754 14.9427 144.173 14.9601 142.303C15.0093 141.818 15.0222 141.456 14.9806 141.304C14.9813 141.304 14.9819 141.304 14.9825 141.304C14.7041 140.293 14.4932 141.338 14.2581 142.278L14.2596 142.351C14.1225 143.285 13.9536 144.116 13.4451 142.851C14.6162 148.567 13.1113 150.472 15.3947 149.812C15.1348 146.417 14.827 148.064 14.3198 147.756ZM350.983 170.274C350.983 170.271 350.984 170.269 350.984 170.266C350.955 170.623 350.883 173.903 351.161 173.562C351.785 169.716 351.249 170.395 352.439 166.962C352.259 166.738 352.081 166.544 351.901 166.307C351.582 167.691 351.222 168.419 350.983 170.274ZM212.746 257.304C211.387 257.272 208.878 257.846 207.267 257.895C212.422 259.36 218.35 257.408 212.746 257.304ZM318.107 77.1486C318.108 77.1451 318.11 77.1417 318.112 77.1382C318.11 77.139 318.109 77.1403 318.108 77.1411C318.107 77.1436 318.107 77.1461 318.107 77.1486ZM105.473 252.316C105.676 252.255 105.8 252.188 105.856 252.115C105.858 252.107 105.86 252.1 105.862 252.092C105.741 252.168 105.614 252.243 105.473 252.316ZM15.7954 159.545C16.7504 161.778 16.3248 153.859 15.8632 151.361C15.6259 151.568 15.3943 151.624 15.1484 152.071C16.0519 154.043 15.6112 159.15 15.7954 159.545ZM102.202 21.2554C96.2444 23.0541 104.621 22.8923 104.476 21.0936C104.453 21.0614 102.356 21.2107 102.202 21.2554ZM16.6481 110.361C17.5836 108.899 17.2155 112.078 17.9709 107.031C17.8501 106.706 17.7297 106.382 17.6108 106.056C17.2695 107.488 16.9484 108.925 16.6481 110.361ZM66.2363 40.0478C59.471 43.7204 53.1829 47.8629 56.1507 43.2638C56.664 42.965 57.1876 42.6617 57.7102 42.3668C58.3169 43.067 59.8049 41.3779 62.4908 39.6095C63.0819 39.6586 64.6192 38.7888 65.0626 38.8821C65.9169 39.0575 64.4349 40.4714 66.2363 40.0478ZM343.869 46.6213C344.053 46.7025 344.234 46.7864 344.415 46.8676C345.609 46.4532 346.779 46.0802 347.984 45.7202C347.678 45.5296 347.37 45.3413 347.059 45.1548C345.977 45.6258 344.924 46.1092 343.875 46.6169C343.873 46.6184 343.871 46.6198 343.869 46.6213ZM45.6615 216.327C44.942 218.033 43.3172 216.063 40.7299 211.668C42.3208 213.279 43.9735 214.841 45.6615 216.327ZM186.593 13.3125C186.768 12.8266 186.941 12.3423 187.125 11.8569C189.785 12.4473 189.262 12.9967 187.968 13.6034C187.507 13.5055 187.055 13.4083 186.593 13.3125ZM224.719 17.1994C223.608 17.1112 224.233 16.8178 224.117 16.8057C221.337 16.5504 220.929 16.663 217.565 15.8723C217.16 15.7095 216.77 15.5446 216.369 15.3814C218.075 14.5829 219.164 15.291 222.578 15.2303C221.922 15.4804 221.271 15.7339 220.618 15.9907C222.477 16.2043 224.308 16.4362 226.175 16.6969C226.375 16.8433 226.574 16.989 226.773 17.1359C226.094 17.1533 225.39 17.1871 224.719 17.1994ZM332.077 54.785C330.689 55.9621 329.346 57.2125 328.081 58.5194C327.856 58.3861 327.631 58.2504 327.404 58.1187C328.908 56.9212 330.478 55.8072 332.077 54.785ZM75.1666 238.81C75.2544 238.957 75.3392 239.102 75.4096 239.242C75.4498 239.137 75.3481 238.986 75.1666 238.81ZM350.346 165.327C350.445 163.198 350.807 160.398 350.87 158.098C351.528 158.347 350.953 163.952 351.001 166.072C350.844 166.381 350.309 166.202 350.346 165.327ZM26.8347 79.7109C27.3411 79.3761 27.8476 79.048 28.354 78.7336C28.867 77.6076 29.4031 76.489 29.9676 75.379C30.2128 75.4707 30.4596 75.5642 30.7047 75.6564C27.8718 80.3118 29.1585 79.5742 28.705 82.2858C28.0727 81.4374 27.4471 80.5848 26.8347 79.7109ZM333.1 100.427C330.682 97.3293 329.888 96.102 332 97.2265C332.809 98.3841 333.603 99.5733 334.356 100.772C333.936 100.652 333.513 100.532 333.1 100.427ZM145.345 256.186C148.66 256.708 148.795 255.67 152.021 256.434C150.27 256.533 148.491 256.62 146.739 256.694C146.277 256.526 145.805 256.356 145.345 256.186ZM22.8537 169.14C23.5445 170.347 22.5384 173.353 24.9622 176.659C24.8896 177.652 24.7316 178.312 24.6436 179.186C25.1809 179.493 25.7453 179.85 26.2737 180.124C26.2745 180.126 26.2754 180.129 26.2763 180.131C27.3738 183.447 26.1062 181.513 25.7284 181.737C25.5679 181.838 26.8056 184.162 26.1446 183.544C24.9678 182.495 23.5545 177.34 22.8055 177.578C23.6245 179.266 24.7094 182.787 23.8225 181.958C22.8308 181.038 22.6262 177.452 21.5131 175.472C23.6866 178.102 21.3904 172.032 20.2685 171.542C20.0421 167.637 21.1741 170.993 22.2701 174.727C22.3207 172.239 22.9238 175.697 23.7179 176.057C23.264 173.642 20.9018 165.636 22.8537 169.14ZM95.4454 26.812C92.9494 27.5925 89.2262 29.4434 87.3271 29.5166C86.2013 29.5547 89.9705 27.7645 87.082 28.2627C89.5103 27.3713 90.1367 27.4024 89.9078 28.036C90.4771 27.8884 91.0558 27.739 91.6306 27.5944C91.8524 27.4064 92.0826 27.2175 92.3068 27.0301C92.6718 27.1252 93.0378 27.2192 93.3955 27.3186C93.9783 27.0691 94.5406 26.8301 95.1154 26.5886C95.2187 26.6664 95.366 26.7147 95.4454 26.812ZM241.498 254.106C240.693 254.175 240.046 254.228 239.304 254.288C239.373 254.155 239.457 254.016 239.537 253.879C239.593 253.771 239.649 253.663 239.705 253.555C239.34 253.957 235.838 254.877 234.34 254.608C233.576 254.474 235.206 253.645 232.033 253.782C234.371 253.629 236.358 253.555 238.692 253.406C238.474 253.218 238.262 253.028 238.041 252.84C238.042 252.84 238.044 252.839 238.045 252.839C238.792 252.726 239.524 252.61 240.225 252.499C240.614 253.039 241.065 253.571 241.498 254.106ZM184.412 14.2337C181.909 13.7849 181.063 13.576 182.261 12.9309C182.263 12.9306 182.266 12.9303 182.269 12.9301C183.204 13.2308 184.137 13.5359 185.067 13.8455C184.851 13.9746 184.635 14.1043 184.412 14.2337ZM95.835 245.416C100.016 249.578 89.2288 244.005 91.7014 243.993C91.8067 244.002 95.2762 245.517 95.835 245.416ZM24.3919 87.7528C24.9075 86.3946 25.4591 85.0272 26.0394 83.6868C26.1923 84.115 26.3442 84.5479 26.5028 84.9719C25.7866 85.8787 25.079 86.8133 24.3919 87.7528ZM320.183 89.1464C318.597 88.6608 315.435 86.3483 314.396 84.577C315.248 85.1486 316.063 85.6982 316.912 86.2857C315.989 85.4537 315.11 84.6671 314.171 83.8473L313.04 82.9192L313.251 81.5449C313.385 80.8054 313.537 80.0761 313.707 79.354C314.284 79.4029 314.139 80.1991 313.925 81.6384L313.772 82.639L314.595 83.3147C315.31 83.8942 316.184 84.6285 317.289 85.4017C317.719 85.6921 321.036 86.9346 321.303 88.3603C321.36 88.6443 318.614 86.454 320.12 88.4459C319.29 87.786 318.578 87.172 317.797 86.5517C317.595 86.6792 317.395 86.8074 317.188 86.9305C318.187 87.6535 319.202 88.4042 320.183 89.1464ZM81.1504 32.334C77.8871 33.8867 77.3745 33.7601 76.3732 33.4987C77.952 32.7957 79.4502 32.1696 81.0434 31.5345C81.075 31.8022 81.1171 32.0653 81.1504 32.334ZM324.19 58.0627C325.571 56.4362 325.343 57.4835 326.009 56.9508C328.549 54.9871 329.935 53.2965 332.582 51.5949C332.354 51.6343 332.143 51.6706 331.921 51.7108C331.924 51.7091 331.926 51.7075 331.928 51.7058C343.971 43.048 337.915 48.1049 330.846 53.2926C330.814 53.5801 330.791 53.8624 330.762 54.1482C327.509 56.3461 324.786 58.8463 324.19 58.0627ZM54.9372 222.904C55.1419 222.905 54.6131 221.434 56.3282 223.319C57.1589 225.496 54.9509 222.985 54.03 222.789C54.4918 223.324 54.9615 223.853 55.4256 224.372C51.9995 222.005 51.7671 221.343 53.4608 221.685C53.5761 221.712 54.7333 222.905 54.9372 222.904ZM77.9458 237.053C77.673 238.885 73.3569 235.752 73.8074 235.357C74.4473 235.68 74.8026 236.205 75.5432 236.447C76.2907 236.69 76.6569 236.427 77.9458 237.053ZM20.0496 111.932C20.0315 112.089 20.5331 113.713 19.9894 113.48C18.9053 111.388 20.4189 107.731 20.7723 108.478C20.5319 109.723 20.1953 110.513 20.0514 111.932C20.0508 111.932 20.0502 111.932 20.0496 111.932ZM335.864 106.519C335.802 106.474 333.346 103.665 333.236 103.131C333.229 102.63 333.36 102.268 333.416 101.832C334.537 103.613 337.142 106.904 335.86 106.512C335.861 106.515 335.863 106.517 335.864 106.519Z" fill="#0B1956"/>
</svg>
