<svg width="244" height="64" viewBox="0 0 244 64" fill="none" xmlns="http://www.w3.org/2000/svg">
<path d="M2.80469 5H240.805V61H2.80469V5Z" fill="#D2E8FF"/>
<path d="M51.6312 0.966749C50.3027 0.515791 54.7375 0.811404 51.7926 0.137933C52.4067 0.0924303 53.0246 0.0455017 53.6387 -9.73602e-09C53.7944 0.249417 53.954 0.498227 54.1097 0.747644C53.2851 0.82109 52.46 0.894524 51.6312 0.96797C51.6312 0.967563 51.6312 0.967156 51.6312 0.966749ZM50.5051 4.09037C51.2609 3.37898 53.6621 3.18931 51.0681 2.53283C50.862 2.77698 50.6508 3.02107 50.4446 3.26522C49.544 3.07586 48.6378 2.88655 47.7372 2.69823C47.4134 2.79131 47.0899 2.88449 46.766 2.97654C46.3536 2.55228 45.9448 2.12687 45.5323 1.70158C45.8985 1.76367 46.2697 1.82685 46.6359 1.88894C48.0836 1.54442 49.3718 1.4502 51.3373 1.38604C51.1647 1.28565 50.9917 1.18615 50.8192 1.08576C51.8166 1.25651 52.8136 1.42768 53.8069 1.59843C52.9442 1.76604 51.9797 1.95244 51.1803 2.10866C52.4596 2.77388 54.7161 2.40365 55.8907 2.2649C57.4901 2.07552 57.1286 2.39183 58.3154 2.25941C58.5048 2.23871 58.5263 1.99078 58.9008 1.9866C60.7908 1.96693 64.4615 2.09835 62.3147 2.67687C59.2042 2.60235 56.5513 3.06692 53.4996 2.8972C54.3069 3.56613 52.6992 3.79376 50.5051 4.09037ZM107.649 1.96035C106.706 2.28524 104.786 2.15413 103.486 1.92862C103.484 1.92862 103.483 1.92862 103.481 1.92862C103.195 1.87894 102.547 1.44718 103.481 1.46477C105.005 1.49492 105.741 2.17457 106.541 1.71317C106.898 1.79907 107.274 1.87549 107.649 1.96035ZM110.96 1.92007C111.894 2.08668 111.47 2.59881 110.3 2.46021C110.3 2.46061 110.3 2.46102 110.3 2.46143C109.812 2.40347 110.77 1.99868 109.019 2.40955C108.662 2.0899 108.309 1.79909 107.956 1.48979C108.385 1.48462 108.776 1.47623 109.226 1.47209C108.923 1.9975 110.025 1.75476 110.96 1.92007ZM63.8938 2.38758C64.0408 1.91491 63.4254 1.91789 62.3775 1.58989C63.3665 1.60541 64.3558 1.62197 65.3406 1.63749C64.8568 1.88784 64.3777 2.13723 63.8938 2.38758ZM40.6582 2.31434C40.6567 2.31434 40.6552 2.31434 40.6537 2.31434C40.3296 2.38885 40.0046 2.46363 39.6847 2.53711C39.4911 2.36841 39.2997 2.20045 39.106 2.03176C37.9611 2.1901 36.8101 2.34843 35.6652 2.50781C35.8043 1.99251 37.8594 2.07636 38.9916 1.71622C40.6752 1.87147 41.4864 2.17058 41.5958 2.60729C41.2844 2.51005 40.9738 2.41158 40.6582 2.31434ZM221.609 61.6313C221.226 61.7741 220.848 61.917 220.465 62.0598C220.974 62.1249 221.479 62.1747 221.993 62.2502C223.335 61.6293 223.462 62.1785 225.221 62.1403C230.612 62.0224 229.182 61.058 234.051 62.4705C230.142 62.4033 231.644 63.067 229.287 63.5782C228.799 63.1891 231.135 62.3115 229.552 62.1293C226.825 62.5412 224.202 62.9247 221.176 63.1907C221.265 63.258 221.353 63.3254 221.441 63.3927C221.921 63.3503 222.397 63.3076 222.877 63.2652C222.359 63.4452 221.853 63.6237 221.327 63.8059C221.992 63.3971 220.297 63.6255 220.524 63.1559C220.625 62.9468 221.374 62.6568 221.816 62.4571C220.675 62.3484 219.505 62.2489 218.352 62.1434C218.95 61.9768 219.547 61.8101 220.14 61.6435C220.628 61.6384 221.112 61.6347 221.6 61.6295C221.603 61.6301 221.606 61.6307 221.609 61.6313ZM1.31942e-05 34.3354C0.486429 35.7834 0.566913 38.4146 0.0256467 39.7995C0.0173674 37.9769 0.00829246 36.158 1.31942e-05 34.3354ZM41.7057 2.96738C41.5418 2.88469 41.3829 2.80289 41.219 2.7202C41.9428 2.56707 42.6709 2.41499 43.3947 2.26185C43.5336 2.50082 43.6756 2.73983 43.8187 2.97776C43.1159 2.97465 42.4084 2.97049 41.7057 2.96738ZM88.0155 2.70128C87.4859 2.71574 87.439 2.70791 86.7796 2.67382C86.7803 2.67402 86.781 2.67422 86.7818 2.67443C86.5204 2.6617 84.3331 2.52212 84.5769 2.33814C85.6629 2.33504 86.8212 2.33814 87.9325 2.33814C87.9661 2.45916 87.9734 2.57923 88.0155 2.70128ZM75.2324 2.59387C75.2309 2.59346 75.2294 2.59305 75.2279 2.59264C74.8326 2.56469 74.4582 2.50781 74.0503 2.49743C75.5189 2.20787 75.751 2.72738 77.0851 2.58044C78.4192 2.43245 79.2436 2.14582 80.3757 2.85752C79.9548 2.96412 79.5015 3.11662 79.068 3.24081C77.1741 2.95624 76.664 3.22404 75.1449 3.50446C75.1744 3.20024 75.2029 2.89809 75.2324 2.59387ZM242.876 56.1904C242.524 55.8285 242.869 55.4249 242.873 55.3829C242.874 55.3837 242.874 55.3844 242.875 55.3852C242.549 52.1791 243.069 55.8025 243.124 52.7765C243.212 53.2268 243.305 53.6696 243.394 54.1156C243.224 54.8057 243.032 55.5172 242.876 56.1904ZM187.822 2.89597C187.792 2.79352 187.757 2.69083 187.727 2.58837C189.546 2.61218 190.01 2.20884 191.52 2.57617C190.287 2.68378 189.055 2.79062 187.822 2.8972C187.822 2.89679 187.822 2.89638 187.822 2.89597ZM97.1805 3.44648C95.1643 3.64208 93.6729 3.72827 91.7367 3.4178C91.7352 3.41739 91.7337 3.41699 91.7322 3.41658C91.6206 3.39747 92.1605 3.18311 92.0148 3.12912C91.6153 3.16118 91.2028 3.21047 90.7991 3.24874C90.7444 3.07709 90.6923 2.90547 90.6376 2.73485C91.7739 2.78348 92.9109 2.83208 94.0515 2.88072C93.8831 2.78033 93.7107 2.68082 93.5423 2.58044C94.5103 2.5287 95.4746 2.47715 96.4426 2.42542C96.1059 2.70681 95.7701 2.98828 95.4377 3.27071C96.0183 3.32968 96.5999 3.38648 97.1805 3.44648ZM218.094 4.01713C217.774 3.90536 218.366 3.71789 217.869 3.62165C217.373 3.52662 216.457 3.7352 216.672 3.41963C217.34 3.37723 218.043 3.32861 218.724 3.28414C216.531 2.71509 214.343 3.23001 214.31 2.52734C216.414 2.70948 218.145 2.62486 220.182 2.4303C220.098 2.98807 218.06 3.47033 219.343 3.99394C218.931 4.00118 218.498 4.01177 218.098 4.01591C218.097 4.01632 218.095 4.01673 218.094 4.01713ZM12.2501 9.96166C11.0042 9.91923 8.14948 10.1469 6.57524 9.8219C6.1879 9.74182 4.89764 8.70443 4.90417 8.56769C4.94204 8.10716 6.51784 8.04448 4.83015 7.74437C5.39786 7.74125 5.94888 7.72396 6.51243 7.71568C6.41143 7.40624 6.3109 7.09762 6.21411 6.78921C5.52801 6.83579 4.84108 6.88259 4.155 6.9302C4.12131 6.82774 4.08774 6.72505 4.05407 6.6226C6.52067 6.62053 5.06459 6.22508 6.34421 5.85664C5.16586 5.6704 3.9788 5.48505 2.80469 5.29881C3.48227 5.32157 4.28184 5.33844 4.8795 5.36533C4.95947 4.84068 3.53356 4.96576 3.28918 4.86853C1.9129 4.31903 8.92002 4.59637 9.49343 3.83282C8.37406 3.74797 7.19952 3.66517 6.05485 3.58137C6.38314 3.48719 6.71574 3.39296 7.04403 3.29879C9.64081 3.82542 12.5528 4.01198 15.5788 4.33999C15.8522 4.31828 16.1261 4.29598 16.3953 4.2753C16.3153 4.0384 16.2397 3.8024 16.1597 3.5655C16.5723 3.53755 16.9899 3.50983 17.4024 3.48188C16.1862 4.26214 17.8704 4.2515 19.9034 4.72755C18.8218 5.00175 17.4876 4.83551 17.5796 5.34641C21.2917 4.95334 25.639 5.50885 29.2501 5.06506C30.1465 4.95537 30.1437 4.2963 32.2513 4.35708C32.1797 4.42953 32.1675 4.56032 32.1212 4.65553C35.7664 4.33988 37.978 4.15118 41.7663 4.47304C41.5475 4.23616 41.3323 3.99829 41.1135 3.76141C40.3096 3.87939 39.5043 3.99925 38.7045 4.11723C38.1575 3.72606 38.9659 3.55343 36.5669 3.55756C34.6012 3.56067 35.7714 3.73338 35.2368 3.8493C34.5129 4.00754 33.8777 3.69624 33.0992 3.8731C32.4973 4.00867 33.1484 4.33143 31.5784 4.24967C32.2098 3.83156 32.8538 3.39982 33.4895 2.97654C33.8725 3.07072 34.2526 3.16634 34.6356 3.26156C34.2484 3.37333 33.8677 3.48363 33.4805 3.5954C34.8441 3.39464 36.1327 3.20529 37.5426 2.99729C37.0838 3.60168 38.5412 3.37508 39.3326 3.30367C40.5652 3.19202 39.5092 3.60798 40.3173 3.53864C41.1254 3.46824 41.997 3.00353 43.4575 3.10287C42.6747 3.37191 43.7396 3.61317 43.5338 3.8615C43.3275 4.10983 41.7826 4.16482 43.2669 4.43582C46.1206 4.22987 43.024 3.28416 44.9514 3.13095C47.2662 2.94675 47.8171 4.48832 47.1271 4.81971C46.5841 5.08051 44.7158 5.02806 44.1685 5.28782C47.5148 5.75662 47.5438 4.83115 48.1163 4.65004C50.1955 3.99085 48.7988 5.75027 51.261 5.11388C51.2147 5.4429 51.1773 5.73882 51.1309 6.05439C51.5558 5.99437 51.8378 5.91461 52.3512 5.86702C50.8375 5.22595 52.0764 5.25343 52.7123 5.25242C53.7141 5.25035 52.1667 4.93766 52.4319 4.85694C53.1475 4.64092 54.2791 4.73901 53.5848 4.45657C53.8963 4.588 54.2339 4.71982 54.5538 4.85022C55.7242 4.68645 58.4749 3.31319 55.857 3.59052C56.1012 3.0803 56.948 3.32553 57.6088 3.40315C58.2695 3.4807 58.2572 3.15576 58.838 3.21578C61.1485 3.4559 59.6371 4.01172 59.2709 4.44741C62.3224 4.1473 59.335 3.94875 63.7323 3.74798C64.1575 3.39301 62.1256 3.01423 63.8176 2.80931C64.1293 3.426 65.375 3.86901 67.8035 4.07389C68.0392 3.93211 68.2743 3.78906 68.51 3.64728C69.8359 4.21649 69.1582 4.80839 71.6121 4.10258C70.2947 5.40138 71.2005 4.57047 73.3976 5.09923C73.8438 5.20583 72.8128 5.47529 73.4357 5.6119C73.7181 5.67351 74.4037 5.47011 75.0933 5.62716C75.43 5.70477 77.0043 6.20557 78.0945 5.96772C77.2948 5.33849 79.3661 4.80319 77.5898 4.28262C80.873 4.41096 83.1708 4.10884 79.4919 4.96679C80.3253 5.15722 81.1595 5.34683 81.9929 5.53622C82.5738 5.38616 83.1596 5.23728 83.7447 5.08825C83.833 5.6054 83.7443 5.75048 86.0326 5.65951C85.0397 5.78157 84.051 5.90566 83.0539 6.02875C83.0202 6.13318 82.8815 6.24173 82.9148 6.34307C84.136 6.14444 87.5747 6.05895 88.408 5.92134C89.2415 5.78369 87.6319 5.74602 87.8719 5.61251C89.8708 4.51162 89.7124 5.32357 91.1467 5.13463C91.9886 5.02286 89.9786 4.90149 90.429 4.85389C92.0989 4.6794 92.8735 5.26449 94.3543 5.27196C93.8283 4.93985 93.3065 4.60258 92.7931 4.26737C94.3463 4.28496 96.0777 4.28791 97.5215 4.18131C98.0882 4.1397 97.6599 3.8927 97.7525 3.87615C98.2117 3.79128 100.08 3.65686 100.278 3.65582C101.767 3.65385 101.81 3.99596 103.257 4.01469C102.689 4.04366 102.155 4.06976 101.599 4.0977C101.347 4.65235 101.089 5.20697 100.837 5.76265C102.255 5.80301 103.674 5.84253 105.096 5.88289C104.057 5.69767 103.013 5.51333 101.974 5.3281C103.599 4.88 105.223 4.43087 106.848 3.98174C107.694 4.25701 108.537 4.53223 109.383 4.8075C111.68 4.73488 111.217 3.61745 112.308 4.59633C112.985 4.51358 113.662 4.43087 114.34 4.34915C114.243 4.48882 114.147 4.62877 114.05 4.76844C114.867 4.68254 115.683 4.59721 116.5 4.51027C115.641 4.01564 114.8 3.49513 113.949 3.01499C115.556 2.9075 115.587 3.32712 115.827 3.43184C116.463 3.7092 117.724 3.33508 118.229 3.59174C118.4 3.67986 116.825 3.9561 117.368 4.27469C117.474 4.33644 119.582 5.50758 120.928 5.23717C120.902 5.02501 120.798 4.76487 120.744 4.53408C122.553 4.40521 123.476 5.51266 123.236 5.82308C124.2 5.60576 125.608 5.5876 125.806 5.24815C126.299 5.23987 126.787 5.23202 127.28 5.22374C126.767 6.05045 128.821 5.89929 128.955 5.18834C128.109 5.17075 127.262 5.15223 126.416 5.13463C127.056 4.26324 124.485 3.73727 129.835 4.54445C130.858 4.99775 128.017 4.48269 128.85 4.82215C130.298 5.01972 131.657 4.85441 133.033 5.17003C134.746 5.56431 132.639 5.94353 136.629 5.44162C127.828 4.18422 137.836 4.59219 141.97 4.20206C143.106 5.44397 146.597 5.83734 151.404 5.46787C150.903 5.12223 149.391 5.3003 148.519 5.18651C147.648 5.07268 148.591 4.86763 147.505 4.70619C146.42 4.54479 144.114 4.32537 143.015 4.08122C143.946 3.88559 148.54 3.4231 145.502 3.97868C147.77 4.32117 148.835 4.67311 151.646 4.73731C152.488 4.19814 152.425 3.86241 155.165 3.84686C153.545 4.59608 156.658 5.1168 155.973 5.89082C154.03 5.71054 155.116 4.95824 153.992 4.59816C153.877 4.56217 152.067 4.75076 151.646 4.73731C153.473 5.41312 154.104 5.66466 152.981 6.4688C154.273 6.39842 155.077 6.49938 155.194 6.11542C155.464 6.28199 155.735 6.4487 156 6.61527C156.42 6.61112 156.799 6.5957 157.245 6.59879C156.631 6.01962 157.821 6.37616 158.667 6.11359C159.513 5.85072 158.378 5.39352 160.701 5.38731C159.927 5.25173 159.219 5.13541 158.469 5.00708C159.968 4.85807 161.471 4.70811 162.969 4.5591C161.917 4.20521 159.636 3.67956 159.698 3.21395C160.389 3.38974 162.753 3.0808 163.011 3.06809C164.013 3.02048 163.467 3.31412 163.543 3.32137C165.117 3.46407 166.413 3.36408 167.011 3.80902C168.193 3.60826 169.085 3.72272 170.339 3.71136C171.03 3.70515 170.896 3.37835 171.299 3.44038C173.985 3.85432 171.426 4.27663 176.607 3.47273C175.979 3.24507 175.361 3.01218 174.734 2.78245C175.319 2.69656 175.9 2.61019 176.485 2.52429C176.877 2.56569 177.265 2.6074 177.656 2.64879C177.648 3.1424 177.638 3.63705 177.629 4.13065C178.059 4.15756 178.49 4.1837 178.919 4.21061C178.182 4.25925 177.444 4.30783 176.707 4.35647C176.64 4.44333 176.577 4.53022 176.51 4.61708C177.604 4.75162 178.695 4.88737 179.789 5.02294C179.81 4.85124 179.831 4.67832 179.852 4.50661C182.319 4.74567 182.377 4.89103 184.722 4.41812C186.528 4.42329 187.998 3.70535 189.042 3.40315C189.416 3.49938 189.791 3.59683 190.17 3.69305C190.41 3.55023 190.652 3.40804 190.892 3.26522C191.368 3.4639 191.85 3.66263 192.326 3.86028C192.591 3.4093 192.728 3.2685 190.872 3.1102C191.508 2.54929 194.775 2.79673 196.105 2.98508C197.114 3.12801 195.995 3.59586 196.121 3.65277C196.542 3.84611 198.205 3.67929 198.555 3.71136C200.032 3.84486 201.067 3.82149 202.401 3.92498C202.661 3.94569 203.387 4.24219 203.449 4.2515C203.929 4.30221 205.113 4.44632 205.248 4.45046C212.196 4.6718 204.772 3.38541 211.232 3.52094C211.039 3.3513 210.861 3.1828 210.672 3.01316C211.16 3.00281 211.653 2.99298 212.141 2.98264C212.759 3.12442 212.011 3.38226 213.24 3.17428C213.16 3.38332 213.079 3.59246 212.995 3.80047C213.53 3.68766 214.045 3.57577 214.592 3.46296C215.451 4.18842 218.586 4.35317 218.363 5.20482C218.287 5.4946 216.065 5.79194 217.239 6.10138C218.193 6.1623 217.547 5.81621 217.937 5.79805C220.748 5.67179 220.585 6.15689 221.734 6.02753C221.915 5.81963 222.105 5.60765 222.29 5.39768C222.724 5.45871 223.158 5.51975 223.596 5.58078C223.697 5.44106 223.802 5.3012 223.903 5.16149C223.495 5.15217 223.035 5.14273 222.661 5.13341C223.183 4.59227 227.98 4.3492 226.151 4.81055C225.406 4.99785 224.041 4.91827 224.904 5.55759C226.187 5.46548 227.644 5.37138 228.995 5.27928C229.037 5.41692 229.076 5.55482 229.118 5.69247C230.939 5.60337 229.283 5.05303 229.287 4.75806C229.703 4.74979 230.124 4.74254 230.54 4.73426C230.717 4.86763 230.885 5.00723 231.07 5.13646C231.087 4.92422 231.32 4.43089 232.561 4.61403C233.36 4.73323 232.103 5.2687 233.625 5.19444C233.511 4.86334 232.961 4.46006 234.656 4.35342C234.825 4.699 235.057 5.01558 235.188 5.37876C237.296 5.04677 238.256 5.58043 240.73 5.19444C240.755 5.19062 240.78 5.18664 240.805 5.18252L240.622 5C240.881 6.56289 241.701 8.66229 240.386 9.66085C240.35 10.8093 240.683 10.4448 240.758 10.7846C241.112 12.3883 240.478 13.5812 240.441 13.88C240.202 15.786 240.422 16.6405 240.123 18.1934C240.37 18.1092 240.604 18.0633 240.845 17.996C240.475 16.5733 240.492 15.8527 240.572 13.8576C240.621 14.5267 240.672 15.196 240.722 15.8651C240.923 15.7557 241.123 15.6473 241.323 15.5421C240.532 9.3714 241.782 10.8109 242.055 15.984C241.683 16.4301 241.313 16.8924 240.94 17.3343C241.503 20.3227 241.015 21.729 240.898 25.1087C240.884 25.5104 241.098 26.9739 241.109 27.6029C241.11 27.5924 241.112 27.582 241.113 27.5715C241.464 27.9628 241.625 27.4328 241.939 27.3696C241.978 27.7105 242.017 28.0516 242.057 28.3925C241.818 29.1537 241.621 28.8861 241.678 30.3843C241.916 30.1823 242.154 29.9829 242.392 29.7809C242.401 31.4225 242.142 32.4968 242.254 34.0247C242.164 33.768 242.074 33.5144 241.983 33.2576C241.754 36.5829 240.354 33.9366 241.051 36.4495C240.929 36.6093 240.806 36.7651 240.683 36.925C240.653 35.8897 240.624 34.8539 240.594 33.8229C240.422 33.8018 240.25 33.7791 240.077 33.7623C240.129 34.8693 240.182 35.9817 240.234 37.0887C240.118 36.2806 240.002 35.4677 239.886 34.6595C239.803 35.9432 239.72 37.2272 239.637 38.5108C240.273 37.1476 240.35 38.9149 240.979 38.5826C240.456 40.8556 239.766 42.6409 240.207 46.1641C240.295 46.8625 240.735 46.4831 240.2 48.4654C240.9 47.9856 241.228 50.469 241.893 50.1499C241.861 49.4598 241.841 48.7442 241.802 48.0751C241.571 48.8369 240.936 48.9633 240.748 47.806C240.507 46.3286 240.947 44.1738 240.243 44.262C240.276 43.6729 240.295 43.125 240.323 42.5528C240.498 42.7883 240.674 43.019 240.849 43.2503C240.575 41.6221 240.664 40.599 241.105 39.8163C241.206 41.7564 241.306 43.6923 241.407 45.6325C241.437 45.3466 241.467 45.0569 241.496 44.7711C241.946 46.2401 242.372 44.7248 242.469 47.465C242.263 47.4482 242.057 47.4347 241.85 47.4179C242.4 48.4155 242.397 51.1469 243.031 50.2755C242.836 51.1005 242.713 51.2686 243.055 51.7358C242.573 53.9119 241.965 55.3096 241.238 54.5351C241.355 55.3431 241.472 56.1515 241.589 56.9553C241.788 56.4882 241.986 56.0205 242.184 55.5534C242.172 56.9593 242.16 58.3754 242.148 59.7771C241.561 59.9117 241.97 57.0711 241.445 57.8907C241.339 58.0546 241.565 58.8112 241.506 59.0099C240.863 61.1059 241.327 57.8155 240.835 58.4335C240.728 60.6287 240.289 60.0463 240.278 61L240.805 60.473C240.401 60.4683 239.724 60.5403 238.445 60.7464C238.332 60.5767 238.21 60.4036 238.105 60.2349C236.611 60.2247 236.732 60.608 235.449 60.6804C234.645 60.7255 233.636 60.0524 232.748 60.5108C232.59 60.5953 234.083 61.4179 230.945 61.3817C228.509 61.3536 229.523 60.7723 228.206 60.5663C226.889 60.3604 223.875 61.1664 222.986 60.2526C223.677 60.3736 224.556 60.4389 225.321 60.5382C225.633 60.3603 225.936 60.1842 226.243 60.0073C224.492 60.237 222.682 59.9662 221.504 60.3905C219.168 59.7416 216.555 60.3438 217.262 61.0765C218.031 60.9709 217.195 60.6514 218.263 60.855C218.372 61.0258 218.487 61.1957 218.597 61.3664C216.778 61.3457 215.516 61.3505 216.345 60.83C216.063 60.8175 215.783 60.8052 215.501 60.7927C215.451 61.1695 215.406 61.5476 215.356 61.9243C215.019 61.9667 214.681 62.0088 214.344 62.0512C213.97 61.9685 213.594 61.8848 213.216 61.801C213.725 61.2049 214.593 61.1852 211.722 60.8519C211.714 61.0579 211.701 61.263 211.693 61.469C209.289 61.2072 209.226 60.7083 206.209 60.7268C208.524 60.0118 209.79 61.2793 209.782 59.8449C210.363 59.9391 210.948 60.0345 211.529 60.1287C211.617 59.9207 211.705 59.7124 211.789 59.5044C208.67 59.6141 203.49 60.9821 201.402 60.075C201.149 60.1857 200.896 60.2819 200.639 60.4009C198.593 59.8534 197.71 61.0826 195.635 60.3747C195.421 60.3004 195.869 59.1456 193.168 59.187C193.235 59.3371 193.27 59.5897 193.325 59.779C192.74 59.6869 192.158 59.5906 191.577 59.4964C191.472 59.635 191.362 59.7736 191.256 59.9133C192.254 59.9671 193.249 60.0218 194.246 60.0756C193.418 60.1232 192.583 60.1708 191.754 60.2184C192.836 60.445 193.324 60.4474 192.672 60.8104C191.733 60.8322 190.793 60.8552 189.855 60.877C189.758 60.97 189.662 61.0641 189.565 61.1571C190.02 61.4344 190.479 61.7057 190.933 61.9871C188.488 61.7605 186.362 61.7482 184.485 61.2029C184.165 61.1108 185.296 60.7495 183.116 61.0753C183.083 60.884 183.024 60.7286 182.986 60.5517C180.318 61.0878 179.441 60.9277 176.659 60.5407C178.46 60.9019 176.853 60.667 176.394 60.8605C176.08 60.9938 177.307 60.9741 177.168 61.1138C177.029 61.2524 175.435 61.8124 176.798 61.8797C180.14 60.732 181.05 62.1042 185.344 61.5526C184.683 61.7006 184.017 61.8489 183.356 61.9969C183.668 62.0972 183.946 62.1882 184.283 62.2947C181.888 62.0702 183.053 62.2161 182.069 62.393C181.084 62.57 179.294 62.7203 178.094 62.769C177.716 62.7842 178.115 62.5268 177.262 62.5029C176.681 62.4863 175.094 62.8679 174.727 62.418C174.488 62.1252 177.038 61.3187 173.512 61.3207C172.848 61.0336 174.539 61.1227 174.575 61.0881C174.882 60.7466 172.715 60.4898 171.713 60.7506C171.632 60.7731 172.423 61.0393 171.563 61.1437C169.521 61.3931 168.342 61.0879 167.02 60.6749C166.877 61.1593 165.159 61.7377 163.021 61.5587C162.912 61.6973 162.807 61.8371 162.698 61.9768C163.03 61.9034 163.362 61.831 163.694 61.7577C164.056 61.8446 164.44 61.9079 164.793 62.0103C162.643 62.1294 162.339 62.7969 161.307 63.0412C157.779 63.8754 159.917 62.1107 160.554 61.8065C161.013 61.9296 161.456 62.0671 161.911 62.1965C161.86 62.0278 161.809 61.8578 161.763 61.6881C156.48 61.6932 160.958 60.593 158.277 60.2795C157.587 61.1094 155.618 61.1894 153.109 60.6627C152.831 60.6669 152.552 60.6679 152.275 60.6731C152.228 60.7941 152.229 60.9791 152.154 61.0588C149.131 61.1996 148.593 59.9214 148.307 59.8004C147.036 59.2633 146.046 60.0064 145.671 60.0127C144.093 60.0386 143.634 59.7087 142.132 59.8504C140.516 60.0035 141.621 60.2567 141.129 60.4833C140.735 60.6633 139.46 60.6953 138.933 60.8818C139.142 60.7293 139.375 60.5797 139.584 60.4265C137.909 60.2186 136.54 60.0158 134.638 59.9651C132.491 61.0814 130.665 59.1984 131.405 60.7256C133.207 60.8301 134.214 61.0042 135.178 61.3933C133.996 61.443 132.812 61.4913 131.63 61.541C131.285 61.3734 131.04 61.21 130.632 61.0393C129.748 61.3953 127.699 61.2425 126.895 61.3469C123.128 61.8364 124.293 62.4436 120.854 61.4232C123.333 61.3238 123.329 60.8282 125.787 60.8965C125.256 60.5426 124.007 60.6159 124.815 60.1916C122.438 60.2961 123.206 60.6749 122.281 61.0112C121.483 61.3012 119.875 61.3174 119.966 61.6942C119.802 61.487 119.674 61.2865 119.511 61.0796C117.97 61.0817 116.43 61.0818 114.89 61.0839C115.546 60.8676 116.203 60.6509 116.859 60.4357C116.363 60.354 115.866 60.2726 115.37 60.191C111.582 60.8637 105.049 59.6308 106.093 61.3207C104.266 61.3745 104.038 61.1625 103.044 60.8428C102.935 60.9711 102.829 61.0778 102.719 61.2206C101.541 61.0863 100.636 61.5679 99.5969 61.4427C98.5575 61.3185 98.2994 60.8635 98.1479 61.6283C97.4746 61.4089 96.8051 61.2267 96.1359 61.0228C95.7322 61.1966 95.3287 61.3683 94.9292 61.541C94.2979 61.4499 93.6651 61.3592 93.0338 61.2682C92.6964 61.6332 90.214 61.4759 89.1197 61.721C88.0809 61.3275 88.1094 60.0886 85.6654 60.3106C85.7286 60.6179 85.7907 60.9243 85.8538 61.2316C85.2941 61.1674 84.7332 61.1035 84.1693 61.0393C84.1357 60.939 84.1065 60.8387 84.0729 60.7384C84.359 60.7695 84.6413 60.8003 84.9275 60.8324C84.6791 60.6627 84.4359 60.4937 84.1917 60.324C83.3374 60.5755 82.482 60.8269 81.6235 61.0784C82.7807 61.2687 83.9384 61.4593 85.0957 61.6496C83.6435 61.8752 82.6328 61.6502 81.37 61.9017C80.2716 61.4774 80.6772 61.233 81.1233 60.7726C80.7151 60.8119 80.3022 60.8499 79.8941 60.8892C80.1633 60.4287 79.473 60.1544 81.859 60.1916C81.6949 60.0602 81.5276 59.935 81.3678 59.7985C80.9764 59.8192 80.7225 59.7082 80.2933 59.7589C79.1232 59.8975 78.226 60.7063 78.306 60.9899C78.3491 61.1384 79.503 60.8543 79.4567 61.0643C79.3425 61.5764 76.6958 61.3465 80.5132 61.8608C79.2462 62.1868 78.9632 61.9409 77.5658 61.8468C77.6752 62.0174 77.7814 62.187 77.8866 62.3576C77.2386 62.279 76.5898 62.2006 75.9418 62.122C76.8426 61.2455 72.0651 60.9163 76.3658 60.1495C75.0949 60.1101 73.8283 60.0706 72.5616 60.0292C72.8225 59.9392 73.0835 59.8501 73.3444 59.7601C73.9168 59.8077 74.4857 59.8545 75.0581 59.9011C74.3848 59.7366 73.7104 59.573 73.0371 59.4085C71.4461 59.6124 70.8224 59.926 70.0942 60.313C71.9458 60.5955 71.3409 60.2097 72.7837 60.133C72.7333 60.3781 72.7999 60.6036 72.6737 60.8611C71.9282 60.3534 69.4963 60.7227 68.9324 60.7476C67.216 60.823 68.5619 60.3241 67.4138 60.3136C66.2647 60.3033 64.9094 60.6002 63.9708 60.1055C63.9876 60.3828 64.0627 60.6697 64.13 60.9221C62.3411 61.0132 62.698 60.6856 62.5128 60.6432C59.558 59.9457 57.9546 60.5346 54.5747 60.606C55.0039 60.6919 55.4377 60.7694 55.8711 60.8501C53.3212 61.4388 55.039 61.2586 57.2529 61.4531C55.1777 61.3941 53.9893 61.8955 52.5245 62.0445C51.0599 62.1933 48.5482 61.9358 47.6302 61.7351C49.7306 61.4122 51.996 61.6251 54.3279 61.5361C54.0628 61.2537 53.8052 61.0146 53.5317 60.7042C52.1133 61.2971 51.2915 60.9007 50.8243 60.822C49.4524 60.5914 49.4955 61.1002 48.6665 60.5529C48.7002 60.7412 48.7248 60.8995 48.7585 61.0753C45.9258 60.9967 42.8704 60.6638 41.0267 61.3591C40.8584 60.9069 40.7313 60.4712 40.5377 60.0097C39.3383 60.3501 38.3111 60.0015 37.301 60.0811C36.2951 60.1608 36.678 60.5263 35.4954 60.667C35.2765 60.6929 34.8207 60.4641 34.2819 60.6328C33.7379 60.8024 31.7315 62.0633 31.4916 60.9618C30.4772 60.9566 29.5173 60.9163 28.524 60.8977C29.492 60.8356 30.4605 60.7755 31.4243 60.7134C30.5994 60.4464 29.7796 60.1802 28.9547 59.9133C28.8495 60.1513 28.7439 60.3936 28.6429 60.6286C26.4205 60.9183 24.8077 60.5292 22.5643 60.6212C22.1897 60.6368 23.0734 61.1074 21.4113 60.9874C19.7488 60.8674 18.515 59.989 15.6826 60.3283C15.5395 60.3459 14.7007 61.0186 13.6863 60.5529C13.4555 60.4473 14.4271 60.2911 13.8972 60.1525C13.3668 60.0138 11.0004 59.8998 10.8152 59.5697C10.8405 59.6866 10.9881 59.8077 11.0597 59.9267C10.6558 59.9826 10.2477 60.0385 9.83951 60.0933C9.80163 59.8874 9.76075 59.6812 9.72287 59.4763C7.41048 59.9532 6.21015 60.7297 2.80469 60.482L3.32266 61C3.32384 60.9838 3.32504 60.9676 3.32626 60.9513C3.32125 60.9675 3.31624 60.9838 3.31122 61L2.80469 60.4935C3.7565 60.7876 4.70859 61.0828 5.65625 61.3768C5.92143 61.1667 6.18707 60.9552 6.44804 60.7451C8.03464 60.8289 9.62565 60.9122 11.2123 60.996C11.4732 60.7569 11.7296 60.5185 11.9906 60.2795C12.4114 60.3105 12.8281 60.3406 13.2489 60.3716C13.1437 60.5444 13.0376 60.7163 12.9282 60.8892C13.7614 60.8467 14.5957 60.8034 15.4247 60.761C13.7369 61.7811 10.7114 60.6742 10.9296 61.5276C10.5552 61.3952 10.1803 61.2618 9.80587 61.1284C9.64166 61.5422 8.88028 61.4231 7.53815 61.3579C7.84543 61.5618 8.18475 61.7629 8.46677 61.9688C7.16191 61.6812 4.84732 61.7091 3.4962 61.5984C2.90279 61.5497 3.49551 61.2497 3.319 61.2145C3.1673 61.1836 2.99242 61.1726 2.80469 61.1755L2.62626 61.1725L2.6292 61C2.61481 60.0678 2.25792 58.8189 2.29238 58.5176C2.53873 56.3542 3.53112 54.9483 2.87707 52.587C2.71562 55.0242 2.78381 53.6983 2.42055 54.5654C2.30666 54.8368 2.06906 57.9853 2.17459 54.0428C2.18779 53.5805 2.87346 46.4268 3.39889 48.7783C3.23123 47.6208 3.03738 46.7145 2.85937 45.6538C4.2441 43.0609 2.94324 43.9583 2.22708 44.7117C2.22397 44.2866 2.2167 43.8822 2.2167 43.4444C2.96909 44.3746 3.01581 39.6354 2.63599 38.0275C2.50973 37.4887 2.2689 38.9952 2.15506 37.7493C2.20782 37.1561 2.27614 36.4831 2.3351 35.8562C1.85907 36.7653 1.67562 34.9811 1.19136 35.0061C1.62288 33.8655 2.53755 32.9931 3.03331 33.6199C2.83257 32.6772 2.63208 31.7296 2.43031 30.7869C2.31544 31.2247 2.20157 31.6681 2.0867 32.1058C2.39097 29.0247 1.69861 25.063 2.71594 24.4189C2.7087 24.0107 2.70244 23.598 2.69519 23.1898C2.52339 23.0635 2.35127 22.9415 2.17947 22.8152C2.32846 20.9678 2.47845 19.1245 2.62745 17.2771C2.73406 18.9221 2.97859 19.3136 2.78003 21.0387C2.97761 20.3739 3.17628 19.6968 3.37387 19.0446C2.84193 16.4476 2.49232 16.0933 2.65064 12.1832C2.65788 12.0064 3.10397 9.05198 3.14744 8.95096C3.34613 8.48814 3.63478 9.19068 3.73518 8.9846C4.01668 8.41215 4.7235 4.93362 4.8301 5.00096C6.13824 5.85124 6.15558 17.5548 6.22285 20.7202C6.51009 34.2405 6.52078 47.6383 6.44512 61L2.80469 57.3596C21.8893 57.4676 40.9004 57.7519 60.0903 57.6581C60.4257 57.6557 60.2793 57.4626 60.4223 57.4543C61.3102 57.4058 62.1823 57.7067 62.5105 57.7192C63.212 57.7448 62.8257 57.4667 63.3382 57.4665C68.6334 57.4696 73.6302 57.6331 78.9296 57.5855C79.2747 57.5824 78.9223 57.8049 79.5285 57.7655C79.8413 57.744 80.8208 57.4027 81.527 57.3975C83.9935 57.3799 86.0654 57.4894 88.6666 57.4842C90.0893 57.4811 92.2237 57.5101 93.8144 57.5049C94.5169 57.5027 95.2489 57.3466 95.943 57.3414C96.928 57.3341 96.7268 57.6507 96.8784 57.6703C97.5434 57.7562 97.6355 57.4088 98.2668 57.4171C99.4412 57.4336 99.5044 57.6656 100.994 57.6459C102.059 57.6314 104.497 57.4483 105.839 57.3945C108.979 57.6635 112.936 57.5567 115.866 57.4677C117.6 57.4149 117.76 57.7397 118.468 57.7387C120.959 57.7324 122.85 57.3176 125.19 57.3041C128.296 57.2866 131.048 57.5609 134.057 57.5806C134.545 57.5837 134.433 57.2861 134.911 57.2785C136.683 57.2506 138.949 57.1964 140.528 57.2388C142.287 57.2855 142.936 57.7174 144.657 57.6294C145.162 57.6033 145.31 57.2246 146.156 57.176C147.507 57.0995 148.988 57.4335 149.931 57.4708C151.223 57.5204 150.099 57.1346 151.842 57.1864C151.913 57.1886 152.174 57.4644 152.548 57.4512C153.639 57.414 153.53 57.1968 155.126 57.2175C155.279 57.2203 157.394 57.4831 157.604 57.4842C158.842 57.4883 161.333 57.5803 162.066 57.5245C164.684 57.3258 162.622 56.9109 164.849 57.8113C165.83 57.5909 166.802 57.3676 167.841 57.1534C167.148 57.3531 169.963 57.6414 170.161 57.6227C171.797 57.4726 170.822 57.1223 172.897 57.1802C170.157 57.9896 175.574 57.2846 176.782 57.2639C182.599 57.1635 187.886 57.3655 193.733 57.3603C195.69 57.3582 198.313 57.1871 200.383 57.1912C200.866 57.1915 200.501 57.383 200.926 57.3871C201.35 57.39 200.88 57.175 201.364 57.1864C204.373 57.2609 206.731 57.6666 209.488 57.1595C209.622 57.2328 209.618 57.2907 209.84 57.3713C212.096 56.917 216.441 57.5279 218.074 57.6117C220.629 57.7421 221.281 57.435 223.137 57.497C225.591 57.5798 229.275 58.1797 227.63 57.1894C229.313 57.1584 230.934 57.1498 232.634 57.2419C232.823 57.2523 232.693 57.504 232.768 57.5092C233.248 57.5453 233.404 57.32 233.728 57.3096C234.607 57.2818 233.173 57.5516 234.426 57.4763C235.087 57.4359 235.462 57.2393 237.297 57.2352C238.456 57.2329 239.626 57.2316 240.805 57.2312L237.036 61C237.032 50.9358 237.092 40.2482 237.122 30.0972C237.124 29.3185 236.88 29.8311 236.896 28.8545C236.95 25.462 237.359 19.3894 237.304 16.464C237.248 13.5388 236.892 14.1988 236.743 12.3682C236.714 12.0146 236.917 12.3045 236.92 11.9846C236.938 9.83378 237.255 7.26948 237.302 5.52693C237.308 5.31293 237.302 5.14183 237.288 5L240.805 8.51679C240.183 8.57881 240.123 8.79387 239.472 8.81243C238.281 8.84555 237.055 8.52311 236.419 8.51276C233.431 8.4673 231.377 8.727 228.587 8.59454C228.696 8.66478 228.768 8.7298 228.86 8.799C225.556 8.78762 222.257 8.77621 218.953 8.76482C219.109 8.82899 219.259 8.89371 219.415 8.95891C215.538 8.92369 215.981 8.22825 216.322 9.69678C216.04 9.74852 215.741 9.80849 215.472 9.85608C215.581 9.0996 213.236 8.546 210.252 8.35347C210.033 8.33898 208.565 9.07657 208.725 8.20516C208.342 8.41835 208.113 8.5653 207.789 8.75262C207.158 8.48879 206.518 8.22809 205.887 7.9653C205.546 8.00462 205.201 8.04256 204.86 8.08187C204.809 8.25264 204.848 8.42994 204.739 8.5976C203.156 8.62347 199.911 8.41236 198.66 8.43403C195.554 8.48888 192.391 8.95056 189.975 8.45173C188.798 8.50259 189.967 8.83774 188.216 8.79534C188.019 8.62565 187.833 8.46302 187.627 8.28816C186.196 9.04632 185.897 8.58511 183.937 8.42671C182.611 8.31908 181.743 8.50438 180.48 8.46821C180.16 8.45889 180.206 8.23637 179.987 8.24361C179.254 8.26656 177.162 8.57284 176.645 8.58112C171.956 8.66182 167.928 8.62747 163.462 8.54572C162.982 8.53744 163.605 8.75705 163.108 8.74773C162.309 8.73311 162.779 8.39566 162.316 8.3791C161.025 8.33482 161.015 8.69066 159.214 8.70928C153.283 8.77031 146.465 8.503 140.269 8.47919C140.076 8.47919 140.087 8.68768 139.877 8.68975C138.505 8.69995 137.116 8.41812 135.871 8.42121C133.804 8.42535 132.251 8.71825 130.209 8.71722C126.219 8.71618 122.654 8.56621 118.55 8.55792C115.191 8.55068 112.274 8.57849 108.591 8.57746C92.5032 8.57332 76.087 9.2351 59.89 8.88323C59.4778 8.87392 59.6456 8.68971 59.5199 8.69769C58.3245 8.77737 58.2179 9.02592 57.7928 8.50544C56.27 8.60802 55.7894 8.99905 53.9504 8.97111C52.9703 8.95647 53.7021 8.35039 52.0439 8.6629C50.5465 8.94541 52.1989 9.27756 47.7462 8.93816C47.6283 8.92883 47.0481 8.5594 46.1222 8.65558C45.192 8.75079 46.2688 9.01532 44.0295 9.09501C38.7724 9.28127 32.1182 8.96194 26.0067 9.06022C25.6236 9.06643 21.9348 9.26393 21.2066 9.355C19.7974 9.53197 20.0918 9.8065 18.2615 9.87378C16.8471 9.92552 15.6803 9.61455 14.0176 9.67664C13.824 9.68419 13.4996 10.0041 12.2501 9.96166ZM215.506 62.2514C215.161 62.5653 214.538 63.7205 212.451 63.3689C212.253 63.3358 213.321 62.5414 212.168 62.415C213.296 62.3311 214.395 62.304 215.506 62.2502C215.506 62.2506 215.506 62.251 215.506 62.2514ZM3.20395 2.5957C4.76554 2.65365 6.33254 2.71107 7.89414 2.76903C6.81661 2.90874 5.73749 3.04818 4.66418 3.18893C4.17597 2.9913 3.69213 2.79333 3.20395 2.5957ZM197.599 3.14438C197.598 3.14438 197.596 3.14438 197.595 3.14438C199.236 2.99535 200.879 2.84604 202.52 2.69701C202.348 2.80671 202.175 2.91688 202.002 3.02658C200.706 3.19938 199.409 3.37195 198.117 3.54475C197.945 3.41127 197.772 3.27785 197.599 3.14438ZM184.63 4.30582C183.582 4.17542 183.838 3.9555 183.262 3.74127C183.262 3.74168 183.262 3.74208 183.262 3.74249C183.109 3.68672 182.401 3.63792 182.127 3.62958C182.228 3.76723 182.358 3.90311 182.468 4.03972C180.022 4.37296 175.24 3.18876 181.431 2.71166C181.339 2.88549 181.25 3.05843 181.158 3.23226C184.235 3.18363 187.665 3.56068 184.63 4.30582ZM190.765 62.7519C188.139 63.3211 187.296 63.4411 184.11 63.0509C184.56 62.8896 185.01 62.7283 185.46 62.5669C185.987 62.7315 186.509 62.8949 187.035 63.0595C187.037 63.0595 187.038 63.0595 187.04 63.0595C187.145 62.8866 187.25 62.7135 187.351 62.5407C188.488 62.6111 189.629 62.6815 190.765 62.7519ZM84.0879 3.89446C83.3558 2.75763 83.567 3.41843 85.658 3.16207C86.382 3.07307 85.6764 2.87416 86.1268 2.84105C88.5589 2.66015 88.7535 3.42182 88.2106 3.81817C86.8342 3.84508 85.4435 3.86962 84.0924 3.89446C84.0909 3.89446 84.0894 3.89446 84.0879 3.89446ZM20.9845 4.13065C20.983 4.13065 20.9815 4.13065 20.98 4.13065C20.9169 3.85337 21.8973 3.77878 20.7916 3.51606C21.6329 3.5171 22.4741 3.5193 23.3195 3.52033C23.0716 3.54616 22.8183 3.57079 22.5703 3.59662C22.7892 3.69184 23.0087 3.78826 23.2276 3.88347C23.5264 3.56475 23.804 3.75002 24.6878 3.85662C24.4436 3.51614 24.2007 3.17542 23.9565 2.83494C24.9833 2.93634 26.0139 3.03809 27.0407 3.13949C27.0533 3.2253 27.0662 3.31124 27.0788 3.39705C27.4659 3.28739 27.8492 3.17653 28.2363 3.06686C28.3415 3.1693 28.4428 3.27081 28.548 3.37325C29.0151 3.29565 29.4829 3.21812 29.9499 3.13949C30.0921 3.38763 29.0627 3.49487 30.8875 3.43184C30.3278 3.68639 29.7692 3.94018 29.2052 4.19474C26.4651 4.17404 23.7246 4.15239 20.9845 4.13065ZM103.111 3.54475C100.093 3.59235 100.943 3.41251 101.642 2.84959C102.13 3.08134 102.623 3.31299 103.111 3.54475ZM241.759 22.7894C242.143 23.6649 242.523 24.5441 242.893 25.4406C243.108 27.2253 242.408 29.0107 242.134 27.668C241.805 26.0516 242.173 24.3636 241.759 22.7894ZM238.367 62.1251C240.551 62.3031 238.496 62.7593 238.004 63.0253C237.4 62.5979 236.557 62.6356 235.204 62.5859C236.475 62.5582 238.006 62.0948 238.367 62.1238C238.367 62.1243 238.367 62.1247 238.367 62.1251ZM223.455 3.61432C222.58 3.62581 221.709 3.73304 220.927 3.60273C221.163 3.23558 222.728 3.56961 221.609 3.02536C222.168 3.01605 222.729 3.00702 223.284 2.99668C222.931 3.22217 223.406 3.3907 223.452 3.6131C223.453 3.61351 223.454 3.61392 223.455 3.61432ZM132.351 3.11203C134.069 3.5467 134.394 3.3607 136.124 3.05954C136.368 3.41345 134.305 4.00626 133.013 4.13676C132.794 3.79526 132.574 3.45353 132.351 3.11203ZM1.09798 57.2458C1.44709 57.565 1.56126 59.4592 1.53322 61L1.51197 62.2495L2.80469 62.2715C3.25484 62.2797 3.67483 62.3 4.01658 62.3301C3.8366 62.397 3.656 62.4648 3.47601 62.5328C3.25236 62.5416 3.02857 62.5504 2.80469 62.5592L1.21946 62.5322L1.24552 61C1.19635 59.7491 1.14714 58.4954 1.09798 57.2458ZM234.561 62.5553C234.787 62.5686 235.002 62.5784 235.204 62.5859C234.979 62.5908 234.762 62.5831 234.561 62.5553ZM143.125 60.5974C143.845 60.1721 141.706 60.0292 144.303 60.1958C144.303 60.1954 144.303 60.195 144.303 60.1946C146.02 60.3043 146.399 60.3336 147.99 60.3667C147.418 60.9131 144.19 61.1084 148.639 61.2212C148.697 61.2217 148.581 60.8966 149.291 60.941C149.511 60.9549 150.213 61.2217 151.281 61.2993C151.626 61.3241 154.22 61.4064 150.684 61.4116C150.79 61.7925 150.6 62.1779 150.608 62.5474C149.228 62.6548 148.167 61.909 146.707 61.9273C144.54 61.9563 143.437 62.7104 143.02 61.721C144.843 61.478 147.973 61.4721 148.381 62.0671C150.144 62.0743 150.651 61.5869 149.229 61.3457C143.138 61.652 147.557 60.6221 142.224 61.0112C142.16 61.1488 141.941 61.2969 141.975 61.4263C140.347 60.942 142.869 60.7496 143.125 60.5974ZM155.861 61.6496C154.809 61.9404 153.76 62.2336 152.712 62.5254C152.712 62.0515 153.29 61.6261 154.948 61.3591C155.251 61.4563 155.559 61.5535 155.861 61.6496ZM67.342 61.7741C67.1905 62.0318 66.7866 62.268 66.4919 62.5132C66.172 62.2959 58.5953 62.0874 62.45 61.8742C63.0098 61.8432 66.4244 62.2988 67.342 61.7741ZM120.427 3.50019C121.32 3.67303 122.208 3.84613 123.097 4.01897C121.729 4.1286 120.361 4.24111 118.994 4.35281C119.473 4.06867 119.948 3.78433 120.427 3.50019ZM241.307 37.3153C241.316 36.9384 241.671 38.1902 241.615 36.7052C241.841 37.8122 242.033 38.8489 242.247 39.9307C242.079 40.2548 241.912 40.5823 241.744 40.9064C241.852 41.1589 241.959 41.4165 242.066 41.669C241.822 41.5175 241.584 41.3826 241.335 41.2226C241.859 39.4001 241.265 38.9821 241.307 37.3153ZM218.926 5.45322C218.598 4.92241 221.237 4.60674 218.641 4.52187C219.134 4.17313 219.925 3.9902 221.445 3.95915C221.689 4.09253 221.932 4.22493 222.176 4.3583C222.21 4.0014 222.601 3.86875 223.455 3.61432C223.455 3.61473 223.456 3.61514 223.457 3.61554C225.767 3.58971 225.629 3.7087 226.184 4.29544C223.739 3.96427 223.666 4.50034 221.999 4.8191C220.854 5.03829 219.359 4.93902 218.926 5.45322ZM75.4147 61.768C73.6854 62.2161 75.2373 62.6341 72.1691 62.158C72.3669 62.0442 72.5656 61.9313 72.7635 61.8175C73.6472 61.7999 74.531 61.7836 75.4147 61.768ZM210.391 3.63385C210.589 4.45553 212.217 5.09514 212.495 3.75836C210.908 3.48618 211.683 4.24338 210.391 3.63385ZM239.112 60.8385C239.903 60.8485 240.45 60.9181 240.805 61.024L240.828 61.0244L240.829 61C241.075 60.1751 241.517 60.3905 241.858 61L241.839 62.0706L240.805 62.053C240.665 62.1311 240.505 62.2039 240.332 62.2679C240.138 62.0992 239.945 61.9302 239.755 61.7625C239.221 61.8391 238.686 61.9159 238.152 61.9914C238.472 61.6075 238.792 61.2225 239.112 60.8385ZM156.596 4.53652C158.928 3.94972 154.079 4.21017 155.708 3.8438C157.009 3.55095 158.723 4.14222 158.075 4.51272C157.624 4.52306 157.123 4.53031 156.601 4.53652C156.599 4.53652 156.598 4.53652 156.596 4.53652ZM170.09 4.36868C169.708 3.74172 170.26 3.92447 168.417 4.03728C167.891 4.06936 163.71 3.83389 165.465 4.35342C166.959 4.35342 168.538 4.36247 170.09 4.36868ZM203.84 61.7558C203.812 61.4828 207.031 60.8833 207.444 61.0332C207.444 61.0328 207.444 61.0324 207.444 61.032C208.56 61.4408 205.164 61.4989 206.637 62.0598C203.375 61.5662 202.399 62.7601 202.626 61.187C204.548 61.118 203.638 61.4423 203.84 61.7558ZM2.38332 17.3018C2.38332 17.3003 2.38332 17.2988 2.38332 17.2973C2.37048 17.5135 1.96977 19.2949 1.83098 19.0783C1.94998 16.936 2.21374 17.3178 1.78032 15.3234C1.91992 15.2141 2.05532 15.1204 2.19595 15.0027C2.27874 15.794 2.44645 16.2326 2.38332 17.3018ZM59.1505 61.2236C59.9376 61.1522 61.374 61.4481 62.2705 61.4305C59.4167 62.5669 56.0065 61.5072 59.1505 61.2236ZM50.4984 4.09159C50.5006 4.09119 50.5029 4.09078 50.5051 4.09037C50.5045 4.09099 50.5036 4.09159 50.5029 4.0922C50.5014 4.092 50.4999 4.0918 50.4984 4.09159ZM120.145 61.9054C120.044 61.8316 119.987 61.7675 119.966 61.7113C119.966 61.706 119.966 61.7007 119.966 61.6954C120.021 61.7645 120.079 61.8343 120.145 61.9054ZM197.149 61.8382C195.808 61.4574 200.276 60.8521 201.72 60.9966C201.619 61.1704 201.604 61.3279 201.368 61.5276C200.202 61.0775 197.372 61.9024 197.149 61.8382ZM238.604 4.30154C242.136 4.31189 237.54 5.81534 237.35 4.61586C237.357 4.59262 238.513 4.30359 238.604 4.30154ZM224.998 61.6808C225.898 61.2256 224.09 61.1047 226.981 61.1833C227.15 61.3012 227.318 61.4194 227.486 61.5373C226.657 61.5849 225.827 61.6332 224.998 61.6808ZM239.529 25.9341C239.783 30.3788 240.23 34.6298 241.485 31.7346C241.445 31.3982 241.406 31.0571 241.366 30.7207C240.753 30.6702 241.088 29.4289 241.108 27.6119C240.865 27.3529 240.808 26.3452 240.602 26.1562C240.202 25.7905 239.922 26.9483 239.529 25.9341ZM74.0884 5.27867C74.16 5.17414 74.23 5.06907 74.3015 4.96557C75.0045 4.84759 75.7093 4.73018 76.4122 4.6122C76.2987 4.81279 76.1848 5.01338 76.0713 5.21397C75.4108 5.2357 74.7534 5.25756 74.0929 5.27928C74.0915 5.27908 74.09 5.27887 74.0884 5.27867ZM160.193 60.3576C159.789 61.5081 161.2 61.2962 164.062 60.7146C162.774 60.5956 161.481 60.4766 160.193 60.3576ZM190.316 5.80904C190.223 5.48218 190.132 5.15633 190.036 4.82947C188.516 5.16996 188.798 5.54428 189.526 5.97688C189.791 5.92105 190.051 5.86487 190.316 5.80904ZM168.428 5.94819C169.059 6.01638 168.737 5.75247 168.803 5.75777C170.398 5.89645 170.623 6.01751 172.58 5.8188C172.82 5.74948 173.056 5.67658 173.296 5.60519C172.391 4.92029 171.734 5.29358 169.819 4.89111C170.164 5.12604 170.508 5.36129 170.853 5.59726C169.788 5.54759 168.728 5.49861 167.664 5.44895C167.537 5.52139 167.411 5.59317 167.284 5.66561C167.663 5.75873 168.054 5.86336 168.428 5.94819ZM65.9597 4.98144C64.9242 4.95453 63.884 4.92657 62.8486 4.89966C62.8107 5.06834 62.7743 5.23816 62.7364 5.40684C63.8095 5.26509 64.8866 5.12319 65.9597 4.98144ZM138.933 60.8818C138.851 60.9417 138.771 61.0019 138.7 61.0631C138.707 60.9885 138.796 60.9302 138.933 60.8818ZM3.30856 14.5698C3.42653 13.3956 3.34907 11.7036 3.37387 10.4157C2.9507 10.5169 3.06767 13.7904 2.81115 14.9399C2.88708 15.1246 3.25892 15.0661 3.30856 14.5698ZM240.68 58.4716C240.469 58.177 240.259 57.8827 240.048 57.5923C240.071 56.881 240.095 56.168 240.118 55.4525C239.945 55.4314 239.771 55.4107 239.598 55.3897C239.822 58.5418 239.324 57.815 238.832 59.3755C239.448 59.0725 240.064 58.7746 240.68 58.4716ZM33.0139 6.07758C35.291 5.96064 36.0988 5.74221 34.8151 5.22374C34.0114 5.34272 33.203 5.4618 32.3993 5.58078C32.6055 5.74632 32.812 5.91203 33.0139 6.07758ZM97.4616 60.4912C95.556 60.685 95.5244 59.9891 93.6619 60.3777C94.6592 60.506 95.6564 60.6358 96.6496 60.7641C96.9179 60.6733 97.1932 60.582 97.4616 60.4912ZM190.92 58.5803C190.116 58.3383 188.613 59.4889 186.353 58.6395C185.815 58.893 185.477 59.1352 185.014 59.3835C184.745 59.1134 184.439 58.8398 184.182 58.5718C184.18 58.5718 184.179 58.5718 184.177 58.5718C182.127 58.6629 183.457 59.0016 183.41 59.2883C183.389 59.4071 181.867 59.2085 182.343 59.4671C183.163 59.9111 186.23 59.6558 186.239 60.1971C185.161 60.0202 183.057 60.168 183.679 60.5291C184.361 60.9254 186.344 60.2612 187.607 60.5901C185.798 59.725 189.535 59.9922 189.96 60.6566C192.153 60.1464 190.137 59.9383 187.89 59.9621C189.262 59.4529 187.242 59.728 186.909 59.3048C188.324 59.0493 193.18 59.2623 190.92 58.5803ZM239.323 7.4223C239.356 8.938 239.065 11.3058 239.495 12.3435C239.745 12.9479 239.939 10.5745 240.332 12.2112C240.294 10.7345 240.14 10.3975 239.795 10.65C239.754 10.3135 239.714 9.9727 239.673 9.63618C239.741 9.48053 239.807 9.32078 239.874 9.16514C239.732 8.98836 239.592 8.8106 239.45 8.63802C239.478 8.28055 239.506 7.91884 239.535 7.56137C239.464 7.51935 239.402 7.44767 239.323 7.4223ZM42.7471 60.5126C43.1679 60.5085 43.5847 60.5043 44.0055 60.4992C43.9591 60.4153 43.9039 60.3279 43.8507 60.2416C43.8126 60.1735 43.7744 60.1053 43.7363 60.0372C43.9802 60.2807 45.9849 60.6854 46.8295 60.4253C47.2541 60.2949 46.2879 59.8318 48.0878 59.7509C46.7833 59.7747 45.5749 59.8379 44.3083 59.8773C44.4219 59.7396 44.5311 59.6005 44.6447 59.4628C44.644 59.4626 44.6432 59.4624 44.6425 59.4622C44.2217 59.4312 43.796 59.3987 43.3752 59.3676C43.1647 59.7495 42.9576 60.1307 42.7471 60.5126ZM191.55 6.45537C192.985 6.18525 193.465 6.04498 192.788 5.60824C192.786 5.60804 192.785 5.60784 192.783 5.60763C192.249 5.80113 191.714 5.99455 191.18 6.18805C191.302 6.27705 191.423 6.36636 191.55 6.45537ZM126.569 59.4403C123.518 61.0992 130.39 60.0822 129.082 59.5172C129.023 59.4913 126.856 59.6234 126.569 59.4403ZM238.551 60.3283C239.301 60.3162 240.052 60.3052 240.805 60.2934L240.098 61C240.097 60.9116 240.095 60.8232 240.094 60.7348C240.002 60.8226 239.909 60.9112 239.817 61L240.805 60.0124C240.698 59.9011 240.59 59.7898 240.484 59.6783C239.84 59.8946 239.195 60.112 238.551 60.3283ZM42.9282 6.83072C43.8098 7.28609 46.0728 7.45107 47.1787 6.95583C46.5979 6.89788 46.0167 6.83985 45.4359 6.78189C46.534 6.72499 47.6198 6.66236 48.7264 6.60856C48.7853 5.97415 47.51 6.3422 45.5906 6.1673C45.2935 6.13909 43.3935 5.35161 42.7375 5.94514C42.6055 6.06713 44.6266 6.15008 43.222 6.5048C43.8362 6.53272 44.3663 6.52653 44.9469 6.54203C44.989 6.69313 45.0307 6.8444 45.077 6.9955C44.3591 6.94079 43.646 6.88542 42.9282 6.83072ZM239.373 16.2464C239.338 18.3283 239.591 18.5854 240.039 19.0188C239.988 18.0507 239.938 17.0822 239.888 16.1141C239.716 16.1603 239.545 16.2003 239.373 16.2464ZM61.5364 6.97597C62.6761 7.04925 62.1881 6.6846 62.6467 6.61527C64.3807 6.35452 65.5635 6.61513 67.2763 6.45171C67.1627 6.52208 67.0583 6.58786 66.9489 6.65616C66.9503 6.65616 66.9518 6.65616 66.9533 6.65616C75.0641 6.9635 70.8039 6.13651 65.9507 6.27105C65.837 6.13548 65.7279 5.99973 65.6142 5.86519C63.4424 6.10217 61.4396 6.33021 61.5364 6.97597ZM153.681 59.3835C153.588 59.2986 154.376 58.7593 152.898 59.0118C151.728 59.7992 153.647 59.4084 154.127 59.7112C153.728 59.7868 153.319 59.8603 152.923 59.9358C155.314 60.1584 155.663 59.9711 154.791 59.3957C154.729 59.357 153.774 59.4681 153.681 59.3835ZM137.969 58.9953C137.64 60.1555 140.658 59.6338 140.548 59.2736C140.132 59.2593 139.808 59.4557 139.366 59.3689C138.92 59.2819 138.806 59.0109 137.969 58.9953ZM224.413 59.2791C224.325 59.274 223.437 58.7864 223.525 59.1681C224.623 60.0716 226.837 59.49 226.45 59.1754C225.718 59.1909 225.229 59.3265 224.413 59.2779C224.413 59.2783 224.413 59.2787 224.413 59.2791ZM29.1963 7.10414C29.2383 7.13651 31.4539 7.33249 31.7399 7.15052C31.9755 6.94565 32.0925 6.72607 32.2692 6.51396C31.0486 6.71059 28.5778 6.5608 29.2008 7.10414C29.1993 7.10414 29.1978 7.10414 29.1963 7.10414Z" fill="black"/>
</svg>
