<svg width="184" height="64" viewBox="0 0 184 64" fill="none" xmlns="http://www.w3.org/2000/svg">
<path d="M2.80469 5H180.805V61H2.80469V5Z" fill="#5884E7"/>
<path d="M41.6666 0.966749C40.6092 0.515791 44.139 0.811404 41.7951 0.137933C42.2838 0.0924303 42.7756 0.0455017 43.2644 -9.73602e-09C43.3883 0.249417 43.5153 0.498227 43.6393 0.747644C42.9829 0.82109 42.3263 0.894524 41.6666 0.96797C41.6666 0.967563 41.6666 0.967156 41.6666 0.966749ZM40.7704 4.09037C41.3719 3.37898 43.2831 3.18931 41.2185 2.53283C41.0543 2.77698 40.8863 3.02107 40.7222 3.26522C40.0053 3.07586 39.2841 2.88655 38.5673 2.69823C38.3095 2.79131 38.0521 2.88449 37.7943 2.97654C37.466 2.55228 37.1407 2.12687 36.8124 1.70158C37.1039 1.76367 37.3993 1.82685 37.6908 1.88894C38.843 1.54442 39.8684 1.4502 41.4327 1.38604C41.2953 1.28565 41.1577 1.18615 41.0203 1.08576C41.8142 1.25651 42.6077 1.42768 43.3983 1.59843C42.7117 1.76604 41.944 1.95244 41.3077 2.10866C42.326 2.77388 44.1219 2.40365 45.0568 2.2649C46.3298 2.07552 46.0421 2.39183 46.9867 2.25941C47.1374 2.23871 47.1546 1.99078 47.4526 1.9866C48.9569 1.96693 51.8784 2.09835 50.1698 2.67687C47.694 2.60235 45.5826 3.06692 43.1537 2.8972C43.7962 3.56613 42.5166 3.79376 40.7704 4.09037ZM86.252 1.96035C85.5017 2.28524 83.9738 2.15413 82.9386 1.92862C82.9374 1.92862 82.9362 1.92862 82.935 1.92862C82.7072 1.87894 82.1912 1.44718 82.935 1.46477C84.1474 1.49492 84.7337 2.17457 85.3701 1.71317C85.6549 1.79907 85.9539 1.87549 86.252 1.96035ZM88.8871 1.92007C89.6308 2.08668 89.2935 2.59881 88.3622 2.46021C88.3622 2.46061 88.3622 2.46102 88.3622 2.46143C87.9736 2.40347 88.7365 1.99868 87.3428 2.40955C87.0582 2.0899 86.7779 1.79909 86.4966 1.48979C86.8379 1.48462 87.1491 1.47623 87.5071 1.47209C87.2662 1.9975 88.1435 1.75476 88.8871 1.92007ZM51.4267 2.38758C51.5437 1.91491 51.0538 1.91789 50.2198 1.58989C51.007 1.60541 51.7944 1.62197 52.5782 1.63749C52.193 1.88784 51.8118 2.13723 51.4267 2.38758ZM32.933 2.31434C32.9318 2.31434 32.9306 2.31434 32.9294 2.31434C32.6715 2.38885 32.4128 2.46363 32.1582 2.53711C32.0041 2.36841 31.8517 2.20045 31.6976 2.03176C30.7863 2.1901 29.8702 2.34843 28.959 2.50781C29.0697 1.99251 30.7054 2.07636 31.6065 1.71622C32.9465 1.87147 33.5922 2.17058 33.6792 2.60729C33.4314 2.51005 33.1842 2.41158 32.933 2.31434ZM165.527 61.6313C165.222 61.7741 164.921 61.917 164.616 62.0598C165.021 62.1249 165.423 62.1747 165.832 62.2502C166.901 61.6293 167.001 62.1785 168.401 62.1403C172.692 62.0224 171.554 61.058 175.43 62.4705C172.318 62.4033 173.514 63.067 171.638 63.5782C171.249 63.1891 173.108 62.3115 171.848 62.1293C169.678 62.5412 167.59 62.9247 165.182 63.1907C165.252 63.258 165.322 63.3254 165.393 63.3927C165.775 63.3503 166.153 63.3076 166.535 63.2652C166.123 63.4452 165.721 63.6237 165.302 63.8059C165.831 63.3971 164.482 63.6255 164.663 63.1559C164.743 62.9468 165.339 62.6568 165.691 62.4571C164.783 62.3484 163.852 62.2489 162.934 62.1434C163.41 61.9768 163.885 61.8101 164.357 61.6435C164.746 61.6384 165.131 61.6347 165.52 61.6295C165.522 61.6301 165.524 61.6307 165.527 61.6313ZM1.31942e-05 28.3486C0.486429 29.5011 0.566913 31.5953 0.0256467 32.6975C0.0173674 31.2469 0.00829246 29.7992 1.31942e-05 28.3486ZM33.7667 2.96738C33.6362 2.88469 33.5098 2.80289 33.3793 2.7202C33.9554 2.56707 34.535 2.41499 35.111 2.26185C35.2216 2.50082 35.3346 2.73983 35.4484 2.97776C34.8891 2.97465 34.326 2.97049 33.7667 2.96738ZM70.6255 2.70128C70.204 2.71574 70.1667 2.70791 69.6418 2.67382C69.6424 2.67402 69.643 2.67422 69.6436 2.67443C69.4355 2.6617 67.6946 2.52212 67.8887 2.33814C68.753 2.33504 69.675 2.33814 70.5595 2.33814C70.5862 2.45916 70.5921 2.57923 70.6255 2.70128ZM60.4512 2.59387C60.45 2.59346 60.4488 2.59305 60.4477 2.59264C60.133 2.56469 59.8351 2.50781 59.5104 2.49743C60.6792 2.20787 60.864 2.72738 61.9259 2.58044C62.9877 2.43245 63.6439 2.14582 64.5449 2.85752C64.2098 2.96412 63.8491 3.11662 63.504 3.24081C61.9966 2.95624 61.5907 3.22404 60.3816 3.50446C60.4051 3.20024 60.4278 2.89809 60.4512 2.59387ZM182.876 57.172C182.524 56.8839 182.869 56.5626 182.873 56.5293C182.874 56.5299 182.874 56.5305 182.875 56.5311C182.549 53.9793 183.069 56.8632 183.124 54.4548C183.212 54.8131 183.305 55.1656 183.394 55.5206C183.224 56.0698 183.032 56.6361 182.876 57.172ZM150.063 2.89597C150.04 2.79352 150.012 2.69083 149.988 2.58837C151.435 2.61218 151.804 2.20884 153.007 2.57617C152.026 2.68378 151.045 2.79062 150.063 2.8972C150.063 2.89679 150.063 2.89638 150.063 2.89597ZM77.9202 3.44648C76.3154 3.64208 75.1284 3.72827 73.5873 3.4178C73.5861 3.41739 73.5849 3.41699 73.5837 3.41658C73.4949 3.39747 73.9246 3.18311 73.8087 3.12912C73.4907 3.16118 73.1623 3.21047 72.841 3.24874C72.7975 3.07709 72.756 2.90547 72.7125 2.73485C73.6169 2.78348 74.5219 2.83208 75.4297 2.88072C75.2957 2.78033 75.1584 2.68082 75.0244 2.58044C75.7949 2.5287 76.5624 2.47715 77.3328 2.42542C77.0649 2.70681 76.7976 2.98828 76.533 3.27071C76.9951 3.32968 77.458 3.38648 77.9202 3.44648ZM174.157 4.01713C173.903 3.90536 174.374 3.71789 173.979 3.62165C173.583 3.52662 172.855 3.7352 173.025 3.41963C173.558 3.37723 174.117 3.32861 174.659 3.28414C172.914 2.71509 171.172 3.23001 171.145 2.52734C172.821 2.70948 174.198 2.62486 175.819 2.4303C175.752 2.98807 174.13 3.47033 175.152 3.99394C174.824 4.00118 174.479 4.01177 174.161 4.01591C174.16 4.01632 174.158 4.01673 174.157 4.01713ZM10.3225 9.96166C9.33086 9.91923 7.05869 10.1469 5.80574 9.8219C5.49746 9.74182 4.47048 8.70443 4.4757 8.56769C4.50587 8.10716 5.76003 8.04448 4.4168 7.74437C4.86865 7.74125 5.3072 7.72396 5.75576 7.71568C5.67535 7.40624 5.59534 7.09762 5.51831 6.78921C4.97221 6.83579 4.4255 6.88259 3.87942 6.9302C3.85261 6.82774 3.8259 6.72505 3.79909 6.6226C5.7623 6.62053 4.60339 6.22508 5.62186 5.85664C4.684 5.6704 3.73921 5.48505 2.80469 5.29881C3.344 5.32157 3.98037 5.33844 4.45607 5.36533C4.51973 4.84068 3.38478 4.96576 3.1903 4.86853C2.09485 4.31903 7.67202 4.59637 8.12838 3.83282C7.23744 3.74797 6.3026 3.66517 5.39156 3.58137C5.65285 3.48719 5.91753 3.39296 6.17887 3.29879C8.24566 3.82542 10.5634 4.01198 12.9718 4.33999C13.1894 4.31828 13.4075 4.29598 13.6217 4.2753C13.558 4.0384 13.4978 3.8024 13.4342 3.5655C13.7625 3.53755 14.0949 3.50983 14.4233 3.48188C13.4553 4.26214 14.7958 4.2515 16.4138 4.72755C15.553 5.00175 14.491 4.83551 14.5643 5.34641C17.5188 4.95334 20.9789 5.50885 23.8531 5.06506C24.5666 4.95537 24.5643 4.2963 26.2418 4.35708C26.1848 4.42953 26.1751 4.56032 26.1382 4.65553C29.0395 4.33988 30.7997 4.15118 33.8149 4.47304C33.6408 4.23616 33.4695 3.99829 33.2954 3.76141C32.6555 3.87939 32.0146 3.99925 31.378 4.11723C30.9426 3.72606 31.5861 3.55343 29.6767 3.55756C28.1121 3.56067 29.0435 3.73338 28.618 3.8493C28.0419 4.00754 27.5363 3.69624 26.9166 3.8731C26.4376 4.00867 26.9558 4.33143 25.7062 4.24967C26.2087 3.83156 26.7214 3.39982 27.2273 2.97654C27.5321 3.07072 27.8347 3.16634 28.1395 3.26156C27.8313 3.37333 27.5283 3.48363 27.2201 3.5954C28.3055 3.39464 29.331 3.20529 30.4532 2.99729C30.0881 3.60168 31.2481 3.37508 31.8779 3.30367C32.859 3.19202 32.0185 3.60798 32.6616 3.53864C33.3048 3.46824 33.9986 3.00353 35.161 3.10287C34.538 3.37191 35.3855 3.61317 35.2217 3.8615C35.0576 4.10983 33.828 4.16482 35.0093 4.43582C37.2806 4.22987 34.8159 3.28416 36.35 3.13095C38.1925 2.94675 38.6309 4.48832 38.0817 4.81971C37.6495 5.08051 36.1625 5.02806 35.7269 5.28782C38.3903 5.75662 38.4134 4.83115 38.869 4.65004C40.5239 3.99085 39.4123 5.75027 41.372 5.11388C41.3351 5.4429 41.3053 5.73882 41.2684 6.05439C41.6066 5.99437 41.831 5.91461 42.2396 5.86702C41.0349 5.22595 42.021 5.25343 42.5271 5.25242C43.3244 5.25035 42.0928 4.93766 42.3039 4.85694C42.8735 4.64092 43.7741 4.73901 43.2215 4.45657C43.4694 4.588 43.7382 4.71982 43.9928 4.85022C44.9243 4.68645 47.1136 3.31319 45.03 3.59052C45.2244 3.0803 45.8983 3.32553 46.4243 3.40315C46.9502 3.4807 46.9404 3.15576 47.4026 3.21578C49.2417 3.4559 48.0387 4.01172 47.7472 4.44741C50.1759 4.1473 47.7982 3.94875 51.2981 3.74798C51.6365 3.39301 50.0193 3.01423 51.366 2.80931C51.614 3.426 52.6056 3.86901 54.5384 4.07389C54.726 3.93211 54.9131 3.78906 55.1008 3.64728C56.1561 4.21649 55.6166 4.80839 57.5698 4.10258C56.5212 5.40138 57.2421 4.57047 58.9909 5.09923C59.346 5.20583 58.5254 5.47529 59.0212 5.6119C59.246 5.67351 59.7916 5.47011 60.3405 5.62716C60.6085 5.70477 61.8615 6.20557 62.7292 5.96772C62.0927 5.33849 63.7413 4.80319 62.3275 4.28262C64.9407 4.41096 66.7695 4.10884 63.8415 4.96679C64.5048 5.15722 65.1687 5.34683 65.832 5.53622C66.2944 5.38616 66.7606 5.23728 67.2264 5.08825C67.2966 5.6054 67.226 5.75048 69.0473 5.65951C68.2571 5.78157 67.4701 5.90566 66.6765 6.02875C66.6497 6.13318 66.5393 6.24173 66.5658 6.34307C67.5378 6.14444 70.2747 6.05895 70.9379 5.92134C71.6013 5.78369 70.3203 5.74602 70.5113 5.61251C72.1022 4.51162 71.9761 5.32357 73.1178 5.13463C73.7878 5.02286 72.188 4.90149 72.5465 4.85389C73.8756 4.6794 74.4921 5.26449 75.6707 5.27196C75.2521 4.93985 74.8368 4.60258 74.4281 4.26737C75.6644 4.28496 77.0424 4.28791 78.1915 4.18131C78.6426 4.1397 78.3017 3.8927 78.3754 3.87615C78.7409 3.79128 80.2282 3.65686 80.3856 3.65582C81.5709 3.65385 81.6047 3.99596 82.7565 4.01469C82.3044 4.04366 81.8792 4.06976 81.4371 4.0977C81.2362 4.65235 81.0311 5.20697 80.8301 5.76265C81.959 5.80301 83.0882 5.84253 84.2204 5.88289C83.393 5.69767 82.5626 5.51333 81.7353 5.3281C83.0284 4.88 84.3216 4.43087 85.6147 3.98174C86.288 4.25701 86.9587 4.53223 87.632 4.8075C89.4607 4.73488 89.0925 3.61745 89.96 4.59633C90.4992 4.51358 91.0384 4.43087 91.5775 4.34915C91.5005 4.48882 91.4242 4.62877 91.3472 4.76844C91.9971 4.68254 92.6468 4.59721 93.2967 4.51027C92.6134 4.01564 91.9435 3.49513 91.2669 3.01499C92.5458 2.9075 92.5704 3.32712 92.7611 3.43184C93.267 3.7092 94.2712 3.33508 94.6732 3.59174C94.8091 3.67986 93.5557 3.9561 93.9876 4.27469C94.072 4.33644 95.7502 5.50758 96.8209 5.23717C96.8008 5.02501 96.718 4.76487 96.6745 4.53408C98.1145 4.40521 98.8488 5.51266 98.6579 5.82308C99.4251 5.60576 100.546 5.5876 100.704 5.24815C101.096 5.23987 101.485 5.23202 101.877 5.22374C101.468 6.05045 103.103 5.89929 103.21 5.18834C102.537 5.17075 101.863 5.15223 101.189 5.13463C101.699 4.26324 99.6524 3.73727 103.91 4.54445C104.724 4.99775 102.463 4.48269 103.126 4.82215C104.279 5.01972 105.361 4.85441 106.456 5.17003C107.819 5.56431 106.142 5.94353 109.318 5.44162C102.313 4.18422 110.279 4.59219 113.569 4.20206C114.473 5.44397 117.251 5.83734 121.077 5.46787C120.679 5.12223 119.475 5.3003 118.782 5.18651C118.088 5.07268 118.838 4.86763 117.975 4.70619C117.111 4.54479 115.275 4.32537 114.4 4.08122C115.141 3.88559 118.798 3.4231 116.38 3.97868C118.185 4.32117 119.033 4.67311 121.27 4.73731C121.94 4.19814 121.891 3.86241 124.071 3.84686C122.782 4.59608 125.26 5.1168 124.714 5.89082C123.168 5.71054 124.032 4.95824 123.138 4.59816C123.046 4.56217 121.605 4.75076 121.27 4.73731C122.724 5.41312 123.227 5.66466 122.332 6.4688C123.361 6.39842 124.001 6.49938 124.095 6.11542C124.309 6.28199 124.524 6.4487 124.735 6.61527C125.07 6.61112 125.371 6.5957 125.726 6.59879C125.238 6.01962 126.185 6.37616 126.858 6.11359C127.531 5.85072 126.628 5.39352 128.477 5.38731C127.861 5.25173 127.297 5.13541 126.701 5.00708C127.894 4.85807 129.09 4.70811 130.282 4.5591C129.445 4.20521 127.63 3.67956 127.679 3.21395C128.229 3.38974 130.11 3.0808 130.316 3.06809C131.114 3.02048 130.679 3.31412 130.739 3.32137C131.992 3.46407 133.024 3.36408 133.499 3.80902C134.441 3.60826 135.151 3.72272 136.149 3.71136C136.698 3.70515 136.591 3.37835 136.913 3.44038C139.05 3.85432 137.014 4.27663 141.137 3.47273C140.638 3.24507 140.145 3.01218 139.646 2.78245C140.112 2.69656 140.575 2.61019 141.04 2.52429C141.352 2.56569 141.661 2.6074 141.972 2.64879C141.966 3.1424 141.958 3.63705 141.951 4.13065C142.293 4.15756 142.636 4.1837 142.977 4.21061C142.391 4.25925 141.803 4.30783 141.217 4.35647C141.164 4.44333 141.114 4.53022 141.06 4.61708C141.931 4.75162 142.799 4.88737 143.67 5.02294C143.687 4.85124 143.703 4.67832 143.72 4.50661C145.683 4.74567 145.73 4.89103 147.596 4.41812C149.033 4.42329 150.203 3.70535 151.034 3.40315C151.332 3.49938 151.631 3.59683 151.932 3.69305C152.123 3.55023 152.316 3.40804 152.507 3.26522C152.886 3.4639 153.269 3.66263 153.648 3.86028C153.859 3.4093 153.968 3.2685 152.491 3.1102C152.997 2.54929 155.598 2.79673 156.656 2.98508C157.459 3.12801 156.568 3.59586 156.669 3.65277C157.004 3.84611 158.328 3.67929 158.606 3.71136C159.782 3.84486 160.605 3.82149 161.667 3.92498C161.874 3.94569 162.452 4.24219 162.501 4.2515C162.883 4.30221 163.826 4.44632 163.933 4.45046C169.463 4.6718 163.554 3.38541 168.696 3.52094C168.542 3.3513 168.4 3.1828 168.25 3.01316C168.638 3.00281 169.031 2.99298 169.419 2.98264C169.912 3.12442 169.316 3.38226 170.294 3.17428C170.23 3.38332 170.166 3.59246 170.099 3.80047C170.525 3.68766 170.935 3.57577 171.37 3.46296C172.054 4.18842 174.549 4.35317 174.371 5.20482C174.311 5.4946 172.542 5.79194 173.477 6.10138C174.236 6.1623 173.722 5.81621 174.032 5.79805C176.27 5.67179 176.14 6.15689 177.055 6.02753C177.199 5.81963 177.35 5.60765 177.497 5.39768C177.842 5.45871 178.188 5.51975 178.536 5.58078C178.617 5.44106 178.701 5.3012 178.781 5.16149C178.456 5.15217 178.09 5.14273 177.792 5.13341C178.103 4.72865 180.318 4.49064 180.805 4.58946L181.224 4.59842L181.215 5C181.191 5.1175 181.148 5.1345 181.083 5L181.088 4.72822L180.805 4.72216C180.751 4.74811 180.674 4.77753 180.57 4.81055C179.977 4.99785 178.891 4.91827 179.577 5.55759C179.97 5.52216 180.384 5.48644 180.805 5.45065L180.354 5C180.411 5.67369 180.469 6.36721 180.525 7.02895C180.388 7.06246 180.25 7.09363 180.112 7.12714C180.201 8.5764 180.752 7.25835 181.047 7.26104C181.055 7.59254 181.062 7.9275 181.07 8.25901C180.937 8.39954 180.797 8.5331 180.668 8.68033C180.88 8.69381 181.374 8.87947 181.191 9.86754C181.071 10.5028 180.536 9.50237 180.61 10.7138C180.941 10.6232 181.345 10.1856 181.451 11.535C181.106 11.669 180.789 11.8543 180.426 11.9581C180.758 13.6362 180.224 14.3998 180.61 16.3695C180.854 17.6191 181.722 19.3308 180.386 20.1382C180.35 21.0523 180.683 20.7622 180.758 21.0326C181.112 22.3091 180.478 23.2585 180.441 23.4963C180.202 25.0133 180.422 25.6934 180.123 26.9294C180.37 26.8624 180.604 26.8259 180.845 26.7723C180.475 25.64 180.492 25.0665 180.572 23.4785C180.621 24.011 180.672 24.5438 180.722 25.0763C180.923 24.9892 181.123 24.903 181.323 24.8192C180.532 19.9078 181.782 21.0535 182.055 25.1709C181.683 25.526 181.313 25.8939 180.94 26.2457C181.503 28.6242 181.015 29.7435 180.898 32.4334C180.884 32.7532 181.098 33.918 181.109 34.4186C181.11 34.4103 181.112 34.402 181.113 34.3937C181.464 34.7051 181.625 34.2833 181.939 34.233C181.978 34.5043 182.017 34.7758 182.057 35.0471C181.818 35.653 181.621 35.44 181.678 36.6324C181.916 36.4716 182.154 36.3129 182.392 36.1521C182.401 37.4587 182.142 38.3138 182.254 39.5299C182.164 39.3255 182.074 39.1237 181.983 38.9193C181.754 41.566 180.354 39.4597 181.051 41.4598C180.929 41.587 180.806 41.711 180.683 41.8382C180.653 41.0143 180.624 40.1899 180.594 39.3692C180.422 39.3525 180.25 39.3344 180.077 39.321C180.129 40.2021 180.182 41.0875 180.234 41.9686C180.118 41.3253 180.002 40.6783 179.886 40.0351C179.803 41.0568 179.72 42.0788 179.637 43.1004C180.273 42.0155 180.35 43.4221 180.979 43.1576C180.456 44.9667 179.766 46.3877 180.207 49.1918C180.295 49.7477 180.735 49.4457 180.2 51.0235C180.9 50.6416 181.228 52.6182 181.893 52.3642C181.861 51.815 181.841 51.2454 181.802 50.7129C181.571 51.3192 180.936 51.4197 180.748 50.4986C180.507 49.3228 180.947 47.6077 180.243 47.6779C180.276 47.209 180.295 46.7729 180.323 46.3175C180.498 46.505 180.674 46.6886 180.849 46.8727C180.575 45.5768 180.664 44.7625 181.105 44.1395C181.206 45.6836 181.306 47.2245 181.407 48.7687C181.437 48.5412 181.467 48.3106 181.496 48.0831C181.946 49.2524 182.372 48.0463 182.469 50.2273C182.263 50.2139 182.057 50.2032 181.85 50.1898C182.4 50.9838 182.397 53.1577 183.031 52.4642C182.836 53.1208 182.713 53.2546 183.055 53.6264C182.573 55.3585 181.965 56.4709 181.238 55.8544C181.355 56.4975 181.472 57.141 181.589 57.7808C181.788 57.409 181.986 57.0367 182.184 56.665C182.172 57.7839 182.16 58.911 182.148 60.0266C181.561 60.1338 181.97 57.8729 181.445 58.5252C181.339 58.6557 181.565 59.2579 181.506 59.4161C180.863 61.0843 181.327 58.4654 180.835 58.9573C180.728 60.7045 180.289 60.2409 180.278 61L180.805 60.473C180.484 60.4683 179.944 60.5403 178.927 60.7464C178.837 60.5767 178.739 60.4036 178.656 60.2349C177.467 60.2247 177.563 60.608 176.542 60.6804C175.902 60.7255 175.099 60.0524 174.392 60.5108C174.266 60.5953 175.455 61.4179 172.957 61.3817C171.018 61.3536 171.825 60.7723 170.777 60.5663C169.729 60.3604 167.33 61.1664 166.623 60.2526C167.172 60.3736 167.872 60.4389 168.481 60.5382C168.729 60.3603 168.971 60.1842 169.215 60.0073C167.821 60.237 166.381 59.9662 165.443 60.3905C163.583 59.7416 161.504 60.3438 162.067 61.0765C162.679 60.9709 162.013 60.6514 162.863 60.855C162.95 61.0258 163.042 61.1957 163.129 61.3664C161.682 61.3457 160.677 61.3505 161.337 60.83C161.112 60.8175 160.89 60.8052 160.665 60.7927C160.625 61.1695 160.59 61.5476 160.549 61.9243C160.281 61.9667 160.012 62.0088 159.744 62.0512C159.446 61.9685 159.148 61.8848 158.846 61.801C159.252 61.2049 159.942 61.1852 157.657 60.8519C157.65 61.0579 157.641 61.263 157.634 61.469C155.721 61.2072 155.671 60.7083 153.269 60.7268C155.112 60.0118 156.12 61.2793 156.113 59.8449C156.575 59.9391 157.041 60.0345 157.504 60.1287C157.574 59.9207 157.644 59.7124 157.711 59.5044C155.228 59.6141 151.105 60.9821 149.443 60.075C149.242 60.1857 149.04 60.2819 148.836 60.4009C147.208 59.8534 146.505 61.0826 144.853 60.3747C144.683 60.3004 145.039 59.1456 142.889 59.187C142.943 59.3371 142.971 59.5897 143.014 59.779C142.549 59.6869 142.086 59.5906 141.624 59.4964C141.54 59.635 141.452 59.7736 141.368 59.9133C142.162 59.9671 142.954 60.0218 143.748 60.0756C143.088 60.1232 142.424 60.1708 141.765 60.2184C142.625 60.445 143.014 60.4474 142.495 60.8104C141.748 60.8322 141 60.8552 140.253 60.877C140.176 60.97 140.099 61.0641 140.022 61.1571C140.384 61.4344 140.749 61.7057 141.111 61.9871C139.165 61.7605 137.473 61.7482 135.979 61.2029C135.724 61.1108 136.624 60.7495 134.89 61.0753C134.863 60.884 134.816 60.7286 134.786 60.5517C132.662 61.0878 131.964 60.9277 129.75 60.5407C131.184 60.9019 129.904 60.667 129.539 60.8605C129.289 60.9938 130.265 60.9741 130.155 61.1138C130.044 61.2524 128.775 61.8124 129.86 61.8797C132.521 60.732 133.245 62.1042 136.662 61.5526C136.136 61.7006 135.607 61.8489 135.081 61.9969C135.328 62.0972 135.55 62.1882 135.818 62.2947C133.912 62.0702 134.839 62.2161 134.056 62.393C133.272 62.57 131.847 62.7203 130.892 62.769C130.592 62.7842 130.909 62.5268 130.23 62.5029C129.768 62.4863 128.504 62.8679 128.213 62.418C128.022 62.1252 130.051 61.3187 127.245 61.3207C126.717 61.0336 128.062 61.1227 128.091 61.0881C128.336 60.7466 126.611 60.4898 125.813 60.7506C125.749 60.7731 126.378 61.0393 125.694 61.1437C124.069 61.3931 123.13 61.0879 122.078 60.6749C121.965 61.1593 120.597 61.7377 118.895 61.5587C118.808 61.6973 118.725 61.8371 118.638 61.9768C118.902 61.9034 119.167 61.831 119.431 61.7577C119.719 61.8446 120.024 61.9079 120.306 62.0103C118.594 62.1294 118.352 62.7969 117.531 63.0412C114.723 63.8754 116.425 62.1107 116.931 61.8065C117.297 61.9296 117.65 62.0671 118.012 62.1965C117.971 62.0278 117.931 61.8578 117.894 61.6881C113.689 61.6932 117.253 60.593 115.119 60.2795C114.57 61.1094 113.003 61.1894 111.006 60.6627C110.785 60.6669 110.563 60.6679 110.342 60.6731C110.305 60.7941 110.306 60.9791 110.246 61.0588C107.84 61.1996 107.412 59.9214 107.184 59.8004C106.172 59.2633 105.384 60.0064 105.086 60.0127C103.83 60.0386 103.465 59.7087 102.269 59.8504C100.983 60.0035 101.862 60.2567 101.471 60.4833C101.157 60.6633 100.142 60.6953 99.7232 60.8818C99.8898 60.7293 100.075 60.5797 100.241 60.4265C98.9079 60.2186 97.8184 60.0158 96.3044 59.9651C94.596 61.0814 93.1424 59.1984 93.7318 60.7256C95.1657 60.8301 95.9675 61.0042 96.7347 61.3933C95.7935 61.443 94.8515 61.4913 93.9104 61.541C93.6357 61.3734 93.4408 61.21 93.1159 61.0393C92.4125 61.3953 90.7818 61.2425 90.1416 61.3469C87.1433 61.8364 88.0708 62.4436 85.3339 61.4232C87.3065 61.3238 87.3034 60.8282 89.2597 60.8965C88.8376 60.5426 87.8434 60.6159 88.4867 60.1916C86.5941 60.2961 87.2059 60.6749 86.4693 61.0112C85.834 61.3012 84.5547 61.3174 84.6269 61.6942C84.4961 61.487 84.3949 61.2865 84.2645 61.0796C83.0386 61.0817 81.8127 61.0818 80.5868 61.0839C81.1094 60.8676 81.6318 60.6509 82.1543 60.4357C81.7594 60.354 81.3638 60.2726 80.9689 60.191C77.9538 60.8637 72.7544 59.6308 73.585 61.3207C72.1311 61.3745 71.9493 61.1625 71.1588 60.8428C71.0717 60.9711 70.987 61.0778 70.8999 61.2206C69.9621 61.0863 69.2422 61.5679 68.4148 61.4427C67.5875 61.3185 67.3821 60.8635 67.2615 61.6283C66.7256 61.4089 66.1928 61.2267 65.6602 61.0228C65.3388 61.1966 65.0177 61.3683 64.6997 61.541C64.1972 61.4499 63.6936 61.3592 63.1911 61.2682C62.9226 61.6332 60.9468 61.4759 60.0758 61.721C59.249 61.3275 59.2717 60.0886 57.3265 60.3106C57.3767 60.6179 57.4262 60.9243 57.4765 61.2316C57.031 61.1674 56.5846 61.1035 56.1357 61.0393C56.1089 60.939 56.0857 60.8387 56.059 60.7384C56.2867 60.7695 56.5114 60.8003 56.7391 60.8324C56.5415 60.6627 56.3479 60.4937 56.1536 60.324C55.4736 60.5755 54.7927 60.8269 54.1094 61.0784C55.0305 61.2687 55.9519 61.4593 56.873 61.6496C55.7172 61.8752 54.9128 61.6502 53.9077 61.9017C53.0334 61.4774 53.3563 61.233 53.7113 60.7726C53.3865 60.8119 53.0578 60.8499 52.733 60.8892C52.9473 60.4287 52.3978 60.1544 54.2969 60.1916C54.1663 60.0602 54.0331 59.935 53.9059 59.7985C53.5944 59.8192 53.3924 59.7082 53.0508 59.7589C52.1194 59.8975 51.4054 60.7063 51.469 60.9899C51.5034 61.1384 52.4217 60.8543 52.3849 61.0643C52.294 61.5764 50.1874 61.3465 53.2257 61.8608C52.2173 62.1868 51.9921 61.9409 50.8799 61.8468C50.9669 62.0174 51.0515 62.187 51.1352 62.3576C50.6195 62.279 50.103 62.2006 49.5873 62.122C50.3042 61.2455 46.5017 60.9163 49.9247 60.1495C48.9132 60.1101 47.9051 60.0706 46.8969 60.0292C47.1046 59.9392 47.3123 59.8501 47.52 59.7601C47.9755 59.8077 48.4284 59.8545 48.8839 59.9011C48.3481 59.7366 47.8113 59.573 47.2754 59.4085C46.0091 59.6124 45.5127 59.926 44.9331 60.313C46.4068 60.5955 45.9253 60.2097 47.0737 60.133C47.0335 60.3781 47.0866 60.6036 46.9862 60.8611C46.3928 60.3534 44.4572 60.7227 44.0083 60.7476C42.6423 60.823 43.7135 60.3241 42.7997 60.3136C41.8851 60.3033 40.8064 60.6002 40.0593 60.1055C40.0727 60.3828 40.1325 60.6697 40.1861 60.9221C38.7622 61.0132 39.0463 60.6856 38.8989 60.6432C36.5471 59.9457 35.271 60.5346 32.5808 60.606C32.9225 60.6919 33.2677 60.7694 33.6127 60.8501C31.5832 61.4388 32.9504 61.2586 34.7124 61.4531C33.0608 61.3941 32.1149 61.8955 30.9491 62.0445C29.7834 62.1933 27.7842 61.9358 27.0536 61.7351C28.7253 61.4122 30.5284 61.6251 32.3844 61.5361C32.1734 61.2537 31.9683 61.0146 31.7506 60.7042C30.6218 61.2971 29.9677 60.9007 29.5958 60.822C28.5039 60.5914 28.5382 61.1002 27.8784 60.5529C27.9052 60.7412 27.9248 60.8995 27.9516 61.0753C25.697 60.9967 23.2651 60.6638 21.7977 61.3591C21.6637 60.9069 21.5626 60.4712 21.4085 60.0097C20.4539 60.3501 19.6363 60.0015 18.8324 60.0811C18.0317 60.1608 18.3365 60.5263 17.3952 60.667C17.221 60.6929 16.8582 60.4641 16.4294 60.6328C15.9964 60.8024 14.3995 62.0633 14.2085 60.9618C13.4012 60.9566 12.6372 60.9163 11.8466 60.8977C12.6171 60.8356 13.3878 60.7755 14.155 60.7134C13.4984 60.4464 12.8459 60.1802 12.1894 59.9133C12.1056 60.1513 12.0216 60.3936 11.9412 60.6286C10.1724 60.9183 8.88872 60.5292 7.10313 60.6212C6.80499 60.6368 7.50837 61.1074 6.1855 60.9874C5.11863 60.8906 4.2736 60.3009 2.80469 60.2538L3.55085 61C3.56216 60.647 3.54214 60.258 3.4764 59.8212C3.45881 59.7073 2.78609 59.0397 3.2518 58.2323C3.35736 58.0486 3.51354 58.8219 3.65218 58.4001C3.79086 57.978 3.90489 56.0946 4.23503 55.9472C4.11812 55.9673 3.99698 56.0848 3.87799 56.1418C3.82213 55.8202 3.76621 55.4954 3.71138 55.1706C3.9173 55.1404 4.12352 55.1079 4.32841 55.0777C3.84926 53.2285 3.06764 52.2728 3.32626 49.5327C3.0272 50.3031 2.72694 51.0739 2.42787 51.841C2.63796 52.0521 2.84946 52.2635 3.05955 52.4712C2.97574 53.7341 2.89253 55.0004 2.80871 56.2632C3.04778 56.4709 3.28616 56.6749 3.52523 56.8827C3.49419 57.2176 3.46411 57.5493 3.43307 57.8842C3.26025 57.8004 3.08834 57.716 2.91552 57.6289C2.95794 58.2921 3.00126 58.9561 3.04369 59.6159C2.02356 58.2726 3.13046 55.8645 2.27712 56.0382C2.40952 55.7402 2.54284 55.4418 2.67627 55.1438C2.2625 55.0131 2.38159 54.4071 2.44679 53.3389C2.24291 53.5834 2.04181 53.8535 1.83586 54.078C2.12353 53.0394 2.0956 51.1972 2.20632 50.1218C2.25496 49.6495 2.55495 50.1213 2.59022 49.9808C2.77443 49.2605 2.25098 47.8838 2.29238 47.5957C2.53873 45.8737 3.53112 44.7548 2.87707 42.8754C2.71562 44.8151 2.78381 43.7599 2.42055 44.45C2.30666 44.666 2.06906 47.172 2.17459 44.034C2.18779 43.6661 2.87346 37.9723 3.39889 39.844C3.23123 38.9227 3.03738 38.2013 2.85937 37.3571C4.2441 35.2934 2.94324 36.0076 2.22708 36.6073C2.22397 36.2689 2.2167 35.947 2.2167 35.5986C2.96909 36.339 3.01581 32.5669 2.63599 31.2872C2.50973 30.8584 2.2689 32.0574 2.15506 31.0658C2.20782 30.5936 2.27614 30.058 2.3351 29.559C1.85907 30.2826 1.67562 28.8625 1.19136 28.8824C1.62288 27.9746 2.53755 27.2802 3.03331 27.7791C2.83257 27.0288 2.63208 26.2746 2.43031 25.5243C2.31544 25.8727 2.20157 26.2256 2.0867 26.574C2.39097 24.1217 1.69861 20.9685 2.71594 20.4559C2.7087 20.1309 2.70244 19.8025 2.69519 19.4776C2.52339 19.3771 2.35127 19.2799 2.17947 19.1794C2.32846 17.709 2.47845 16.242 2.62745 14.7716C2.73406 16.0808 2.97859 16.3925 2.78003 17.7655C2.97761 17.2364 3.17628 16.6974 3.37387 16.1784C2.84193 14.1114 2.49232 13.8294 2.65064 10.7172C2.65788 10.5765 3.10397 8.22504 3.14744 8.14464C3.34613 7.77627 3.63478 8.33544 3.73518 8.17142C4.01668 7.71579 4.7235 4.94717 4.8301 5.00077C6.13824 5.67751 6.15558 14.9926 6.22285 17.512C6.61305 32.1305 6.49292 46.5689 6.33923 61L2.80469 57.4655C14.1698 57.5865 25.5304 57.7283 36.9708 57.6581C37.2377 57.6557 37.1212 57.4626 37.235 57.4543C37.9418 57.4058 38.6358 57.7067 38.8971 57.7192C39.4554 57.7448 39.148 57.4667 39.5559 57.4665C43.7704 57.4696 47.7475 57.6331 51.9653 57.5855C52.24 57.5824 51.9596 57.8049 52.442 57.7655C52.691 57.744 53.4706 57.4027 54.0327 57.3975C55.9958 57.3799 57.6448 57.4894 59.7152 57.4842C60.8476 57.4811 62.5463 57.5101 63.8124 57.5049C64.3716 57.5027 64.9541 57.3466 65.5066 57.3414C66.2906 57.3341 66.1305 57.6507 66.2511 57.6703C66.7804 57.7562 66.8537 57.4088 67.3562 57.4171C68.2909 57.4336 68.3412 57.6656 69.5271 57.6459C70.3747 57.6314 72.3146 57.4483 73.3833 57.3945C75.8825 57.6635 79.0318 57.5567 81.3634 57.4677C82.7436 57.4149 82.8715 57.7397 83.4344 57.7387C85.4174 57.7324 86.9223 57.3176 88.7848 57.3041C91.2566 57.2866 93.4472 57.5609 95.842 57.5806C96.2304 57.5837 96.1412 57.2861 96.5222 57.2785C97.9326 57.2506 99.7362 57.1964 100.993 57.2388C102.393 57.2855 102.909 57.7174 104.279 57.6294C104.681 57.6033 104.799 57.2246 105.472 57.176C106.547 57.0995 107.726 57.4335 108.476 57.4708C109.505 57.5204 108.611 57.1346 109.997 57.1864C110.054 57.1886 110.262 57.4644 110.56 57.4512C111.428 57.414 111.341 57.1968 112.611 57.2175C112.733 57.2203 114.416 57.4831 114.584 57.4842C115.569 57.4883 117.552 57.5803 118.135 57.5245C120.219 57.3258 118.578 56.9109 120.35 57.8113C121.131 57.5909 121.905 57.3676 122.732 57.1534C122.18 57.3531 124.42 57.6414 124.578 57.6227C125.88 57.4726 125.104 57.1223 126.756 57.1802C124.575 57.9896 128.886 57.2846 129.848 57.2639C134.478 57.1635 138.686 57.3655 143.339 57.3603C144.897 57.3582 146.985 57.1871 148.633 57.1912C149.017 57.1915 148.726 57.383 149.065 57.3871C149.402 57.39 149.028 57.175 149.413 57.1864C151.808 57.2609 153.685 57.6666 155.879 57.1595C155.986 57.2328 155.982 57.2907 156.159 57.3713C157.955 56.917 161.413 57.5279 162.713 57.6117C164.746 57.7421 165.265 57.435 166.742 57.497C168.696 57.5798 171.628 58.1797 170.318 57.1894C171.658 57.1584 172.948 57.1498 174.301 57.2419C174.452 57.2523 174.348 57.504 174.408 57.5092C174.79 57.5453 174.915 57.32 175.173 57.3096C175.872 57.2818 174.731 57.5516 175.728 57.4763C176.254 57.4359 176.552 57.2393 178.013 57.2352C178.936 57.2329 179.867 57.2316 180.805 57.2312L177.036 61C177.032 52.9897 177.092 44.4833 177.122 36.4039C177.124 35.7841 176.88 36.1921 176.896 35.4148C176.95 32.7146 177.359 27.8813 177.304 25.553C177.248 23.2247 176.892 23.75 176.743 22.2931C176.714 22.0117 176.917 22.2424 176.92 21.9878C176.938 20.2759 177.255 18.2349 177.302 16.848C177.334 15.9308 177.015 16.0042 176.992 15.368C176.959 14.4199 177.282 13.4441 177.292 12.9382C177.337 10.56 177.078 8.92497 177.21 6.70403C177.14 6.79094 177.075 6.84829 177.006 6.92183C177.008 6.28106 177.011 5.64048 177.014 5L180.805 8.79068C178.817 8.78206 176.83 8.77343 174.841 8.76482C174.965 8.82899 175.085 8.89371 175.209 8.95891C172.123 8.92369 172.475 8.22825 172.747 9.69678C172.522 9.74852 172.285 9.80849 172.07 9.85608C172.157 9.0996 170.291 8.546 167.916 8.35347C167.742 8.33898 166.573 9.07657 166.7 8.20516C166.395 8.41835 166.214 8.5653 165.956 8.75262C165.453 8.48879 164.944 8.22809 164.442 7.9653C164.17 8.00462 163.895 8.04256 163.624 8.08187C163.584 8.25264 163.615 8.42994 163.528 8.5976C162.268 8.62347 159.685 8.41236 158.69 8.43403C156.217 8.48888 153.7 8.95056 151.777 8.45173C150.84 8.50259 151.77 8.83774 150.377 8.79534C150.22 8.62565 150.072 8.46302 149.908 8.28816C148.769 9.04632 148.531 8.58511 146.971 8.42671C145.916 8.31908 145.225 8.50438 144.22 8.46821C143.965 8.45889 144.001 8.23637 143.827 8.24361C143.244 8.26656 141.579 8.57284 141.167 8.58112C137.435 8.66182 134.229 8.62747 130.675 8.54572C130.293 8.53744 130.788 8.75705 130.393 8.74773C129.757 8.73311 130.131 8.39566 129.763 8.3791C128.735 8.33482 128.727 8.69066 127.294 8.70928C122.573 8.77031 117.146 8.503 112.215 8.47919C112.061 8.47919 112.07 8.68768 111.903 8.68975C110.811 8.69995 109.706 8.41812 108.714 8.42121C107.069 8.42535 105.833 8.71825 104.208 8.71722C101.032 8.71618 98.1948 8.56621 94.9285 8.55792C92.255 8.55068 89.9332 8.57849 87.0018 8.57746C74.1974 8.57332 61.1315 9.2351 48.2399 8.88323C47.9119 8.87392 48.0454 8.68971 47.9454 8.69769C46.994 8.77737 46.909 9.02592 46.5707 8.50544C45.3587 8.60802 44.9762 8.99905 43.5125 8.97111C42.7324 8.95647 43.3148 8.35039 41.9951 8.6629C40.8033 8.94541 42.1185 9.27756 38.5745 8.93816C38.4807 8.92883 38.0189 8.5594 37.2819 8.65558C36.5415 8.75079 37.3986 9.01532 35.6163 9.09501C31.4321 9.28127 26.1358 8.96194 21.2716 9.06022C20.9667 9.06643 18.0307 9.26393 17.4511 9.355C16.3295 9.53197 16.5638 9.8065 15.107 9.87378C13.9813 9.92552 13.0526 9.61455 11.7293 9.67664C11.5751 9.68419 11.317 10.0041 10.3225 9.96166ZM160.669 62.2514C160.394 62.5653 159.898 63.7205 158.237 63.3689C158.08 63.3358 158.93 62.5414 158.012 62.415C158.91 62.3311 159.785 62.304 160.669 62.2502C160.669 62.2506 160.669 62.251 160.669 62.2514ZM3.12247 2.5957C4.36535 2.65365 5.61256 2.71107 6.85549 2.76903C5.99786 2.90874 5.13896 3.04818 4.28469 3.18893C3.89612 2.9913 3.51102 2.79333 3.12247 2.5957ZM157.845 3.14438C157.844 3.14438 157.843 3.14438 157.842 3.14438C159.148 2.99535 160.455 2.84604 161.762 2.69701C161.625 2.80671 161.487 2.91688 161.35 3.02658C160.318 3.19938 159.286 3.37195 158.258 3.54475C158.12 3.41127 157.982 3.27785 157.845 3.14438ZM147.523 4.30582C146.688 4.17542 146.893 3.9555 146.434 3.74127C146.434 3.74168 146.434 3.74208 146.434 3.74249C146.313 3.68672 145.748 3.63792 145.53 3.62958C145.611 3.76723 145.715 3.90311 145.802 4.03972C143.855 4.37296 140.049 3.18876 144.977 2.71166C144.903 2.88549 144.833 3.05843 144.759 3.23226C147.208 3.18363 149.938 3.56068 147.523 4.30582ZM140.977 62.7519C138.887 63.3211 138.217 63.4411 135.68 63.0509C136.039 62.8896 136.397 62.7283 136.755 62.5669C137.174 62.7315 137.59 62.8949 138.008 63.0595C138.01 63.0595 138.011 63.0595 138.012 63.0595C138.096 62.8866 138.18 62.7135 138.26 62.5407C139.165 62.6111 140.073 62.6815 140.977 62.7519ZM67.4995 3.89446C66.9168 2.75763 67.0849 3.41843 68.7492 3.16207C69.3254 3.07307 68.7638 2.87416 69.1223 2.84105C71.0581 2.66015 71.2129 3.42182 70.7808 3.81817C69.6853 3.84508 68.5785 3.86962 67.5031 3.89446C67.5019 3.89446 67.5007 3.89446 67.4995 3.89446ZM17.2743 4.13065C17.2731 4.13065 17.272 4.13065 17.2708 4.13065C17.2205 3.85337 18.0009 3.77878 17.1208 3.51606C17.7904 3.5171 18.4599 3.5193 19.1328 3.52033C18.9355 3.54616 18.7339 3.57079 18.5365 3.59662C18.7108 3.69184 18.8854 3.78826 19.0596 3.88347C19.2975 3.56475 19.5185 3.75002 20.2218 3.85662C20.0275 3.51614 19.8341 3.17542 19.6398 2.83494C20.4571 2.93634 21.2773 3.03809 22.0946 3.13949C22.1046 3.2253 22.1149 3.31124 22.1249 3.39705C22.4331 3.28739 22.738 3.17653 23.0461 3.06686C23.1299 3.1693 23.2106 3.27081 23.2943 3.37325C23.666 3.29565 24.0383 3.21812 24.4101 3.13949C24.5232 3.38763 23.7039 3.49487 25.1563 3.43184C24.7108 3.68639 24.2662 3.94018 23.8174 4.19474C21.6365 4.17404 19.4553 4.15239 17.2743 4.13065ZM82.6404 3.54475C80.2385 3.59235 80.9149 3.41251 81.4711 2.84959C81.8596 3.08134 82.2519 3.31299 82.6404 3.54475ZM181.759 30.5874C182.143 31.2843 182.523 31.9841 182.893 32.6976C183.108 34.1181 182.408 35.5391 182.134 34.4704C181.805 33.184 182.173 31.8404 181.759 30.5874ZM178.864 62.1251C180.602 62.3031 178.967 62.7593 178.575 63.0253C178.095 62.5979 177.424 62.6356 176.347 62.5859C177.358 62.5582 178.577 62.0948 178.864 62.1238C178.864 62.1243 178.864 62.1247 178.864 62.1251ZM178.424 3.61432C177.728 3.62581 177.035 3.73304 176.412 3.60273C176.6 3.23558 177.846 3.56961 176.955 3.02536C177.4 3.01605 177.846 3.00702 178.288 2.99668C178.007 3.22217 178.385 3.3907 178.422 3.6131C178.423 3.61351 178.423 3.61392 178.424 3.61432ZM105.913 3.11203C107.28 3.5467 107.539 3.3607 108.916 3.05954C109.11 3.41345 107.468 4.00626 106.44 4.13676C106.266 3.79526 106.091 3.45353 105.913 3.11203ZM1.09798 46.5834C1.54908 46.9116 1.60791 49.3329 1.47455 50.536C1.40764 50.3927 1.33985 50.249 1.27192 50.1057C1.21397 48.9332 1.15594 47.756 1.09798 46.5834ZM175.835 62.5553C176.015 62.5686 176.186 62.5784 176.347 62.5859C176.168 62.5908 175.995 62.5831 175.835 62.5553ZM103.06 60.5974C103.633 60.1721 101.93 60.0292 103.997 60.1958C103.997 60.1954 103.997 60.195 103.997 60.1946C105.364 60.3043 105.666 60.3336 106.932 60.3667C106.476 60.9131 103.907 61.1084 107.448 61.2212C107.495 61.2217 107.402 60.8966 107.968 60.941C108.142 60.9549 108.701 61.2217 109.551 61.2993C109.826 61.3241 111.89 61.4064 109.076 61.4116C109.16 61.7925 109.009 62.1779 109.016 62.5474C107.917 62.6548 107.073 61.909 105.911 61.9273C104.186 61.9563 103.308 62.7104 102.976 61.721C104.427 61.478 106.918 61.4721 107.243 62.0671C108.646 62.0743 109.049 61.5869 107.918 61.3457C103.07 61.652 106.587 60.6221 102.342 61.0112C102.292 61.1488 102.117 61.2969 102.144 61.4263C100.848 60.942 102.856 60.7496 103.06 60.5974ZM113.197 61.6496C112.359 61.9404 111.524 62.2336 110.69 62.5254C110.69 62.0515 111.15 61.6261 112.47 61.3591C112.711 61.4563 112.956 61.5535 113.197 61.6496ZM42.7426 61.7741C42.622 62.0318 42.3005 62.268 42.066 62.5132C41.8114 62.2959 35.7809 62.0874 38.8489 61.8742C39.2945 61.8432 42.0122 62.2988 42.7426 61.7741ZM96.4227 3.50019C97.133 3.67303 97.8403 3.84613 98.5472 4.01897C97.4591 4.1286 96.3701 4.24111 95.282 4.35281C95.6632 4.06867 96.0414 3.78433 96.4227 3.50019ZM181.307 42.1489C181.316 41.8489 181.671 42.8453 181.615 41.6633C181.841 42.5444 182.033 43.3695 182.247 44.2305C182.079 44.4885 181.912 44.7491 181.744 45.0071C181.852 45.2081 181.959 45.4131 182.066 45.6141C181.822 45.4935 181.584 45.3861 181.335 45.2588C181.859 43.8082 181.265 43.4756 181.307 42.1489ZM174.82 5.45322C174.559 4.92241 176.659 4.60674 174.593 4.52187C174.985 4.17313 175.615 3.9902 176.824 3.95915C177.019 4.09253 177.212 4.22493 177.406 4.3583C177.433 4.0014 177.744 3.86875 178.424 3.61432C178.425 3.61473 178.425 3.61514 178.426 3.61554C180.264 3.58971 180.155 3.7087 180.597 4.29544C178.65 3.96427 178.592 4.50034 177.265 4.8191C176.354 5.03829 175.165 4.93902 174.82 5.45322ZM49.1678 61.768C47.7914 62.2161 49.0266 62.6341 46.5845 62.158C46.742 62.0442 46.9001 61.9313 47.0576 61.8175C47.761 61.7999 48.4644 61.7836 49.1678 61.768ZM168.027 3.63385C168.184 4.45553 169.48 5.09514 169.701 3.75836C168.438 3.48618 169.055 4.24338 168.027 3.63385ZM179.457 60.8385C180.087 60.8485 180.522 60.9181 180.805 61.024L180.828 61.0245L180.829 61C181.075 60.3435 181.517 60.5149 181.858 61L181.835 62.075L180.805 62.053C180.694 62.1311 180.566 62.2039 180.428 62.2679C180.274 62.0992 180.12 61.9302 179.97 61.7625C179.544 61.8391 179.119 61.9159 178.693 61.9914C178.948 61.6075 179.203 61.2225 179.457 60.8385ZM125.21 4.53652C127.066 3.94972 123.207 4.21017 124.503 3.8438C125.539 3.55095 126.903 4.14222 126.387 4.51272C126.028 4.52306 125.629 4.53031 125.214 4.53652C125.213 4.53652 125.211 4.53652 125.21 4.53652ZM135.951 4.36868C135.646 3.74172 136.085 3.92447 134.619 4.03728C134.2 4.06936 130.872 3.83389 132.269 4.35342C133.458 4.35342 134.715 4.36247 135.951 4.36868ZM151.384 61.7558C151.361 61.4828 153.924 60.8833 154.253 61.0332C154.253 61.0328 154.253 61.0324 154.253 61.032C155.14 61.4408 152.438 61.4989 153.61 62.0598C151.014 61.5662 150.237 62.7601 150.418 61.187C151.947 61.118 151.223 61.4423 151.384 61.7558ZM2.38332 14.7912C2.38332 14.79 2.38332 14.7888 2.38332 14.7876C2.37048 14.9597 1.96977 16.3776 1.83098 16.2052C1.94998 14.5001 2.21374 14.804 1.78032 13.2166C1.91992 13.1296 2.05532 13.055 2.19595 12.9613C2.27874 13.5911 2.44645 13.9403 2.38332 14.7912ZM36.2228 61.2236C36.8492 61.1522 37.9925 61.4481 38.7061 61.4305C36.4347 62.5669 33.7204 61.5072 36.2228 61.2236ZM40.765 4.09159C40.7668 4.09119 40.7685 4.09078 40.7704 4.09037C40.7698 4.09099 40.7691 4.09159 40.7686 4.0922C40.7674 4.092 40.7662 4.0918 40.765 4.09159ZM84.7697 61.9054C84.6889 61.8316 84.6433 61.7675 84.6269 61.7113C84.6269 61.706 84.6269 61.7007 84.6269 61.6954C84.6706 61.7645 84.7171 61.8343 84.7697 61.9054ZM146.058 61.8382C144.991 61.4574 148.547 60.8521 149.697 60.9966C149.616 61.1704 149.604 61.3279 149.416 61.5276C148.488 61.0775 146.236 61.9024 146.058 61.8382ZM181.503 14.6771C181.493 17.4879 179.989 13.8299 181.189 13.6791C181.212 13.6848 181.501 14.6045 181.503 14.6771ZM168.224 61.6808C168.94 61.2256 167.501 61.1047 169.802 61.1833C169.936 61.3012 170.07 61.4194 170.204 61.5373C169.544 61.5849 168.884 61.6332 168.224 61.6808ZM179.529 33.0904C179.783 36.628 180.23 40.0114 181.485 37.7071C181.445 37.4394 181.406 37.1679 181.366 36.9002C180.753 36.86 181.088 35.872 181.108 34.4258C180.865 34.2196 180.808 33.4176 180.602 33.2671C180.202 32.9761 179.922 33.8977 179.529 33.0904ZM59.5407 5.27867C59.5977 5.17414 59.6534 5.06907 59.7103 4.96557C60.2698 4.84759 60.8308 4.73018 61.3903 4.6122C61.2999 4.81279 61.2093 5.01338 61.1189 5.21397C60.5932 5.2357 60.07 5.25756 59.5443 5.27928C59.5431 5.27908 59.5419 5.27887 59.5407 5.27867ZM116.644 60.3576C116.323 61.5081 117.446 61.2962 119.724 60.7146C118.699 60.5956 117.669 60.4766 116.644 60.3576ZM152.048 5.80904C151.975 5.48218 151.902 5.15633 151.825 4.82947C150.616 5.16996 150.84 5.54428 151.42 5.97688C151.631 5.92105 151.837 5.86487 152.048 5.80904ZM134.628 5.94819C135.129 6.01638 134.873 5.75247 134.926 5.75777C136.196 5.89645 136.374 6.01751 137.932 5.8188C138.123 5.74948 138.311 5.67658 138.502 5.60519C137.781 4.92029 137.259 5.29358 135.735 4.89111C136.009 5.12604 136.283 5.36129 136.558 5.59726C135.71 5.54759 134.866 5.49861 134.019 5.44895C133.918 5.52139 133.818 5.59317 133.717 5.66561C134.019 5.75873 134.33 5.86336 134.628 5.94819ZM53.0709 4.98144C52.2468 4.95453 51.4189 4.92657 50.5947 4.89966C50.5646 5.06834 50.5356 5.23816 50.5055 5.40684C51.3595 5.26509 52.2168 5.12319 53.0709 4.98144ZM99.7232 60.8818C99.6579 60.9417 99.5942 61.0019 99.5375 61.0631C99.5431 60.9885 99.6145 60.9302 99.7232 60.8818ZM3.30856 12.6168C3.42653 11.6822 3.34907 10.3355 3.37387 9.31042C2.9507 9.39101 3.06767 11.9964 2.81115 12.9113C2.88708 13.0583 3.25892 13.0118 3.30856 12.6168ZM180.68 58.9876C180.469 58.7531 180.259 58.5189 180.048 58.2878C180.071 57.7216 180.095 57.1542 180.118 56.5846C179.945 56.5679 179.771 56.5514 179.598 56.5346C179.822 59.0435 179.324 58.465 178.832 59.7071C179.448 59.4659 180.064 59.2288 180.68 58.9876ZM26.8488 6.07758C28.6612 5.96064 29.3041 5.74221 28.2823 5.22374C27.6427 5.34272 26.9993 5.4618 26.3596 5.58078C26.5237 5.74632 26.688 5.91203 26.8488 6.07758ZM66.7153 60.4912C65.1986 60.685 65.1734 59.9891 63.691 60.3777C64.4848 60.506 65.2785 60.6358 66.069 60.7641C66.2826 60.6733 66.5017 60.582 66.7153 60.4912ZM141.101 58.5803C140.461 58.3383 139.265 59.4889 137.466 58.6395C137.037 58.893 136.768 59.1352 136.4 59.3835C136.185 59.1134 135.942 58.8398 135.738 58.5718C135.736 58.5718 135.735 58.5718 135.734 58.5718C134.102 58.6629 135.16 59.0016 135.123 59.2883C135.106 59.4071 133.895 59.2085 134.274 59.4671C134.927 59.9111 137.368 59.6558 137.375 60.1971C136.517 60.0202 134.842 60.168 135.338 60.5291C135.88 60.9254 137.459 60.2612 138.464 60.5901C137.023 59.725 139.998 59.9922 140.336 60.6566C142.082 60.1464 140.478 59.9383 138.689 59.9621C139.781 59.4529 138.173 59.728 137.908 59.3048C139.035 59.0493 142.899 59.2623 141.101 58.5803ZM179.323 18.3565C179.356 19.5629 179.065 21.4475 179.495 22.2734C179.745 22.7545 179.939 20.8654 180.332 22.1681C180.294 20.9927 180.14 20.7245 179.795 20.9255C179.754 20.6577 179.714 20.3864 179.673 20.1186C179.741 19.9947 179.807 19.8676 179.874 19.7437C179.732 19.603 179.592 19.4615 179.45 19.3241C179.478 19.0396 179.506 18.7517 179.535 18.4672C179.464 18.4338 179.402 18.3767 179.323 18.3565ZM23.167 60.5126C23.502 60.5085 23.8337 60.5043 24.1686 60.4992C24.1317 60.4153 24.0877 60.3279 24.0454 60.2416C24.015 60.1735 23.9847 60.1053 23.9543 60.0372C24.1485 60.2807 25.7441 60.6854 26.4162 60.4253C26.7542 60.2949 25.9852 59.8318 27.4178 59.7509C26.3795 59.7747 25.4177 59.8379 24.4096 59.8773C24.5 59.7396 24.5869 59.6005 24.6774 59.4628C24.6768 59.4626 24.6762 59.4624 24.6756 59.4622C24.3407 59.4312 24.0018 59.3987 23.6669 59.3676C23.4994 59.7495 23.3345 60.1307 23.167 60.5126ZM153.03 6.45537C154.173 6.18525 154.555 6.04498 154.016 5.60824C154.015 5.60804 154.013 5.60784 154.012 5.60763C153.587 5.80113 153.161 5.99455 152.736 6.18805C152.833 6.27705 152.93 6.36636 153.03 6.45537ZM89.8828 59.4403C87.454 61.0992 92.9237 60.0822 91.8823 59.5172C91.8354 59.4913 90.1106 59.6234 89.8828 59.4403ZM179.011 60.3283C179.608 60.3162 180.205 60.3052 180.805 60.2934L180.098 61C180.097 60.9297 180.095 60.8593 180.094 60.7889C180.002 60.8588 179.909 60.9294 179.817 61L180.805 60.0124C180.719 59.9011 180.634 59.7898 180.55 59.6783C180.037 59.8946 179.523 60.112 179.011 60.3283ZM34.7397 6.83072C35.4414 7.28609 37.2426 7.45107 38.1228 6.95583C37.6605 6.89788 37.198 6.83985 36.7356 6.78189C37.6097 6.72499 38.4739 6.66236 39.3546 6.60856C39.4016 5.97415 38.3865 6.3422 36.8588 6.1673C36.6223 6.13909 35.1101 5.35161 34.5879 5.94514C34.4829 6.06713 36.0915 6.15008 34.9736 6.5048C35.4624 6.53272 35.8844 6.52653 36.3464 6.54203C36.3799 6.69313 36.4132 6.8444 36.45 6.9955C35.8786 6.94079 35.311 6.88542 34.7397 6.83072ZM179.373 25.3798C179.338 27.0368 179.591 27.2414 180.039 27.5864C179.988 26.8159 179.938 26.045 179.888 25.2745C179.716 25.3112 179.545 25.3431 179.373 25.3798ZM49.5503 6.97597C50.4575 7.04925 50.069 6.6846 50.434 6.61527C51.8142 6.35452 52.7555 6.61513 54.1189 6.45171C54.0284 6.52208 53.9453 6.58786 53.8582 6.65616C53.8594 6.65616 53.8606 6.65616 53.8618 6.65616C60.3173 6.9635 56.9265 6.13651 53.0638 6.27105C52.9733 6.13548 52.8864 5.99973 52.796 5.86519C51.0674 6.10217 49.4733 6.33021 49.5503 6.97597ZM111.461 59.3835C111.388 59.2986 112.014 58.7593 110.838 59.0118C109.907 59.7992 111.434 59.4084 111.817 59.7112C111.498 59.7868 111.173 59.8603 110.858 59.9358C112.761 60.1584 113.039 59.9711 112.345 59.3957C112.296 59.357 111.535 59.4681 111.461 59.3835ZM98.9555 58.9953C98.6942 60.1555 101.096 59.6338 101.009 59.2736C100.677 59.2593 100.419 59.4557 100.068 59.3689C99.7127 59.2819 99.6219 59.0109 98.9555 58.9953ZM167.758 59.2791C167.688 59.274 166.981 58.7864 167.051 59.1681C167.926 60.0716 169.688 59.49 169.379 59.1754C168.797 59.1909 168.408 59.3265 167.758 59.2779C167.758 59.2783 167.758 59.2787 167.758 59.2791ZM23.8102 7.10414C23.8437 7.13651 25.6072 7.33249 25.8347 7.15052C26.0223 6.94565 26.1154 6.72607 26.2561 6.51396C25.2845 6.71059 23.318 6.5608 23.8138 7.10414C23.8126 7.10414 23.8114 7.10414 23.8102 7.10414Z" fill="black"/>
</svg>
