<svg width="452" height="158" viewBox="0 0 452 158" fill="none" xmlns="http://www.w3.org/2000/svg">
<rect x="3.93043" y="3.93043" width="444.139" height="149.357" rx="12.0696" fill="#F8F4EB"/>
<rect x="3.93043" y="3.93043" width="444.139" height="149.357" rx="12.0696" stroke="#5884E7" stroke-width="7.86087"/>
<path d="M290.849 102.367V60.9671H302.603L311.222 90.2992L319.841 60.9671H331.42V102.367H322.888V75.7169L314.791 102.367H307.478L299.381 75.7169V102.367H290.849Z" fill="#5884E7"/>
<path d="M265.085 101.698C249.936 101.698 243.755 92.0604 243.755 80.3276C243.755 67.6729 251.068 58.957 262.734 58.957C274.226 58.957 280.408 67.0862 280.408 79.1543C280.408 80.7466 280.321 82.0875 280.233 83.4284H253.245C253.767 89.5462 257.946 93.4013 265.085 93.4013C269.96 93.4013 273.704 92.3957 277.36 90.4681V99.4354C275.271 100.273 270.831 101.698 265.085 101.698ZM253.332 76.0535H271.266C270.918 69.9356 267.784 66.6672 262.734 66.6672C257.336 66.6672 254.115 70.0194 253.332 76.0535Z" fill="#5884E7"/>
<path d="M210.085 121.844L196.062 61.1643H205.486L206.236 63.6937C209.022 61.6824 210.36 60.6266 215.28 60.6266C223.003 60.6266 233.786 64.7389 234.499 80.662C234.499 94.071 225.837 102.9 214.954 102.9L219.661 121.844H210.085ZM213.583 94.3515C221.24 95.6795 226.494 88.5741 225.448 79.4675C223.707 64.2986 211.041 68.1844 208.359 70.8858L213.583 94.3515Z" fill="#5884E7"/>
<path d="M153.484 101.699V60.2992H170.983C182.04 60.2992 187.525 64.4057 187.525 72.1997C187.525 75.4681 185.871 78.7366 182.388 80.5803C186.741 82.424 188.569 85.7763 188.569 89.4637C188.569 97.8443 182.475 101.699 170.983 101.699H153.484ZM170.896 94.2407C176.294 94.2407 178.993 92.9836 178.993 89.2961C178.993 85.6925 176.294 84.4354 170.896 84.4354H162.8V94.2407H170.896ZM170.896 77.1443C175.684 77.1443 177.948 75.971 177.948 72.4511C177.948 68.9313 175.684 67.8418 170.896 67.8418H162.8V77.1443H170.896Z" fill="#5884E7"/>
<path d="M124.487 102.366C112.995 102.366 105.247 93.7339 105.247 80.9954C105.247 68.2569 112.995 59.6249 124.487 59.6249C135.979 59.6249 143.728 68.2569 143.728 80.9954C143.728 93.7339 135.979 102.366 124.487 102.366ZM124.487 93.9853C130.843 93.9853 134.151 88.3703 134.151 80.9954C134.151 73.6205 130.843 68.0893 124.487 68.0893C118.132 68.0893 114.824 73.6205 114.824 80.9954C114.824 88.3703 118.132 93.9853 124.487 93.9853Z" fill="#5884E7"/>
<path d="M72.0021 102.222V84.8028H87.4225L91.9874 75.3608V60.895L62.8906 60.9661V102.222H72.0021ZM72.0021 68.3005H82.9026V77.4685H72.0021V68.3005Z" fill="#5884E7"/>
<path d="M68.0013 102.131C71.5295 102.243 76.3995 102.518 80.9601 102.257C85.3763 102.005 90.4705 101.225 94.0435 98.5748C97.8951 95.7182 99.4152 90.9261 98.4902 86.6655C97.5124 82.1622 93.8512 78.3217 87.8482 77.4071L86.6577 84.651C89.5397 85.0902 90.4278 86.7308 90.7573 88.2483C91.1394 90.0085 90.535 91.7918 89.2036 92.7792C87.5936 93.9731 84.755 94.6928 80.5081 94.9354C76.4056 95.1697 72.0706 94.921 68.2506 94.8002L68.0013 102.131Z" fill="#5884E7"/>
<path d="M372.194 102.258V84.8385L351.574 84.8421L347.359 78.4479V61.1811L381.256 61.0018V102.258H372.194ZM372.194 68.3362L356.351 68.4303V77.5982L372.194 77.5041V68.3362Z" fill="#5884E7"/>
<path d="M344.182 102.367C344.182 102.367 344.175 91.1168 345.1 86.8561C346.078 82.3528 350.422 78.5124 356.425 77.5977L357.798 84.841C355.581 84.9319 354.058 87.152 353.729 88.6695C353.347 90.4297 353.263 102.367 353.263 102.367H344.182Z" fill="#5884E7"/>
</svg>
