<svg width="299" height="321" viewBox="0 0 299 321" fill="none" xmlns="http://www.w3.org/2000/svg">
<path d="M219.951 320.219L193.403 154.898L285.84 116.165L183.838 95.3325L170.17 10.2188L128.89 84.1103L8.83984 59.5917L87.9958 157.313L57.5431 211.825L113.245 188.485L219.951 320.219Z" fill="#5884E7"/>
<path d="M149.361 226.663C151.717 228.856 144.791 220.775 149.761 225.841C148.869 224.667 147.973 223.486 147.081 222.313C146.652 222.179 146.218 222.039 145.789 221.905C146.977 223.489 148.165 225.073 149.36 226.664C149.36 226.664 149.36 226.664 149.361 226.663ZM148.634 230.729C148.045 228.872 144.567 224.277 148.994 228.699C149.115 229.237 149.245 229.784 149.366 230.322C150.873 231.882 152.389 233.452 153.895 235.012C154.312 235.674 154.728 236.336 155.145 236.998C156.098 237.499 157.045 237.994 157.999 238.495C157.397 237.851 156.788 237.199 156.187 236.555C154.268 233.64 152.396 231.179 149.479 227.475C149.817 227.734 150.156 227.993 150.494 228.252C148.855 226.5 147.217 224.749 145.585 223.005C146.757 224.719 148.068 226.634 149.154 228.223C146.706 226.257 143.586 221.817 141.92 219.54C139.653 216.44 139.953 217.313 138.263 215.017C137.994 214.651 138.154 214.455 137.592 213.754C134.753 210.219 129.109 203.459 131.9 207.825C136.655 213.576 140.3 218.814 145.039 224.396C143.301 223.312 145.551 226.452 148.634 230.729ZM64.0056 122.867C65.1765 124.829 68.1772 128.325 70.3163 130.608C70.3185 130.61 70.3208 130.613 70.3231 130.616C70.7939 131.118 72.1081 132.055 70.6835 130.324C68.3599 127.503 66.7196 126.558 65.8708 124.777C65.2639 124.164 64.6372 123.512 64.0056 122.867ZM59.038 116.67C57.4976 115.033 57.7396 116.146 59.614 118.24C59.6137 118.24 59.6133 118.24 59.613 118.24C60.3953 119.114 59.2625 117.073 61.5872 120.595C62.3756 121.061 63.1333 121.534 63.9073 121.998C63.2639 121.196 62.68 120.462 62.0041 119.621C62.0528 120.515 60.577 118.308 59.038 116.67ZM129.741 204.699C129.886 204.128 130.813 205.277 132.65 207.023C131.145 205.19 129.638 203.356 128.139 201.53C128.675 202.59 129.205 203.639 129.741 204.699ZM164.882 247.966C164.884 247.969 164.887 247.972 164.889 247.975C165.32 248.626 165.753 249.278 166.179 249.921C166.602 250.176 167.022 250.427 167.445 250.682C169.051 252.916 170.666 255.161 172.271 257.395C172.461 256.812 169.293 253.034 167.863 250.696C165.201 247.656 163.743 246.332 163.239 246.403C163.784 246.922 164.33 247.439 164.882 247.966ZM162.741 167.061C161.839 167.284 160.947 167.503 160.044 167.726C161.146 167.194 162.244 166.68 163.35 166.135C166.561 165.463 166.628 164.839 170.534 163.244C182.509 158.354 179.717 160.569 189.945 154.752C181.321 158.439 184.389 156.434 178.976 158.147C178.046 158.959 183.553 157.603 180.122 159.238C173.929 161.387 167.978 163.464 161.181 166.024C161.35 165.88 161.519 165.736 161.688 165.592C162.766 165.187 163.835 164.785 164.914 164.379C163.698 164.693 162.51 164.998 161.275 165.317C162.905 165.078 159.066 166.438 159.75 166.661C160.054 166.76 161.823 166.334 162.878 166.108C160.397 167.266 157.848 168.442 155.337 169.608C156.723 169.208 158.109 168.808 159.486 168.412C160.567 167.964 161.64 167.519 162.722 167.071C162.728 167.068 162.735 167.064 162.741 167.061ZM206.024 251.181C205.954 247.674 205.032 241.429 203.971 238.235C204.656 242.553 205.339 246.863 206.024 251.181ZM162.793 246.425C163.105 246.678 163.408 246.923 163.72 247.176C162.746 245.731 161.765 244.278 160.791 242.832C160.396 242.724 159.995 242.609 159.594 242.492C160.658 243.8 161.729 245.117 162.793 246.425ZM93.0749 159.932C93.8632 160.928 93.9402 161.01 94.9624 162.218C94.9611 162.217 94.9598 162.216 94.9586 162.215C95.3632 162.694 98.7744 166.683 98.5491 166.113C96.9118 164.087 95.1603 161.929 93.4824 159.858C93.3376 159.871 93.2332 159.933 93.0749 159.932ZM112.46 183.693C112.463 183.695 112.465 183.698 112.468 183.7C113.086 184.42 113.696 185.082 114.32 185.836C112.327 182.916 111.573 182.81 109.673 180.231C107.774 177.651 106.751 175.934 104.489 174.271C105.042 175.123 105.608 176.064 106.166 176.95C109.247 180.302 109.809 181.421 111.885 184.429C112.076 184.183 112.268 183.939 112.46 183.693ZM215.296 143.478C216.233 143.467 216.992 142.775 217.084 142.732C217.082 142.732 217.08 142.733 217.078 142.733C224.298 140.061 216.08 142.94 222.753 140.084C221.723 140.421 220.708 140.746 219.686 141.077C218.225 141.873 216.725 142.71 215.296 143.478ZM114.661 83.3516C114.571 83.4378 114.468 83.5215 114.378 83.6077C118.656 84.4573 119.665 85.075 123.29 85.4405C120.414 84.7431 117.538 84.0467 114.661 83.3504C114.661 83.3508 114.661 83.3512 114.661 83.3516ZM78.6572 143.316C81.5496 147.198 83.7345 150.032 86.8994 153.446C86.9019 153.449 86.9045 153.451 86.9071 153.454C87.0905 153.65 86.4418 152.508 86.7037 152.746C87.2821 153.511 87.8666 154.311 88.4465 155.087C88.6624 155.081 88.8745 155.071 89.0896 155.065C87.336 152.977 85.5815 150.889 83.8215 148.793C84.1537 149.044 84.4914 149.303 84.8237 149.553C83.4023 147.716 81.9863 145.886 80.5649 144.049C80.8546 144.854 81.1429 145.657 81.4254 146.455C80.5029 145.409 79.5806 144.361 78.6572 143.316ZM186.036 96.7846C185.262 96.7406 186.616 97.2086 185.43 97.0644C184.243 96.9191 182.133 96.2752 182.574 96.6874C184.137 97.05 185.778 97.4347 187.371 97.8054C182.103 97.3102 177.064 95.7556 176.844 96.4278C181.827 97.2597 185.877 98.1732 190.627 99.3418C190.54 98.7549 185.847 97.3042 188.968 97.4071C188 97.2021 186.985 96.9838 186.046 96.788C186.043 96.7869 186.039 96.7857 186.036 96.7846ZM201.834 305.735C203.748 308.03 207.882 313.495 210.511 316.225C211.158 316.897 213.913 318.649 214.009 318.551C214.31 318.19 211.979 315.213 214.761 318.171C213.906 317.11 213.087 316.072 212.243 315.017C212.636 315.01 213.027 315.003 213.413 314.989C214.413 316.298 215.414 317.608 216.413 318.917C216.543 318.915 216.674 318.913 216.804 318.911C213.081 314.312 215.587 316.777 213.941 314.16C215.865 316.239 217.802 318.335 219.719 320.407C218.679 319.158 217.458 317.678 216.535 316.581C216.822 316.102 218.878 318.839 219.322 319.233C221.827 321.453 211.031 308.565 210.759 307.016C212.515 309.049 214.353 311.186 216.146 313.267C215.724 312.596 215.295 311.917 214.872 311.245C210.542 306.736 206 301.426 201.176 295.991C200.78 295.468 200.384 294.943 199.994 294.429C200.299 294.429 200.596 294.421 200.901 294.421C200.3 293.634 199.691 292.838 199.09 292.052C200.32 294.81 197.785 291.664 194.345 288.174C195.765 290.363 197.909 292.745 197.373 292.895C192.074 285.728 185.078 277.974 179.97 270.963C178.702 269.223 179.218 268.814 175.989 264.923C176.04 265.102 175.957 265.207 175.953 265.353C170.694 258.36 167.502 254.118 161.532 247.259C162.046 247.518 162.556 247.77 163.07 248.028C164.192 249.601 165.315 251.178 166.431 252.743C167.561 253.516 166.474 251.901 170.094 256.375C173.059 260.041 171.158 257.969 171.875 259.038C172.845 260.487 174.046 261.475 175.084 263.038C175.888 264.245 174.654 263.235 177.088 266.11C176.46 264.67 175.823 263.197 175.192 261.746C174.54 261.091 173.892 260.443 173.24 259.789C173.738 260.581 174.227 261.36 174.724 262.152C172.821 259.484 171.023 256.963 169.056 254.204C169.279 255.439 167.254 252.58 166.115 251.06C164.34 248.692 165.612 250.922 164.445 249.372C163.28 247.822 162.325 245.904 160.043 243.244C161.015 244.873 159.22 243.04 159.338 243.58C159.456 244.12 161.746 247.035 159.295 244.439C155.146 238.989 160.556 244.167 157.765 240.477C154.413 236.046 152.383 235.99 153.168 237.484C153.785 238.661 156.647 242.111 157.271 243.294C151.854 237.352 152.529 236.715 151.806 235.534C149.179 231.243 149.92 234.954 146.697 229.964C146.511 230.257 146.338 230.513 146.163 230.798C145.568 229.968 145.204 229.392 144.466 228.406C147.249 230.824 145.357 228.531 144.398 227.346C142.887 225.477 145.466 228.164 145.129 227.619C144.216 226.149 142.431 224.102 143.699 225.218C143.127 224.72 142.514 224.174 141.93 223.66C140.29 221.375 137.204 215.383 140.941 220.438C140.969 219.661 139.5 218.237 138.442 217.054C137.384 215.871 137.655 215.69 136.731 214.645C133.056 210.489 134.906 213.656 135.12 214.613C130.746 208.736 135.411 214.18 128.928 205.856C128.561 204.84 131.924 208.39 129.528 205.107C128.578 204.914 126.353 202.87 122.527 198.473C122.281 197.944 122.038 197.416 121.792 196.887C119.348 194.774 119.911 196.41 116.754 191.391C117.734 194.664 117.012 192.453 113.284 188.69C112.527 187.925 113.874 190.017 112.828 188.942C112.353 188.454 111.476 187.048 110.313 185.861C109.744 185.283 106.978 182.663 105.517 180.481C107.213 181.576 104.502 177.378 107.588 180.361C102.531 174.322 99.2963 169.849 104.185 177.246C102.778 175.813 101.371 174.377 99.9657 172.943C99.2052 171.765 98.4363 170.58 97.6687 169.395C97.1335 169.556 97.1547 169.813 93.7702 165.49C95.1746 167.418 96.5711 169.339 97.981 171.275C97.9506 171.403 98.0758 171.73 97.9467 171.732C96.2571 169.331 91.1314 162.867 89.9801 161.227C88.8286 159.587 91.2881 162.563 91.0295 162.032C88.8667 157.613 88.4751 158.419 86.456 155.626C85.2718 153.987 88.4011 157.657 87.758 156.788C85.3721 153.565 83.7478 152.489 81.5061 149.734C82.5584 150.505 83.6084 151.266 84.644 152.012C82.2851 149.127 79.6685 145.902 77.5714 143.143C76.748 142.061 77.5866 142.704 77.4597 142.521C76.8323 141.611 74.1152 138.043 73.8173 137.674C71.5703 134.897 71.2402 135.033 69.0407 132.347C69.8759 133.424 70.6622 134.436 71.4791 135.489C71.4294 136.309 71.3874 137.138 71.3369 137.959C69.1641 135.341 66.991 132.721 64.8118 130.094C66.5253 131.916 68.2439 133.744 69.9574 135.565C67.8524 132.255 65.7482 128.944 63.644 125.632C62.1527 124.228 60.6665 122.831 59.1752 121.427C55.7625 117.099 57.3294 117.258 54.9229 115.842C53.9644 114.527 53.0057 113.212 52.0464 111.898C52.084 112.167 52.12 112.433 52.1575 112.702C50.9913 111.125 49.8251 109.55 48.6597 107.973C50.3404 109.262 52.0157 110.503 53.6725 111.786C51.3297 108.723 50.957 108.93 50.5138 108.549C49.3386 107.539 47.7243 104.951 46.7622 104.171C46.436 103.909 48.5991 107.018 47.5321 106.207C47.324 106.048 43.2304 102.855 41.4093 100.177C41.6123 100.091 41.9714 100.121 42.2333 100.077C39.6016 96.6236 37.3479 95.6008 37.4689 96.2433C36.1823 94.3097 34.0693 91.6722 34.0343 91.0897C33.2971 90.1665 32.5653 89.2506 31.8281 88.3273C31.9605 89.8042 28.9766 85.8802 29.3257 85.1817C30.6168 86.7477 31.9102 88.315 33.2013 89.881C32.9124 88.1399 37.2031 92.6013 28.4984 83.1374C26.6017 81.516 31.2916 86.4876 29.7694 85.1477C27.4298 82.5732 25.506 79.9355 23.1826 77.5687C20.2904 74.6245 23.1772 78.7909 17.5425 71.0372C31.8089 86.652 16.3799 68.2524 10.4416 60.3015C10.0477 60.105 9.59119 59.8023 9.077 59.3997L8.77878 59.8908C12.5694 59.7992 20.0043 61.0727 29.5793 63.35C28.333 63.4482 24.814 62.5477 22.7432 62.241C20.6729 61.9343 22.8473 62.5877 20.2642 62.2249C17.6803 61.8619 12.2166 60.97 9.58459 60.6816C11.7332 61.3201 22.4398 63.9788 15.4107 61.9762C20.8097 62.7293 23.3833 62.8957 30.0025 64.182C31.8732 65.1144 31.6596 65.4134 38.0961 66.7439C34.4374 65.2319 41.8592 66.2163 40.403 65.1289C35.8002 64.3728 38.2022 65.6312 35.4892 65.4446C35.2111 65.4246 30.994 64.3708 30.0025 64.182C34.4314 64.3968 35.9664 64.4536 33.4858 63.1262C36.509 63.8155 38.4184 64.1024 38.6186 64.5352C39.2849 64.5012 39.9548 64.4679 40.6112 64.432C41.5988 64.6379 42.4856 64.8348 43.5339 65.0457C41.975 65.3185 44.8435 65.5404 46.7793 66.2037C48.7152 66.8674 45.9558 66.7705 51.4156 67.8919C49.5682 67.653 47.8806 67.427 46.0939 67.1931C49.5856 68.0583 53.0882 68.9267 56.5799 69.792C54.0358 69.6336 48.5707 69.0539 48.6241 69.54C50.2813 69.6991 55.7761 71.1366 56.3817 71.2733C58.7268 71.8008 57.5023 71.251 57.6818 71.2803C61.4095 71.896 64.4363 72.6162 65.9299 72.4671C68.6694 73.2315 70.7887 73.5475 73.734 74.1607C75.3552 74.4981 74.9743 74.7539 75.9362 74.887C82.3305 75.7705 76.402 74.1286 88.4162 77.4029C86.8967 77.3249 85.3959 77.2561 83.876 77.1801C85.2339 77.5451 86.5838 77.909 87.9417 78.274C88.8701 78.4213 89.7903 78.5667 90.7186 78.714C90.7976 78.2264 90.8729 77.7369 90.9519 77.2492C91.9664 77.429 92.9848 77.6103 93.9993 77.79C92.2776 77.3887 90.5519 76.9867 88.8303 76.5854C88.6895 76.468 88.5592 76.3527 88.4185 76.2354C91.0177 76.6289 93.608 77.0194 96.2074 77.4119C96.2224 77.5902 96.2366 77.7696 96.2516 77.9479C102.097 78.8977 102.264 78.7835 107.679 80.3722C111.925 81.2339 115.237 82.6432 117.63 83.4404C118.53 83.5259 119.431 83.6104 120.34 83.698C120.875 83.9531 121.417 84.2087 121.952 84.4639C123.11 84.4975 124.283 84.5342 125.44 84.5689C125.973 85.138 126.267 85.3418 121.874 84.606C123.255 85.4607 130.984 86.7867 134.148 87.2406C136.548 87.585 134.01 86.5892 134.319 86.594C135.348 86.6068 139.223 87.5686 140.05 87.7048C143.549 88.2832 145.978 88.803 149.135 89.3421C149.749 89.4465 151.515 89.5046 151.662 89.525C152.8 89.7057 155.613 90.133 155.93 90.1936C172.304 93.312 154.598 91.0086 169.81 93.9771C169.321 94.0504 168.869 94.1301 168.39 94.2054C169.535 94.4498 170.692 94.6962 171.837 94.9406C173.32 95.0987 171.612 94.4867 174.459 95.2804C174.313 95.0372 174.166 94.7937 174.009 94.5495C175.243 94.9166 176.432 95.2736 177.695 95.6468C179.859 95.3482 187.259 96.6915 186.906 95.7502C186.786 95.4299 181.622 94.0717 184.444 94.3323C186.699 94.7307 185.112 94.7597 186.023 94.9644C192.607 96.4378 192.32 95.8841 194.995 96.5624C195.378 96.853 195.783 97.152 196.176 97.4466C197.207 97.5948 198.24 97.7436 199.281 97.8938C199.49 98.0792 199.71 98.2668 199.919 98.4521C198.958 98.2653 197.875 98.0538 196.993 97.8831C198.113 98.6641 209.339 101.205 205.132 99.8749C203.418 99.3338 200.196 98.7568 202.35 98.5443C205.349 99.2507 208.753 100.042 211.91 100.781C212.037 100.666 212.157 100.55 212.283 100.435C216.545 101.397 212.543 101.141 212.491 101.432C213.469 101.64 214.456 101.849 215.434 102.057C215.875 102.011 216.298 101.955 216.758 101.917C216.756 102.133 217.205 102.728 220.16 103.145C222.06 103.411 219.212 102.283 222.775 103.086C222.441 103.356 221.068 103.487 225.032 104.406C225.496 104.148 226.107 103.949 226.486 103.656C231.375 104.994 233.737 104.931 239.476 106.497C243.118 107.49 247.999 109.372 250.651 108.55C253.357 109.067 252.434 109.218 253.217 109.455C256.916 110.571 259.846 110.523 260.556 110.63C265.084 111.311 267.048 111.936 270.758 112.389C270.511 112.59 270.356 112.798 270.149 113.002C266.88 111.956 265.183 111.627 260.477 110.747C262.04 111.117 263.603 111.488 265.166 111.858C264.868 112.002 264.573 112.147 264.286 112.292C249.941 108.555 253.074 110.47 265.178 113.221C266.301 113.071 267.462 112.93 268.575 112.777C275.178 114.675 278.579 114.939 285.818 116.273L285.797 116.063C285.483 116.202 285.161 116.343 284.83 116.487C283.946 116.872 280.625 118.032 279.229 118.605C279.252 118.594 279.274 118.583 279.297 118.572C278.296 118.611 279.406 117.971 279.425 117.623C278.655 117.903 277.886 118.183 277.116 118.463C275.524 119.389 276.192 119.322 272.855 120.658C273.21 120.252 273.559 119.847 273.914 119.44C270.279 120.955 268.002 122.189 264.578 123.503C265.181 123.348 265.777 123.196 266.38 123.041C259.112 126.336 265.508 125.173 259.679 126.86C259.372 127.121 259.075 127.379 258.768 127.64C261.071 126.708 263.374 125.774 265.666 124.846C265.78 124.986 265.896 125.123 266 125.267C263.531 126.246 261.049 127.228 258.58 128.206C260.413 127.564 262.256 126.918 264.089 126.275C261.281 127.542 258.472 128.808 255.664 130.075C258.435 128.225 254.494 129.792 254.987 128.903C250.16 131.494 246.477 133.786 238.511 136.644C236.931 137.211 237.601 136.453 233.422 138.785C234.213 137.695 228.592 139.694 229.041 138.785C230.58 138.175 232.171 137.53 233.666 136.946C232.07 137.865 232.036 138.567 234.669 137.668C238.031 136.52 242.628 134.117 242.706 134.848C243.996 134.271 245.201 133.746 246.456 133.189C245.867 133.246 245.289 133.298 244.71 133.351C248.418 132.095 250.647 131.064 252.209 129.932C247.877 131.637 243.555 133.339 239.224 135.045C239.844 134.753 240.474 134.456 241.095 134.165C237.671 135.111 240.858 133.313 234.759 135.765C234.875 135.939 234.985 136.117 235.102 136.292C232.682 136.709 226.64 139.244 228.323 137.852C226.573 138.796 226.248 139.066 225.083 139.184C220.454 141.645 217.597 143.502 219.591 143.454C217.759 144.095 215.925 144.737 214.101 145.374C215.058 144.758 216.016 144.142 216.973 143.526C213.867 144.84 210.739 146.165 207.642 147.475C207.571 148.141 213.698 145.13 212.087 146.375C211.765 146.624 210.004 147.117 209.587 147.356C205.198 149.892 212.299 146.413 211.122 147.44C204.271 150.476 210.119 148.92 200.333 152.269C200.148 152.53 199.944 152.803 199.777 153.056C196.477 154.45 196.597 153.984 193.729 155.108C191.933 155.811 189.961 157.367 187.819 157.768C187.436 157.837 190.423 155.693 183.492 158.636C178.114 160.921 180.582 160.517 177.748 161.927C174.913 163.339 167.933 165.39 166.321 167.056C167.801 166.304 169.721 165.429 171.377 164.628C172.135 164.503 172.874 164.384 173.622 164.263C169.659 165.674 165.759 167.602 162.987 168.303C158.069 171.067 152.056 172.934 153.338 171.603C155.08 170.987 153.352 172.057 155.637 170.88C155.813 170.621 156.002 170.357 156.178 170.098C152.163 171.803 149.367 172.969 151.403 172.681C150.784 172.954 150.171 173.224 149.551 173.497C149.294 173.196 149.049 172.889 148.792 172.588C148.03 172.861 147.266 173.136 146.504 173.409C145.708 173.833 144.91 174.258 144.105 174.686C145.462 174.764 147.389 173.977 141.166 176.946C141.068 176.764 140.962 176.586 140.863 176.404C135.647 178.874 135.7 179.393 129.016 182.173C134.414 180.686 136.727 178.343 137.263 179.674C138.512 179.048 139.77 178.417 141.019 177.792C141.295 177.902 141.569 178.013 141.836 178.127C134.893 180.917 122.902 184.458 118.633 187.23C118.031 187.362 117.434 187.509 116.82 187.637C112.505 190.038 110.076 189.724 105.758 192.3C105.313 192.567 106.75 193.217 100.758 195.683C100.849 195.482 100.829 195.217 100.876 194.992C99.6179 195.619 98.368 196.247 97.1196 196.872C96.8333 196.842 96.5355 196.816 96.2488 196.785C98.4352 195.811 100.615 194.838 102.801 193.863C100.949 194.588 99.0849 195.317 97.2326 196.042C99.5378 194.83 100.616 194.376 99.0336 194.645C96.9484 195.496 94.8599 196.346 92.7747 197.196C92.5248 197.2 92.2761 197.202 92.0262 197.206C92.9247 196.529 93.8358 195.853 94.7327 195.172C89.4098 197.648 84.7105 199.63 80.7679 201.874C80.0957 202.255 82.7384 201.54 77.7899 203.26C77.7893 203.467 77.7198 203.665 77.7044 203.863C71.5928 205.843 69.715 206.803 63.7087 209.74C67.5551 207.736 64.0894 209.443 62.9995 209.69C62.2524 209.859 64.9748 208.739 64.6138 208.739C64.2529 208.74 60.5089 209.702 63.4989 208.376C71.3369 206.336 72.821 204.226 82.5334 200.755C81.0141 201.231 79.4841 201.711 77.9647 202.187C78.6145 201.806 79.1959 201.464 79.8992 201.054C74.688 203.481 77.2084 202.267 74.963 203.016C72.7154 203.765 68.6967 205.286 66.0237 206.354C65.1817 206.69 66.1631 206.558 64.2854 207.371C63.0068 207.924 59.3472 209.044 58.7102 209.799C58.3115 210.269 63.7226 208.813 57.4175 211.525L57.8271 211.984C57.9824 211.699 58.1525 211.392 58.3385 211.059C58.6438 210.17 58.1311 211.007 57.6333 211.876L57.5033 211.73C58.1731 211.458 58.8474 211.167 58.8867 211.167C59.2204 211.179 58.6235 211.566 57.6436 212.065L56.9468 212.354L57.3162 211.698C57.9803 210.27 59.1211 208.174 59.9455 207.014C60.0601 206.855 59.3668 208.641 60.4644 206.89C63.0706 202.737 64.1835 200.119 65.3693 197.149C65.9596 197.086 68.4745 193.77 70.8199 189.205C71.0688 189.043 71.3129 188.893 71.5627 188.732C71.1103 189.392 70.6588 190.051 70.2063 190.711C69.8587 191.512 69.4652 192.346 69.141 193.136C71.7608 188.691 72.6994 188.379 74.119 186.339C78.9758 179.356 74.933 182.974 73.9229 184.158C73.4936 185.179 73.0946 186.175 72.6757 187.191C72.5875 187.002 72.499 186.812 72.405 186.633C78.5896 175.572 72.3902 184.414 75.2534 178.646C76.7855 177.605 79.1592 173.52 81.6342 168.009C81.9629 167.43 82.29 166.846 82.6195 166.267C82.7792 166.229 82.9399 166.321 83.0979 166.202C86.7567 159.941 86.2707 158.19 86.4998 157.532C87.5181 154.608 89.3248 152.897 89.7688 152.116C91.6379 148.823 91.8865 147.701 93.7681 144.624C95.7924 141.314 94.7206 143.752 95.4936 142.833C96.1122 142.094 97.6317 139.44 98.4107 138.428C98.0327 138.792 97.6299 139.206 97.2522 139.568C99.0301 135.959 100.455 132.994 102.636 128.985C106.122 125.034 106.614 120.291 107.081 122.587C105.065 126.411 104.038 128.605 103.25 130.814C104.677 128.362 106.104 125.907 107.531 123.454C107.788 122.65 107.932 122.057 108.26 121.119C109.605 119.442 111.869 115.077 112.901 113.443C117.736 105.793 116.902 108.529 120.035 100.83C117.048 105.972 116.62 105.722 113.804 110.903C114.116 109.62 115.641 107.04 114.325 108.525C117.198 103.596 116.63 105.391 118.006 103.617C119.193 102.087 121.088 98.7282 121.31 99.1021C121.322 98.6569 121.296 98.2929 121.307 97.8488C123.11 94.6241 124.912 91.3986 126.716 88.174C125.759 89.4435 124.802 90.7123 123.846 91.9823C124.356 90.9032 124.866 89.8228 125.375 88.7438C130.394 81.1383 136.961 66.8562 137.215 69.8658C139.399 66.0666 139.482 65.4847 140.364 63.2488C140.604 63.0823 140.822 62.9115 141.075 62.752C142.336 60.2188 143.815 58.5594 144.922 56.3214C146.029 54.0839 145.934 53.3216 146.779 53.3773C147.375 51.86 147.999 50.3691 148.604 48.8683C149.228 48.1074 149.85 47.3464 150.468 46.5938C151.128 45.2272 151.789 43.8579 152.448 42.4913C153.161 41.9627 155.928 36.6872 157.422 34.515C158.294 32.1475 157.179 31.603 160.232 26.593C160.427 26.875 160.622 27.1547 160.816 27.4367C161.415 26.2333 162.015 25.0274 162.619 23.8151C162.571 23.6958 162.517 23.5857 162.469 23.4664C162.161 24.0808 161.858 24.6871 161.551 25.302C161.694 24.6991 161.831 24.1073 161.968 23.5133C163.187 21.8467 164.408 20.1779 165.632 18.5025C164.444 21.0189 163.256 23.5364 162.068 26.0529C163.964 23.1216 164.95 20.8951 166.647 18.3732C167.562 15.8659 166.874 16.5961 165.95 17.3058C166.462 16.4703 166.978 15.624 167.49 14.7884C166.773 15.1277 167.341 13.5482 164.582 18.5632C164.659 18.1557 164.746 17.7441 164.813 17.3428C165.289 16.5332 165.489 15.9475 166.036 15.0733C167.526 12.6903 169.282 11.2059 169.436 11.5117C169.515 11.6745 167.917 13.9524 168.154 13.9579C168.735 13.9685 171.631 8.31346 167.614 16.5588C169.329 14.1379 169.489 13.3954 170.916 10.636L169.325 10.3544C169.343 10.4468 169.361 10.5414 169.379 10.6383C169.301 10.5524 169.224 10.4673 169.146 10.383L171.074 10.7241C171.089 10.9178 171.104 11.1094 171.12 11.3003C171.191 11.1566 171.262 11.0128 171.334 10.869L168.853 10.4302C169.144 11.7959 169.435 13.163 169.725 14.5284C170.248 12.256 172.39 23.5195 171.512 13.2115C172.034 16.2155 172.555 19.2092 173.077 22.2029C173.067 21.5706 173.056 20.9383 173.045 20.3061C172.781 18.9579 172.518 17.6179 172.254 16.2695C172.673 17.838 173.091 19.4096 173.509 20.9782C173.913 24.7789 173.841 26.3057 173.735 28.0919C172.752 23.7511 173.363 25.1228 172.89 21.6934C172.667 21.8517 172.42 21.7296 172.213 22.0691C172.998 23.7545 173.558 29.5731 173.748 30.9128C174.327 34.99 174.307 31.7231 174.754 34.4408C175.202 37.1609 175.424 40.418 176.27 42.5629C175.989 42.5669 175.678 42.4346 175.403 42.3151C175.993 46.5667 176.181 45.6695 176.293 46.1014C178.106 52.9894 178.134 56.8804 179.349 64.8973C179.101 63.8941 178.86 62.8792 178.615 61.8653C179.004 67.9982 178.528 63.9011 177.494 58.6882C178.342 63.5939 178.299 66.4882 178.709 69.9813C179.119 73.4739 180.329 79.3822 180.876 81.5246C180.396 76.4985 179.324 71.1666 178.525 65.6292C178.904 66.2124 179.238 66.7846 179.649 67.3833C179.603 70.8367 180.307 72.7204 180.562 73.8145C181.312 77.0273 180.793 77.0059 181.649 78.8827C181.45 78.8328 181.285 78.7995 181.098 78.7477C182.253 85.4445 183.744 92.6287 183.759 97.1058C184.269 97.4328 184.748 97.6647 185.277 98.05C185.397 100.945 186.132 103.323 186.438 105.728C186.742 108.123 186.235 107.274 186.546 110.097C186.604 110.62 187.003 111.663 187.041 112.966C187.081 114.282 186.599 119.234 187.778 119.627C188.169 122.029 188.574 124.296 188.97 126.646C188.663 124.343 188.354 122.04 188.049 119.747C188.626 121.659 189.201 123.558 189.778 125.47C189.583 125.757 189.384 126.045 189.19 126.322C189.75 131.632 190.747 135.39 191.51 140.718C191.637 141.608 190.836 139.589 191.587 143.507C192.337 147.426 193.674 150.209 194.416 156.971C194.453 157.313 194.108 159.406 194.954 161.735C195.146 162.265 194.931 159.939 195.269 161.172C195.608 162.406 196.62 167.993 197.017 168.38C196.892 168.338 196.716 168.008 196.571 167.857C196.67 168.823 196.77 169.798 196.871 170.774C197.089 170.831 197.308 170.895 197.524 170.952C197.935 176.531 197.62 179.499 199.185 187.612C198.521 185.367 197.857 183.121 197.195 180.885C197.301 180.224 197.409 179.561 197.517 178.91C196.831 175.165 196.144 171.41 195.457 167.665C195.594 167.009 195.732 166.364 195.869 165.708C195.678 164.716 195.49 163.734 195.299 162.742C195.169 163.019 195.039 163.298 194.91 163.584C194.635 161.604 194.361 159.621 194.087 157.651C193.722 161.81 195.966 168.801 195.04 168.419C195.313 169.285 195.587 170.152 195.862 171.017C195.516 171.472 195.923 173.257 196.498 176.425C196.179 175.73 195.852 174.958 195.541 174.322C196.322 177.367 197.174 182.854 197.798 186.037C198.071 187.435 198.142 185.983 198.244 186.396C198.77 188.51 198.911 192.69 199.09 193.541C200.156 198.626 201.67 201.798 201.923 207.495C200.836 201.748 201.408 204.878 200.72 202.881C200.504 202.257 199.072 194.837 200.676 204.158C200.864 205.251 204.262 222.086 203.887 216.433C204.161 219.201 204.315 221.379 204.542 223.919C206.896 229.841 205.27 227.922 204.276 226.251C204.435 227.258 204.582 228.217 204.748 229.254C205.137 226.932 206.986 238.15 207.223 242.018C207.303 243.314 206.492 239.784 206.854 242.753C207.131 244.15 207.455 245.733 207.751 247.209C206.936 245.131 207.433 249.386 206.945 249.404C207.805 252.037 209.04 253.958 209.291 252.395C209.452 254.659 209.614 256.936 209.774 259.2C209.494 258.182 209.213 257.15 208.933 256.131C210.405 263.381 211.228 272.874 212.478 274.238C212.626 275.206 212.777 276.184 212.925 277.153C212.803 277.479 212.68 277.795 212.558 278.122C213.408 282.474 214.257 286.816 215.107 291.168C214.586 287.255 214.679 286.289 213.827 282.234C214.275 283.777 214.728 285.35 215.171 286.863C215.634 293.099 215.424 293.993 217.067 303.229C217.142 303.647 218.706 310.574 218.787 310.806C219.159 311.871 219.177 310.161 219.355 310.633C219.85 311.945 221.871 320.072 221.951 319.895C222.919 317.674 218.485 289.951 217.347 282.443C205.548 204.569 192.414 128.666 180.162 51.3659C180.037 50.5712 180.283 50.8872 180.237 50.5472C179.947 48.4364 179.318 46.4186 179.181 45.6431C178.889 43.9857 179.31 44.8565 179.116 43.6426C177.257 32.0862 175.36 21.1514 173.533 9.67855L172.016 0.00174522L167.195 8.55714C166.711 9.42094 166.224 10.2875 165.734 11.1573C165.327 11.8786 165.934 11.2491 165.191 12.4994C164.806 13.1441 163.362 15.0289 162.531 16.5054C159.63 21.6623 157.302 26.0547 154.254 31.4998C152.587 34.4778 150.115 38.9619 148.249 42.2907C147.425 43.761 146.433 45.2177 145.616 46.6689C144.457 48.7281 144.969 48.4612 144.809 48.7882C144.106 50.2228 143.695 50.2462 142.963 51.5724C141.604 54.0399 141.732 54.2854 139.972 57.3962C138.714 59.6194 135.702 64.6344 134.084 67.4202C130.645 74.1275 125.923 82.362 122.418 88.4538C120.343 92.0596 120.438 92.5546 119.61 94.0351C116.69 99.2498 114.116 103.007 111.366 107.902C107.717 114.397 104.737 120.295 101.234 126.606C100.666 127.629 100.537 127.249 99.9702 128.248C97.8726 131.946 95.1741 136.665 93.3645 139.991C91.3471 143.698 90.965 145.268 88.8743 148.83C88.261 149.874 87.7573 149.999 86.7254 151.747C85.0781 154.539 83.6366 157.804 82.5661 159.796C81.0977 162.527 82.0756 159.985 80.082 163.66C80.0002 163.811 79.9359 164.492 79.4866 165.269C78.1786 167.534 78.1156 167.201 76.2673 170.552C76.0907 170.874 73.8454 175.432 73.6003 175.873C72.1562 178.467 69.3217 183.729 68.4159 185.236C65.1793 190.622 67.2287 186.103 65.4096 191.206C64.0701 193.152 62.7375 195.079 61.3345 197.151C62.3204 195.796 59.2785 201.832 59.0308 202.237C56.9852 205.591 57.8198 203.379 55.4429 207.753C57.7139 204.651 56.3239 207.056 54.4779 210.113L49.4895 218.967L58.9001 215.063C61.3129 214.147 64.1233 213.109 65.248 212.648C78.1566 207.347 89.7772 202.259 102.714 196.844C107.045 195.031 112.915 192.758 117.494 190.834C118.562 190.387 117.681 190.548 118.62 190.15C119.556 189.755 118.599 190.389 119.665 189.93C126.294 187.071 131.355 184.511 137.65 182.423C137.919 182.231 137.887 182.181 138.348 181.901C143.515 180.228 152.892 175.637 156.473 174.046C162.074 171.557 163.637 171.236 167.718 169.458C173.116 167.107 181.035 163.138 177.778 165.576C181.514 164.044 185.103 162.55 188.829 160.889C189.244 160.704 188.858 160.592 189.024 160.517C190.071 160.039 190.504 160.102 191.225 159.811C193.18 159.023 189.903 160.103 192.704 159.011C194.182 158.436 195.088 158.269 199.149 156.572C223.632 146.337 250.175 135.138 275.252 124.595C276.974 123.871 275.934 124.571 278.088 123.651C280.647 122.559 283.883 121.138 287.294 119.634L298.548 114.96L286.593 112.479C279.537 111.174 271.775 109.757 267.257 108.796C260.393 107.337 262.016 107.305 257.743 106.281C256.918 106.083 257.558 106.42 256.806 106.27C251.747 105.256 245.656 104.335 241.551 103.545C238.836 103.023 239.117 102.755 237.243 102.349C234.45 101.744 231.504 101.472 230.008 101.177C222.976 99.787 218.199 98.5464 211.614 97.3367C211.885 97.3203 212.067 97.2912 212.298 97.2678C204.531 95.693 196.773 94.1202 189.005 92.5453C189.384 92.5572 189.751 92.5661 190.13 92.577C181.012 90.7507 181.912 91.6444 183.008 90.3692C182.355 90.1832 181.665 89.981 181.041 89.8051C181.147 90.5988 175.525 90.0156 168.473 88.7718C167.955 88.6809 164.651 87.2533 164.853 88.1838C163.995 87.7911 163.488 87.5375 162.764 87.1984C161.228 87.1539 159.672 87.1023 158.136 87.0568C157.343 86.8546 156.538 86.6515 155.745 86.4494C155.66 86.2579 155.787 86.1028 155.563 85.886C151.849 85.101 144.178 83.7498 141.243 83.1283C133.953 81.5834 126.612 79.6129 120.834 78.9419C118.078 78.3271 120.892 78.5597 116.769 77.761C116.27 77.8324 115.801 77.9024 115.281 77.9748C112.07 76.5453 111.276 76.8537 106.636 76.0678C103.499 75.5369 101.495 74.9385 98.5206 74.3679C97.7668 74.2235 97.8287 74.4633 97.3158 74.3511C95.5974 73.9767 90.7428 72.6726 89.528 72.4161C78.5241 70.0863 69.0498 68.1864 58.5374 66.1228C57.408 65.9006 58.9142 65.9841 57.7449 65.7548C55.8639 65.3856 56.9014 65.9419 55.8101 65.7359C52.7664 65.1595 52.8145 64.8061 48.585 63.9233C36.3996 61.3801 22.5661 58.7568 9.53989 56.1641L0.000366211 54.1777L6.12137 61.7938C7.32343 63.2627 8.51318 64.7207 9.68524 66.163C9.97763 66.5239 9.79816 66.6336 10.1143 67.0272C12.1778 69.5909 14.4936 72.002 16.3719 74.3259C19.4893 78.181 21.607 81.2607 24.6903 85.0655C30.7161 92.5031 36.2158 99.0545 42.4189 106.699C47.4963 112.956 51.8794 118.411 57.4413 125.276C81.7358 155.262 106.009 186.28 130.739 216.251C131.368 217.014 131.258 216.585 131.442 216.824C133.185 219.103 133.153 219.458 134.199 219.923C136.419 222.826 136.84 223.968 139.639 227.378C141.13 229.196 140.496 227.451 142.757 230.738C144.799 233.707 142.046 230.836 149.033 238.923C149.218 239.137 150.381 239.986 151.704 241.772C153.035 243.566 151.203 241.725 154.523 245.95C162.316 255.867 172.611 268.07 181.763 279.524C182.337 280.242 187.753 287.242 188.782 288.657C190.772 291.395 190.114 291.02 192.826 294.474C194.921 297.143 196.924 299.122 199.387 302.26C199.673 302.626 199.914 303.432 201.834 305.735ZM148.998 172.147C148.113 172.178 146.288 171.69 141.806 173.949C141.382 174.163 144.051 173.906 141.55 175.091C144.078 174.122 146.519 173.129 148.998 172.148C148.998 172.148 148.998 172.148 148.998 172.147ZM221.217 317.961C218.814 315.087 216.403 312.202 214 309.327C215.519 311.424 217.04 313.523 218.551 315.613C219.442 316.398 220.326 317.176 221.217 317.961ZM137.691 87.8017C137.688 87.801 137.684 87.8002 137.681 87.7995C141.509 88.7336 145.34 89.6683 149.168 90.6023C148.785 90.412 148.4 90.221 148.016 90.0307C145.005 89.2392 141.991 88.4476 138.989 87.6581C138.557 87.7061 138.123 87.7537 137.691 87.8017ZM107.441 80.4381C104.951 80.0627 105.51 80.4013 104.112 80.3344C104.112 80.334 104.112 80.3336 104.112 80.3332C103.743 80.3148 102.067 80.0223 101.422 79.899C101.687 79.8126 102.021 79.7421 102.305 79.6608C96.6241 78.1604 85.1464 77.0249 99.604 80.4646C99.4211 80.2498 99.2478 80.0379 99.065 79.8231C106.287 81.3478 114.425 82.625 107.441 80.4381ZM94.065 194.622C88.0337 196.532 86.1239 197.203 79.2249 200.516C80.283 200.248 81.3413 199.979 82.3995 199.711C83.5 199.071 84.5925 198.436 85.693 197.797C85.6963 197.796 85.6996 197.794 85.7029 197.793C86.0026 197.855 86.303 197.916 86.5933 197.982C89.0803 196.864 91.5779 195.741 94.065 194.622ZM98.0781 168.004C100.067 168.653 99.2345 168.675 96.2764 164.616C95.2524 163.211 96.4724 164.401 95.818 163.54C92.2863 158.893 91.4007 159.01 91.9124 160.271C93.9698 162.854 96.0505 165.461 98.0714 167.996C98.0736 167.999 98.0759 168.001 98.0781 168.004ZM193.177 285.783C193.179 285.786 193.181 285.788 193.183 285.791C193.494 285.734 192.072 283.86 193.946 285.756C192.674 284.188 191.403 282.621 190.125 281.046C190.48 281.525 190.843 282.012 191.197 282.491C190.793 282.142 190.386 281.794 189.982 281.446C189.778 280.688 189.215 280.287 187.798 278.707C188.431 278.948 189.063 279.186 189.696 279.427C188.067 277.577 186.432 275.72 184.802 273.87C184.717 273.9 184.63 273.93 184.545 273.961C184.045 273.17 183.553 272.386 183.054 271.595C182.815 271.464 182.583 271.339 182.345 271.207C181.7 270.288 181.054 269.367 180.41 268.447C180.002 268.338 181.473 270.324 178.767 266.883C179.414 268.086 180.06 269.288 180.714 270.499C184.868 275.594 189.022 280.689 193.177 285.783ZM69.6261 132.323C74.1458 137.979 73.0022 136.281 72.3846 134.624C71.4675 133.86 70.5431 133.087 69.6261 132.323ZM281.233 116.198C282.642 116.764 284.056 117.33 285.487 117.895L285.157 114.536C284.549 114.674 283.938 114.813 283.324 114.955C279.292 116.412 275.613 118.712 278.689 117.72C280.951 116.99 283.172 115.996 285.388 115.087L285.606 117.311C284.113 116.994 282.641 116.65 281.233 116.198ZM199.627 151.07C204.389 148.881 199.667 150.365 198.475 150.576C197.304 151.531 195.426 152.277 192.451 153.577C195.273 152.425 198.84 151.432 199.627 151.071C199.627 151.071 199.627 151.07 199.627 151.07ZM198.555 99.7527C196.501 99.3214 194.477 98.7985 192.612 98.5506C193.093 99.0236 196.838 99.4477 194.099 99.4436C195.412 99.7214 196.728 99.9992 198.031 100.276C197.246 99.8856 198.396 99.9484 198.55 99.7528C198.552 99.7528 198.554 99.7527 198.555 99.7527ZM25.8114 77.5444C22.8806 74.6167 22.5337 73.893 20.1555 70.4786C19.5125 70.247 22.1663 74.4651 24.016 76.956C24.6119 77.149 25.2092 77.3435 25.8114 77.5444ZM198.394 196.742C198.683 195.694 197.584 188.479 196.877 184.92C196.88 185.357 196.881 185.796 196.883 186.233C197.386 189.731 197.891 193.244 198.394 196.742ZM191.039 154.202C191.535 153.98 192.006 153.772 192.451 153.577C191.951 153.781 191.473 153.99 191.039 154.202ZM93.2577 147.069C92.0446 148.368 94.422 143.82 91.5294 149.339C91.529 149.339 91.5287 149.339 91.5283 149.339C89.6149 152.989 89.1969 153.797 87.3643 157.145C88.5114 156.212 92.4583 149.548 87.3519 158.92C87.2837 159.043 87.1364 158.64 86.3436 160.15C86.099 160.616 85.5104 162.217 84.3287 164.491C83.9466 165.226 80.9839 170.698 85.1248 163.297C85.3342 163.703 85.8929 163.493 86.2056 163.691C87.9139 160.853 88.5038 158.268 90.2278 155.22C92.7892 150.694 94.7382 148.751 94.362 147.396C92.0172 151.095 88.3503 157.647 88.3921 158.792C86.3354 162.489 85.3174 163.311 86.7704 160.216C94.1636 147.61 88.0949 156.361 94.6739 145.382C94.8679 145.317 95.2538 144.93 95.3275 145.063C96.8093 141.418 93.6909 146.606 93.2577 147.069ZM79.2758 174.255C80.7609 172.193 82.2439 170.139 83.7249 168.086C83.311 167.855 82.2636 168.858 80.0903 172.201C79.8209 172.883 79.5461 173.574 79.2758 174.255ZM173.34 34.8423C173.143 35.2422 173.063 36.2363 172.933 36.9731C173.27 37.6963 176.357 55.6091 175.102 46.4453C174.919 45.1144 173.171 37.099 173.34 34.8423ZM43.5142 100.016C42.0326 98.4615 40.5561 96.9137 39.0808 95.367C41.0599 97.9844 43.0384 100.606 45.0159 103.225C44.5133 102.153 44.0168 101.088 43.5142 100.016ZM257.664 127.427C258.494 127.069 255.588 127.902 258.895 126.577C256.358 127.394 253.99 128.178 251.514 128.985C250.862 129.44 250.202 129.897 249.55 130.353C248.949 130.487 248.338 130.627 247.738 130.762C248.167 130.847 248.558 130.942 249.008 131.023C252.838 128.85 253.992 129.01 257.664 127.427ZM188.279 95.7771C187.403 96.1398 193.543 97.716 187.423 96.5528C188.511 97.1309 190.336 97.6903 193.901 98.4501C194.501 98.4365 195.099 98.4236 195.699 98.41C195.707 98.7758 196.599 99.0935 198.555 99.7527C198.557 99.7526 198.559 99.7526 198.561 99.7525C203.985 100.887 203.685 100.704 205.108 100.396C199.293 99.5462 199.229 98.9859 195.375 97.8735C192.728 97.1092 189.195 96.4889 188.279 95.7771ZM170.275 15.7207C170.491 19.8878 169.488 16.2783 171.125 23.4702C171.162 22.9835 171.198 22.495 171.235 22.0083C170.916 19.9123 170.596 17.8164 170.275 15.7207ZM167.855 93.4627C168.485 92.7526 172.439 92.9075 172.825 94.3507C169.041 93.8556 171.014 93.4857 167.855 93.4627ZM201.772 151.566C208.508 148.702 206.873 148.381 203.919 149.116C203.556 149.452 203.193 149.787 202.839 150.117C201.627 150.542 200.414 150.967 199.202 151.393C200.058 151.45 200.916 151.508 201.772 151.566ZM41.5976 66.7551C46.9611 68.4494 35.6159 65.8665 39.3713 67.0074C42.3697 67.9187 46.5165 68.1621 45.0671 67.488C44.0105 67.2616 42.8337 67.0139 41.6082 66.7573C41.6046 66.7565 41.6012 66.7558 41.5976 66.7551ZM73.2803 73.3971C72.2549 73.8276 73.5888 73.9135 69.2811 72.9186C68.0508 72.6346 58.177 70.8583 62.4064 71.1919C65.9177 71.909 69.6293 72.6578 73.2803 73.3971ZM123.378 183.42C123.421 183.698 130.776 181.266 131.632 180.745C131.632 180.745 131.633 180.745 131.633 180.746C133.943 179.335 126.407 182.429 129.449 180.546C122.423 184.026 119.802 183.829 120.913 185.069C125.191 183.352 123.053 183.896 123.378 183.42ZM214.856 291.148C214.857 291.152 214.857 291.155 214.858 291.159C214.763 290.649 213.69 286.493 213.635 287.028C214.568 292.083 214.683 291.137 215.013 295.93C215.193 296.166 215.362 296.367 215.546 296.623C215.327 294.736 215.325 293.67 214.856 291.148ZM176.999 54.1572C176.77 52.2816 175.932 48.9264 175.608 46.8C175.571 53.7395 177.915 61.6489 176.999 54.1572ZM148.643 230.742C148.64 230.737 148.637 230.733 148.634 230.729C148.634 230.73 148.635 230.732 148.636 230.734C148.638 230.737 148.641 230.739 148.643 230.742ZM121.285 99.5809C121.339 99.3323 121.35 99.1809 121.325 99.1104C121.321 99.1079 121.316 99.1053 121.312 99.1027C121.308 99.2512 121.3 99.4077 121.285 99.5809ZM108.542 189.547C105.723 191.141 115.841 187.558 118.981 186.085C118.691 186.018 118.595 185.888 117.997 185.922C115.591 187.418 109.011 189.281 108.542 189.547ZM234.3 106.352C242.602 108.037 232.101 104.357 231.416 105.442C231.428 105.468 234.086 106.306 234.3 106.352ZM170.221 163.873C172.387 163.459 168.433 165.247 174.8 162.494C175.127 162.229 175.453 161.964 175.78 161.699C173.927 162.424 172.073 163.149 170.221 163.873ZM283.532 118.515C273.6 122.402 264.022 125.93 269.942 122.088C270.702 121.814 271.472 121.533 272.232 121.259C272.58 121.777 275.197 120.317 279.21 118.615C279.877 118.599 282.128 117.716 282.626 117.732C283.59 117.761 281.136 119.093 283.532 118.515ZM112.101 187.515C112.074 187.316 112.05 187.119 112.023 186.921C111.053 185.536 110.08 184.149 109.11 182.764C109.126 183.102 109.142 183.44 109.157 183.778C110.138 185.023 111.113 186.262 112.094 187.507C112.096 187.51 112.099 187.513 112.101 187.515ZM73.0805 182.695C74.5572 182.411 72.7215 185.263 68.8653 190.973C70.2683 188.217 71.6775 185.451 73.0805 182.695ZM121.106 81.6948C120.823 81.9706 120.544 82.2461 120.251 82.5199C116.748 81.4569 117.486 81.2256 119.284 81.1513C119.895 81.3332 120.495 81.5129 121.106 81.6948ZM69.6899 71.0517C71.185 71.2875 70.3762 71.3916 70.5322 71.4181C74.3095 72.048 74.8618 72.0373 79.4224 73.1715C79.9723 73.3546 80.512 73.5392 81.0615 73.7243C78.7977 73.961 77.3281 73.2799 72.747 72.755C73.6052 72.6905 74.4602 72.625 75.3186 72.5595C72.8064 72.0971 70.3045 71.6361 67.7922 71.1737C67.5099 71.0421 67.2269 70.911 66.9446 70.7794C67.8533 70.87 68.7928 70.9551 69.6899 71.0517ZM124.606 202.481C126.19 204.394 127.783 206.315 129.367 208.229C129.293 208.405 129.216 208.58 129.142 208.757C127.632 206.667 126.116 204.57 124.606 202.481ZM98.4107 138.428C98.559 138.285 98.7052 138.147 98.8419 138.028C98.7686 138.006 98.6128 138.165 98.4107 138.428ZM216.809 297.472C217.372 300.235 217.939 304.255 218.454 307.301C217.997 307.129 216.868 299.357 216.177 296.675C216.182 296.225 216.571 296.305 216.809 297.472ZM211.097 147.618C211.831 147.54 212.563 147.461 213.287 147.386C214.852 146.706 216.42 146.022 217.995 145.338C218.108 145.478 218.221 145.62 218.335 145.759C211.274 148.475 213.074 148.261 209.812 150.161C210.244 149.312 210.665 148.468 211.097 147.618ZM173.5 264.584C170.153 260.266 169.103 258.623 171.444 260.689C172.565 262.262 173.693 263.844 174.814 265.417C174.374 265.137 173.934 264.857 173.5 264.584ZM146.589 51.3853C148.988 47.4891 148.417 47.0834 150.936 43.3723C149.881 45.5236 148.827 47.6754 147.777 49.8178C147.384 50.3356 146.982 50.8675 146.589 51.3853ZM96.0195 198.326C94.3344 199.295 90.5647 199.627 85.8925 202.506C84.6029 202.771 83.7624 202.861 82.6422 203.061C82.1505 203.56 81.5792 204.096 81.1147 204.581C81.1114 204.582 81.1081 204.584 81.1048 204.585C76.5342 206.402 79.3438 204.857 79.1306 204.636C79.0366 204.546 75.7473 206.14 76.6992 205.46C78.3437 204.29 85.228 201.682 85.0374 201.175C82.7218 202.337 78.0092 204.152 79.2466 203.242C80.602 202.244 85.246 201.018 87.9128 199.544C84.2436 202.02 92.4093 198.308 93.0931 197.301C98.1422 195.739 93.763 197.8 88.7809 199.861C92.0136 199.059 87.4385 200.678 86.8661 201.376C90.0955 200.3 100.756 195.602 96.0195 198.326ZM245.602 106.435C249.158 107.194 254.781 108.046 257.134 108.965C258.505 109.501 252.887 108.551 256.656 109.722C253.192 108.976 252.431 108.663 253.094 108.447C252.311 108.245 251.518 108.042 250.735 107.841C250.356 107.832 249.967 107.82 249.588 107.811C249.201 107.588 248.811 107.364 248.434 107.143C247.588 106.998 246.732 106.852 245.886 106.709C245.802 106.619 245.646 106.524 245.602 106.435ZM183.94 92.8967C183.784 91.8993 183.63 90.9116 183.475 89.9141C183.575 90.0106 183.683 90.1275 183.788 90.2398C183.87 90.3194 183.952 90.3988 184.033 90.4784C183.7 89.9393 182.538 85.2551 182.474 83.2136C182.441 82.1872 183.266 84.4023 182.661 80.1263C183.133 83.2197 183.531 86.0919 183.974 89.0983C184.066 88.8073 184.162 88.5267 184.255 88.2356C184.255 88.2374 184.256 88.2392 184.256 88.2409C184.447 89.2326 184.641 90.2359 184.832 91.2276C184.535 91.7866 184.237 92.3377 183.94 92.8967ZM124.135 81.6537C127.455 82.6074 128.556 82.9755 126.876 83.0781C126.872 83.0775 126.869 83.077 126.865 83.0765C125.648 82.6304 124.429 82.1841 123.212 81.738C123.516 81.7094 123.82 81.6803 124.135 81.6537ZM111.617 111.832C116.635 106.251 107.707 120.147 108.745 117.131C108.791 116.995 111.442 112.521 111.617 111.832ZM200.728 152.556C202.587 151.792 204.449 151.025 206.317 150.257C205.967 150.625 205.607 150.996 205.257 151.363C203.749 151.761 202.237 152.159 200.728 152.556ZM157.945 246.577C156.26 245.221 152.715 241.106 151.43 238.733C152.352 239.779 153.274 240.826 154.197 241.872C152.583 239.789 150.992 237.726 149.363 235.629C149.767 235.12 151.406 237.729 154.44 241.197C154.911 241.733 158.392 244.779 158.921 246.375C159.026 246.698 155.909 242.983 157.755 245.825C156.806 244.697 156.01 243.705 155.121 242.633C154.94 242.649 154.76 242.667 154.572 242.676C155.699 243.979 156.819 245.274 157.945 246.577ZM266.332 110.719C271.232 111.684 271.786 112.056 272.715 112.703C270.449 112.188 268.183 111.675 265.918 111.16C266.061 111.014 266.189 110.866 266.332 110.719ZM129.735 211.982C127.957 209.903 128.977 210.584 128.339 209.685C125.923 206.288 123.935 204.248 121.475 200.952C121.592 201.208 121.699 201.444 121.811 201.691C121.809 201.688 121.806 201.685 121.804 201.683C109.319 186.757 116.394 194.178 123.617 203.309C123.894 203.436 124.165 203.554 124.441 203.681C127.536 207.879 130.383 211.756 129.735 211.982ZM79.8483 168.583C79.8825 168.348 78.4909 169.733 80.4396 166.763C82.4957 164.697 79.9098 168.524 79.6122 169.678C80.1459 168.878 80.6886 168.057 81.2174 167.265C78.6145 172.381 78.0428 173.02 78.5599 170.915C78.5989 170.766 79.8136 168.819 79.8483 168.583ZM97.8922 135.488C99.2891 135.366 95.3036 141.431 95.1173 141.026C95.592 140.147 96.1423 139.564 96.5834 138.597C97.0294 137.62 96.9263 137.249 97.8922 135.488ZM169.853 166.631C169.66 166.718 167.883 167.991 167.931 167.557C170.013 165.705 175.135 164.189 174.4 164.839C172.774 165.503 171.641 165.831 169.854 166.632C169.854 166.632 169.854 166.631 169.853 166.631ZM178.467 272.347C178.378 272.289 174.881 268.282 174.59 267.635C174.394 267.066 174.388 266.71 174.285 266.247C175.976 268.646 179.823 273.158 178.46 272.339C178.462 272.341 178.465 272.344 178.467 272.347Z" fill="#D2E8FF"/>
</svg>
