<svg width="137" height="48" viewBox="0 0 137 48" fill="none" xmlns="http://www.w3.org/2000/svg">
<rect width="136" height="48" rx="4" fill="#F8F4EB"/>
<rect x="1.5" y="1.5" width="133.43" height="45" rx="2.5" stroke="#5884E7" stroke-width="3"/>
<path d="M87.6068 30.4252V18.5753H90.9597L93.4186 26.971L95.8774 18.5753H99.1807V30.4252H96.7467V22.7972L94.4369 30.4252H92.3506L90.0408 22.7972V30.4252H87.6068Z" fill="#5884E7"/>
<path d="M80.2566 30.2337C75.935 30.2337 74.1716 27.4751 74.1716 24.1168C74.1716 20.4947 76.2579 18 79.586 18C82.8645 18 84.6279 20.3268 84.6279 23.781C84.6279 24.2368 84.6031 24.6206 84.5782 25.0044H76.8788C77.0278 26.7555 78.22 27.8589 80.2566 27.8589C81.6475 27.8589 82.7155 27.5711 83.7586 27.0194V29.586C83.1625 29.8259 81.8958 30.2337 80.2566 30.2337ZM76.9036 22.8935H82.02C81.9207 21.1424 81.0266 20.2069 79.586 20.2069C78.0461 20.2069 77.1272 21.1664 76.9036 22.8935Z" fill="#5884E7"/>
<path d="M64.566 36L60.5657 18.6318H63.254L63.468 19.3558C64.2628 18.7801 64.6447 18.4779 66.0481 18.4779C68.2513 18.4779 71.3276 19.6549 71.5311 24.2126C71.5311 28.0506 69.0599 30.5776 65.9552 30.5776L67.298 36H64.566ZM65.5641 28.1309C67.7485 28.511 69.2472 26.4772 68.949 23.8707C68.4522 19.5289 64.8388 20.6411 64.0739 21.4144L65.5641 28.1309Z" fill="#5884E7"/>
<path d="M48.4189 30.2341V18.3842H53.4111C56.5654 18.3842 58.1301 19.5596 58.1301 21.7904C58.1301 22.7259 57.6582 23.6615 56.6647 24.1892C57.9066 24.7169 58.4281 25.6764 58.4281 26.7319C58.4281 29.1306 56.6896 30.2341 53.4111 30.2341H48.4189ZM53.3863 28.0992C54.9261 28.0992 55.6961 27.7394 55.6961 26.6839C55.6961 25.6524 54.9261 25.2926 53.3863 25.2926H51.0764V28.0992H53.3863ZM53.3863 23.2057C54.7523 23.2057 55.398 22.8699 55.398 21.8624C55.398 20.8549 54.7523 20.5431 53.3863 20.5431H51.0764V23.2057H53.3863Z" fill="#5884E7"/>
<path d="M40.1467 30.4248C36.8682 30.4248 34.6577 27.9541 34.6577 24.308C34.6577 20.6619 36.8682 18.1912 40.1467 18.1912C43.4251 18.1912 45.6356 20.6619 45.6356 24.308C45.6356 27.9541 43.4251 30.4248 40.1467 30.4248ZM40.1467 28.0261C41.9598 28.0261 42.9036 26.4189 42.9036 24.308C42.9036 22.1971 41.9598 20.6139 40.1467 20.6139C38.3336 20.6139 37.3898 22.1971 37.3898 24.308C37.3898 26.4189 38.3336 28.0261 40.1467 28.0261Z" fill="#5884E7"/>
<path d="M25.1736 30.3836V25.3978H29.5727L30.875 22.6952V18.5547L22.5742 18.5751V30.3836H25.1736ZM25.1736 20.6744H28.2833V23.2985H25.1736V20.6744Z" fill="#5884E7"/>
<path d="M24.0322 30.3576C25.0387 30.3895 26.4281 30.4683 27.7291 30.3937C28.989 30.3215 30.4423 30.0982 31.4616 29.3397C32.5604 28.5221 32.994 27.1504 32.7301 25.9309C32.4512 24.642 31.4067 23.5427 29.6942 23.2809L29.3546 25.3543C30.1767 25.48 30.4301 25.9496 30.5241 26.384C30.6331 26.8878 30.4607 27.3982 30.0808 27.6808C29.6215 28.0226 28.8117 28.2286 27.6002 28.298C26.4298 28.3651 25.1931 28.2939 24.1033 28.2593L24.0322 30.3576Z" fill="#5884E7"/>
<path d="M110.813 30.3938V25.408L104.93 25.409L103.728 23.5788V18.6366L113.398 18.5853V30.3938H110.813ZM110.813 20.6846L106.293 20.7115V23.3356L110.813 23.3087V20.6846Z" fill="#5884E7"/>
<path d="M102.822 30.4252C102.822 30.4252 102.82 27.205 103.083 25.9855C103.362 24.6965 104.602 23.5973 106.314 23.3355L106.706 25.4087C106.074 25.4347 105.639 26.0702 105.545 26.5045C105.436 27.0084 105.412 30.4252 105.412 30.4252H102.822Z" fill="#5884E7"/>
</svg>
