<svg width="115" height="40" viewBox="0 0 115 40" fill="none" xmlns="http://www.w3.org/2000/svg">
<rect x="1.5" y="1.5" width="112" height="37" rx="2.5" fill="#F8F4EB"/>
<rect x="1.5" y="1.5" width="112" height="37" rx="2.5" stroke="#5884E7" stroke-width="3"/>
<path d="M74.9984 26.0446V15.5114H77.9887L80.1815 22.9742L82.3744 15.5114H85.3204V26.0446H83.1497V19.2641L81.0897 26.0446H79.2291L77.1691 19.2641V26.0446H74.9984Z" fill="#5884E7"/>
<path d="M68.4432 25.8744C64.5891 25.8744 63.0164 23.4223 63.0164 20.4372C63.0164 17.2175 64.877 15 67.8452 15C70.769 15 72.3417 17.0683 72.3417 20.1387C72.3417 20.5438 72.3196 20.885 72.2974 21.2261H65.4308C65.5637 22.7827 66.6269 23.7635 68.4432 23.7635C69.6837 23.7635 70.6361 23.5076 71.5664 23.0172V25.2987C71.0348 25.5119 69.9052 25.8744 68.4432 25.8744ZM65.4529 19.3498H70.0159C69.9273 17.7932 69.1299 16.9617 67.8452 16.9617C66.4718 16.9617 65.6523 17.8145 65.4529 19.3498Z" fill="#5884E7"/>
<path d="M54.4498 31L50.8821 15.5616H53.2797L53.4705 16.2051C54.1793 15.6934 54.5199 15.4248 55.7716 15.4248C57.7365 15.4248 60.48 16.471 60.6615 20.5223C60.6615 23.9339 58.4576 26.1801 55.6888 26.1801L56.8863 31H54.4498ZM55.3399 24.0052C57.2881 24.3431 58.6246 22.5353 58.3587 20.2184C57.9157 16.359 54.6931 17.3477 54.0109 18.035L55.3399 24.0052Z" fill="#5884E7"/>
<path d="M40.0492 25.8747V15.3415H44.5014C47.3145 15.3415 48.71 16.3863 48.71 18.3693C48.71 19.2008 48.2892 20.0324 47.4031 20.5015C48.5107 20.9706 48.9758 21.8235 48.9758 22.7617C48.9758 24.8939 47.4253 25.8747 44.5014 25.8747H40.0492ZM44.4793 23.977C45.8526 23.977 46.5393 23.6572 46.5393 22.719C46.5393 21.8022 45.8526 21.4823 44.4793 21.4823H42.4193V23.977H44.4793ZM44.4793 19.6273C45.6976 19.6273 46.2735 19.3288 46.2735 18.4332C46.2735 17.5377 45.6976 17.2605 44.4793 17.2605H42.4193V19.6273H44.4793Z" fill="#5884E7"/>
<path d="M32.6717 26.0443C29.7479 26.0443 27.7765 23.8481 27.7765 20.6071C27.7765 17.3661 29.7479 15.1699 32.6717 15.1699C35.5956 15.1699 37.567 17.3661 37.567 20.6071C37.567 23.8481 35.5956 26.0443 32.6717 26.0443ZM32.6717 23.9121C34.2887 23.9121 35.1304 22.4835 35.1304 20.6071C35.1304 18.7307 34.2887 17.3235 32.6717 17.3235C31.0548 17.3235 30.213 18.7307 30.213 20.6071C30.213 22.4835 31.0548 23.9121 32.6717 23.9121Z" fill="#5884E7"/>
<path d="M19.3182 26.0077V21.5758H23.2415L24.4029 19.1735V15.4931L17 15.5112V26.0077H19.3182ZM19.3182 17.3772H22.0915V19.7098H19.3182V17.3772Z" fill="#5884E7"/>
<path d="M18.3003 25.9845C19.1979 26.0129 20.437 26.0829 21.5973 26.0166C22.7209 25.9525 24.017 25.754 24.9261 25.0798C25.906 24.353 26.2928 23.1337 26.0574 22.0497C25.8086 20.904 24.8771 19.9269 23.3498 19.6942L23.0469 21.5372C23.7802 21.6489 24.0061 22.0663 24.09 22.4524C24.1872 22.9003 24.0334 23.354 23.6947 23.6052C23.2851 23.909 22.5628 24.0921 21.4823 24.1538C20.4385 24.2134 19.3356 24.1501 18.3637 24.1194L18.3003 25.9845Z" fill="#5884E7"/>
<path d="M95.6944 26.0167V21.5849L90.4482 21.5858L89.3758 19.959V15.5659L98 15.5203V26.0167H95.6944ZM95.6944 17.3863L91.6636 17.4102V19.7428L95.6944 19.7188V17.3863Z" fill="#5884E7"/>
<path d="M88.5675 26.0446C88.5675 26.0446 88.5657 23.1822 88.8011 22.0982C89.0498 20.9525 90.1552 19.9754 91.6825 19.7427L92.0317 21.5855C91.4678 21.6087 91.0803 22.1735 90.9965 22.5596C90.8992 23.0074 90.878 26.0446 90.878 26.0446H88.5675Z" fill="#5884E7"/>
</svg>
