<svg width="48" height="48" viewBox="0 0 48 48" fill="none" xmlns="http://www.w3.org/2000/svg">
<path d="M43.5625 24C43.5625 29.3043 41.4554 34.3914 37.7046 38.1421C33.9539 41.8929 28.8668 44 23.5625 44C18.2582 44 13.1711 41.8929 9.42036 38.1421C5.66964 34.3914 3.5625 29.3043 3.5625 24C3.5625 18.6957 5.66964 13.6086 9.42036 9.85786C13.1711 6.10714 18.2582 4 23.5625 4C28.8668 4 33.9539 6.10714 37.7046 9.85786C41.4554 13.6086 43.5625 18.6957 43.5625 24ZM24.28 18.765C22.335 19.575 18.445 21.25 12.615 23.79C11.67 24.165 11.1725 24.535 11.1275 24.895C11.0525 25.5025 11.815 25.7425 12.8525 26.07L13.29 26.2075C14.31 26.54 15.685 26.9275 16.3975 26.9425C17.0475 26.9575 17.77 26.6925 18.5675 26.1425C24.015 22.465 26.8275 20.6075 27.0025 20.5675C27.1275 20.5375 27.3025 20.5025 27.4175 20.6075C27.535 20.71 27.5225 20.9075 27.51 20.96C27.435 21.2825 24.4425 24.0625 22.895 25.5025C22.4125 25.9525 22.07 26.27 22 26.3425C21.8459 26.5 21.6892 26.6551 21.53 26.8075C20.58 27.7225 19.87 28.4075 21.5675 29.5275C22.385 30.0675 23.04 30.51 23.6925 30.955C24.4025 31.44 25.1125 31.9225 26.0325 32.5275C26.265 32.6775 26.49 32.84 26.7075 32.995C27.535 33.585 28.2825 34.115 29.2 34.03C29.735 33.98 30.2875 33.48 30.5675 31.98C31.23 28.4375 32.5325 20.765 32.8325 17.6025C32.8508 17.3396 32.8399 17.0755 32.8 16.815C32.7765 16.6048 32.6747 16.4111 32.515 16.2725C32.2875 16.1155 32.0163 16.0341 31.74 16.04C30.99 16.0525 29.8325 16.455 24.28 18.765Z" fill="#0B1956"/>
</svg>
