<svg width="48" height="48" viewBox="0 0 48 48" fill="none" xmlns="http://www.w3.org/2000/svg">
<path d="M30.1459 4H17.875C6.66662 4 4 6.66662 4 17.8541V30.125C4 41.3333 6.64588 44 17.8541 44H30.125C41.3334 44 44 41.3541 44 30.1458V17.875C44 6.66662 41.3541 4 30.1459 4ZM36.2916 32.5416H33.375C32.2709 32.5416 31.9375 31.6458 29.9584 29.6666C28.2291 28 27.5 27.7916 27.0625 27.7916C26.4584 27.7916 26.2916 27.9583 26.2916 28.7916V31.4166C26.2916 32.125 26.0625 32.5416 24.2084 32.5416C22.4092 32.4207 20.6644 31.8742 19.1178 30.9469C17.5711 30.0197 16.2669 28.7383 15.3125 27.2083C13.0467 24.3881 11.4702 21.0781 10.7084 17.5416C10.7084 17.1041 10.875 16.7083 11.7084 16.7083H14.625C15.375 16.7083 15.6459 17.0416 15.9375 17.8125C17.3541 21.9791 19.7709 25.6041 20.75 25.6041C21.125 25.6041 21.2916 25.4375 21.2916 24.5V20.2083C21.1666 18.25 20.125 18.0833 20.125 17.375C20.1387 17.1881 20.2247 17.014 20.3647 16.8895C20.5048 16.765 20.6878 16.7 20.875 16.7083H25.4584C26.0834 16.7083 26.2916 17.0208 26.2916 17.7708V23.5625C26.2916 24.1875 26.5625 24.3958 26.75 24.3958C27.125 24.3958 27.4166 24.1875 28.1041 23.5C29.5815 21.6984 30.7886 19.6912 31.6875 17.5416C31.7792 17.283 31.9532 17.0615 32.1826 16.911C32.4121 16.7605 32.6846 16.6893 32.9584 16.7083H35.875C36.75 16.7083 36.9375 17.1458 36.75 17.7708C35.6887 20.1474 34.3757 22.4034 32.8334 24.5C32.5209 24.9791 32.3959 25.2291 32.8334 25.7916C33.125 26.2291 34.1459 27.0833 34.8334 27.8958C35.8334 28.8932 36.6637 30.0473 37.2916 31.3125C37.5416 32.125 37.125 32.5416 36.2916 32.5416Z" fill="#0B1956"/>
</svg>
